<svg xmlns="http://www.w3.org/2000/svg" width="105" height="89.457" viewBox="0 0 105 89.457">
  <g id="Grupo_87104" data-name="Grupo 87104" transform="translate(-247 -4349.031)">
    <rect id="Rectángulo_32727" data-name="Rectángulo 32727" width="105" height="46" transform="translate(247 4392.487)" fill="#fde947"/>
    <g id="Grupo_87103" data-name="Grupo 87103" transform="translate(122.697 4305.771)">
      <g id="Grupo_87075" data-name="Grupo 87075" transform="translate(144.435 86.37)">
        <g id="Grupo_87074" data-name="Grupo 87074" style="isolation: isolate">
          <g id="Grupo_87071" data-name="Grupo 87071" transform="translate(0 24.225)">
            <path id="Trazado_146013" data-name="Trazado 146013" d="M144.435,64.815l.006,2.273,22.77,13.249-.007-2.273Z" transform="translate(-144.435 -64.815)" fill="#766654"/>
          </g>
          <g id="Grupo_87072" data-name="Grupo 87072" transform="translate(22.769 13.249)">
            <path id="Trazado_146014" data-name="Trazado 146014" d="M151.724,85.527l.007,2.273,41.96-24.225-.007-2.273Z" transform="translate(-151.724 -61.302)" fill="#52473a"/>
          </g>
          <g id="Grupo_87073" data-name="Grupo 87073">
            <path id="Trazado_146015" data-name="Trazado 146015" d="M144.435,81.286l22.77,13.25,41.96-24.226L186.395,57.06Z" transform="translate(-144.435 -57.06)" fill="#84725e"/>
          </g>
        </g>
      </g>
      <g id="Grupo_87076" data-name="Grupo 87076" transform="translate(203.213 64.758)">
        <rect id="Rectángulo_32730" data-name="Rectángulo 32730" width="3.436" height="33.933" transform="translate(0 0.992)" fill="#5e5243"/>
        <ellipse id="Elipse_4336" data-name="Elipse 4336" cx="1.718" cy="0.992" rx="1.718" ry="0.992" transform="translate(0 33.933)" fill="#5e5243"/>
        <ellipse id="Elipse_4337" data-name="Elipse 4337" cx="1.718" cy="0.992" rx="1.718" ry="0.992" fill="#9d9d9c"/>
      </g>
      <g id="Grupo_87077" data-name="Grupo 87077" transform="translate(162.147 71.84)">
        <path id="Trazado_146016" data-name="Trazado 146016" d="M159.311,52.409v29.4a4.6,4.6,0,1,1-9.206,0v-29.4Z" transform="translate(-150.105 -52.409)" fill="#dadada" opacity="0.5"/>
        <path id="Trazado_146017" data-name="Trazado 146017" d="M158.127,55.028v21.22a3.9,3.9,0,1,1-7.8,0V55.028Z" transform="translate(-149.627 -46.847)" fill="#ea4a49"/>
        <path id="Trazado_146018" data-name="Trazado 146018" d="M151.473,54.966c-1.524.881-1.524,2.305,0,3.183a6.082,6.082,0,0,0,5.514,0c1.521-.878,1.521-2.3,0-3.183A6.1,6.1,0,0,0,151.473,54.966Z" transform="translate(-149.627 -48.377)" fill="#ff6766"/>
        <path id="Trazado_146019" data-name="Trazado 146019" d="M153.285,82.554V52.409h1.49v29.4a3.667,3.667,0,0,1-2.977,3.6A4.131,4.131,0,0,0,153.285,82.554Z" transform="translate(-146.509 -52.409)" fill="#fff" opacity="0.5"/>
      </g>
      <g id="Grupo_87078" data-name="Grupo 87078" transform="translate(172.425 65.811)">
        <path id="Trazado_146020" data-name="Trazado 146020" d="M162.6,50.479v29.4a4.6,4.6,0,0,1-9.206,0v-29.4Z" transform="translate(-153.395 -50.479)" fill="#dadada" opacity="0.5"/>
        <path id="Trazado_146021" data-name="Trazado 146021" d="M161.417,53.1V74.32a3.9,3.9,0,1,1-7.8,0V53.1Z" transform="translate(-152.917 -44.919)" fill="#ea4a49"/>
        <path id="Trazado_146022" data-name="Trazado 146022" d="M154.763,53.037c-1.524.878-1.524,2.3,0,3.183a6.1,6.1,0,0,0,5.514,0c1.521-.881,1.521-2.305,0-3.183A6.082,6.082,0,0,0,154.763,53.037Z" transform="translate(-152.917 -46.449)" fill="#ff6766"/>
        <path id="Trazado_146023" data-name="Trazado 146023" d="M156.576,80.624V50.479h1.487v29.4a3.667,3.667,0,0,1-2.974,3.6A4.155,4.155,0,0,0,156.576,80.624Z" transform="translate(-149.797 -50.479)" fill="#fff" opacity="0.5"/>
      </g>
      <g id="Grupo_87079" data-name="Grupo 87079" transform="translate(182.702 59.979)">
        <path id="Trazado_146024" data-name="Trazado 146024" d="M165.891,48.612v29.4a4.6,4.6,0,1,1-9.206,0v-29.4Z" transform="translate(-156.685 -48.612)" fill="#dadada" opacity="0.5"/>
        <path id="Trazado_146025" data-name="Trazado 146025" d="M164.707,51.23V72.45a3.9,3.9,0,1,1-7.8,0V51.23Z" transform="translate(-156.207 -43.052)" fill="#ea4a49"/>
        <ellipse id="Elipse_4338" data-name="Elipse 4338" cx="3.899" cy="2.251" rx="3.899" ry="2.251" transform="translate(0.704 5.927)" fill="#ff6766"/>
        <path id="Trazado_146026" data-name="Trazado 146026" d="M159.866,78.754V48.612h1.49v29.4a3.667,3.667,0,0,1-2.977,3.6A4.143,4.143,0,0,0,159.866,78.754Z" transform="translate(-153.087 -48.612)" fill="#fff" opacity="0.5"/>
      </g>
      <g id="Grupo_87081" data-name="Grupo 87081" transform="translate(151.867 77.872)">
        <path id="Trazado_146027" data-name="Trazado 146027" d="M156.023,54.34v29.4a4.6,4.6,0,1,1-9.209,0V54.34Z" transform="translate(-146.814 -54.34)" fill="#dadada" opacity="0.5"/>
        <g id="Grupo_87080" data-name="Grupo 87080" transform="translate(0.706 14.749)">
          <path id="Trazado_146028" data-name="Trazado 146028" d="M154.837,59.782v12.4a3.9,3.9,0,1,1-7.8,0v-12.4Z" transform="translate(-147.04 -57.531)" fill="#3480a7"/>
          <path id="Trazado_146029" data-name="Trazado 146029" d="M148.183,59.722c-1.524.878-1.524,2.3,0,3.183a6.094,6.094,0,0,0,5.51,0c1.524-.881,1.524-2.305,0-3.183A6.075,6.075,0,0,0,148.183,59.722Z" transform="translate(-147.04 -59.061)" fill="#48b6ec"/>
        </g>
        <path id="Trazado_146030" data-name="Trazado 146030" d="M149.995,84.482V54.34h1.49v29.4a3.667,3.667,0,0,1-2.977,3.6A4.131,4.131,0,0,0,149.995,84.482Z" transform="translate(-143.216 -54.34)" fill="#fff" opacity="0.5"/>
      </g>
      <g id="Grupo_87082" data-name="Grupo 87082" transform="translate(172.359 77.935)">
        <path id="Trazado_146031" data-name="Trazado 146031" d="M162.58,54.36v29.4a4.6,4.6,0,0,1-9.206,0V54.36Z" transform="translate(-153.374 -54.36)" fill="#dadada" opacity="0.5"/>
        <path id="Trazado_146032" data-name="Trazado 146032" d="M161.4,56.978V78.2a3.9,3.9,0,0,1-7.8,0V56.978Z" transform="translate(-152.896 -48.8)" fill="#e2951c"/>
        <path id="Trazado_146033" data-name="Trazado 146033" d="M154.742,56.918c-1.524.878-1.524,2.3,0,3.183a6.1,6.1,0,0,0,5.514,0c1.521-.881,1.521-2.305,0-3.183A6.082,6.082,0,0,0,154.742,56.918Z" transform="translate(-152.896 -50.33)" fill="#fba620"/>
        <path id="Trazado_146034" data-name="Trazado 146034" d="M156.552,84.505V54.36h1.49v29.4a3.668,3.668,0,0,1-2.974,3.6A4.154,4.154,0,0,0,156.552,84.505Z" transform="translate(-149.776 -54.36)" fill="#fff" opacity="0.5"/>
      </g>
      <g id="Grupo_87084" data-name="Grupo 87084" transform="translate(162.082 83.964)">
        <path id="Trazado_146035" data-name="Trazado 146035" d="M159.29,56.29v29.4a4.6,4.6,0,0,1-9.206,0V56.29Z" transform="translate(-150.084 -56.29)" fill="#dadada" opacity="0.5"/>
        <g id="Grupo_87083" data-name="Grupo 87083" transform="translate(0.703 9.01)">
          <path id="Trazado_146036" data-name="Trazado 146036" d="M158.106,59.9v18.14a3.9,3.9,0,1,1-7.8,0V59.9Z" transform="translate(-150.309 -57.643)" fill="#e61615"/>
          <path id="Trazado_146037" data-name="Trazado 146037" d="M151.452,59.833c-1.524.881-1.524,2.305,0,3.183a6.082,6.082,0,0,0,5.514,0c1.521-.878,1.521-2.3,0-3.183A6.1,6.1,0,0,0,151.452,59.833Z" transform="translate(-150.309 -59.174)" fill="#fb2e2d"/>
        </g>
        <path id="Trazado_146038" data-name="Trazado 146038" d="M153.264,86.435V56.29h1.49v29.4a3.667,3.667,0,0,1-2.977,3.6A4.131,4.131,0,0,0,153.264,86.435Z" transform="translate(-146.488 -56.29)" fill="#fff" opacity="0.5"/>
      </g>
      <g id="Grupo_87086" data-name="Grupo 87086" transform="translate(182.637 71.906)">
        <path id="Trazado_146039" data-name="Trazado 146039" d="M165.87,52.43v29.4a4.6,4.6,0,1,1-9.206,0V52.43Z" transform="translate(-156.664 -52.43)" fill="#dadada" opacity="0.5"/>
        <g id="Grupo_87085" data-name="Grupo 87085" transform="translate(0.703 5.928)">
          <path id="Trazado_146040" data-name="Trazado 146040" d="M164.686,55.048v21.22a3.9,3.9,0,1,1-7.8,0V55.048Z" transform="translate(-156.889 -52.797)" fill="#3480a7"/>
          <ellipse id="Elipse_4339" data-name="Elipse 4339" cx="3.898" cy="2.251" rx="3.898" ry="2.251" transform="translate(0.001)" fill="#48b6ec"/>
        </g>
        <path id="Trazado_146041" data-name="Trazado 146041" d="M159.845,82.575V52.43h1.487v29.4a3.668,3.668,0,0,1-2.974,3.6A4.169,4.169,0,0,0,159.845,82.575Z" transform="translate(-153.066 -52.43)" fill="#fff" opacity="0.5"/>
      </g>
      <g id="Grupo_87087" data-name="Grupo 87087" transform="translate(165.719 86.113)">
        <rect id="Rectángulo_32731" data-name="Rectángulo 32731" width="3.437" height="33.933" transform="translate(0 0.993)" fill="#5e5243"/>
        <path id="Trazado_146042" data-name="Trazado 146042" d="M151.752,68.132a.74.74,0,0,0,0,1.4,2.68,2.68,0,0,0,2.427,0,.74.74,0,0,0,0-1.4A2.68,2.68,0,0,0,151.752,68.132Z" transform="translate(-151.248 -33.907)" fill="#5e5243"/>
        <path id="Trazado_146043" data-name="Trazado 146043" d="M151.752,57.269a.74.74,0,0,0,0,1.4,2.68,2.68,0,0,0,2.427,0,.74.74,0,0,0,0-1.4A2.68,2.68,0,0,0,151.752,57.269Z" transform="translate(-151.248 -56.978)" fill="#9d9d9c"/>
      </g>
      <g id="Grupo_87088" data-name="Grupo 87088" transform="translate(147.239 75.592)">
        <rect id="Rectángulo_32732" data-name="Rectángulo 32732" width="3.436" height="33.933" transform="translate(0 0.992)" fill="#5e5243"/>
        <ellipse id="Elipse_4340" data-name="Elipse 4340" cx="1.718" cy="0.992" rx="1.718" ry="0.992" transform="translate(0 33.933)" fill="#5e5243"/>
        <ellipse id="Elipse_4341" data-name="Elipse 4341" cx="1.718" cy="0.992" rx="1.718" ry="0.992" transform="translate(0)" fill="#9d9d9c"/>
      </g>
      <g id="Grupo_87089" data-name="Grupo 87089" transform="translate(192.914 66.07)">
        <path id="Trazado_146044" data-name="Trazado 146044" d="M169.16,50.562v29.4a4.6,4.6,0,0,1-9.206,0v-29.4Z" transform="translate(-159.954 -50.562)" fill="#dadada" opacity="0.5"/>
        <path id="Trazado_146045" data-name="Trazado 146045" d="M167.974,53.181V74.4a3.9,3.9,0,1,1-7.794,0V53.181Z" transform="translate(-159.474 -45)" fill="#e61615"/>
        <path id="Trazado_146046" data-name="Trazado 146046" d="M161.321,53.119c-1.521.881-1.521,2.305,0,3.183a6.1,6.1,0,0,0,5.514,0c1.521-.878,1.521-2.3,0-3.183A6.1,6.1,0,0,0,161.321,53.119Z" transform="translate(-159.475 -46.53)" fill="#fb2e2d"/>
        <path id="Trazado_146047" data-name="Trazado 146047" d="M163.135,80.707V50.562h1.49v29.4a3.67,3.67,0,0,1-2.977,3.6A4.143,4.143,0,0,0,163.135,80.707Z" transform="translate(-156.356 -50.562)" fill="#fff" opacity="0.5"/>
      </g>
      <path id="Trazado_146048" data-name="Trazado 146048" d="M156.685,49.951a2.283,2.283,0,0,0,1.35,1.877,7.3,7.3,0,0,0,5.426.465,5.2,5.2,0,0,0,1.081-.465,3.715,3.715,0,0,0,.409-.272,2.057,2.057,0,0,0,.94-1.606,2.093,2.093,0,0,0-.94-1.609,4.215,4.215,0,0,0-.409-.272,5.03,5.03,0,0,0-1.081-.462,7.31,7.31,0,0,0-5.426.462,2.308,2.308,0,0,0-1.346,1.831Z" transform="translate(26.017 8.569)" fill="#9d9d9c"/>
      <g id="Grupo_87094" data-name="Grupo 87094" transform="translate(144.435 51.72)">
        <g id="Grupo_87093" data-name="Grupo 87093" style="isolation: isolate">
          <g id="Grupo_87090" data-name="Grupo 87090" transform="translate(0 24.226)">
            <path id="Trazado_146049" data-name="Trazado 146049" d="M144.435,53.723,144.441,56l22.77,13.25-.007-2.273Z" transform="translate(-144.435 -53.723)" fill="#766654"/>
          </g>
          <g id="Grupo_87091" data-name="Grupo 87091" transform="translate(22.769 13.249)">
            <path id="Trazado_146050" data-name="Trazado 146050" d="M151.724,74.435l.007,2.273,41.96-24.226-.007-2.273Z" transform="translate(-151.724 -50.21)" fill="#52473a"/>
          </g>
          <g id="Grupo_87092" data-name="Grupo 87092">
            <path id="Trazado_146051" data-name="Trazado 146051" d="M144.435,70.194,167.2,83.443l41.96-24.226-22.77-13.249Z" transform="translate(-144.435 -45.968)" fill="#84725e"/>
          </g>
        </g>
      </g>
      <path id="Trazado_146052" data-name="Trazado 146052" d="M156.9,50.728a2.853,2.853,0,0,0,1.131,1.071,7.193,7.193,0,0,0,6.507,0,2.875,2.875,0,0,0,1.131-1.071c.506-.915.131-1.959-1.131-2.687a7.174,7.174,0,0,0-6.507,0C156.772,48.769,156.4,49.813,156.9,50.728Z" transform="translate(26.018 8.498)" fill="#52473a"/>
      <path id="Trazado_146053" data-name="Trazado 146053" d="M156.755,49.628a2.853,2.853,0,0,0,1.131,1.071,7.193,7.193,0,0,0,6.507,0,2.875,2.875,0,0,0,1.131-1.071,2.853,2.853,0,0,0-1.131-1.071,7.193,7.193,0,0,0-6.507,0A2.853,2.853,0,0,0,156.755,49.628Z" transform="translate(26.166 9.598)" fill="#c6c6c6"/>
      <path id="Trazado_146054" data-name="Trazado 146054" d="M151.452,51.839c-1.8,1.037-1.8,2.721,0,3.758a7.2,7.2,0,0,0,6.51,0c1.8-1.037,1.8-2.721,0-3.758A7.18,7.18,0,0,0,151.452,51.839Z" transform="translate(12.042 16.564)" fill="#9d9d9c"/>
      <g id="Grupo_87095" data-name="Grupo 87095" transform="translate(182.237 43.26)">
        <path id="Trazado_146055" data-name="Trazado 146055" d="M156.687,46.044V58.084a2.279,2.279,0,0,0,1.346,1.877,7.3,7.3,0,0,0,5.429.465,5.2,5.2,0,0,0,1.081-.465,3.717,3.717,0,0,0,.409-.272,2.057,2.057,0,0,0,.94-1.606V46.044C164.953,42.917,158.24,42.2,156.687,46.044Z" transform="translate(-156.215 -42.917)" fill="#dadada" opacity="0.5"/>
        <path id="Trazado_146056" data-name="Trazado 146056" d="M156.536,46.387a2.194,2.194,0,0,0,.472,1.334,3.64,3.64,0,0,0,1.112.953,7.671,7.671,0,0,0,6.982,0,3.64,3.64,0,0,0,1.112-.953,2.19,2.19,0,0,0,.469-1.334A2.724,2.724,0,0,0,165.1,44.1a7.671,7.671,0,0,0-6.982,0A2.728,2.728,0,0,0,156.536,46.387Zm2.056,1.471a1.851,1.851,0,0,1-1.115-1.471,1.851,1.851,0,0,1,1.115-1.471,6.7,6.7,0,0,1,6.038,0,1.851,1.851,0,0,1,1.115,1.471,1.851,1.851,0,0,1-1.115,1.471,6.729,6.729,0,0,1-6.038,0Z" transform="translate(-156.536 -43.26)" fill="#c6c6c6"/>
        <path id="Trazado_146057" data-name="Trazado 146057" d="M158.856,45.87V56.778a5.2,5.2,0,0,0,1.081-.465,3.717,3.717,0,0,0,.409-.272v-10.9a3.72,3.72,0,0,1-.409.272A5.434,5.434,0,0,1,158.856,45.87Z" transform="translate(-151.609 -39.269)" fill="#fff" opacity="0.5"/>
      </g>
      <path id="Trazado_146058" data-name="Trazado 146058" d="M153.613,52.6a2.908,2.908,0,0,0,1.128,1.071,7.2,7.2,0,0,0,6.51,0,2.941,2.941,0,0,0,1.131-1.071c.506-.918.128-1.962-1.131-2.69a7.2,7.2,0,0,0-6.51,0C153.482,50.635,153.107,51.678,153.613,52.6Z" transform="translate(19.03 12.465)" fill="#52473a"/>
      <path id="Trazado_146059" data-name="Trazado 146059" d="M153.465,51.5a2.908,2.908,0,0,0,1.128,1.071,7.2,7.2,0,0,0,6.51,0,2.941,2.941,0,0,0,1.131-1.071,2.875,2.875,0,0,0-1.131-1.071,7.18,7.18,0,0,0-6.51,0A2.843,2.843,0,0,0,153.465,51.5Z" transform="translate(19.179 13.563)" fill="#c6c6c6"/>
      <g id="Grupo_87096" data-name="Grupo 87096" transform="translate(171.96 49.092)">
        <path id="Trazado_146060" data-name="Trazado 146060" d="M153.4,48.019V60.055a2.287,2.287,0,0,0,1.346,1.881,7.32,7.32,0,0,0,5.429.465,5.2,5.2,0,0,0,1.081-.465,3.725,3.725,0,0,0,.409-.275,2.057,2.057,0,0,0,.94-1.606V48.019C161.663,44.889,155.009,43.777,153.4,48.019Z" transform="translate(-152.925 -44.889)" fill="#dadada" opacity="0.5"/>
        <path id="Trazado_146061" data-name="Trazado 146061" d="M153.246,48.257a2.193,2.193,0,0,0,.472,1.334,3.633,3.633,0,0,0,1.112.95,7.639,7.639,0,0,0,6.979,0,3.61,3.61,0,0,0,1.115-.95,2.209,2.209,0,0,0,.469-1.334,2.726,2.726,0,0,0-1.584-2.29,7.665,7.665,0,0,0-6.979,0A2.732,2.732,0,0,0,153.246,48.257Zm2.056,1.471a1.53,1.53,0,0,1,0-2.946,6.729,6.729,0,0,1,6.038,0,1.53,1.53,0,0,1,0,2.946,6.729,6.729,0,0,1-6.038,0Z" transform="translate(-153.246 -45.127)" fill="#c6c6c6"/>
        <path id="Trazado_146062" data-name="Trazado 146062" d="M155.566,47.74V58.649a5.2,5.2,0,0,0,1.081-.465,3.725,3.725,0,0,0,.409-.275v-10.9a4.228,4.228,0,0,1-.409.275A5.434,5.434,0,0,1,155.566,47.74Z" transform="translate(-148.319 -41.136)" fill="#fff" opacity="0.5"/>
      </g>
      <path id="Trazado_146063" data-name="Trazado 146063" d="M150.323,54.526a2.886,2.886,0,0,0,1.128,1.071,7.2,7.2,0,0,0,6.51,0,2.918,2.918,0,0,0,1.131-1.071c.506-.915.128-1.959-1.131-2.687a7.18,7.18,0,0,0-6.51,0C150.192,52.567,149.817,53.611,150.323,54.526Z" transform="translate(12.043 16.564)" fill="#52473a"/>
      <path id="Trazado_146064" data-name="Trazado 146064" d="M150.175,53.428A2.886,2.886,0,0,0,151.3,54.5a7.2,7.2,0,0,0,6.51,0,2.918,2.918,0,0,0,1.131-1.071,2.9,2.9,0,0,0-1.131-1.071,7.18,7.18,0,0,0-6.51,0A2.843,2.843,0,0,0,150.175,53.428Z" transform="translate(12.191 17.662)" fill="#c6c6c6"/>
      <g id="Grupo_87097" data-name="Grupo 87097" transform="translate(161.682 55.121)">
        <path id="Trazado_146065" data-name="Trazado 146065" d="M150.107,49.948V61.985a2.283,2.283,0,0,0,1.346,1.881,7.32,7.32,0,0,0,5.429.465,5.2,5.2,0,0,0,1.081-.465,4.044,4.044,0,0,0,.409-.272,2.067,2.067,0,0,0,.94-1.609V49.948C158.373,46.818,151.719,45.709,150.107,49.948Z" transform="translate(-149.635 -46.818)" fill="#dadada" opacity="0.5"/>
        <path id="Trazado_146066" data-name="Trazado 146066" d="M149.956,50.187a2.193,2.193,0,0,0,.472,1.334,3.64,3.64,0,0,0,1.112.953,7.665,7.665,0,0,0,6.979,0,3.617,3.617,0,0,0,1.115-.953,2.21,2.21,0,0,0,.469-1.334,2.724,2.724,0,0,0-1.584-2.287,7.639,7.639,0,0,0-6.979,0A2.724,2.724,0,0,0,149.956,50.187Zm2.052,1.471a1.531,1.531,0,0,1,0-2.946,6.736,6.736,0,0,1,6.042,0,1.531,1.531,0,0,1,0,2.946,6.736,6.736,0,0,1-6.042,0Z" transform="translate(-149.956 -47.057)" fill="#c6c6c6"/>
        <path id="Trazado_146067" data-name="Trazado 146067" d="M152.276,49.67V60.579a5.2,5.2,0,0,0,1.081-.465,4.044,4.044,0,0,0,.409-.272V48.936a3.593,3.593,0,0,1-.409.275A5.434,5.434,0,0,1,152.276,49.67Z" transform="translate(-145.029 -43.066)" fill="#fff" opacity="0.5"/>
      </g>
      <path id="Trazado_146068" data-name="Trazado 146068" d="M147.031,56.456a2.9,2.9,0,0,0,1.131,1.071,7.2,7.2,0,0,0,6.51,0,2.9,2.9,0,0,0,1.131-1.071c.5-.915.128-1.959-1.131-2.687a7.18,7.18,0,0,0-6.51,0C146.9,54.5,146.528,55.541,147.031,56.456Z" transform="translate(5.055 20.664)" fill="#52473a"/>
      <path id="Trazado_146069" data-name="Trazado 146069" d="M146.884,55.356a2.9,2.9,0,0,0,1.131,1.071,7.2,7.2,0,0,0,6.51,0,2.9,2.9,0,0,0,1.131-1.071,2.9,2.9,0,0,0-1.131-1.071,7.2,7.2,0,0,0-6.51,0A2.875,2.875,0,0,0,146.884,55.356Z" transform="translate(5.202 21.763)" fill="#c6c6c6"/>
      <g id="Grupo_87098" data-name="Grupo 87098" transform="translate(151.405 61.15)">
        <path id="Trazado_146070" data-name="Trazado 146070" d="M146.816,51.878V63.915a2.284,2.284,0,0,0,1.35,1.881,7.3,7.3,0,0,0,5.429.465,5.269,5.269,0,0,0,1.081-.465,4.036,4.036,0,0,0,.409-.272,2.058,2.058,0,0,0,.94-1.609V51.878C155.085,48.748,148.431,47.639,146.816,51.878Z" transform="translate(-146.347 -48.748)" fill="#dadada" opacity="0.5"/>
        <path id="Trazado_146071" data-name="Trazado 146071" d="M146.666,52.117a2.21,2.21,0,0,0,.469,1.334,3.692,3.692,0,0,0,1.115.953,7.665,7.665,0,0,0,6.979,0,3.655,3.655,0,0,0,1.115-.953,2.21,2.21,0,0,0,.469-1.334,2.728,2.728,0,0,0-1.584-2.287,7.639,7.639,0,0,0-6.979,0A2.728,2.728,0,0,0,146.666,52.117Zm2.052,1.471a1.529,1.529,0,0,1,0-2.943,6.709,6.709,0,0,1,6.042,0,1.529,1.529,0,0,1,0,2.943,6.736,6.736,0,0,1-6.042,0Z" transform="translate(-146.666 -48.987)" fill="#c6c6c6"/>
        <path id="Trazado_146072" data-name="Trazado 146072" d="M148.986,51.6V62.506a5.269,5.269,0,0,0,1.081-.465,4.036,4.036,0,0,0,.409-.272v-10.9a4.039,4.039,0,0,1-.409.272A5.511,5.511,0,0,1,148.986,51.6Z" transform="translate(-141.739 -44.994)" fill="#fff" opacity="0.5"/>
      </g>
      <path id="Trazado_146073" data-name="Trazado 146073" d="M160.172,52.679a2.9,2.9,0,0,0,1.131,1.071,7.193,7.193,0,0,0,6.507,0,2.919,2.919,0,0,0,1.131-1.071c.506-.918.131-1.962-1.131-2.69a7.193,7.193,0,0,0-6.507,0C160.041,50.718,159.666,51.761,160.172,52.679Z" transform="translate(32.961 12.641)" fill="#52473a"/>
      <path id="Trazado_146074" data-name="Trazado 146074" d="M160.024,51.581a2.9,2.9,0,0,0,1.131,1.071,7.193,7.193,0,0,0,6.507,0,2.919,2.919,0,0,0,1.131-1.071,2.854,2.854,0,0,0-1.131-1.071,7.174,7.174,0,0,0-6.507,0A2.853,2.853,0,0,0,160.024,51.581Z" transform="translate(33.109 13.74)" fill="#c6c6c6"/>
      <path id="Trazado_146075" data-name="Trazado 146075" d="M154.721,53.788c-1.8,1.037-1.8,2.721,0,3.758a7.181,7.181,0,0,0,6.51,0c1.8-1.037,1.8-2.721,0-3.758A7.2,7.2,0,0,0,154.721,53.788Z" transform="translate(18.985 20.708)" fill="#9d9d9c"/>
      <g id="Grupo_87099" data-name="Grupo 87099" transform="translate(192.452 49.352)">
        <path id="Trazado_146076" data-name="Trazado 146076" d="M159.956,48V60.032a2.288,2.288,0,0,0,1.35,1.881,7.31,7.31,0,0,0,5.426.465,5.2,5.2,0,0,0,1.081-.465,4.232,4.232,0,0,0,.409-.272,2.067,2.067,0,0,0,.94-1.609V48C168.222,44.866,161.512,44.147,159.956,48Z" transform="translate(-159.487 -44.866)" fill="#dadada" opacity="0.5"/>
        <path id="Trazado_146077" data-name="Trazado 146077" d="M159.806,48.34a2.19,2.19,0,0,0,.469,1.334,3.726,3.726,0,0,0,1.112.953,7.671,7.671,0,0,0,6.982,0,3.688,3.688,0,0,0,1.112-.953,2.19,2.19,0,0,0,.469-1.334,2.728,2.728,0,0,0-1.581-2.29,7.671,7.671,0,0,0-6.982,0A2.728,2.728,0,0,0,159.806,48.34Zm2.052,1.471a1.53,1.53,0,0,1,0-2.946,6.729,6.729,0,0,1,6.038,0,1.53,1.53,0,0,1,0,2.946,6.729,6.729,0,0,1-6.038,0Z" transform="translate(-159.806 -45.21)" fill="#c6c6c6"/>
        <path id="Trazado_146078" data-name="Trazado 146078" d="M162.125,47.823V58.732a5.2,5.2,0,0,0,1.081-.465,4.232,4.232,0,0,0,.409-.272V47.089a3.731,3.731,0,0,1-.409.275A5.356,5.356,0,0,1,162.125,47.823Z" transform="translate(-154.881 -41.219)" fill="#fff" opacity="0.5"/>
      </g>
      <path id="Trazado_146079" data-name="Trazado 146079" d="M156.882,54.544a2.865,2.865,0,0,0,1.128,1.071,7.18,7.18,0,0,0,6.51,0,2.875,2.875,0,0,0,1.131-1.071c.506-.915.128-1.959-1.131-2.687a7.2,7.2,0,0,0-6.51,0C156.751,52.586,156.376,53.629,156.882,54.544Z" transform="translate(25.973 16.609)" fill="#52473a"/>
      <path id="Trazado_146080" data-name="Trazado 146080" d="M156.734,53.446a2.865,2.865,0,0,0,1.128,1.071,7.18,7.18,0,0,0,6.51,0,2.875,2.875,0,0,0,1.131-1.071,2.9,2.9,0,0,0-1.131-1.071,7.2,7.2,0,0,0-6.51,0A2.886,2.886,0,0,0,156.734,53.446Z" transform="translate(26.122 17.707)" fill="#c6c6c6"/>
      <g id="Grupo_87100" data-name="Grupo 87100" transform="translate(182.171 55.187)">
        <path id="Trazado_146081" data-name="Trazado 146081" d="M156.666,49.968V62.007a2.275,2.275,0,0,0,1.346,1.877,7.335,7.335,0,0,0,5.429.465,5.037,5.037,0,0,0,1.081-.465,3.323,3.323,0,0,0,.409-.272,2.057,2.057,0,0,0,.94-1.606V49.968C164.932,46.841,158.278,45.729,156.666,49.968Z" transform="translate(-156.194 -46.841)" fill="#dadada" opacity="0.5"/>
        <path id="Trazado_146082" data-name="Trazado 146082" d="M156.515,50.2a2.2,2.2,0,0,0,.472,1.337,3.676,3.676,0,0,0,1.112.95,7.665,7.665,0,0,0,6.979,0,3.653,3.653,0,0,0,1.115-.95,2.218,2.218,0,0,0,.469-1.337,2.725,2.725,0,0,0-1.584-2.287,7.665,7.665,0,0,0-6.979,0A2.732,2.732,0,0,0,156.515,50.2Zm2.056,1.471a1.528,1.528,0,0,1,0-2.943,6.7,6.7,0,0,1,6.038,0,1.528,1.528,0,0,1,0,2.943,6.729,6.729,0,0,1-6.038,0Z" transform="translate(-156.515 -47.078)" fill="#c6c6c6"/>
        <path id="Trazado_146083" data-name="Trazado 146083" d="M158.835,49.691V60.6a5.2,5.2,0,0,0,1.081-.465,3.323,3.323,0,0,0,.409-.272v-10.9a3.72,3.72,0,0,1-.409.272A5.442,5.442,0,0,1,158.835,49.691Z" transform="translate(-151.588 -43.087)" fill="#fff" opacity="0.5"/>
      </g>
      <path id="Trazado_146084" data-name="Trazado 146084" d="M153.592,56.474a2.865,2.865,0,0,0,1.128,1.071,7.181,7.181,0,0,0,6.51,0,2.9,2.9,0,0,0,1.131-1.071c.506-.915.128-1.959-1.131-2.687a7.2,7.2,0,0,0-6.51,0C153.461,54.516,153.086,55.559,153.592,56.474Z" transform="translate(18.986 20.708)" fill="#52473a"/>
      <path id="Trazado_146085" data-name="Trazado 146085" d="M153.444,55.376a2.865,2.865,0,0,0,1.128,1.071,7.181,7.181,0,0,0,6.51,0,2.9,2.9,0,0,0,1.131-1.071,2.941,2.941,0,0,0-1.131-1.071,7.2,7.2,0,0,0-6.51,0A2.886,2.886,0,0,0,153.444,55.376Z" transform="translate(19.134 21.806)" fill="#c6c6c6"/>
      <g id="Grupo_87101" data-name="Grupo 87101" transform="translate(171.894 61.216)">
        <path id="Trazado_146086" data-name="Trazado 146086" d="M153.376,51.9V63.936a2.287,2.287,0,0,0,1.346,1.881,7.3,7.3,0,0,0,5.429.462,5.364,5.364,0,0,0,1.081-.462,3.741,3.741,0,0,0,.409-.275,2.057,2.057,0,0,0,.94-1.606V51.9C161.642,48.77,154.988,47.658,153.376,51.9Z" transform="translate(-152.904 -48.77)" fill="#dadada" opacity="0.5"/>
        <path id="Trazado_146087" data-name="Trazado 146087" d="M153.225,52.138a2.193,2.193,0,0,0,.472,1.334,3.675,3.675,0,0,0,1.112.95,7.64,7.64,0,0,0,6.979,0,3.653,3.653,0,0,0,1.115-.95,2.209,2.209,0,0,0,.469-1.334,2.732,2.732,0,0,0-1.584-2.29,7.665,7.665,0,0,0-6.979,0A2.732,2.732,0,0,0,153.225,52.138Zm2.055,1.468a1.528,1.528,0,0,1,0-2.943,6.729,6.729,0,0,1,6.038,0,1.529,1.529,0,0,1,0,2.943,6.7,6.7,0,0,1-6.038,0Z" transform="translate(-153.225 -49.008)" fill="#c6c6c6"/>
        <path id="Trazado_146088" data-name="Trazado 146088" d="M155.545,51.621V62.526a5.364,5.364,0,0,0,1.081-.462,3.741,3.741,0,0,0,.409-.275v-10.9a3.726,3.726,0,0,1-.409.272A5.44,5.44,0,0,1,155.545,51.621Z" transform="translate(-148.298 -45.017)" fill="#fff" opacity="0.5"/>
      </g>
      <path id="Trazado_146089" data-name="Trazado 146089" d="M150.3,58.407a2.941,2.941,0,0,0,1.131,1.071,7.2,7.2,0,0,0,6.51,0,2.941,2.941,0,0,0,1.131-1.071c.506-.918.128-1.962-1.131-2.69a7.2,7.2,0,0,0-6.51,0C150.172,56.446,149.8,57.489,150.3,58.407Z" transform="translate(11.998 24.807)" fill="#52473a"/>
      <path id="Trazado_146090" data-name="Trazado 146090" d="M150.153,57.309a2.941,2.941,0,0,0,1.131,1.071,7.2,7.2,0,0,0,6.51,0,2.941,2.941,0,0,0,1.131-1.071,2.9,2.9,0,0,0-1.131-1.071,7.18,7.18,0,0,0-6.51,0A2.875,2.875,0,0,0,150.153,57.309Z" transform="translate(12.144 25.905)" fill="#c6c6c6"/>
      <g id="Grupo_87102" data-name="Grupo 87102" transform="translate(161.616 67.245)">
        <path id="Trazado_146091" data-name="Trazado 146091" d="M150.086,53.83V65.866a2.283,2.283,0,0,0,1.346,1.881,7.32,7.32,0,0,0,5.429.465,5.27,5.27,0,0,0,1.081-.465,4.06,4.06,0,0,0,.409-.275,2.057,2.057,0,0,0,.94-1.606V53.83C158.352,50.7,151.7,49.588,150.086,53.83Z" transform="translate(-149.614 -50.7)" fill="#dadada" opacity="0.5"/>
        <path id="Trazado_146092" data-name="Trazado 146092" d="M149.935,54.068a2.194,2.194,0,0,0,.472,1.334,3.727,3.727,0,0,0,1.112.953,7.665,7.665,0,0,0,6.979,0,3.741,3.741,0,0,0,1.115-.953,2.21,2.21,0,0,0,.469-1.334,2.732,2.732,0,0,0-1.584-2.29,7.665,7.665,0,0,0-6.979,0A2.732,2.732,0,0,0,149.935,54.068Zm2.052,1.468a1.529,1.529,0,0,1,0-2.943,6.736,6.736,0,0,1,6.042,0,1.529,1.529,0,0,1,0,2.943,6.709,6.709,0,0,1-6.042,0Z" transform="translate(-149.935 -50.938)" fill="#c6c6c6"/>
        <path id="Trazado_146093" data-name="Trazado 146093" d="M152.255,53.551V64.46a5.27,5.27,0,0,0,1.081-.465,4.06,4.06,0,0,0,.409-.275v-10.9a4.666,4.666,0,0,1-.409.275A5.513,5.513,0,0,1,152.255,53.551Z" transform="translate(-145.008 -46.947)" fill="#fff" opacity="0.5"/>
      </g>
    </g>
  </g>
</svg>
