<svg xmlns="http://www.w3.org/2000/svg" width="105" height="64.686" viewBox="0 0 105 64.686">
  <g id="Grupo_87131" data-name="Grupo 87131" transform="translate(-826 -4373.802)">
    <rect id="Rectángulo_32726" data-name="Rectángulo 32726" width="105" height="46" transform="translate(826 4392.487)" fill="#3ca8f4"/>
    <g id="Grupo_87130" data-name="Grupo 87130" transform="translate(566.064 4004.436)">
      <g id="Grupo_87123" data-name="Grupo 87123" transform="translate(269.503 371.001)">
        <path id="Trazado_146155" data-name="Trazado 146155" d="M304.3,421.483,269.5,401.391l54.243-31.309,34.793,20.083Z" transform="translate(-269.503 -368.54)" fill="#0d0d0d" opacity="0.3"/>
        <path id="Trazado_146156" data-name="Trazado 146156" d="M270.155,379.569l32.1,18.527V394.92l-32.1-18.531Z" transform="translate(-267.261 -346.865)" fill="#a7a9ac"/>
        <path id="Trazado_146157" data-name="Trazado 146157" d="M328.534,377.092l-51.145,29.52v-3.176l51.145-29.524Z" transform="translate(-242.398 -355.38)" fill="#939598"/>
        <path id="Trazado_146158" data-name="Trazado 146158" d="M302.253,417.79l-32.1-18.531,51.136-29.524L353.4,388.266Z" transform="translate(-267.261 -369.734)" fill="#bcbec0"/>
        <path id="Trazado_146159" data-name="Trazado 146159" d="M346.885,386.672l-1.993,1.153L318.34,372.5,272.9,398.76l-1.993-1.152L318.34,370.2Z" transform="translate(-264.687 -368.141)" fill="#939598"/>
        <path id="Trazado_146160" data-name="Trazado 146160" d="M343.348,386.039,297.9,412.3l-26.543-15.321L316.8,370.718Z" transform="translate(-263.143 -366.355)" fill="#a7a9ac"/>
      </g>
      <g id="Grupo_87125" data-name="Grupo 87125" transform="translate(309.727 369.366)">
        <path id="Trazado_146161" data-name="Trazado 146161" d="M285.606,380.7a9.867,9.867,0,0,1-4.9-1.176,3.216,3.216,0,0,1,0-6.061,10.773,10.773,0,0,1,9.8,0,3.218,3.218,0,0,1,0,6.056A9.891,9.891,0,0,1,285.606,380.7Z" transform="translate(-278.569 -359.338)" fill="#0d0d0d" opacity="0.3"/>
        <path id="Trazado_146162" data-name="Trazado 146162" d="M278.741,372.54l1.408-1.828,2.01-.91,2.491-.359h1.829l1.542.58,1.339.485,1.4,1.157.589,1.282v13.488l-1.269,1.885L287.8,389.5l-2.465.295-2.357-.169-1.634-.4-1.308-.836-.793-.819-.5-1.135Z" transform="translate(-277.977 -369.103)" fill="#659ec9" opacity="0.7"/>
        <g id="Grupo_87124" data-name="Grupo 87124" transform="translate(1.624 5.005)">
          <path id="Trazado_146163" data-name="Trazado 146163" d="M284.348,382.755a7.764,7.764,0,0,1-3.758-.9,2.821,2.821,0,0,1-1.655-2.338v-8.3h10.821v8.3a2.83,2.83,0,0,1-1.642,2.338A7.826,7.826,0,0,1,284.348,382.755Z" transform="translate(-278.935 -367.985)" fill="#70ab44"/>
          <path id="Trazado_146164" data-name="Trazado 146164" d="M284.348,376.972a7.572,7.572,0,0,1-3.758-.905,2.47,2.47,0,0,1,0-4.663,8.235,8.235,0,0,1,7.525,0,2.476,2.476,0,0,1,0,4.663A7.608,7.608,0,0,1,284.348,376.972Z" transform="translate(-278.935 -370.494)" fill="#9de368"/>
        </g>
        <path id="Trazado_146165" data-name="Trazado 146165" d="M281.039,384.217l-1.8-.685V370.945l1.8.507Z" transform="translate(-276.276 -363.938)" fill="#fff" opacity="0.2"/>
        <path id="Trazado_146166" data-name="Trazado 146166" d="M280.629,385.117l2.964-1.386V370.754l-2.964,1.356Z" transform="translate(-271.49 -364.596)" fill="#0d0d0d" opacity="0.2"/>
        <path id="Trazado_146167" data-name="Trazado 146167" d="M291.882,373.319a3.438,3.438,0,0,0-2-2.848,10.161,10.161,0,0,0-9.215,0,3.431,3.431,0,0,0-2.005,2.848v13.04a3.449,3.449,0,0,0,2.005,2.857,10.187,10.187,0,0,0,9.211,0,3.452,3.452,0,0,0,2-2.857v-13.04Zm-12.552,0A2.836,2.836,0,0,1,281,371.048a9.567,9.567,0,0,1,8.545,0,2.384,2.384,0,0,1,0,4.548,9.491,9.491,0,0,1-8.545,0,2.818,2.818,0,0,1-1.668-2.267v-.009Zm11.882,13.04a2.824,2.824,0,0,1-1.668,2.28,9.473,9.473,0,0,1-8.545,0,2.842,2.842,0,0,1-1.668-2.28v-11.3a4.834,4.834,0,0,0,1.34,1.109,10.116,10.116,0,0,0,9.211,0,4.665,4.665,0,0,0,1.331-1.109Z" transform="translate(-278.239 -369.366)" fill="#517fa2"/>
      </g>
      <g id="Grupo_87127" data-name="Grupo 87127" transform="translate(294.394 378.461)">
        <path id="Trazado_146168" data-name="Trazado 146168" d="M282.141,382.745a9.924,9.924,0,0,1-4.889-1.167,3.219,3.219,0,0,1,0-6.065,10.719,10.719,0,0,1,9.788,0,3.221,3.221,0,0,1,0,6.061A9.972,9.972,0,0,1,282.141,382.745Z" transform="translate(-275.113 -361.391)" fill="#0d0d0d" opacity="0.3"/>
        <path id="Trazado_146169" data-name="Trazado 146169" d="M275.283,374.587l1.408-1.824,2.015-.91,2.487-.359h1.828l1.543.576,1.33.481L287.3,373.7l.594,1.3v13.488l-1.274,1.881-2.288,1.178-2.465.29-2.348-.165-1.634-.4-1.313-.841-.793-.806-.5-1.14Z" transform="translate(-274.528 -371.151)" fill="#659ec9" opacity="0.7"/>
        <g id="Grupo_87126" data-name="Grupo 87126" transform="translate(1.615 5.005)">
          <path id="Trazado_146170" data-name="Trazado 146170" d="M280.89,384.809a7.664,7.664,0,0,1-3.753-.9,2.806,2.806,0,0,1-1.659-2.334v-8.3H286.3v8.3a2.827,2.827,0,0,1-1.642,2.334A7.71,7.71,0,0,1,280.89,384.809Z" transform="translate(-275.477 -370.039)" fill="#ffc654"/>
          <path id="Trazado_146171" data-name="Trazado 146171" d="M280.89,379.022a7.541,7.541,0,0,1-3.753-.905,2.471,2.471,0,0,1,0-4.667,7.543,7.543,0,0,1,3.753-.905,7.649,7.649,0,0,1,3.771.905,2.48,2.48,0,0,1,0,4.667A7.648,7.648,0,0,1,280.89,379.022Z" transform="translate(-275.477 -372.544)" fill="#ffec7a"/>
        </g>
        <path id="Trazado_146172" data-name="Trazado 146172" d="M277.588,386.267l-1.811-.685V373l1.811.5Z" transform="translate(-272.83 -365.989)" fill="#fff" opacity="0.2"/>
        <path id="Trazado_146173" data-name="Trazado 146173" d="M277.171,387.164l2.964-1.386V372.8l-2.964,1.347Z" transform="translate(-268.041 -366.643)" fill="#0d0d0d" opacity="0.2"/>
        <path id="Trazado_146174" data-name="Trazado 146174" d="M288.421,375.369a3.432,3.432,0,0,0-2-2.848,10.151,10.151,0,0,0-9.211,0,3.417,3.417,0,0,0-2.005,2.848v13.04a3.44,3.44,0,0,0,2.005,2.857,10.216,10.216,0,0,0,9.206,0,3.453,3.453,0,0,0,2-2.857v-13.04Zm-12.552,0a2.81,2.81,0,0,1,1.673-2.267,9.447,9.447,0,0,1,8.541,0,2.373,2.373,0,0,1,0,4.534,9.373,9.373,0,0,1-8.541,0,2.787,2.787,0,0,1-1.673-2.258v-.009Zm11.886,13.04a2.823,2.823,0,0,1-1.673,2.281,9.492,9.492,0,0,1-8.541,0,2.851,2.851,0,0,1-1.673-2.281V377.117a4.783,4.783,0,0,0,1.344,1.1,10.106,10.106,0,0,0,9.206,0,4.615,4.615,0,0,0,1.336-1.1Z" transform="translate(-274.786 -371.416)" fill="#517fa2"/>
      </g>
      <g id="Grupo_87129" data-name="Grupo 87129" transform="translate(329.369 374.122)">
        <path id="Trazado_146175" data-name="Trazado 146175" d="M290.015,381.772a9.932,9.932,0,0,1-4.885-1.176,3.225,3.225,0,0,1,0-6.07,10.755,10.755,0,0,1,9.779.009,3.219,3.219,0,0,1,0,6.061A9.991,9.991,0,0,1,290.015,381.772Z" transform="translate(-282.996 -360.413)" fill="#0d0d0d" opacity="0.3"/>
        <path id="Trazado_146176" data-name="Trazado 146176" d="M283.163,373.609l1.408-1.833,2.015-.906,2.491-.355h1.828l1.543.585,1.339.477,1.4,1.153.59,1.3v13.483l-1.27,1.881-2.279,1.178-2.47.3L287.4,390.7l-1.633-.4-1.317-.841-.788-.81-.5-1.135Z" transform="translate(-282.422 -370.175)" fill="#659ec9" opacity="0.7"/>
        <g id="Grupo_87128" data-name="Grupo 87128" transform="translate(1.615 5)">
          <path id="Trazado_146177" data-name="Trazado 146177" d="M288.764,383.831a7.7,7.7,0,0,1-3.762-.9,2.792,2.792,0,0,1-1.642-2.329v-8.3h10.808v8.3a2.8,2.8,0,0,1-1.637,2.329A7.718,7.718,0,0,1,288.764,383.831Z" transform="translate(-283.36 -369.056)" fill="#ff6669"/>
          <path id="Trazado_146178" data-name="Trazado 146178" d="M288.764,378.043a7.569,7.569,0,0,1-3.762-.914,2.47,2.47,0,0,1,0-4.654,8.246,8.246,0,0,1,7.529,0,2.473,2.473,0,0,1,0,4.654A7.575,7.575,0,0,1,288.764,378.043Z" transform="translate(-283.36 -371.565)" fill="#ff8d8f"/>
        </g>
        <path id="Trazado_146179" data-name="Trazado 146179" d="M285.465,385.293l-1.807-.689V372.017l1.807.507Z" transform="translate(-280.72 -365.013)" fill="#fff" opacity="0.2"/>
        <path id="Trazado_146180" data-name="Trazado 146180" d="M285.053,386.193l2.959-1.391V371.825l-2.959,1.356Z" transform="translate(-275.928 -365.67)" fill="#0d0d0d" opacity="0.2"/>
        <path id="Trazado_146181" data-name="Trazado 146181" d="M296.31,374.382a3.425,3.425,0,0,0-2.005-2.844,10.2,10.2,0,0,0-9.215,0,3.437,3.437,0,0,0-2,2.844v13.049a3.455,3.455,0,0,0,2,2.853,10.225,10.225,0,0,0,9.211,0,3.439,3.439,0,0,0,2.01-2.853V374.382Zm-12.561,0a2.84,2.84,0,0,1,1.677-2.267,9.6,9.6,0,0,1,8.545,0,2.384,2.384,0,0,1,0,4.548,9.454,9.454,0,0,1-8.545,0,2.816,2.816,0,0,1-1.677-2.272v-.009Zm11.891,13.049a2.824,2.824,0,0,1-1.668,2.276,9.5,9.5,0,0,1-8.545,0,2.845,2.845,0,0,1-1.677-2.276v-11.3a4.9,4.9,0,0,0,1.34,1.109,10.15,10.15,0,0,0,9.211,0,4.529,4.529,0,0,0,1.34-1.109Z" transform="translate(-282.68 -370.438)" fill="#517fa2"/>
      </g>
    </g>
  </g>
</svg>
