<svg xmlns="http://www.w3.org/2000/svg" width="416.509" height="393.265" viewBox="0 0 416.509 393.265">
  <g id="Grupo_87329" data-name="Grupo 87329" transform="translate(-275.179 -259.202)">
    <path id="Trazado_146743" data-name="Trazado 146743" d="M275.179,448.058l172.331,89.7L691.687,389.543,528.171,293.81Z" transform="translate(0 114.71)" opacity="0.1"/>
    <g id="Grupo_87255" data-name="Grupo 87255" transform="translate(304.199 450.558)" opacity="0.2">
      <path id="Trazado_146744" data-name="Trazado 146744" d="M369.916,312.3c20.227,11.688,20.343,30.637.246,42.312s-52.77,11.675-73.023,0c-20.222-11.675-20.33-30.624-.22-42.286C316.995,300.634,349.69,300.634,369.916,312.3Z" transform="translate(-281.905 -303.554)"/>
    </g>
    <path id="Trazado_146745" data-name="Trazado 146745" d="M297.928,312.327s-2.105,5.026,5.061,6.2c7.115,1.165,10.48,5.466,13.082,5.389,2.386-.069,5.009-1.941,1.825-4.88s-13.107-8.236-13.107-8.236Z" transform="translate(74.445 171.005)" fill="#171716"/>
    <path id="Trazado_146746" data-name="Trazado 146746" d="M290.419,312.774s-2.412,5.7,5.712,7.033c8.077,1.32,11.878,6.179,14.833,6.1,2.705-.073,5.678-2.2,2.067-5.523s-14.859-9.341-14.859-9.341Z" transform="translate(49.405 171.817)" fill="#171716"/>
    <path id="Trazado_146747" data-name="Trazado 146747" d="M318.124,281.7s5.984,44.6,3.046,64.549-3.046,62.508-3.046,62.508-5.2,2.934-8.97,0c0,0-8.1-31.53-4.629-44.551,3.249-12.15-5.492-32.117-6.942-49.815a107.164,107.164,0,0,0-3.331-19.014S313.21,295.581,318.124,281.7Z" transform="translate(63.218 74.573)" fill="#102946"/>
    <path id="Trazado_146748" data-name="Trazado 146748" d="M316.035,288.389s-.4,34.413-5.208,53.987c-4.828,19.575-8.888,61.218-8.888,61.218s-5.54,3.141-9.009-.134c0,0-3.62-34.141-.375-44.8,3.663-12.02,1.687-32.915-2.183-50.247-2.744-12.309.72-24.765.72-24.765S302.448,291.638,316.035,288.389Z" transform="translate(46.855 81.04)" fill="#102946"/>
    <path id="Trazado_146749" data-name="Trazado 146749" d="M301.843,337.9c3.15-11.8-4.979-30.961-6.782-48.266,4.56,11.766,11.856,32.337,11.131,41.41-.807,9.992,2.347,39.24,3.9,52.667a6.226,6.226,0,0,1-3.624-1.26S298.37,350.924,301.843,337.9Z" transform="translate(65.9 100.877)" fill="#091b2d"/>
    <path id="Trazado_146750" data-name="Trazado 146750" d="M292.555,358.664c3.663-12.02,1.687-32.915-2.183-50.247-2.744-12.309.72-24.765.72-24.765s-.5,1.73,6.459,3.227c.056,14.173,5.143,42.04,3.478,50.9-2.006,10.726-6.623,45.112-5.285,67.069a5.457,5.457,0,0,1-2.813-1.385S289.311,369.32,292.555,358.664Z" transform="translate(46.855 81.04)" fill="#091b2d"/>
    <path id="Trazado_146751" data-name="Trazado 146751" d="M299.731,289.179s.574,8.935,8.142,8.28,32.38-16.046,32.38-16.046-4.258-5.484-1.976-8.37C338.277,273.043,302.911,281.935,299.731,289.179Z" transform="translate(81.379 45.876)" fill="#ccdcf8"/>
    <path id="Trazado_146752" data-name="Trazado 146752" d="M305.964,267.286c-3.654-1.657-11.265.88-7.844,12.391s9.742,36.345,14.169,37.946c3.594,1.29,10.036.742,6.869-14.074S314.994,271.367,305.964,267.286Z" transform="translate(73.178 25.272)" fill="#ccdcf8"/>
    <g id="Grupo_87256" data-name="Grupo 87256" transform="translate(337.423 292.517)">
      <path id="Trazado_146753" data-name="Trazado 146753" d="M290.121,283.463s8.029-13.021,38.55-16.468c0,0,4.919-1.89,4,13.832-.125,2.261,2.105,6.226,3.646,8.31,1.527,2.123,5.527,10.122-4,19.26,0,0-4,13.927.009,23.113,3.6,8.219-16.654,15.532-33.606,13.383-2.1-.259-6.7-1.773-4.668-9.017,2.015-7.248,6.765-19.907,3.741-33.459S287.64,290.228,290.121,283.463Z" transform="translate(-289.606 -266.923)" fill="#77d2ff"/>
    </g>
    <g id="Grupo_87257" data-name="Grupo 87257" transform="translate(337.423 301.372)">
      <path id="Trazado_146754" data-name="Trazado 146754" d="M290.121,276.66c-2.481,6.765,4.642,5.389,7.675,18.954s-1.726,26.211-3.741,33.459c-2.036,7.244,2.571,8.758,4.668,9.017a51.189,51.189,0,0,0,8.53.319c-5.583-13.228,2.761-36.729,3.529-49.8.8-13.854-11.593-19.631-11.593-19.631C292.416,272.958,290.121,276.66,290.121,276.66Z" transform="translate(-289.606 -268.976)" fill="#5fb9e6"/>
    </g>
    <g id="Grupo_87258" data-name="Grupo 87258" transform="translate(324.926 292.238)">
      <path id="Trazado_146755" data-name="Trazado 146755" d="M298.111,274.886s21.9,13.621,2.6,127.726c0,0,11.4-3.214,16.891-12.266,0,0-.958-49.444,0-63.993.979-14.544,5.048-66.836-15.248-58.625C302.352,267.729,291.233,271.241,298.111,274.886Z" transform="translate(-256.359 -266.857)" fill="#e5eeff"/>
      <path id="Trazado_146756" data-name="Trazado 146756" d="M313.424,268.544s31.012,24.174,5.057,134.267c0,0-20.619,10.234-31.772-5.277,0,0,7.05-49.53,12.434-61.857,4.3-9.82,8.651-22.138-3.465-42.981C295.679,292.7,285.363,276.763,313.424,268.544Z" transform="translate(-286.709 -261.274)" fill="#e5eeff"/>
      <path id="Trazado_146757" data-name="Trazado 146757" d="M296.546,276.191s14.885,20.6,9.022,69.662c0,0,4.931-38.887,6.869-42.77l-3.87-2.261,2.533-8.715s-3.439-16.274-11-25.248Z" transform="translate(-254.104 -266.859)" fill="#ccdcf8"/>
      <path id="Trazado_146758" data-name="Trazado 146758" d="M302.668,268.258s21,20.994,14.061,77.471c0,0-3.84-35.323-9.587-40.819l3.758-4.517-7.33-3.555s-5.324-20.222-13.439-22.232C290.13,274.6,297.232,268.387,302.668,268.258Z" transform="translate(-275.37 -262.222)" fill="#ccdcf8"/>
    </g>
    <g id="Grupo_87267" data-name="Grupo 87267" transform="translate(343.038 259.202)">
      <g id="Grupo_87259" data-name="Grupo 87259" transform="translate(9.238)">
        <path id="Trazado_146759" data-name="Trazado 146759" d="M312.541,268.021s-2.438,15.675-3.827,30.616c-.2,2.161,1.993,6.019,6.014,5.1,0,0,11.891-17.418,3.309-35.314-2.727-5.682-12.892-13.841-24.99-5.954Z" transform="translate(-293.048 -259.202)" fill="#301806"/>
      </g>
      <g id="Grupo_87262" data-name="Grupo 87262" transform="translate(9.632 20.183)">
        <g id="Grupo_87260" data-name="Grupo 87260">
          <path id="Trazado_146760" data-name="Trazado 146760" d="M314.865,273.221s-5.626,6.183-3.3,13.112c.608,1.894,2.084,9.669-9.483,6.131,0,0-11.977-6.536-8.2-10.092,2.489-2.364,4.988-5.824,1.825-18.492Z" transform="translate(-293.139 -263.88)" fill="#e8a476"/>
        </g>
        <g id="Grupo_87261" data-name="Grupo 87261" transform="translate(0.076 1.389)">
          <path id="Trazado_146761" data-name="Trazado 146761" d="M293.817,281.3a2.03,2.03,0,0,0-.66,1.2c11.105,2.6,19.023-5.014,19.023-5.014L298.132,264.2h0s-.755.453-1.89,1.26C298.434,275.985,296.143,279.113,293.817,281.3Z" transform="translate(-293.157 -264.202)" fill="#db9669"/>
        </g>
      </g>
      <g id="Grupo_87263" data-name="Grupo 87263" transform="translate(10.535 5.062)">
        <path id="Trazado_146762" data-name="Trazado 146762" d="M312.951,262.506s3.119,1.191,2.908,10.519c-.013,1.031,1.588,2.442,1.954,5.022.354,2.61.578,13-5.48,13.9-4.366.66-15.066-2.438-18.332-13.013S300.089,255.154,312.951,262.506Z" transform="translate(-293.349 -260.375)" fill="#f1b287"/>
      </g>
      <g id="Grupo_87264" data-name="Grupo 87264" transform="translate(0 0.76)">
        <path id="Trazado_146763" data-name="Trazado 146763" d="M320.332,269.539s-27.026,8.974-8.021,44.047c0,0-13.988.919-19.829-11.287-2.792-5.855-1.264-17.487-.052-28.566,0,0,3.624-16.995,17.853-14C310.284,259.732,319.638,263.641,320.332,269.539Z" transform="translate(-290.907 -259.378)" fill="#231202"/>
      </g>
      <g id="Grupo_87265" data-name="Grupo 87265" transform="translate(12.888 0.013)">
        <path id="Trazado_146764" data-name="Trazado 146764" d="M310.431,270.112s4.716-.746,6.739,7.926c0,0-.017-24.334-23.277-17.681C293.894,260.357,307.614,261.449,310.431,270.112Z" transform="translate(-293.894 -259.205)" fill="#301806"/>
      </g>
      <g id="Grupo_87266" data-name="Grupo 87266" transform="translate(10.651 21.57)">
        <path id="Trazado_146765" data-name="Trazado 146765" d="M299.2,268.2s-1.488-5.208-4.522-3.736c-.936.466-2.006,1.523-.677,4.22s4.224,5.208,6.567,4.988Z" transform="translate(-293.376 -264.201)" fill="#f1b287"/>
      </g>
    </g>
    <path id="Trazado_146766" data-name="Trazado 146766" d="M295.086,270.966c-3.991-.548-10.553,4.051-3.991,14.113s19.7,32.061,24.4,32.329c3.805.216,9.828-2.153,2.572-15.446S304.893,272.3,295.086,270.966Z" transform="translate(43.517 38.846)" fill="#f9f9f9"/>
    <path id="Trazado_146767" data-name="Trazado 146767" d="M305.955,281.851s8.642-4.492,11.658-3.84,6.114.211,2.175,3.175-8.979,6.066-13.949,6.42-3.585-6.291-3.585-6.291Z" transform="translate(89.159 62.127)" fill="#e8a476"/>
    <path id="Trazado_146768" data-name="Trazado 146768" d="M293.9,282.43s-2.243,8.672,5.151,10.4,35.771-5.164,35.771-5.164-2.343-6.541.738-8.56C335.561,279.108,299.168,276.536,293.9,282.43Z" transform="translate(60.99 64.128)" fill="#f9f9f9"/>
    <g id="Grupo_87283" data-name="Grupo 87283" transform="translate(308.422 315.801)">
      <g id="Grupo_87272" data-name="Grupo 87272" transform="translate(230.21 5.617)">
        <g id="Grupo_87271" data-name="Grupo 87271" style="isolation: isolate">
          <g id="Grupo_87268" data-name="Grupo 87268" transform="translate(78.487 45.306)">
            <path id="Trazado_146769" data-name="Trazado 146769" d="M354.432,422.516l5.815-3.375.379-135.018-5.806,3.384Z" transform="translate(-354.432 -284.123)" fill="#e6e6ff"/>
          </g>
          <g id="Grupo_87269" data-name="Grupo 87269" transform="translate(0.384)">
            <path id="Trazado_146770" data-name="Trazado 146770" d="M414.821,322.312l5.806-3.384L342.14,273.622l-5.81,3.366Z" transform="translate(-336.33 -273.622)" fill="#aeb6bc"/>
          </g>
          <g id="Grupo_87270" data-name="Grupo 87270" transform="translate(0 3.366)">
            <path id="Trazado_146771" data-name="Trazado 146771" d="M336.625,274.4l-.384,135.026,78.487,45.306.388-135.009Z" transform="translate(-336.241 -274.402)" fill="#c0c0f6"/>
          </g>
        </g>
      </g>
      <g id="Grupo_87277" data-name="Grupo 87277" transform="translate(34.756 120.498)">
        <g id="Grupo_87276" data-name="Grupo 87276" style="isolation: isolate">
          <g id="Grupo_87273" data-name="Grupo 87273" transform="translate(78.491 45.319)">
            <path id="Trazado_146772" data-name="Trazado 146772" d="M309.132,449.145l5.81-3.367.388-135.026-5.819,3.384Z" transform="translate(-309.132 -310.753)" fill="#92afff"/>
          </g>
          <g id="Grupo_87274" data-name="Grupo 87274" transform="translate(0.392)">
            <path id="Trazado_146773" data-name="Trazado 146773" d="M369.508,348.952l5.819-3.384-78.478-45.319-5.819,3.388Z" transform="translate(-291.03 -300.249)" fill="#aeb6bc"/>
          </g>
          <g id="Grupo_87275" data-name="Grupo 87275" transform="translate(0 3.388)">
            <path id="Trazado_146774" data-name="Trazado 146774" d="M291.331,301.034l-.392,135,78.491,45.323.379-135.009Z" transform="translate(-290.94 -301.034)" fill="#6198d8"/>
          </g>
        </g>
      </g>
      <g id="Grupo_87282" data-name="Grupo 87282">
        <g id="Grupo_87281" data-name="Grupo 87281" style="isolation: isolate">
          <g id="Grupo_87278" data-name="Grupo 87278" transform="translate(0 133.012)">
            <path id="Trazado_146775" data-name="Trazado 146775" d="M282.884,303.149l.008,8.6L384.1,370.534l-.034-8.57Z" transform="translate(-282.884 -303.149)" fill="#92afff"/>
          </g>
          <g id="Grupo_87279" data-name="Grupo 87279" transform="translate(101.18 58.823)">
            <path id="Trazado_146776" data-name="Trazado 146776" d="M306.335,418.958l.034,8.57L536.713,294.545l-.017-8.591Z" transform="translate(-306.335 -285.954)" fill="#92afff"/>
          </g>
          <g id="Grupo_87280" data-name="Grupo 87280">
            <path id="Trazado_146777" data-name="Trazado 146777" d="M282.884,405.332l101.18,58.815,230.361-133L513.237,272.32Z" transform="translate(-282.884 -272.32)" fill="#def4ff"/>
          </g>
        </g>
      </g>
    </g>
    <g id="Grupo_87284" data-name="Grupo 87284" transform="translate(460.071 374.732)" opacity="0.1">
      <path id="Trazado_146778" data-name="Trazado 146778" d="M372.164,291.367c12.439,7.184,12.5,18.824.142,26.008s-32.458,7.184-44.9,0-12.5-18.824-.147-26.008S359.721,284.183,372.164,291.367Z" transform="translate(-318.032 -285.979)"/>
    </g>
    <g id="Grupo_87285" data-name="Grupo 87285" transform="translate(397.365 437.405)" opacity="0.1">
      <path id="Trazado_146779" data-name="Trazado 146779" d="M357.63,305.893c12.439,7.184,12.5,18.824.147,26.008s-32.462,7.184-44.905,0-12.508-18.824-.142-26.008S345.187,298.709,357.63,305.893Z" transform="translate(-303.499 -300.505)"/>
    </g>
    <g id="Grupo_87309" data-name="Grupo 87309" transform="translate(542.592 347.042)">
      <path id="Trazado_146780" data-name="Trazado 146780" d="M383.928,285.56l-7.49,4.327L365.2,296.372l-10.368,5.989-5.462,3.154-6.385,3.685-5.825,3.357,15.407,8.974,8.7-5.022,3.572-2.062,7.939-4.586,10.769-6.213,11.822-6.821,3.961-2.291Z" transform="translate(-337.159 -259.678)" opacity="0.1"/>
      <g id="Grupo_87290" data-name="Grupo 87290" transform="translate(44.292 11.639)">
        <g id="Grupo_87289" data-name="Grupo 87289" style="isolation: isolate">
          <g id="Grupo_87286" data-name="Grupo 87286" transform="translate(3.615 2.086)">
            <path id="Trazado_146781" data-name="Trazado 146781" d="M348.326,283.079l.577-.337-.063,22.976-.577.337Z" transform="translate(-348.263 -282.742)" fill="#afb1b1"/>
          </g>
          <g id="Grupo_87287" data-name="Grupo 87287" transform="translate(0.063)">
            <path id="Trazado_146782" data-name="Trazado 146782" d="M347.439,282.6l.586-.337,3.606,2.086-.577.337Z" transform="translate(-347.439 -282.259)" fill="#c4c5c5"/>
          </g>
          <g id="Grupo_87288" data-name="Grupo 87288" transform="translate(0 0.337)">
            <path id="Trazado_146783" data-name="Trazado 146783" d="M351.1,284.422,351.04,307.4l-3.615-2.086.063-22.975Z" transform="translate(-347.425 -282.337)" fill="#dee0df"/>
          </g>
        </g>
      </g>
      <path id="Trazado_146784" data-name="Trazado 146784" d="M348.066,290.861a7.507,7.507,0,0,1,6.813.069,2.172,2.172,0,0,1,1.281,2.274l4.133,2.558,2.873-2.1-12.245-7.132-6.144,3.547,2.463,1.419A3.579,3.579,0,0,1,348.066,290.861Z" transform="translate(-311.906 -256.453)" fill="#f3f4f4"/>
      <path id="Trazado_146785" data-name="Trazado 146785" d="M362.536,290.849a3.072,3.072,0,0,1-1.212,1.13,7.507,7.507,0,0,1-6.813-.073c-1.488-.893-1.708-2.218-.729-3.262l-2.442-1.411-8.5,4.906,2.282,1.325a2.912,2.912,0,0,1,.44-.3,7.485,7.485,0,0,1,6.808.069c1.2.721,1.579,1.726,1.169,2.632l4.008,2.429,8.823-5.1Z" transform="translate(-318.313 -254.133)" fill="#f3f4f4"/>
      <path id="Trazado_146786" data-name="Trazado 146786" d="M343.736,294.721a7.525,7.525,0,0,1,6.808.069c1.273.764,1.614,1.829,1.091,2.779l3.939,2.395,2.934-1.687,6.5-3.753L361,292.093a2.876,2.876,0,0,1-1.316,1.316,7.5,7.5,0,0,1-6.808-.069c-1.678-1.014-1.76-2.571-.293-3.646L350.3,288.37l-4.47,2.584-5.238,3.025,2.343,1.346A3.793,3.793,0,0,1,343.736,294.721Z" transform="translate(-325.77 -250.364)" fill="#f3f4f4"/>
      <path id="Trazado_146787" data-name="Trazado 146787" d="M355.3,293.26a3.03,3.03,0,0,1-1.234,1.165,7.473,7.473,0,0,1-6.808-.065c-1.527-.919-1.721-2.287-.656-3.344l-2.343-1.346-4.772,2.753,12.628,7.352,7.123-4.12Z" transform="translate(-329.436 -246.055)" fill="#f3f4f4"/>
      <path id="Trazado_146788" data-name="Trazado 146788" d="M342.416,304.69v1.041l28.529-16.6.05-.944Z" transform="translate(-319.735 -250.973)" fill="#dee0df"/>
      <path id="Trazado_146789" data-name="Trazado 146789" d="M352.117,297.66l-12.627-7.352v1.2l12.627,7.192Z" transform="translate(-329.435 -243.942)" fill="#e3e5e5"/>
      <path id="Trazado_146790" data-name="Trazado 146790" d="M347.882,286.655a7.511,7.511,0,0,1,6.808.069A2.159,2.159,0,0,1,355.972,289l4.138,2.559,2.934-2.062-12.314-7.162-6.131,3.542,2.459,1.419A3.826,3.826,0,0,1,347.882,286.655Z" transform="translate(-312.499 -270.364)" fill="#f3f4f4"/>
      <path id="Trazado_146791" data-name="Trazado 146791" d="M348.751,314.4h.859a3.431,3.431,0,0,0,3.43-3.434V280.353h-7.718v30.611A3.434,3.434,0,0,0,348.751,314.4Z" transform="translate(-310.106 -276.936)" fill="#ade9f4"/>
      <path id="Trazado_146792" data-name="Trazado 146792" d="M348.089,307.308h.634a2.531,2.531,0,0,0,2.528-2.537v-22.6h-5.7v22.6A2.532,2.532,0,0,0,348.089,307.308Z" transform="translate(-309.327 -270.908)" fill="#298bed"/>
      <g id="Grupo_87292" data-name="Grupo 87292" transform="translate(36.226 9.615)">
        <g id="Grupo_87291" data-name="Grupo 87291">
          <path id="Trazado_146793" data-name="Trazado 146793" d="M350.464,282.292c1.092.66,1.049,1.7-.086,2.334a4.437,4.437,0,0,1-4.03-.039c-1.087-.656-1.053-1.7.082-2.334A4.459,4.459,0,0,1,350.464,282.292Z" transform="translate(-345.555 -281.79)" fill="#0467d8"/>
        </g>
      </g>
      <path id="Trazado_146794" data-name="Trazado 146794" d="M362.358,286.663a3.111,3.111,0,0,1-1.208,1.126,7.494,7.494,0,0,1-6.813-.069c-1.493-.9-1.713-2.222-.733-3.262l-2.438-1.411-8.5,4.906,2.278,1.316a4.635,4.635,0,0,1,.444-.293,7.5,7.5,0,0,1,6.808.06c1.2.725,1.575,1.73,1.169,2.64l4,2.42,8.823-5.091Z" transform="translate(-318.89 -268.004)" fill="#f3f4f4"/>
      <g id="Grupo_87296" data-name="Grupo 87296" transform="translate(25.525 4.891)">
        <path id="Trazado_146795" data-name="Trazado 146795" d="M346.6,315.532h.859a3.428,3.428,0,0,0,3.43-3.43V281.486h-7.719V312.1A3.425,3.425,0,0,0,346.6,315.532Z" transform="translate(-342.75 -278.073)" fill="#ade9f4"/>
        <path id="Trazado_146796" data-name="Trazado 146796" d="M345.935,308.438h.638a2.53,2.53,0,0,0,2.533-2.528v-22.6h-5.7v22.6A2.529,2.529,0,0,0,345.935,308.438Z" transform="translate(-341.975 -272.04)" fill="#298bed"/>
        <g id="Grupo_87293" data-name="Grupo 87293" transform="translate(0 2.468)">
          <path id="Trazado_146797" data-name="Trazado 146797" d="M343.075,283.083v-1.795c0,.617.639,1.066,1.433,1.545a5.714,5.714,0,0,0,5.566.073c.88-.5,1.566-.984,1.566-1.64v1.786a2.173,2.173,0,0,1-1.316,1.8,6.679,6.679,0,0,1-6.053-.065A2.087,2.087,0,0,1,343.075,283.083Z" transform="translate(-343.075 -281.267)" fill="#7fe2f4"/>
        </g>
        <g id="Grupo_87294" data-name="Grupo 87294" transform="translate(0)">
          <path id="Trazado_146798" data-name="Trazado 146798" d="M350.448,281.455c1.635.984,1.579,2.554-.129,3.508a6.679,6.679,0,0,1-6.053-.065c-1.635-.988-1.579-2.559.125-3.512A6.688,6.688,0,0,1,350.448,281.455Z" transform="translate(-343.075 -280.695)" fill="#cdf6fc"/>
          <path id="Trazado_146799" data-name="Trazado 146799" d="M346.869,284.573a5.489,5.489,0,0,1-2.757-.669c-.587-.354-.91-.781-.893-1.208,0-.436.371-.893,1-1.243a6.089,6.089,0,0,1,5.436.047,1.558,1.558,0,0,1,.9,1.212,1.66,1.66,0,0,1-1.005,1.243A5.579,5.579,0,0,1,346.869,284.573Z" transform="translate(-342.602 -280.224)" fill="#7fe2f4"/>
        </g>
        <g id="Grupo_87295" data-name="Grupo 87295" transform="translate(1.433 9.611)">
          <path id="Trazado_146800" data-name="Trazado 146800" d="M348.316,283.43c1.092.656,1.048,1.7-.091,2.334a4.415,4.415,0,0,1-4.025-.043c-1.087-.651-1.053-1.7.078-2.334A4.441,4.441,0,0,1,348.316,283.43Z" transform="translate(-343.407 -282.922)" fill="#0467d8"/>
        </g>
      </g>
      <path id="Trazado_146801" data-name="Trazado 146801" d="M343.558,290.532a7.533,7.533,0,0,1,6.812.069c1.269.764,1.614,1.834,1.092,2.783l3.943,2.395,2.925-1.7,6.5-3.754-4-2.42a2.94,2.94,0,0,1-1.312,1.312,7.48,7.48,0,0,1-6.813-.073c-1.683-1.005-1.76-2.567-.3-3.646l-2.278-1.316-4.474,2.58-5.234,3.02,2.339,1.355A3.877,3.877,0,0,1,343.558,290.532Z" transform="translate(-326.347 -264.235)" fill="#f3f4f4"/>
      <path id="Trazado_146802" data-name="Trazado 146802" d="M344.462,316.724h.858a3.432,3.432,0,0,0,3.434-3.434V282.678h-7.723v30.611A3.431,3.431,0,0,0,344.462,316.724Z" transform="translate(-324.322 -269.23)" fill="#ade9f4"/>
      <path id="Trazado_146803" data-name="Trazado 146803" d="M343.8,309.63h.634a2.535,2.535,0,0,0,2.537-2.533V284.5h-5.7v22.6A2.527,2.527,0,0,0,343.8,309.63Z" transform="translate(-323.543 -263.198)" fill="#298bed"/>
      <g id="Grupo_87297" data-name="Grupo 87297" transform="translate(17.721 19.645)">
        <path id="Trazado_146804" data-name="Trazado 146804" d="M346.175,284.617c1.092.664,1.049,1.7-.082,2.334a4.432,4.432,0,0,1-4.034-.034c-1.087-.66-1.053-1.7.086-2.334A4.424,4.424,0,0,1,346.175,284.617Z" transform="translate(-341.266 -284.114)" fill="#0467d8"/>
      </g>
      <path id="Trazado_146805" data-name="Trazado 146805" d="M355.128,289.081a3.086,3.086,0,0,1-1.234,1.165,7.512,7.512,0,0,1-6.808-.069c-1.527-.919-1.726-2.287-.66-3.34l-2.339-1.355-4.772,2.753,12.624,7.352,7.132-4.112Z" transform="translate(-330.013 -259.933)" fill="#f3f4f4"/>
      <path id="Trazado_146806" data-name="Trazado 146806" d="M342.241,300.517v1.041l28.575-16.622.042-.94Z" transform="translate(-320.314 -264.862)" fill="#dee0df"/>
      <path id="Trazado_146807" data-name="Trazado 146807" d="M351.939,293.473l-12.623-7.352v1.2l12.623,7.192Z" transform="translate(-330.012 -257.818)" fill="#e3e5e5"/>
      <g id="Grupo_87302" data-name="Grupo 87302" transform="translate(12.7 27.789)">
        <g id="Grupo_87301" data-name="Grupo 87301" style="isolation: isolate">
          <g id="Grupo_87298" data-name="Grupo 87298" transform="translate(3.607 2.081)">
            <path id="Trazado_146808" data-name="Trazado 146808" d="M341.006,286.826l.582-.341-.068,22.979-.581.337Z" transform="translate(-340.938 -286.484)" fill="#afb1b1"/>
          </g>
          <g id="Grupo_87299" data-name="Grupo 87299" transform="translate(0.059)">
            <path id="Trazado_146809" data-name="Trazado 146809" d="M340.116,286.339,340.7,286l3.615,2.081-.582.341Z" transform="translate(-340.116 -286.002)" fill="#c4c5c5"/>
          </g>
          <g id="Grupo_87300" data-name="Grupo 87300" transform="translate(0 0.337)">
            <path id="Trazado_146810" data-name="Trazado 146810" d="M343.777,288.166l-.067,22.976-3.607-2.086.059-22.976Z" transform="translate(-340.102 -286.08)" fill="#dee0df"/>
          </g>
        </g>
      </g>
      <g id="Grupo_87303" data-name="Grupo 87303" transform="translate(34.796 2.467)">
        <path id="Trazado_146811" data-name="Trazado 146811" d="M345.224,281.949v-1.786c0,.608.634,1.057,1.433,1.536a5.715,5.715,0,0,0,5.566.073c.88-.5,1.562-.984,1.562-1.64v1.791a2.173,2.173,0,0,1-1.316,1.795,6.644,6.644,0,0,1-6.049-.06A2.09,2.09,0,0,1,345.224,281.949Z" transform="translate(-345.224 -280.133)" fill="#7fe2f4"/>
      </g>
      <g id="Grupo_87304" data-name="Grupo 87304" transform="translate(34.794)">
        <path id="Trazado_146812" data-name="Trazado 146812" d="M352.6,280.32c1.631.984,1.579,2.554-.134,3.508a6.64,6.64,0,0,1-6.053-.065c-1.635-.984-1.575-2.554.125-3.5A6.672,6.672,0,0,1,352.6,280.32Z" transform="translate(-345.223 -279.561)" fill="#cdf6fc"/>
        <path id="Trazado_146813" data-name="Trazado 146813" d="M349.021,283.444a5.438,5.438,0,0,1-2.761-.673c-.587-.349-.91-.781-.893-1.2,0-.44.371-.889,1-1.243a6.071,6.071,0,0,1,5.436.043,1.564,1.564,0,0,1,.9,1.212,1.656,1.656,0,0,1-1,1.243A5.59,5.59,0,0,1,349.021,283.444Z" transform="translate(-344.751 -279.091)" fill="#7fe2f4"/>
      </g>
      <g id="Grupo_87305" data-name="Grupo 87305" transform="translate(16.292 12.503)">
        <path id="Trazado_146814" data-name="Trazado 146814" d="M340.935,284.271V282.48c0,.617.639,1.061,1.432,1.54a5.693,5.693,0,0,0,5.566.073c.88-.488,1.562-.984,1.562-1.635v1.786a2.171,2.171,0,0,1-1.316,1.795,6.645,6.645,0,0,1-6.049-.06A2.079,2.079,0,0,1,340.935,284.271Z" transform="translate(-340.935 -282.459)" fill="#7fe2f4"/>
      </g>
      <g id="Grupo_87306" data-name="Grupo 87306" transform="translate(16.29 10.035)">
        <path id="Trazado_146815" data-name="Trazado 146815" d="M348.31,282.646c1.631.979,1.579,2.55-.129,3.508a6.666,6.666,0,0,1-6.053-.065c-1.64-.988-1.579-2.554.125-3.508A6.676,6.676,0,0,1,348.31,282.646Z" transform="translate(-340.935 -281.887)" fill="#cdf6fc"/>
        <path id="Trazado_146816" data-name="Trazado 146816" d="M344.728,285.77a5.5,5.5,0,0,1-2.757-.677c-.582-.35-.91-.777-.893-1.2s.367-.889,1.005-1.243a5.568,5.568,0,0,1,2.675-.617,5.489,5.489,0,0,1,2.757.669,1.507,1.507,0,0,1,.9,1.2c0,.44-.371.893-1,1.247A5.648,5.648,0,0,1,344.728,285.77Z" transform="translate(-340.463 -281.417)" fill="#7fe2f4"/>
      </g>
      <g id="Grupo_87307" data-name="Grupo 87307" transform="translate(9.83 21.534)" opacity="0.4">
        <path id="Trazado_146817" data-name="Trazado 146817" d="M343.228,295.437c5.035,2.494,13.172,2.494,18.173,0s4.983-6.519-.056-9.017-13.172-2.489-18.168,0-4.983,6.532.052,9.017" transform="translate(-339.437 -284.552)" fill="#fcfdfd" opacity="0"/>
        <path id="Trazado_146818" data-name="Trazado 146818" d="M343.177,295.736c4.733,2.39,12.378,2.39,17.081,0s4.681-6.247-.052-8.637-12.383-2.377-17.077,0-4.681,6.26.047,8.637" transform="translate(-338.843 -282.022)" fill="#fdfdfd" opacity="0.167"/>
        <path id="Trazado_146819" data-name="Trazado 146819" d="M343.132,296.044c4.431,2.282,11.584,2.282,15.985,0s4.379-5.971-.052-8.254-11.584-2.282-15.981,0-4.379,5.971.047,8.254" transform="translate(-338.249 -279.494)" fill="#fdfefe" opacity="0.333"/>
        <path id="Trazado_146820" data-name="Trazado 146820" d="M343.082,296.343a17.817,17.817,0,0,0,14.894,0c4.1-2.174,4.081-5.7-.048-7.874a17.839,17.839,0,0,0-14.889,0c-4.1,2.179-4.082,5.7.043,7.874" transform="translate(-337.656 -276.964)" fill="#fefefe" opacity="0.5"/>
        <path id="Trazado_146821" data-name="Trazado 146821" d="M343.035,296.645a16.088,16.088,0,0,0,13.793,0c3.8-2.067,3.784-5.419-.039-7.49a16.138,16.138,0,0,0-13.8,0c-3.793,2.071-3.78,5.423.047,7.49" transform="translate(-337.061 -274.435)" fill="#fefefe" opacity="0.667"/>
        <path id="Trazado_146822" data-name="Trazado 146822" d="M342.984,296.947a14.443,14.443,0,0,0,12.706,0c3.5-1.967,3.478-5.143-.043-7.11a14.471,14.471,0,0,0-12.706,0c-3.495,1.967-3.473,5.143.043,7.11" transform="translate(-336.467 -271.907)" fill="#fff" opacity="0.833"/>
        <path id="Trazado_146823" data-name="Trazado 146823" d="M342.939,297.253a12.806,12.806,0,0,0,11.61,0c3.2-1.864,3.18-4.867-.039-6.731a12.815,12.815,0,0,0-11.615,0c-3.193,1.864-3.175,4.867.043,6.731" transform="translate(-335.873 -269.378)" fill="#fff"/>
      </g>
      <g id="Grupo_87308" data-name="Grupo 87308" transform="translate(19.221 10.644)" opacity="0.4">
        <path id="Trazado_146824" data-name="Trazado 146824" d="M346.006,294.621c5.82,2.887,15.234,2.887,21.025,0s5.755-7.55-.069-10.428-15.239-2.886-21.029,0-5.755,7.546.073,10.428" transform="translate(-341.614 -282.028)" fill="#fcfdfd" opacity="0"/>
        <path id="Trazado_146825" data-name="Trazado 146825" d="M345.948,294.969c5.471,2.766,14.32,2.766,19.756,0s5.41-7.231-.061-9.984-14.324-2.766-19.76,0-5.41,7.223.065,9.984" transform="translate(-340.925 -279.102)" fill="#fdfdfd" opacity="0.167"/>
        <path id="Trazado_146826" data-name="Trazado 146826" d="M345.891,295.32c5.121,2.641,13.4,2.641,18.5,0s5.065-6.912-.06-9.548-13.405-2.636-18.5,0-5.065,6.908.06,9.548" transform="translate(-340.238 -276.173)" fill="#fdfefe" opacity="0.333"/>
        <path id="Trazado_146827" data-name="Trazado 146827" d="M345.834,295.671c4.772,2.52,12.486,2.52,17.228,0s4.72-6.593-.052-9.108-12.495-2.515-17.232,0-4.72,6.592.056,9.108" transform="translate(-339.552 -273.25)" fill="#fefefe" opacity="0.5"/>
        <path id="Trazado_146828" data-name="Trazado 146828" d="M345.782,296.018c4.414,2.394,11.563,2.394,15.959,0s4.375-6.269-.052-8.659-11.572-2.4-15.963,0-4.375,6.269.056,8.659" transform="translate(-338.865 -270.322)" fill="#fefefe" opacity="0.667"/>
        <path id="Trazado_146829" data-name="Trazado 146829" d="M345.718,296.367a16.663,16.663,0,0,0,14.7,0c4.047-2.269,4.03-5.95-.043-8.219a16.691,16.691,0,0,0-14.7,0c-4.047,2.269-4.03,5.95.043,8.219" transform="translate(-338.176 -267.397)" fill="#fff" opacity="0.833"/>
        <path id="Trazado_146830" data-name="Trazado 146830" d="M345.665,296.72a14.8,14.8,0,0,0,13.431,0c3.7-2.149,3.685-5.63-.043-7.783a14.8,14.8,0,0,0-13.431,0c-3.7,2.153-3.685,5.635.043,7.783" transform="translate(-337.489 -264.471)" fill="#fff"/>
      </g>
    </g>
    <g id="Grupo_87314" data-name="Grupo 87314" transform="translate(464.496 324.884)">
      <path id="Trazado_146831" data-name="Trazado 146831" d="M350.739,302.383V275.564H333.87v26.819a23.259,23.259,0,1,0,16.87,0Z" transform="translate(-319.058 -270.652)" fill="#4ed3f3"/>
      <path id="Trazado_146832" data-name="Trazado 146832" d="M350.739,302.383V275.564H333.87v26.819a23.259,23.259,0,1,0,16.87,0Z" transform="translate(-319.058 -270.652)" fill="#defdff"/>
      <path id="Trazado_146833" data-name="Trazado 146833" d="M359.652,302.3a19.9,19.9,0,1,1-19.9-20.282A20.093,20.093,0,0,1,359.652,302.3Z" transform="translate(-316.416 -249.276)" fill="#3484ff"/>
      <rect id="Rectángulo_32739" data-name="Rectángulo 32739" width="12.231" height="31.706" transform="translate(17.029 8.045)" fill="#3484ff"/>
      <path id="Trazado_146834" data-name="Trazado 146834" d="M357.413,284.167a9.067,9.067,0,0,1-4.194,10.407c-6.981,3.918-18.337,3.922-25.365,0-4.513-2.52-5.682-6.989-4.418-10.225a22.831,22.831,0,0,0-3.805,11.787c0,11.019,9.306,19.95,20.783,19.95s20.783-8.275,20.783-19.95C361.2,292.33,359.341,287.2,357.413,284.167Z" transform="translate(-317.159 -242.137)" fill="#4e93f9"/>
      <path id="Trazado_146835" data-name="Trazado 146835" d="M325.6,299.743c7.028,3.922,18.384,3.918,25.365,0,4.28-2.4,5.919-5.717,4.936-8.832-.626-1.955-2.282-3.827-4.983-5.341l-.035-.022c-7.024-3.922-18.384-3.922-25.369,0-.134.073-.254.151-.384.224a9.964,9.964,0,0,0-4.414,4.7C319.465,293.707,321.091,297.224,325.6,299.743Z" transform="translate(-314.909 -247.307)" fill="#8dd5ff"/>
      <g id="Grupo_87312" data-name="Grupo 87312" transform="translate(13.686)">
        <g id="Grupo_87310" data-name="Grupo 87310" transform="translate(0.006)">
          <path id="Trazado_146836" data-name="Trazado 146836" d="M338.689,276.115c3.659,2.2,3.529,5.708-.285,7.831a14.878,14.878,0,0,1-13.509-.134c-3.659-2.2-3.534-5.708.276-7.835A14.909,14.909,0,0,1,338.689,276.115Z" transform="translate(-322.231 -274.425)" fill="#9ff8ff"/>
          <path id="Trazado_146837" data-name="Trazado 146837" d="M330.738,283.147a12.378,12.378,0,0,1-6.183-1.5c-1.316-.794-2.032-1.756-2.015-2.718.017-.992.841-2.019,2.256-2.8a12.569,12.569,0,0,1,6-1.389,12.337,12.337,0,0,1,6.178,1.5c1.316.794,2.036,1.756,2.019,2.718-.013.992-.841,2.015-2.257,2.8A12.559,12.559,0,0,1,330.738,283.147Z" transform="translate(-321.209 -273.403)" fill="#2bb4da"/>
          <path id="Trazado_146838" data-name="Trazado 146838" d="M324.8,277.292a12.57,12.57,0,0,1,6-1.381,12.382,12.382,0,0,1,6.178,1.493,4.072,4.072,0,0,1,1.92,2.1,2.042,2.042,0,0,0,.1-.548c.017-.962-.7-1.924-2.019-2.718a12.336,12.336,0,0,0-6.178-1.5,12.569,12.569,0,0,0-6,1.389c-1.415.785-2.239,1.812-2.256,2.8a2.087,2.087,0,0,0,.1.626A4.305,4.305,0,0,1,324.8,277.292Z" transform="translate(-321.209 -273.403)" fill="#1c9cba"/>
        </g>
        <g id="Grupo_87311" data-name="Grupo 87311" transform="translate(0 5.508)">
          <path id="Trazado_146839" data-name="Trazado 146839" d="M322.243,278.463l-.013-2.705c0,1.376.889,2.753,2.671,3.823a14.878,14.878,0,0,0,13.509.134c1.963-1.091,2.951-2.554,2.947-4.012l.009,2.7c0,1.458-.984,2.921-2.947,4.017a14.9,14.9,0,0,1-13.509-.138C323.127,281.212,322.247,279.835,322.243,278.463Z" transform="translate(-322.23 -275.702)" fill="#65e0f6"/>
        </g>
      </g>
      <g id="Grupo_87313" data-name="Grupo 87313" transform="translate(9.487 44.576)">
        <path id="Trazado_146840" data-name="Trazado 146840" d="M329.472,292.505c-1.873,2.528-4.914,3.452-6.791,2.058s-1.9-4.569-.026-7.1,4.906-3.452,6.791-2.062S331.344,289.977,329.472,292.505Z" transform="translate(-321.257 -284.757)" fill="#fff" opacity="0.5"/>
        <path id="Trazado_146841" data-name="Trazado 146841" d="M325.832,290.984c-.539,1.376-1.838,2.157-2.9,1.747a2.768,2.768,0,0,1,1.95-4.987C325.944,288.158,326.367,289.607,325.832,290.984Z" transform="translate(-319.623 -275.232)" fill="#fff" opacity="0.5"/>
      </g>
    </g>
    <g id="Grupo_87321" data-name="Grupo 87321" transform="translate(403.226 397.027)">
      <path id="Trazado_146842" data-name="Trazado 146842" d="M348.869,340.838h.056l-.475-.975-.052-.112-12.6-25.74h0V292.68H318.4v21.331l-12.421,25.374a10.076,10.076,0,0,0-.488.992l-.138.289h.022c-1.562,4.159.44,8.681,6.04,11.912,8.72,5.031,22.811,5.031,31.483,0C348.377,349.385,350.357,344.946,348.869,340.838Z" transform="translate(-304.857 -286.064)" fill="#d2e6fe"/>
      <path id="Trazado_146843" data-name="Trazado 146843" d="M348.869,340.838h.056l-.475-.975-.052-.112-12.6-25.74h0V292.68H318.4v21.331l-12.421,25.374a10.076,10.076,0,0,0-.488.992l-.138.289h.022c-1.562,4.159.44,8.681,6.04,11.912,8.72,5.031,22.811,5.031,31.483,0C348.377,349.385,350.357,344.946,348.869,340.838Z" transform="translate(-304.857 -286.064)" fill="#d2e6fe"/>
      <path id="Trazado_146844" data-name="Trazado 146844" d="M348.869,340.838h.056l-.475-.975-.052-.112-12.6-25.74h0V292.68H318.4v21.331l-12.421,25.374a10.076,10.076,0,0,0-.488.992l-.138.289h.022c-1.562,4.159.44,8.681,6.04,11.912,8.72,5.031,22.811,5.031,31.483,0C348.377,349.385,350.357,344.946,348.869,340.838Z" transform="translate(-304.857 -286.064)" fill="#defdff"/>
      <path id="Trazado_146845" data-name="Trazado 146845" d="M342.466,339.576h.043l-.323-.673c-.048-.1-.086-.186-.129-.276l-10.687-24.153h0l.091-21.952-13.906.2-.108,21.754-10.795,23.661a7.884,7.884,0,0,0-.6,1.251l-.026.043h.008c-1.307,3.547.38,7.4,5.07,10.156,7.3,4.3,19.092,4.3,26.344,0C342.047,346.867,343.713,343.079,342.466,339.576Z" transform="translate(-302.359 -286.588)" fill="#3484ff"/>
      <g id="Grupo_87315" data-name="Grupo 87315" transform="translate(13.538 2.022)">
        <path id="Trazado_146846" data-name="Trazado 146846" d="M322.828,293.094c3.413,1.963,3.426,5.156.039,7.123a13.555,13.555,0,0,1-12.3,0c-3.413-1.967-3.43-5.16-.043-7.128A13.551,13.551,0,0,1,322.828,293.094Z" transform="translate(-307.995 -291.615)" fill="#8bc3de"/>
      </g>
      <path id="Trazado_146847" data-name="Trazado 146847" d="M345.687,314.268h0l-.009-.013a8.259,8.259,0,0,0-.837-1.519L338.167,300.5H313.3l-7.05,12.762c-.065.116-.129.233-.19.354l-.017.026h0c-1.959,3.87-.2,8.215,5.268,11.261,8.021,4.478,20.981,4.478,28.954,0C345.4,322.026,347.206,317.987,345.687,314.268Z" transform="translate(-303.5 -260.128)" fill="#4e93f9"/>
      <g id="Grupo_87316" data-name="Grupo 87316" transform="translate(9.378 35.018)">
        <path id="Trazado_146848" data-name="Trazado 146848" d="M328.959,301.373c5.035,2.8,5.065,7.365.056,10.173s-13.146,2.813-18.186,0-5.07-7.369-.06-10.178S323.915,298.56,328.959,301.373Z" transform="translate(-307.031 -299.263)" fill="#8dd5ff"/>
      </g>
      <path id="Trazado_146849" data-name="Trazado 146849" d="M311.409,352.578c.358.207.742.388,1.122.587l14.208-39.055.345-21.43h-7.266l.125,21.27-15.079,29.162C304.722,346.529,306.892,349.972,311.409,352.578Z" transform="translate(-304.856 -286.064)" fill="#fff" opacity="0.1"/>
      <g id="Grupo_87319" data-name="Grupo 87319" transform="translate(12.322)">
        <g id="Grupo_87317" data-name="Grupo 87317" transform="translate(0.001)">
          <path id="Trazado_146850" data-name="Trazado 146850" d="M324.586,292.883c3.749,2.252,3.62,5.846-.285,8.025s-10.113,2.114-13.862-.138-3.616-5.846.293-8.025S320.837,290.622,324.586,292.883Z" transform="translate(-307.713 -291.147)" fill="#9ff8ff"/>
          <path id="Trazado_146851" data-name="Trazado 146851" d="M316.43,300.083a12.612,12.612,0,0,1-6.334-1.54c-1.35-.807-2.084-1.795-2.067-2.783.017-1.014.859-2.067,2.313-2.878a12.875,12.875,0,0,1,6.148-1.419A12.735,12.735,0,0,1,322.833,293c1.346.815,2.084,1.8,2.062,2.787-.013,1.018-.854,2.067-2.313,2.882A12.869,12.869,0,0,1,316.43,300.083Z" transform="translate(-306.663 -290.098)" fill="#2bb4da"/>
          <path id="Trazado_146852" data-name="Trazado 146852" d="M310.343,294.086a12.877,12.877,0,0,1,6.148-1.419,12.688,12.688,0,0,1,6.342,1.54,4.15,4.15,0,0,1,1.963,2.144,2.135,2.135,0,0,0,.1-.565c.021-.984-.716-1.972-2.062-2.787a12.734,12.734,0,0,0-6.342-1.536,12.875,12.875,0,0,0-6.148,1.419c-1.454.811-2.3,1.864-2.313,2.878a1.843,1.843,0,0,0,.1.643A4.408,4.408,0,0,1,310.343,294.086Z" transform="translate(-306.664 -290.098)" fill="#1c9cba"/>
        </g>
        <g id="Grupo_87318" data-name="Grupo 87318" transform="translate(0 5.65)">
          <path id="Trazado_146853" data-name="Trazado 146853" d="M307.717,295.282l0-2.77c0,1.407.91,2.822,2.727,3.918,3.749,2.252,9.949,2.317,13.862.138,2.011-1.122,3.016-2.619,3.016-4.112l.009,2.77c0,1.493-1.01,2.99-3.016,4.112-3.909,2.179-10.113,2.114-13.862-.138C308.632,298.1,307.726,296.693,307.717,295.282Z" transform="translate(-307.713 -292.456)" fill="#65e0f6"/>
        </g>
      </g>
      <g id="Grupo_87320" data-name="Grupo 87320" transform="translate(9.431 41.62)">
        <path id="Trazado_146854" data-name="Trazado 146854" d="M314.317,307.648c-1.657,2.239-4.345,3.059-6.014,1.829s-1.683-4.047-.022-6.286,4.345-3.055,6.014-1.825S315.974,305.409,314.317,307.648Z" transform="translate(-307.043 -300.793)" fill="#fff" opacity="0.5"/>
        <path id="Trazado_146855" data-name="Trazado 146855" d="M311.093,306.3a1.89,1.89,0,1,1-.841-2.869A2.152,2.152,0,0,1,311.093,306.3Z" transform="translate(-305.596 -292.361)" fill="#fff" opacity="0.5"/>
      </g>
    </g>
    <g id="Grupo_87328" data-name="Grupo 87328" transform="translate(408.629 299.344)">
      <path id="Trazado_146856" data-name="Trazado 146856" d="M338.652,305.252h.043l-.349-.725-.039-.082-9.319-19.031h0V269.64H316.126v15.774l-9.19,18.76a7.775,7.775,0,0,0-.362.738l-.1.207h.017c-1.152,3.076.328,6.42,4.466,8.81,6.45,3.728,16.874,3.728,23.281,0C338.294,311.568,339.756,308.289,338.652,305.252Z" transform="translate(-306.109 -264.747)" fill="#d2e6fe"/>
      <path id="Trazado_146857" data-name="Trazado 146857" d="M338.652,305.252h.043l-.349-.725-.039-.082-9.319-19.031h0V269.64H316.126v15.774l-9.19,18.76a7.775,7.775,0,0,0-.362.738l-.1.207h.017c-1.152,3.076.328,6.42,4.466,8.81,6.45,3.728,16.874,3.728,23.281,0C338.294,311.568,339.756,308.289,338.652,305.252Z" transform="translate(-306.109 -264.747)" fill="#d2e6fe"/>
      <path id="Trazado_146858" data-name="Trazado 146858" d="M338.652,305.252h.043l-.349-.725-.039-.082-9.319-19.031h0V269.64H316.126v15.774l-9.19,18.76a7.775,7.775,0,0,0-.362.738l-.1.207h.017c-1.152,3.076.328,6.42,4.466,8.81,6.45,3.728,16.874,3.728,23.281,0C338.294,311.568,339.756,308.289,338.652,305.252Z" transform="translate(-306.109 -264.747)" fill="#defdff"/>
      <path id="Trazado_146859" data-name="Trazado 146859" d="M333.918,304.318h.035l-.242-.5c-.035-.073-.06-.138-.095-.2l-7.9-17.862h0l.069-16.236-10.286.151-.078,16.084-7.982,17.5a5.47,5.47,0,0,0-.444.923l-.017.03h0c-.966,2.628.28,5.475,3.745,7.516,5.4,3.175,14.121,3.175,19.484,0C333.608,309.712,334.842,306.911,333.918,304.318Z" transform="translate(-304.262 -265.138)" fill="#3484ff"/>
      <g id="Grupo_87322" data-name="Grupo 87322" transform="translate(10.011 1.495)">
        <path id="Trazado_146860" data-name="Trazado 146860" d="M319.4,269.947c2.52,1.45,2.533,3.814.026,5.264a10.009,10.009,0,0,1-9.1,0c-2.524-1.45-2.533-3.814-.03-5.268A10.032,10.032,0,0,1,319.4,269.947Z" transform="translate(-308.43 -268.852)" fill="#8bc3de"/>
      </g>
      <path id="Trazado_146861" data-name="Trazado 146861" d="M336.3,285.6h0l0-.009a5.877,5.877,0,0,0-.617-1.122l-4.94-9.043H312.351l-5.212,9.431c-.048.091-.1.177-.138.268l-.013.021h0c-1.454,2.861-.151,6.071,3.887,8.323,5.937,3.314,15.519,3.314,21.413,0C336.089,291.338,337.427,288.352,336.3,285.6Z" transform="translate(-305.105 -245.57)" fill="#4e93f9"/>
      <g id="Grupo_87323" data-name="Grupo 87323" transform="translate(6.935 25.893)">
        <path id="Trazado_146862" data-name="Trazado 146862" d="M323.936,276.068c3.723,2.075,3.741,5.445.035,7.52a15.265,15.265,0,0,1-13.444,0c-3.728-2.075-3.749-5.445-.048-7.524A15.307,15.307,0,0,1,323.936,276.068Z" transform="translate(-307.717 -274.507)" fill="#8dd5ff"/>
      </g>
      <path id="Trazado_146863" data-name="Trazado 146863" d="M310.951,313.928c.272.155.552.289.833.436l10.5-28.877.259-15.847h-5.367l.091,15.726L306.115,306.93C306.011,309.458,307.612,312,310.951,313.928Z" transform="translate(-306.108 -264.747)" fill="#fff" opacity="0.1"/>
      <g id="Grupo_87326" data-name="Grupo 87326" transform="translate(9.111)">
        <g id="Grupo_87324" data-name="Grupo 87324">
          <path id="Trazado_146864" data-name="Trazado 146864" d="M320.7,269.792c2.774,1.665,2.675,4.323-.211,5.932a11.268,11.268,0,0,1-10.251-.108c-2.766-1.665-2.675-4.319.22-5.932A11.264,11.264,0,0,1,320.7,269.792Z" transform="translate(-308.221 -268.506)" fill="#9ff8ff"/>
          <path id="Trazado_146865" data-name="Trazado 146865" d="M314.665,275.116a9.382,9.382,0,0,1-4.681-1.135,2.587,2.587,0,0,1-1.527-2.062,2.823,2.823,0,0,1,1.709-2.131,9.573,9.573,0,0,1,4.543-1.048,9.41,9.41,0,0,1,4.694,1.139c1,.6,1.545,1.337,1.527,2.058-.008.755-.634,1.531-1.713,2.136A9.546,9.546,0,0,1,314.665,275.116Z" transform="translate(-307.443 -267.733)" fill="#2bb4da"/>
          <path id="Trazado_146866" data-name="Trazado 146866" d="M310.165,270.685a9.524,9.524,0,0,1,4.543-1.053,9.41,9.41,0,0,1,4.694,1.139,3.047,3.047,0,0,1,1.45,1.588,1.621,1.621,0,0,0,.077-.423c.017-.721-.526-1.454-1.527-2.058a9.41,9.41,0,0,0-4.694-1.139,9.574,9.574,0,0,0-4.543,1.048,2.823,2.823,0,0,0-1.709,2.131,1.43,1.43,0,0,0,.078.479A3.217,3.217,0,0,1,310.165,270.685Z" transform="translate(-307.443 -267.733)" fill="#1c9cba"/>
        </g>
        <g id="Grupo_87325" data-name="Grupo 87325" transform="translate(0.004 4.181)">
          <path id="Trazado_146867" data-name="Trazado 146867" d="M308.222,271.559v-2.049a3.531,3.531,0,0,0,2.011,2.895,11.269,11.269,0,0,0,10.251.108,3.7,3.7,0,0,0,2.235-3.037v2.041a3.672,3.672,0,0,1-2.231,3.042,11.309,11.309,0,0,1-10.251-.1A3.593,3.593,0,0,1,308.222,271.559Z" transform="translate(-308.222 -269.475)" fill="#65e0f6"/>
        </g>
      </g>
      <g id="Grupo_87327" data-name="Grupo 87327" transform="translate(6.972 30.773)">
        <path id="Trazado_146868" data-name="Trazado 146868" d="M313.113,280.711c-1.234,1.652-3.223,2.261-4.457,1.35s-1.243-2.99-.013-4.651,3.214-2.257,4.448-1.35S314.334,279.054,313.113,280.711Z" transform="translate(-307.725 -275.638)" fill="#fff" opacity="0.5"/>
        <path id="Trazado_146869" data-name="Trazado 146869" d="M310.72,279.716a1.4,1.4,0,1,1-.621-2.123A1.593,1.593,0,0,1,310.72,279.716Z" transform="translate(-306.653 -269.402)" fill="#fff" opacity="0.5"/>
      </g>
    </g>
    <path id="Trazado_146870" data-name="Trazado 146870" d="M318.47,274.1s-8.5-2.99-7.645,1.476S315.881,288,318.47,274.1Z" transform="translate(117.947 46.131)" fill="#e8a476"/>
  </g>
</svg>
