<svg xmlns="http://www.w3.org/2000/svg" width="442.669" height="417.965" viewBox="0 0 442.669 417.965">
  <g id="Grupo_87329" data-name="Grupo 87329" transform="translate(-275.179 -259.202)">
    <path id="Trazado_146743" data-name="Trazado 146743" d="M275.179,457.746l183.155,95.333L717.847,395.555,544.061,293.81Z" transform="translate(0 124.088)" opacity="0.1"/>
    <g id="Grupo_87255" data-name="Grupo 87255" transform="translate(306.022 462.576)" opacity="0.2">
      <path id="Trazado_146744" data-name="Trazado 146744" d="M375.444,312.85c21.5,12.422,21.621,32.562.261,44.97s-56.085,12.408-77.609,0c-21.492-12.408-21.607-32.548-.234-44.942C319.2,300.451,353.948,300.451,375.444,312.85Z" transform="translate(-281.905 -303.554)"/>
    </g>
    <path id="Trazado_146745" data-name="Trazado 146745" d="M297.946,312.423s-2.238,5.342,5.379,6.585c7.562,1.238,11.138,5.81,13.9,5.727,2.536-.073,5.324-2.063,1.94-5.186s-13.931-8.754-13.931-8.754Z" transform="translate(80.531 184.986)" fill="#171716"/>
    <path id="Trazado_146746" data-name="Trazado 146746" d="M290.44,312.883s-2.563,6.058,6.071,7.474c8.584,1.4,12.624,6.567,15.765,6.479,2.875-.078,6.034-2.334,2.2-5.869s-15.792-9.927-15.792-9.927Z" transform="translate(53.444 185.864)" fill="#171716"/>
    <path id="Trazado_146747" data-name="Trazado 146747" d="M319.623,281.7s6.36,47.4,3.237,68.6-3.237,66.434-3.237,66.434-5.53,3.118-9.533,0c0,0-8.611-33.511-4.92-47.349,3.453-12.913-5.837-34.134-7.378-52.944a113.894,113.894,0,0,0-3.54-20.208S314.4,296.453,319.623,281.7Z" transform="translate(68.387 80.67)" fill="#102946"/>
    <path id="Trazado_146748" data-name="Trazado 146748" d="M317.713,288.687s-.426,36.574-5.535,57.378c-5.131,20.8-9.446,65.063-9.446,65.063s-5.888,3.338-9.574-.142c0,0-3.847-36.285-.4-47.611,3.893-12.775,1.793-34.983-2.32-53.4-2.916-13.082.766-26.321.766-26.321S303.273,292.14,317.713,288.687Z" transform="translate(50.685 87.665)" fill="#102946"/>
    <path id="Trazado_146749" data-name="Trazado 146749" d="M302.269,340.935c3.347-12.537-5.292-32.905-7.208-51.3,4.847,12.5,12.6,34.368,11.83,44.011-.857,10.62,2.495,41.7,4.15,55.975a6.617,6.617,0,0,1-3.852-1.339S298.578,354.774,302.269,340.935Z" transform="translate(71.288 109.124)" fill="#091b2d"/>
    <path id="Trazado_146750" data-name="Trazado 146750" d="M292.759,363.375c3.893-12.775,1.793-34.983-2.32-53.4-2.916-13.082.766-26.321.766-26.321s-.532,1.839,6.865,3.43c.06,15.063,5.466,44.681,3.7,54.095-2.132,11.4-7.039,47.946-5.617,71.281a5.8,5.8,0,0,1-2.99-1.472S289.31,374.7,292.759,363.375Z" transform="translate(50.685 87.665)" fill="#091b2d"/>
    <path id="Trazado_146751" data-name="Trazado 146751" d="M299.731,290.193s.61,9.5,8.653,8.8S342.8,281.939,342.8,281.939s-4.526-5.828-2.1-8.9C340.7,273.043,303.111,282.494,299.731,290.193Z" transform="translate(88.032 49.627)" fill="#ccdcf8"/>
    <path id="Trazado_146752" data-name="Trazado 146752" d="M306.51,267.315c-3.884-1.761-11.973.935-8.336,13.169s10.354,38.628,15.059,40.329c3.82,1.371,10.666.789,7.3-14.958S316.108,271.652,306.51,267.315Z" transform="translate(79.161 27.338)" fill="#ccdcf8"/>
    <g id="Grupo_87256" data-name="Grupo 87256" transform="translate(341.333 294.609)">
      <path id="Trazado_146753" data-name="Trazado 146753" d="M290.153,284.5s8.533-13.839,40.971-17.5c0,0,5.227-2.008,4.251,14.7-.133,2.4,2.238,6.617,3.875,8.832,1.623,2.256,5.874,10.757-4.246,20.47,0,0-4.251,14.8.009,24.564,3.824,8.735-17.7,16.508-35.716,14.224-2.229-.275-7.126-1.885-4.961-9.584,2.141-7.7,7.19-21.157,3.976-35.56S287.516,291.692,290.153,284.5Z" transform="translate(-289.606 -266.924)" fill="#7ae582"/>
    </g>
    <g id="Grupo_87257" data-name="Grupo 87257" transform="translate(341.333 304.021)">
      <path id="Trazado_146754" data-name="Trazado 146754" d="M290.153,277.143c-2.637,7.19,4.934,5.727,8.157,20.144s-1.834,27.857-3.976,35.56c-2.164,7.7,2.733,9.309,4.961,9.584a54.4,54.4,0,0,0,9.066.339c-5.934-14.059,2.935-39.036,3.751-52.93.853-14.724-12.321-20.864-12.321-20.864C292.593,273.208,290.153,277.143,290.153,277.143Z" transform="translate(-289.606 -268.976)" fill="#5fb9e6"/>
    </g>
    <g id="Grupo_87258" data-name="Grupo 87258" transform="translate(328.051 294.313)">
      <path id="Trazado_146755" data-name="Trazado 146755" d="M298.252,275.391s23.281,14.476,2.761,135.748c0,0,12.119-3.416,17.952-13.037,0,0-1.018-52.549,0-68.012,1.041-15.457,5.365-71.034-16.205-62.307C302.759,267.783,290.942,271.516,298.252,275.391Z" transform="translate(-253.878 -266.857)" fill="#e5eeff"/>
      <path id="Trazado_146756" data-name="Trazado 146756" d="M315.1,268.544s32.96,25.692,5.374,142.7c0,0-21.914,10.877-33.767-5.608,0,0,7.493-52.641,13.215-65.742,4.567-10.437,9.194-23.528-3.682-45.68C296.242,294.214,285.278,277.279,315.1,268.544Z" transform="translate(-286.709 -260.818)" fill="#e5eeff"/>
      <path id="Trazado_146757" data-name="Trazado 146757" d="M296.546,276.777s15.82,21.9,9.588,74.037c0,0,5.241-41.329,7.3-45.456l-4.113-2.4,2.692-9.263s-3.655-17.3-11.693-26.834Z" transform="translate(-251.439 -266.859)" fill="#ccdcf8"/>
      <path id="Trazado_146758" data-name="Trazado 146758" d="M303.455,268.258s22.322,22.313,14.944,82.337c0,0-4.081-37.541-10.189-43.383l3.994-4.8-7.791-3.778S298.755,277.14,290.13,275C290.13,275,297.678,268.4,303.455,268.258Z" transform="translate(-274.443 -261.843)" fill="#ccdcf8"/>
    </g>
    <g id="Grupo_87267" data-name="Grupo 87267" transform="translate(347.3 259.202)">
      <g id="Grupo_87259" data-name="Grupo 87259" transform="translate(9.818)">
        <path id="Trazado_146759" data-name="Trazado 146759" d="M313.765,268.575s-2.591,16.659-4.067,32.539c-.216,2.3,2.118,6.4,6.392,5.42,0,0,12.638-18.512,3.517-37.532-2.9-6.039-13.7-14.71-26.559-6.328Z" transform="translate(-293.048 -259.202)" fill="#301806"/>
      </g>
      <g id="Grupo_87262" data-name="Grupo 87262" transform="translate(10.237 21.451)">
        <g id="Grupo_87260" data-name="Grupo 87260">
          <path id="Trazado_146760" data-name="Trazado 146760" d="M316.23,273.808s-5.979,6.571-3.512,13.935c.647,2.013,2.215,10.276-10.079,6.516,0,0-12.729-6.947-8.717-10.725,2.646-2.513,5.3-6.19,1.94-19.653Z" transform="translate(-293.139 -263.88)" fill="#e8a476"/>
        </g>
        <g id="Grupo_87261" data-name="Grupo 87261" transform="translate(0.081 1.476)">
          <path id="Trazado_146761" data-name="Trazado 146761" d="M293.859,282.379a2.158,2.158,0,0,0-.7,1.279c11.8,2.765,20.217-5.328,20.217-5.328L298.444,264.2h0s-.8.482-2.008,1.339C298.765,276.725,296.33,280.049,293.859,282.379Z" transform="translate(-293.157 -264.202)" fill="#db9669"/>
        </g>
      </g>
      <g id="Grupo_87263" data-name="Grupo 87263" transform="translate(11.197 5.38)">
        <path id="Trazado_146762" data-name="Trazado 146762" d="M314.182,262.64s3.315,1.266,3.091,11.179c-.014,1.1,1.687,2.6,2.077,5.337.376,2.774.614,13.821-5.824,14.774-4.64.7-16.012-2.591-19.484-13.83S300.513,254.826,314.182,262.64Z" transform="translate(-293.349 -260.375)" fill="#f1b287"/>
      </g>
      <g id="Grupo_87264" data-name="Grupo 87264" transform="translate(0 0.807)">
        <path id="Trazado_146763" data-name="Trazado 146763" d="M322.18,270.177s-28.723,9.538-8.524,46.813c0,0-14.866.977-21.075-12-2.967-6.223-1.344-18.585-.055-30.361,0,0,3.852-18.062,18.975-14.88C311.5,259.754,321.442,263.908,322.18,270.177Z" transform="translate(-290.907 -259.378)" fill="#231202"/>
      </g>
      <g id="Grupo_87265" data-name="Grupo 87265" transform="translate(13.697 0.014)">
        <path id="Trazado_146764" data-name="Trazado 146764" d="M311.47,270.8s5.012-.793,7.163,8.424c0,0-.018-25.862-24.739-18.791C293.894,260.429,308.476,261.59,311.47,270.8Z" transform="translate(-293.894 -259.205)" fill="#301806"/>
      </g>
      <g id="Grupo_87266" data-name="Grupo 87266" transform="translate(11.32 22.924)">
        <path id="Trazado_146765" data-name="Trazado 146765" d="M299.563,268.451s-1.582-5.535-4.806-3.971c-1,.5-2.132,1.619-.72,4.485s4.489,5.535,6.979,5.3Z" transform="translate(-293.376 -264.201)" fill="#f1b287"/>
      </g>
    </g>
    <path id="Trazado_146766" data-name="Trazado 146766" d="M295.512,270.968c-4.242-.582-11.216,4.306-4.242,15s20.937,34.075,25.935,34.359c4.044.229,10.446-2.288,2.733-16.416S305.935,272.39,295.512,270.968Z" transform="translate(47.075 42.022)" fill="#f9f9f9"/>
    <path id="Trazado_146767" data-name="Trazado 146767" d="M306.2,282.1s9.185-4.774,12.39-4.081,6.5.225,2.311,3.375-9.543,6.447-14.825,6.823-3.811-6.686-3.811-6.686Z" transform="translate(96.448 67.206)" fill="#e8a476"/>
    <path id="Trazado_146768" data-name="Trazado 146768" d="M293.92,282.674s-2.384,9.217,5.475,11.056,38.018-5.489,38.018-5.489-2.49-6.952.784-9.1C338.2,279.143,299.519,276.41,293.92,282.674Z" transform="translate(65.977 69.371)" fill="#f9f9f9"/>
    <g id="Grupo_87283" data-name="Grupo 87283" transform="translate(310.51 319.356)">
      <g id="Grupo_87272" data-name="Grupo 87272" transform="translate(244.669 5.969)">
        <g id="Grupo_87271" data-name="Grupo 87271" style="isolation: isolate">
          <g id="Grupo_87268" data-name="Grupo 87268" transform="translate(83.416 48.152)">
            <path id="Trazado_146769" data-name="Trazado 146769" d="M354.433,431.208l6.18-3.587.4-143.5-6.171,3.6Z" transform="translate(-354.433 -284.123)" fill="#fb0"/>
          </g>
          <g id="Grupo_87269" data-name="Grupo 87269" transform="translate(0.408)">
            <path id="Trazado_146770" data-name="Trazado 146770" d="M419.751,325.37l6.171-3.6-83.416-48.151L336.33,277.2Z" transform="translate(-336.33 -273.622)" fill="#aeb6bc"/>
          </g>
          <g id="Grupo_87270" data-name="Grupo 87270" transform="translate(0 3.578)">
            <path id="Trazado_146771" data-name="Trazado 146771" d="M336.649,274.4l-.408,143.507,83.416,48.152.412-143.489Z" transform="translate(-336.241 -274.402)" fill="#63baf8"/>
          </g>
        </g>
      </g>
      <g id="Grupo_87277" data-name="Grupo 87277" transform="translate(36.939 128.066)">
        <g id="Grupo_87276" data-name="Grupo 87276" style="isolation: isolate">
          <g id="Grupo_87273" data-name="Grupo 87273" transform="translate(83.42 48.165)">
            <path id="Trazado_146772" data-name="Trazado 146772" d="M309.132,457.838l6.175-3.578.412-143.507-6.184,3.6Z" transform="translate(-309.132 -310.753)" fill="#fb0"/>
          </g>
          <g id="Grupo_87274" data-name="Grupo 87274" transform="translate(0.416)">
            <path id="Trazado_146773" data-name="Trazado 146773" d="M374.437,352.01l6.184-3.6-83.407-48.165-6.184,3.6Z" transform="translate(-291.03 -300.249)" fill="#aeb6bc"/>
          </g>
          <g id="Grupo_87275" data-name="Grupo 87275" transform="translate(0 3.601)">
            <path id="Trazado_146774" data-name="Trazado 146774" d="M291.356,301.034l-.416,143.479,83.42,48.17.4-143.489Z" transform="translate(-290.94 -301.034)" fill="#3ca8f4"/>
          </g>
        </g>
      </g>
      <g id="Grupo_87282" data-name="Grupo 87282">
        <g id="Grupo_87281" data-name="Grupo 87281" style="isolation: isolate">
          <g id="Grupo_87278" data-name="Grupo 87278" transform="translate(0 141.366)">
            <path id="Trazado_146775" data-name="Trazado 146775" d="M282.884,303.149l.009,9.135,107.562,62.482-.036-9.108Z" transform="translate(-282.884 -303.149)" fill="#fb0"/>
          </g>
          <g id="Grupo_87279" data-name="Grupo 87279" transform="translate(107.535 62.517)">
            <path id="Trazado_146776" data-name="Trazado 146776" d="M306.335,427.312l.036,9.108L551.183,295.085l-.018-9.131Z" transform="translate(-306.335 -285.954)" fill="#fb0"/>
          </g>
          <g id="Grupo_87280" data-name="Grupo 87280">
            <path id="Trazado_146777" data-name="Trazado 146777" d="M282.884,413.686,390.419,476.2l244.83-141.357L527.705,272.32Z" transform="translate(-282.884 -272.32)" fill="#def4ff"/>
          </g>
        </g>
      </g>
    </g>
    <g id="Grupo_87284" data-name="Grupo 87284" transform="translate(471.684 381.989)" opacity="0.1">
      <path id="Trazado_146778" data-name="Trazado 146778" d="M375.564,291.705c13.22,7.635,13.289,20.006.151,27.641s-34.5,7.635-47.721,0-13.289-20.006-.156-27.641S362.34,284.07,375.564,291.705Z" transform="translate(-318.032 -285.979)"/>
    </g>
    <g id="Grupo_87285" data-name="Grupo 87285" transform="translate(405.039 448.597)" opacity="0.1">
      <path id="Trazado_146779" data-name="Trazado 146779" d="M361.03,306.231c13.22,7.635,13.284,20.007.156,27.641s-34.5,7.635-47.726,0-13.293-20.006-.151-27.641S347.805,298.6,361.03,306.231Z" transform="translate(-303.499 -300.505)"/>
    </g>
    <g id="Grupo_87309" data-name="Grupo 87309" transform="translate(559.388 352.559)">
      <path id="Trazado_146780" data-name="Trazado 146780" d="M386.866,285.56l-7.96,4.6-11.945,6.892-11.019,6.365-5.805,3.352-6.786,3.916-6.19,3.567,16.375,9.538,9.249-5.337,3.8-2.192,8.437-4.875,11.445-6.6,12.564-7.25,4.209-2.435Z" transform="translate(-337.159 -258.052)" opacity="0.1"/>
      <g id="Grupo_87290" data-name="Grupo 87290" transform="translate(47.074 12.37)">
        <g id="Grupo_87289" data-name="Grupo 87289" style="isolation: isolate">
          <g id="Grupo_87286" data-name="Grupo 87286" transform="translate(3.842 2.217)">
            <path id="Trazado_146781" data-name="Trazado 146781" d="M348.329,283.1l.614-.358-.067,24.419-.613.358Z" transform="translate(-348.263 -282.742)" fill="#7ae582"/>
          </g>
          <g id="Grupo_87287" data-name="Grupo 87287" transform="translate(0.067)">
            <path id="Trazado_146782" data-name="Trazado 146782" d="M347.439,282.617l.622-.358,3.833,2.217-.614.358Z" transform="translate(-347.439 -282.259)" fill="#7ae582"/>
          </g>
          <g id="Grupo_87288" data-name="Grupo 87288" transform="translate(0 0.358)">
            <path id="Trazado_146783" data-name="Trazado 146783" d="M351.334,284.553l-.067,24.419-3.842-2.217.067-24.419Z" transform="translate(-347.425 -282.337)" fill="#fb0"/>
          </g>
        </g>
      </g>
      <path id="Trazado_146784" data-name="Trazado 146784" d="M348.272,291.132a7.978,7.978,0,0,1,7.24.073,2.308,2.308,0,0,1,1.362,2.417l4.393,2.719,3.054-2.229-13.014-7.58-6.53,3.769,2.618,1.509A3.8,3.8,0,0,1,348.272,291.132Z" transform="translate(-309.841 -254.564)" fill="#fb0"/>
      <path id="Trazado_146785" data-name="Trazado 146785" d="M363.773,291.076a3.265,3.265,0,0,1-1.289,1.2,7.979,7.979,0,0,1-7.24-.078c-1.582-.949-1.816-2.357-.775-3.467l-2.6-1.5-9.029,5.214,2.426,1.408a3.094,3.094,0,0,1,.468-.321,7.955,7.955,0,0,1,7.236.073c1.279.766,1.678,1.834,1.243,2.8l4.26,2.582,9.377-5.416Z" transform="translate(-316.772 -252.054)" fill="#fb0"/>
      <path id="Trazado_146786" data-name="Trazado 146786" d="M343.933,295.12a8,8,0,0,1,7.236.073c1.353.812,1.715,1.944,1.16,2.953l4.187,2.545,3.118-1.793,6.91-3.989-4.26-2.582a3.057,3.057,0,0,1-1.4,1.4,7.969,7.969,0,0,1-7.236-.073c-1.784-1.078-1.871-2.733-.312-3.875l-2.426-1.408-4.751,2.747-5.567,3.215,2.49,1.431A4.032,4.032,0,0,1,343.933,295.12Z" transform="translate(-324.839 -247.977)" fill="#fb0"/>
      <path id="Trazado_146787" data-name="Trazado 146787" d="M356.295,293.485a3.22,3.22,0,0,1-1.311,1.238,7.942,7.942,0,0,1-7.236-.069c-1.623-.977-1.83-2.43-.7-3.554l-2.49-1.431-5.071,2.926,13.422,7.814,7.571-4.379Z" transform="translate(-328.805 -243.316)" fill="#fb0"/>
      <path id="Trazado_146788" data-name="Trazado 146788" d="M342.416,305.727v1.106l30.321-17.643.054-1Z" transform="translate(-318.31 -248.635)" fill="#7ae582"/>
      <path id="Trazado_146789" data-name="Trazado 146789" d="M352.91,298.122l-13.42-7.814v1.276l13.42,7.644Z" transform="translate(-328.804 -241.03)" fill="#7ae582"/>
      <path id="Trazado_146790" data-name="Trazado 146790" d="M348.088,286.926a7.983,7.983,0,0,1,7.236.073,2.3,2.3,0,0,1,1.362,2.421l4.4,2.719,3.118-2.192-13.087-7.612L344.6,286.1l2.614,1.509A4.065,4.065,0,0,1,348.088,286.926Z" transform="translate(-310.483 -269.612)" fill="#fb0"/>
      <path id="Trazado_146791" data-name="Trazado 146791" d="M348.966,316.537h.913a3.647,3.647,0,0,0,3.645-3.65V280.353h-8.2v32.534A3.65,3.65,0,0,0,348.966,316.537Z" transform="translate(-307.894 -276.722)" fill="#ade9f4"/>
      <path id="Trazado_146792" data-name="Trazado 146792" d="M348.248,308.887h.674a2.69,2.69,0,0,0,2.687-2.7V282.172h-6.053v24.019A2.691,2.691,0,0,0,348.248,308.887Z" transform="translate(-307.052 -270.2)" fill="#3ca8f4"/>
      <g id="Grupo_87292" data-name="Grupo 87292" transform="translate(38.501 10.219)">
        <g id="Grupo_87291" data-name="Grupo 87291">
          <path id="Trazado_146793" data-name="Trazado 146793" d="M350.772,282.323c1.16.7,1.114,1.811-.092,2.481a4.716,4.716,0,0,1-4.283-.041c-1.156-.7-1.119-1.807.087-2.481A4.739,4.739,0,0,1,350.772,282.323Z" transform="translate(-345.555 -281.79)" fill="#1485d4"/>
        </g>
      </g>
      <path id="Trazado_146794" data-name="Trazado 146794" d="M363.595,286.891a3.306,3.306,0,0,1-1.284,1.2,7.965,7.965,0,0,1-7.24-.073c-1.587-.954-1.82-2.362-.78-3.467l-2.591-1.5-9.029,5.214,2.421,1.4a4.922,4.922,0,0,1,.472-.312,7.97,7.97,0,0,1,7.236.064c1.275.77,1.674,1.839,1.243,2.806l4.255,2.572,9.377-5.411Z" transform="translate(-317.396 -267.059)" fill="#fb0"/>
      <g id="Grupo_87296" data-name="Grupo 87296" transform="translate(27.128 5.199)">
        <path id="Trazado_146795" data-name="Trazado 146795" d="M346.818,317.67h.912a3.643,3.643,0,0,0,3.646-3.645V281.486h-8.2v32.539A3.64,3.64,0,0,0,346.818,317.67Z" transform="translate(-342.724 -277.858)" fill="#ade9f4"/>
        <path id="Trazado_146796" data-name="Trazado 146796" d="M346.094,310.017h.679a2.689,2.689,0,0,0,2.692-2.687V283.306h-6.057v24.023A2.688,2.688,0,0,0,346.094,310.017Z" transform="translate(-341.885 -271.333)" fill="#3ca8f4"/>
        <g id="Grupo_87293" data-name="Grupo 87293" transform="translate(0 2.623)">
          <path id="Trazado_146797" data-name="Trazado 146797" d="M343.075,283.2V281.29c0,.656.679,1.133,1.522,1.642a6.073,6.073,0,0,0,5.915.078c.935-.527,1.665-1.045,1.665-1.743v1.9a2.309,2.309,0,0,1-1.4,1.912,7.1,7.1,0,0,1-6.433-.069A2.219,2.219,0,0,1,343.075,283.2Z" transform="translate(-343.075 -281.267)" fill="#7fe2f4"/>
        </g>
        <g id="Grupo_87294" data-name="Grupo 87294" transform="translate(0)">
          <path id="Trazado_146798" data-name="Trazado 146798" d="M350.911,281.5c1.738,1.045,1.678,2.715-.138,3.728a7.1,7.1,0,0,1-6.433-.069c-1.738-1.05-1.678-2.719.133-3.733A7.109,7.109,0,0,1,350.911,281.5Z" transform="translate(-343.075 -280.695)" fill="#cdf6fc"/>
          <path id="Trazado_146799" data-name="Trazado 146799" d="M347.1,284.808a5.834,5.834,0,0,1-2.93-.711c-.623-.376-.967-.83-.949-1.284,0-.463.394-.949,1.064-1.321a6.471,6.471,0,0,1,5.778.05,1.656,1.656,0,0,1,.958,1.289,1.765,1.765,0,0,1-1.068,1.321A5.93,5.93,0,0,1,347.1,284.808Z" transform="translate(-342.563 -280.185)" fill="#7fe2f4"/>
        </g>
        <g id="Grupo_87295" data-name="Grupo 87295" transform="translate(1.523 10.214)">
          <path id="Trazado_146800" data-name="Trazado 146800" d="M348.625,283.462c1.16.7,1.114,1.811-.1,2.481a4.692,4.692,0,0,1-4.278-.046c-1.156-.692-1.119-1.8.083-2.481A4.72,4.72,0,0,1,348.625,283.462Z" transform="translate(-343.407 -282.922)" fill="#1485d4"/>
        </g>
      </g>
      <path id="Trazado_146801" data-name="Trazado 146801" d="M343.755,290.93A8.007,8.007,0,0,1,351,291c1.348.812,1.715,1.949,1.16,2.958l4.191,2.545,3.109-1.8,6.91-3.989-4.255-2.572a3.124,3.124,0,0,1-1.394,1.394,7.95,7.95,0,0,1-7.24-.078c-1.788-1.068-1.871-2.728-.316-3.875l-2.421-1.4-4.755,2.742-5.562,3.21,2.485,1.44A4.12,4.12,0,0,1,343.755,290.93Z" transform="translate(-325.463 -262.982)" fill="#fb0"/>
      <path id="Trazado_146802" data-name="Trazado 146802" d="M344.677,318.862h.912a3.648,3.648,0,0,0,3.65-3.65V282.678h-8.208v32.534A3.647,3.647,0,0,0,344.677,318.862Z" transform="translate(-323.272 -268.386)" fill="#ade9f4"/>
      <path id="Trazado_146803" data-name="Trazado 146803" d="M343.954,311.208h.674a2.694,2.694,0,0,0,2.7-2.692V284.5h-6.058v24.019A2.686,2.686,0,0,0,343.954,311.208Z" transform="translate(-322.43 -261.86)" fill="#3ca8f4"/>
      <g id="Grupo_87297" data-name="Grupo 87297" transform="translate(18.834 20.879)">
        <path id="Trazado_146804" data-name="Trazado 146804" d="M346.483,284.649c1.16.706,1.114,1.811-.087,2.481a4.711,4.711,0,0,1-4.287-.037c-1.156-.7-1.119-1.811.092-2.481A4.7,4.7,0,0,1,346.483,284.649Z" transform="translate(-341.266 -284.114)" fill="#1485d4"/>
      </g>
      <path id="Trazado_146805" data-name="Trazado 146805" d="M356.121,289.307a3.28,3.28,0,0,1-1.312,1.238,7.983,7.983,0,0,1-7.236-.073c-1.623-.977-1.834-2.43-.7-3.549l-2.485-1.44-5.072,2.926,13.417,7.814,7.58-4.37Z" transform="translate(-329.429 -258.328)" fill="#fb0"/>
      <path id="Trazado_146806" data-name="Trazado 146806" d="M342.241,301.554v1.106l30.37-17.665.044-1Z" transform="translate(-318.937 -263.66)" fill="#7ae582"/>
      <path id="Trazado_146807" data-name="Trazado 146807" d="M352.732,293.935l-13.416-7.814V287.4l13.416,7.644Z" transform="translate(-329.427 -256.041)" fill="#7ae582"/>
      <g id="Grupo_87302" data-name="Grupo 87302" transform="translate(13.497 29.534)">
        <g id="Grupo_87301" data-name="Grupo 87301" style="isolation: isolate">
          <g id="Grupo_87298" data-name="Grupo 87298" transform="translate(3.833 2.212)">
            <path id="Trazado_146808" data-name="Trazado 146808" d="M341.01,286.847l.618-.363-.072,24.423-.618.359Z" transform="translate(-340.939 -286.484)" fill="#7ae582"/>
          </g>
          <g id="Grupo_87299" data-name="Grupo 87299" transform="translate(0.063)">
            <path id="Trazado_146809" data-name="Trazado 146809" d="M340.116,286.36l.618-.358,3.842,2.212-.618.363Z" transform="translate(-340.116 -286.002)" fill="#7ae582"/>
          </g>
          <g id="Grupo_87300" data-name="Grupo 87300" transform="translate(0 0.358)">
            <path id="Trazado_146810" data-name="Trazado 146810" d="M344.008,288.3l-.072,24.419L340.1,310.5l.063-24.419Z" transform="translate(-340.102 -286.08)" fill="#fb0"/>
          </g>
        </g>
      </g>
      <g id="Grupo_87303" data-name="Grupo 87303" transform="translate(36.982 2.622)">
        <path id="Trazado_146811" data-name="Trazado 146811" d="M345.224,282.063v-1.9c0,.646.674,1.123,1.522,1.632a6.073,6.073,0,0,0,5.915.078c.935-.527,1.66-1.046,1.66-1.743v1.9a2.309,2.309,0,0,1-1.4,1.907,7.062,7.062,0,0,1-6.429-.064A2.221,2.221,0,0,1,345.224,282.063Z" transform="translate(-345.224 -280.133)" fill="#7fe2f4"/>
      </g>
      <g id="Grupo_87304" data-name="Grupo 87304" transform="translate(36.979)">
        <path id="Trazado_146812" data-name="Trazado 146812" d="M353.063,280.367c1.733,1.046,1.678,2.715-.142,3.728a7.057,7.057,0,0,1-6.433-.069c-1.738-1.045-1.674-2.715.133-3.724A7.091,7.091,0,0,1,353.063,280.367Z" transform="translate(-345.223 -279.561)" fill="#cdf6fc"/>
        <path id="Trazado_146813" data-name="Trazado 146813" d="M349.251,283.679a5.78,5.78,0,0,1-2.935-.715c-.624-.371-.967-.83-.949-1.279,0-.468.394-.945,1.064-1.321a6.452,6.452,0,0,1,5.778.046,1.662,1.662,0,0,1,.958,1.289,1.76,1.76,0,0,1-1.064,1.321A5.942,5.942,0,0,1,349.251,283.679Z" transform="translate(-344.713 -279.053)" fill="#7fe2f4"/>
      </g>
      <g id="Grupo_87305" data-name="Grupo 87305" transform="translate(17.315 13.288)">
        <path id="Trazado_146814" data-name="Trazado 146814" d="M340.935,284.385v-1.9c0,.656.679,1.128,1.522,1.637a6.05,6.05,0,0,0,5.915.078c.935-.518,1.66-1.046,1.66-1.738v1.9a2.308,2.308,0,0,1-1.4,1.908,7.062,7.062,0,0,1-6.429-.064A2.209,2.209,0,0,1,340.935,284.385Z" transform="translate(-340.935 -282.459)" fill="#7fe2f4"/>
      </g>
      <g id="Grupo_87306" data-name="Grupo 87306" transform="translate(17.313 10.665)">
        <path id="Trazado_146815" data-name="Trazado 146815" d="M348.773,282.694c1.733,1.041,1.678,2.71-.138,3.728a7.085,7.085,0,0,1-6.433-.069c-1.743-1.05-1.678-2.714.133-3.728A7.1,7.1,0,0,1,348.773,282.694Z" transform="translate(-340.935 -281.887)" fill="#cdf6fc"/>
        <path id="Trazado_146816" data-name="Trazado 146816" d="M344.957,286a5.846,5.846,0,0,1-2.93-.72c-.619-.372-.968-.826-.949-1.279s.39-.945,1.068-1.321a5.918,5.918,0,0,1,2.843-.656,5.833,5.833,0,0,1,2.93.711,1.6,1.6,0,0,1,.954,1.279c0,.468-.394.949-1.059,1.325A6,6,0,0,1,344.957,286Z" transform="translate(-340.425 -281.378)" fill="#7fe2f4"/>
      </g>
    </g>
    <g id="Grupo_87314" data-name="Grupo 87314" transform="translate(476.386 329.009)">
      <path id="Trazado_146831" data-name="Trazado 146831" d="M352.729,304.067v-28.5H334.8v28.5a24.72,24.72,0,1,0,17.929,0Z" transform="translate(-319.058 -270.343)" fill="#4ed3f3"/>
      <path id="Trazado_146832" data-name="Trazado 146832" d="M352.729,304.067v-28.5H334.8v28.5a24.72,24.72,0,1,0,17.929,0Z" transform="translate(-319.058 -270.343)" fill="#defdff"/>
      <path id="Trazado_146833" data-name="Trazado 146833" d="M362.151,303.569A21.152,21.152,0,1,1,341,282.013,21.355,21.355,0,0,1,362.151,303.569Z" transform="translate(-316.2 -247.22)" fill="#3ca8f4"/>
      <rect id="Rectángulo_32739" data-name="Rectángulo 32739" width="12.999" height="33.697" transform="translate(18.098 8.55)" fill="#3ca8f4"/>
      <path id="Trazado_146834" data-name="Trazado 146834" d="M359.786,284.167a9.637,9.637,0,0,1-4.457,11.06c-7.419,4.164-19.488,4.168-26.958,0-4.8-2.678-6.039-7.428-4.7-10.867a24.265,24.265,0,0,0-4.044,12.527c0,11.711,9.891,21.2,22.088,21.2s22.088-8.795,22.088-21.2C363.807,292.843,361.836,287.386,359.786,284.167Z" transform="translate(-317.004 -239.497)" fill="#3ca8f4"/>
      <path id="Trazado_146835" data-name="Trazado 146835" d="M325.936,300.82c7.47,4.168,19.539,4.164,26.958,0,4.549-2.554,6.291-6.076,5.246-9.386-.665-2.077-2.426-4.067-5.3-5.677l-.037-.023c-7.465-4.168-19.539-4.168-26.963,0-.142.078-.27.161-.408.238a10.59,10.59,0,0,0-4.691,4.994C319.412,294.4,321.14,298.142,325.936,300.82Z" transform="translate(-314.569 -245.09)" fill="#8dd5ff"/>
      <g id="Grupo_87312" data-name="Grupo 87312" transform="translate(14.545)">
        <g id="Grupo_87310" data-name="Grupo 87310" transform="translate(0.006)">
          <path id="Trazado_146836" data-name="Trazado 146836" d="M339.723,276.221c3.889,2.339,3.751,6.067-.3,8.323s-10.482,2.192-14.357-.142-3.756-6.067.293-8.327S335.835,273.887,339.723,276.221Z" transform="translate(-322.231 -274.425)" fill="#9ff8ff"/>
          <path id="Trazado_146837" data-name="Trazado 146837" d="M331.253,283.676a13.156,13.156,0,0,1-6.571-1.6c-1.4-.844-2.16-1.866-2.141-2.889.018-1.055.894-2.146,2.4-2.98a13.359,13.359,0,0,1,6.378-1.477,13.112,13.112,0,0,1,6.566,1.6c1.4.844,2.164,1.866,2.146,2.889-.014,1.055-.894,2.141-2.4,2.981A13.348,13.348,0,0,1,331.253,283.676Z" transform="translate(-321.125 -273.319)" fill="#2bb4da"/>
          <path id="Trazado_146838" data-name="Trazado 146838" d="M324.938,277.453a13.36,13.36,0,0,1,6.378-1.467,13.16,13.16,0,0,1,6.566,1.587,4.328,4.328,0,0,1,2.041,2.229,2.169,2.169,0,0,0,.106-.582c.018-1.022-.747-2.045-2.146-2.889a13.112,13.112,0,0,0-6.566-1.6,13.359,13.359,0,0,0-6.378,1.477c-1.5.835-2.38,1.926-2.4,2.98a2.219,2.219,0,0,0,.105.665A4.576,4.576,0,0,1,324.938,277.453Z" transform="translate(-321.125 -273.319)" fill="#1c9cba"/>
        </g>
        <g id="Grupo_87311" data-name="Grupo 87311" transform="translate(0 5.854)">
          <path id="Trazado_146839" data-name="Trazado 146839" d="M322.244,278.637l-.014-2.875c0,1.463.945,2.926,2.838,4.063,3.875,2.334,10.317,2.4,14.357.142,2.086-1.16,3.136-2.715,3.132-4.264l.009,2.871c0,1.55-1.045,3.1-3.132,4.269-4.04,2.252-10.478,2.187-14.357-.147C323.184,281.558,322.248,280.095,322.244,278.637Z" transform="translate(-322.23 -275.702)" fill="#65e0f6"/>
        </g>
      </g>
      <g id="Grupo_87313" data-name="Grupo 87313" transform="translate(10.083 47.376)">
        <path id="Trazado_146840" data-name="Trazado 146840" d="M329.988,292.992c-1.99,2.687-5.223,3.668-7.218,2.187s-2.018-4.856-.028-7.543,5.214-3.668,7.218-2.192S331.978,290.3,329.988,292.992Z" transform="translate(-321.257 -284.757)" fill="#fff" opacity="0.5"/>
        <path id="Trazado_146841" data-name="Trazado 146841" d="M326.088,291.194c-.573,1.463-1.954,2.293-3.082,1.857s-1.582-1.99-1.009-3.453,1.944-2.293,3.081-1.848S326.657,289.731,326.088,291.194Z" transform="translate(-319.49 -274.453)" fill="#fff" opacity="0.5"/>
      </g>
    </g>
    <g id="Grupo_87321" data-name="Grupo 87321" transform="translate(411.268 405.683)">
      <path id="Trazado_146842" data-name="Trazado 146842" d="M351.633,343.863h.06l-.5-1.036-.055-.119-13.394-27.357h0V292.68H319.246v22.671l-13.2,26.967a10.714,10.714,0,0,0-.518,1.055l-.147.307h.023c-1.66,4.42.468,9.226,6.42,12.661,9.267,5.347,24.243,5.347,33.46,0C351.11,352.947,353.215,348.229,351.633,343.863Z" transform="translate(-304.857 -285.648)" fill="#d2e6fe"/>
      <path id="Trazado_146843" data-name="Trazado 146843" d="M351.633,343.863h.06l-.5-1.036-.055-.119-13.394-27.357h0V292.68H319.246v22.671l-13.2,26.967a10.714,10.714,0,0,0-.518,1.055l-.147.307h.023c-1.66,4.42.468,9.226,6.42,12.661,9.267,5.347,24.243,5.347,33.46,0C351.11,352.947,353.215,348.229,351.633,343.863Z" transform="translate(-304.857 -285.648)" fill="#d2e6fe"/>
      <path id="Trazado_146844" data-name="Trazado 146844" d="M351.633,343.863h.06l-.5-1.036-.055-.119-13.394-27.357h0V292.68H319.246v22.671l-13.2,26.967a10.714,10.714,0,0,0-.518,1.055l-.147.307h.023c-1.66,4.42.468,9.226,6.42,12.661,9.267,5.347,24.243,5.347,33.46,0C351.11,352.947,353.215,348.229,351.633,343.863Z" transform="translate(-304.857 -285.648)" fill="#defdff"/>
      <path id="Trazado_146845" data-name="Trazado 146845" d="M344.781,342.531h.046l-.344-.715c-.051-.106-.092-.2-.138-.294l-11.358-25.67h0l.1-23.331-14.779.211-.115,23.12L306.717,341a8.381,8.381,0,0,0-.633,1.33l-.027.046h.009c-1.389,3.769.4,7.864,5.388,10.794,7.754,4.567,20.291,4.567,28,0C344.336,350.281,346.106,346.255,344.781,342.531Z" transform="translate(-302.155 -286.215)" fill="#3ca8f4"/>
      <g id="Grupo_87315" data-name="Grupo 87315" transform="translate(14.389 2.149)">
        <path id="Trazado_146846" data-name="Trazado 146846" d="M323.76,293.187c3.627,2.086,3.641,5.48.041,7.571a14.406,14.406,0,0,1-13.073,0c-3.627-2.091-3.646-5.484-.046-7.575A14.4,14.4,0,0,1,323.76,293.187Z" transform="translate(-307.995 -291.615)" fill="#8bc3de"/>
      </g>
      <path id="Trazado_146847" data-name="Trazado 146847" d="M348.226,315.133h0l-.009-.014a8.778,8.778,0,0,0-.89-1.614l-7.1-13H313.8l-7.493,13.564c-.069.124-.137.247-.2.376l-.018.027h0c-2.082,4.113-.216,8.731,5.6,11.968,8.524,4.76,22.3,4.76,30.773,0C347.923,323.377,349.84,319.085,348.226,315.133Z" transform="translate(-303.389 -257.592)" fill="#3ca8f4"/>
      <g id="Grupo_87316" data-name="Grupo 87316" transform="translate(9.967 37.217)">
        <path id="Trazado_146848" data-name="Trazado 146848" d="M330.336,301.506c5.351,2.981,5.383,7.827.06,10.812s-13.972,2.99-19.328,0S305.68,304.486,311,301.5,324.975,298.516,330.336,301.506Z" transform="translate(-307.031 -299.263)" fill="#8dd5ff"/>
      </g>
      <path id="Trazado_146849" data-name="Trazado 146849" d="M311.821,356.34c.381.22.789.413,1.192.624l15.1-41.508.367-22.776h-7.722l.133,22.606L304.865,346.28C304.713,349.911,307.02,353.571,311.821,356.34Z" transform="translate(-304.856 -285.648)" fill="#fff" opacity="0.1"/>
      <g id="Grupo_87319" data-name="Grupo 87319" transform="translate(13.096)">
        <g id="Grupo_87317" data-name="Grupo 87317" transform="translate(0.001)">
          <path id="Trazado_146850" data-name="Trazado 146850" d="M325.646,292.992c3.985,2.394,3.847,6.213-.3,8.529s-10.748,2.247-14.733-.147-3.843-6.213.312-8.529S321.661,290.589,325.646,292.992Z" transform="translate(-307.713 -291.147)" fill="#9ff8ff"/>
          <path id="Trazado_146851" data-name="Trazado 146851" d="M316.958,300.625a13.4,13.4,0,0,1-6.731-1.637c-1.435-.858-2.215-1.908-2.2-2.958.018-1.078.912-2.2,2.458-3.059a13.683,13.683,0,0,1,6.534-1.509,13.534,13.534,0,0,1,6.741,1.632c1.431.867,2.215,1.917,2.192,2.962-.014,1.082-.908,2.2-2.458,3.063A13.677,13.677,0,0,1,316.958,300.625Z" transform="translate(-306.578 -290.012)" fill="#2bb4da"/>
          <path id="Trazado_146852" data-name="Trazado 146852" d="M310.489,294.251a13.685,13.685,0,0,1,6.534-1.509,13.485,13.485,0,0,1,6.741,1.637,4.411,4.411,0,0,1,2.086,2.279,2.27,2.27,0,0,0,.106-.6c.023-1.045-.761-2.1-2.192-2.962a13.534,13.534,0,0,0-6.741-1.632,13.683,13.683,0,0,0-6.534,1.509c-1.545.862-2.44,1.981-2.458,3.059a1.958,1.958,0,0,0,.11.683A4.685,4.685,0,0,1,310.489,294.251Z" transform="translate(-306.578 -290.012)" fill="#1c9cba"/>
        </g>
        <g id="Grupo_87318" data-name="Grupo 87318" transform="translate(0 6.004)">
          <path id="Trazado_146853" data-name="Trazado 146853" d="M307.717,295.459l0-2.944c0,1.495.968,3,2.9,4.164,3.985,2.393,10.574,2.462,14.733.147,2.137-1.192,3.205-2.783,3.205-4.37l.009,2.944c0,1.587-1.073,3.178-3.205,4.37-4.154,2.316-10.748,2.247-14.733-.147C308.69,298.458,307.727,296.959,307.717,295.459Z" transform="translate(-307.713 -292.456)" fill="#65e0f6"/>
        </g>
      </g>
      <g id="Grupo_87320" data-name="Grupo 87320" transform="translate(10.023 44.234)">
        <path id="Trazado_146854" data-name="Trazado 146854" d="M314.774,308.079c-1.761,2.38-4.618,3.251-6.392,1.944s-1.788-4.3-.023-6.681,4.618-3.246,6.392-1.94S316.535,305.7,314.774,308.079Z" transform="translate(-307.043 -300.793)" fill="#fff" opacity="0.5"/>
        <path id="Trazado_146855" data-name="Trazado 146855" d="M311.32,306.491a2.009,2.009,0,1,1-.894-3.049A2.287,2.287,0,0,1,311.32,306.491Z" transform="translate(-305.478 -291.671)" fill="#fff" opacity="0.5"/>
      </g>
    </g>
    <g id="Grupo_87328" data-name="Grupo 87328" transform="translate(417.011 301.865)">
      <path id="Trazado_146856" data-name="Trazado 146856" d="M340.7,307.488h.046l-.371-.77-.041-.087-9.9-20.227h0V269.64H316.755V286.4l-9.767,19.938a8.256,8.256,0,0,0-.385.784l-.11.22h.018c-1.224,3.269.349,6.823,4.746,9.364,6.855,3.962,17.934,3.962,24.743,0C340.315,314.2,341.87,310.717,340.7,307.488Z" transform="translate(-306.109 -264.44)" fill="#d2e6fe"/>
      <path id="Trazado_146857" data-name="Trazado 146857" d="M340.7,307.488h.046l-.371-.77-.041-.087-9.9-20.227h0V269.64H316.755V286.4l-9.767,19.938a8.256,8.256,0,0,0-.385.784l-.11.22h.018c-1.224,3.269.349,6.823,4.746,9.364,6.855,3.962,17.934,3.962,24.743,0C340.315,314.2,341.87,310.717,340.7,307.488Z" transform="translate(-306.109 -264.44)" fill="#d2e6fe"/>
      <path id="Trazado_146858" data-name="Trazado 146858" d="M340.7,307.488h.046l-.371-.77-.041-.087-9.9-20.227h0V269.64H316.755V286.4l-9.767,19.938a8.256,8.256,0,0,0-.385.784l-.11.22h.018c-1.224,3.269.349,6.823,4.746,9.364,6.855,3.962,17.934,3.962,24.743,0C340.315,314.2,341.87,310.717,340.7,307.488Z" transform="translate(-306.109 -264.44)" fill="#defdff"/>
      <path id="Trazado_146859" data-name="Trazado 146859" d="M335.63,306.5h.037l-.257-.527c-.037-.078-.064-.147-.1-.216l-8.4-18.984h0l.073-17.255-10.932.161-.082,17.095-8.483,18.594a5.813,5.813,0,0,0-.472.981l-.018.032h0c-1.027,2.793.3,5.819,3.98,7.988,5.736,3.375,15.008,3.375,20.708,0C335.3,312.236,336.611,309.26,335.63,306.5Z" transform="translate(-304.111 -264.863)" fill="#3ca8f4"/>
      <g id="Grupo_87322" data-name="Grupo 87322" transform="translate(10.639 1.589)">
        <path id="Trazado_146860" data-name="Trazado 146860" d="M320.092,270.015c2.678,1.541,2.692,4.054.028,5.594a10.638,10.638,0,0,1-9.671,0c-2.683-1.541-2.692-4.054-.032-5.6A10.662,10.662,0,0,1,320.092,270.015Z" transform="translate(-308.43 -268.852)" fill="#8bc3de"/>
      </g>
      <path id="Trazado_146861" data-name="Trazado 146861" d="M338.178,286.239h0l0-.009a6.247,6.247,0,0,0-.656-1.192l-5.25-9.611H312.724l-5.539,10.024c-.05.1-.1.188-.147.284l-.014.023h0c-1.545,3.04-.161,6.452,4.132,8.845,6.31,3.522,16.494,3.522,22.758,0C337.953,292.337,339.375,289.164,338.178,286.239Z" transform="translate(-305.022 -243.694)" fill="#3ca8f4"/>
      <g id="Grupo_87323" data-name="Grupo 87323" transform="translate(7.37 27.519)">
        <path id="Trazado_146862" data-name="Trazado 146862" d="M324.955,276.166c3.957,2.206,3.976,5.787.037,7.993a16.224,16.224,0,0,1-14.288,0c-3.962-2.206-3.985-5.787-.051-8A16.269,16.269,0,0,1,324.955,276.166Z" transform="translate(-307.717 -274.507)" fill="#8dd5ff"/>
      </g>
      <path id="Trazado_146863" data-name="Trazado 146863" d="M311.255,316.71c.289.165.587.307.885.463L323.3,286.482l.275-16.842h-5.7l.1,16.714-11.854,22.918C306,311.959,307.706,314.665,311.255,316.71Z" transform="translate(-306.108 -264.44)" fill="#fff" opacity="0.1"/>
      <g id="Grupo_87326" data-name="Grupo 87326" transform="translate(9.683)">
        <g id="Grupo_87324" data-name="Grupo 87324">
          <path id="Trazado_146864" data-name="Trazado 146864" d="M321.482,269.873c2.949,1.77,2.843,4.595-.225,6.3a11.976,11.976,0,0,1-10.9-.115c-2.939-1.77-2.843-4.59.234-6.3A11.972,11.972,0,0,1,321.482,269.873Z" transform="translate(-308.221 -268.506)" fill="#9ff8ff"/>
          <path id="Trazado_146865" data-name="Trazado 146865" d="M315.055,275.516a9.971,9.971,0,0,1-4.975-1.206,2.749,2.749,0,0,1-1.623-2.192,3,3,0,0,1,1.816-2.265,10.175,10.175,0,0,1,4.829-1.114,10,10,0,0,1,4.989,1.211c1.064.642,1.642,1.421,1.623,2.187-.009.8-.674,1.628-1.82,2.27A10.145,10.145,0,0,1,315.055,275.516Z" transform="translate(-307.379 -267.67)" fill="#2bb4da"/>
          <path id="Trazado_146866" data-name="Trazado 146866" d="M310.272,270.807a10.122,10.122,0,0,1,4.829-1.119,10,10,0,0,1,4.989,1.21,3.238,3.238,0,0,1,1.541,1.688,1.724,1.724,0,0,0,.082-.449c.019-.766-.559-1.545-1.623-2.187a10,10,0,0,0-4.989-1.211,10.175,10.175,0,0,0-4.829,1.114,3,3,0,0,0-1.816,2.265,1.52,1.52,0,0,0,.083.509A3.419,3.419,0,0,1,310.272,270.807Z" transform="translate(-307.379 -267.67)" fill="#1c9cba"/>
        </g>
        <g id="Grupo_87325" data-name="Grupo 87325" transform="translate(0.004 4.444)">
          <path id="Trazado_146867" data-name="Trazado 146867" d="M308.222,271.69v-2.178a3.752,3.752,0,0,0,2.137,3.077,11.976,11.976,0,0,0,10.9.115c1.582-.885,2.375-2.063,2.375-3.228v2.169c0,1.178-.789,2.357-2.371,3.233a12.02,12.02,0,0,1-10.9-.105A3.818,3.818,0,0,1,308.222,271.69Z" transform="translate(-308.222 -269.475)" fill="#65e0f6"/>
        </g>
      </g>
      <g id="Grupo_87327" data-name="Grupo 87327" transform="translate(7.41 32.706)">
        <path id="Trazado_146868" data-name="Trazado 146868" d="M313.451,281.029c-1.312,1.756-3.425,2.4-4.737,1.435s-1.321-3.178-.014-4.943,3.416-2.4,4.728-1.435S314.749,279.268,313.451,281.029Z" transform="translate(-307.725 -275.638)" fill="#fff" opacity="0.5"/>
        <path id="Trazado_146869" data-name="Trazado 146869" d="M310.888,279.853a1.486,1.486,0,1,1-.66-2.256A1.693,1.693,0,0,1,310.888,279.853Z" transform="translate(-306.565 -268.892)" fill="#fff" opacity="0.5"/>
      </g>
    </g>
    <path id="Trazado_146870" data-name="Trazado 146870" d="M318.954,274.161s-9.038-3.178-8.125,1.568S316.2,288.931,318.954,274.161Z" transform="translate(127.59 49.902)" fill="#e8a476"/>
  </g>
</svg>
