<svg xmlns="http://www.w3.org/2000/svg" xmlns:xlink="http://www.w3.org/1999/xlink" width="505" height="375" viewBox="0 0 505 375">
  <defs>
    <clipPath id="clip-path">
      <rect id="Rect치ngulo_5142" data-name="Rect치ngulo 5142" width="341" height="375" transform="translate(183.006 413.487)" fill="none"/>
    </clipPath>
  </defs>
  <g id="Grupo_100475" data-name="Grupo 100475" transform="translate(-915 -399)">
    <rect id="Rect치ngulo_32680" data-name="Rect치ngulo 32680" width="358" height="362" transform="translate(1062 412)" fill="#29b39d" opacity="0.21"/>
    <g id="Grupo_53761" data-name="Grupo 53761" transform="translate(731.994 -14.487)">
      <g id="Grupo_53760" data-name="Grupo 53760" clip-path="url(#clip-path)">
        <g id="Grupo_53759" data-name="Grupo 53759">
          <path id="Trazado_100469" data-name="Trazado 100469" d="M228.828,474.525l-4.743-16.593a1.344,1.344,0,0,1,.813-1.626l43.175-16.5a1.345,1.345,0,0,1,1.773.887l6.939,24.272a1.345,1.345,0,0,1-1.036,1.69l-45.371,8.817A1.345,1.345,0,0,1,228.828,474.525Z" fill="#0f6ca6"/>
          <path id="Trazado_100470" data-name="Trazado 100470" d="M302.258,450.2c-2.489,4.765-13.739-1.63-14.9,0s2.328,8.383,2.328,8.383a32.018,32.018,0,0,1-4,3.888,1.9,1.9,0,0,0,0,3.408c1.646.94,9.4.47,9.636,2.35s-12.456,2.82-13.748,3.995,0,3.172,0,3.172-6.345,5.053-5.405,11.4,22.263,11.614,22.263,11.614,2.467,15.7,2.467,19.509.224,8.073-2.242,8.746-11.437-1.346-20.855,0-14.576,5.381-21.3,6.5-18.613,1.569-26.686,5.157c1.122-.448,7.625-14.8,9.643-21.3s9.867-30.5,13.006-33.861,14.128-5.83,15.249-9.643-.432-9.418-1.674-10.539-4.381-.224-6.4-.9-7.176-1.121-5.382,4.261a4.492,4.492,0,0,0,4.037,2.466,35.208,35.208,0,0,0-10.54,3.588c.224-.224-7.176-1.57-12.782,2.018,0,0,3.14,3.14,2.018,6.279s-31.394,37.673-38.121,56.51.448,28.7,3.363,29.825,49.783,3.139,49.783,3.139-3.165,9.508-7.409,32.849-7.773,47.182-6.349,76.362,14.726,118.836,18.569,134.209,22.419,101.846,23.06,114.656-24.41,36.364-36.3,50.835c-5.114,3.386-16.813,2.77-18.969,9.852s11.7,5.541,13.855,5.849,12.007,3.817,15.7,3.817,8.005-3.817,8.005-3.817,8.928.308,15.086-2.771,12.509-5.849,14.105-6.465,16.646,1.847,19.9-7.7-1.675-18.165-1.675-18.165A48.687,48.687,0,0,0,309.9,948.6c-.616-4.926-3.593-8.585-3.7-13.854-.164-8.512,6.312-70.78,1.33-91.2s-6.974-31.881-6.974-39.354,1.993-51.807,1.993-51.807,27.9,38.358,30.885,47.822,11.457,30.387,18.431,44.833,54.3,78.707,55.294,83.191.924,13.116,1.222,16.1,8.347,8.644,8.347,8.644l-2.981-8.346s-2.683,16.991-1.193,21.165,14.607,8.644,14.607,8.644l-5.366-7.154s-2.385,8.049,1.789,13.712a14.548,14.548,0,0,0,10.135,5.962l-1.49-5.962s-4.77,9.241,2.98,9.838,8.943-2.087,11.328-2.981,21.761-.3,23.55-2.981,2.981-5.068-3.876-10.732c-2.682-2.981-7.875-17.228-26.315-40.119-4.451-8.266-47.691-124.631-55.321-139.892s-24.678-80.768-27.5-93.485-13.272-33.382-14.837-38.859c-2.826-9.891,20.489-59.348,20.489-59.348s22.98,23.824,25.37,30.2,2.788,15.534,6.373,21.508,40.228,40.626,41.423,45.007,4.381,16.729,10.355,19.915,20.837-.06,24.806.507,11.908,3.4,13.987,1.513,4.158-5.1,1.134-7.183-12.853-1.89-13.8-4.536,4.536-7.75,7.75-8.7a132.264,132.264,0,0,1,15.5-3.024c3.591-.378,12.664,1.512,14.365-.945s3.4-3.781,1.512-4.348-14.932-2.457-14.932-2.457-9.64-6.237-13.42-6.615-26.591,9.213-29.864,8.505c-5.864-1.267-35.932-66.415-39.511-70.71s-21.478-44.386-27.921-51.9-10.738-18.256-18.613-24.341-29.352-16.466-30.426-19.33-1.432-12.886,1.074-16.465,29.71-.716,36.869-21.12.358-51.187-22.193-60.494S308.866,437.551,302.258,450.2Z" fill="#d9fdff"/>
          <path id="Trazado_100471" data-name="Trazado 100471" d="M314.2,456.43c-1.747,1.114-4.515,2.427-6.483,1.048-1.833-1.284-.038-4.085.756-5.622a1.078,1.078,0,0,0-1.692-1.292c-2.293,1.918-4.244,6.281-1.232,8.428,3.036,2.164,6.826.39,9.239-1.806a.485.485,0,0,0-.588-.756Z" fill="#102426"/>
          <path id="Trazado_100472" data-name="Trazado 100472" d="M324.936,447.361a9.113,9.113,0,0,0-1.237-8.149c-1.566-2.076-4.241-3.57-6.843-2.9a.757.757,0,0,0,0,1.45c2.165.467,4.241.952,5.609,2.873a7.5,7.5,0,0,1,.922,6.3.806.806,0,0,0,1.553.425Z" fill="#102426"/>
          <path id="Trazado_100473" data-name="Trazado 100473" d="M353.1,480.979a6.816,6.816,0,0,0-4.357-2.961,11.7,11.7,0,0,0-5.134.123,19.686,19.686,0,0,0-10.907,6.628.644.644,0,1,0,.989.824,18.411,18.411,0,0,1,10.193-6.194,10.474,10.474,0,0,1,4.574-.124,5,5,0,0,1,4.253,4.844c-5.842-2.708-11.848,2.7-15.7,6.618a.379.379,0,0,0,.365.627q3.745-1.35,4.069,3.621c-.107.471.618.671.725.2.625-2.759-1.206-4.94-3.759-4.784,3.706-3.651,8.944-7.88,14.318-6.067a9.407,9.407,0,0,1-.054,1.624c-.505,4.033-3.085,8.075-7.08,11.091-2.073,1.566-5.3,3.429-8.913,3.429h-.028a8.326,8.326,0,0,1-7.674-4.527.643.643,0,1,0-1.177.518,9.618,9.618,0,0,0,8.847,5.3h.032a16.364,16.364,0,0,0,9.688-3.689c4.272-3.224,7.036-7.583,7.583-11.959A7.843,7.843,0,0,0,353.1,480.979Z" fill="#93b8ba"/>
          <path id="Trazado_100474" data-name="Trazado 100474" d="M476.222,690.774a178.351,178.351,0,0,1,31.841.6c1.027.111,1.038-1.51.011-1.611a178.349,178.349,0,0,0-31.843-.273c-.819.066-.839,1.346-.009,1.288Z" fill="#102426"/>
          <path id="Trazado_100475" data-name="Trazado 100475" d="M478.739,687.809q5.065.945,10.115,1.972c.678.138.96-.912.284-1.035q-5.079-.924-10.173-1.765c-.538-.089-.774.726-.226.828Z" fill="#102426"/>
          <g id="Grupo_53754" data-name="Grupo 53754">
            <path id="Trazado_100476" data-name="Trazado 100476" d="M232.152,449.424c-.841,1.871,3.582,10.166,4.577,10.419s3.4.037,4.025-1.187-2.208-11.1-3.351-11.65S233.064,447.394,232.152,449.424Z" fill="#d9fdff"/>
            <path id="Trazado_100477" data-name="Trazado 100477" d="M253.8,441.921c-1.627,1.249-1.663,10.649-.907,11.343s2.981,1.647,4.107.862,3.317-10.822,2.57-11.845S255.562,440.566,253.8,441.921Z" fill="#d9fdff"/>
            <path id="Trazado_100478" data-name="Trazado 100478" d="M237.128,443.886c-.921,2.05,3.926,11.142,5.016,11.419s3.732.04,4.411-1.3-2.419-12.168-3.671-12.768S238.128,441.661,237.128,443.886Z" fill="#d9fdff"/>
            <path id="Trazado_100479" data-name="Trazado 100479" d="M244.515,441.567c-1.285,1.845,1.795,11.676,2.815,12.15s3.66.731,4.575-.462-.124-12.4-1.244-13.226S245.909,439.566,244.515,441.567Z" fill="#d9fdff"/>
          </g>
          <g id="Grupo_53757" data-name="Grupo 53757">
            <path id="Trazado_100480" data-name="Trazado 100480" d="M454.54,719.2c-4.3-.946-8.284-3.96-12.493-4.339a12.333,12.333,0,0,0,4.2,4.2c5.975,3.187,20.837-.06,24.806.507s11.908,3.4,13.987,1.513,4.158-5.1,1.134-7.183c-1.77-1.217-5.867-1.659-9.154-2.346C469.82,715.58,462.471,720.942,454.54,719.2Z" fill="#5de0e3"/>
            <g id="Grupo_53755" data-name="Grupo 53755">
              <path id="Trazado_100481" data-name="Trazado 100481" d="M511.5,692.344c-1.89-.567-14.932-2.457-14.932-2.457s-1.984-1.281-4.5-2.717c-11.763,2.909-25.984,7.284-30.068,7.384-4.147.1-7.928-2.509-12.064-2.829-5.4-.418-10.1,3.008-14.891,5.946a5.79,5.79,0,0,1,.845,1.469c.875,3.211,2.827,10.691,6.155,15.717,4.209.379,8.194,3.393,12.493,4.339,7.931,1.746,15.28-3.616,22.48-7.65-2.327-.486-4.252-1.093-4.644-2.19-.945-2.647,4.536-7.75,7.75-8.7a132.264,132.264,0,0,1,15.5-3.024c3.591-.378,12.664,1.512,14.365-.945S513.392,692.911,511.5,692.344Z" fill="#2699a6"/>
              <path id="Trazado_100482" data-name="Trazado 100482" d="M462,694.554c4.084-.1,18.3-4.475,30.068-7.384-3.037-1.733-6.852-3.692-8.92-3.9-3.78-.378-26.591,9.213-29.864,8.505-2.69-.581-10.475-14.611-18.458-30.037a9.122,9.122,0,0,0-8.83,4.194c-1.917,3.265-2.573,8.4-6.333,8.722-2.172.185-3.948-1.572-5.816-2.7a10.9,10.9,0,0,0-4.377-1.46c10.2,10.431,22.294,22.562,25.575,27.176,4.789-2.938,9.489-6.364,14.891-5.946C454.074,692.045,457.855,694.655,462,694.554Z" fill="#5de0e3"/>
            </g>
            <path id="Trazado_100483" data-name="Trazado 100483" d="M383.19,622.335c-.731.129-1.472.19-2.212.253,3.519,4.224,6.359,8.012,7.118,10.037,1.6,4.256,2.32,9.743,3.682,14.707a19.979,19.979,0,0,0,5.813-2.25c2.411-1.412,4.607-3.359,7.332-3.964,7.124-1.583,13.091,6.505,20.382,6.772a10.666,10.666,0,0,0,2.355-.206c-6.715-13.306-12.445-24.889-13.885-26.617a49.739,49.739,0,0,1-3.75-6.5,39.336,39.336,0,0,0-8.953,1.483C395,617.827,389.42,621.23,383.19,622.335Z" fill="#2699a6"/>
            <path id="Trazado_100484" data-name="Trazado 100484" d="M404.923,641.118c-2.725.605-4.921,2.552-7.332,3.964a19.979,19.979,0,0,1-5.813,2.25,27.324,27.324,0,0,0,2.691,6.8c1.384,2.307,7.7,8.9,15,16.362a10.9,10.9,0,0,1,4.377,1.46c1.868,1.129,3.644,2.886,5.816,2.7,3.76-.319,4.416-5.457,6.333-8.722a9.122,9.122,0,0,1,8.83-4.194c-2.417-4.671-4.85-9.462-7.168-14.056a10.666,10.666,0,0,1-2.355.206C418.014,647.623,412.047,639.535,404.923,641.118Z" fill="#4fced4"/>
            <path id="Trazado_100485" data-name="Trazado 100485" d="M370.3,789.709c-8.446-.7-15.575,6.822-24.019,7.542-5.683.485-10.982-2.148-16.386-4.245a43.094,43.094,0,0,1,3.54,7.2c.857,2.716,2.176,6.392,3.771,10.57a22.227,22.227,0,0,0,9.075,1.42c8.444-.721,15.573-8.246,24.019-7.543,4.175.348,7.9,2.7,11.953,3.776a20.165,20.165,0,0,0,8.584.346c-2.818-6.965-5.016-12.16-6.261-14.65-.029-.058-.061-.132-.09-.191a19.474,19.474,0,0,1-2.233-.445C378.206,792.4,374.477,790.056,370.3,789.709Z" fill="#4fced4"/>
            <path id="Trazado_100486" data-name="Trazado 100486" d="M382.255,808.424c-4.049-1.081-7.778-3.428-11.953-3.776-8.446-.7-15.575,6.822-24.019,7.543a22.227,22.227,0,0,1-9.075-1.42c3.964,10.385,9.687,23.962,14.66,34.263.108.224.254.495.382.742,4.079,1.314,8.877-.986,12.715-3.374,4.36-2.713,9.649-5.653,14.31-3.5,3.153,1.453,5.176,4.99,8.548,5.806,5.449,1.318,9.234-4.856,14.02-8.032-4.132-10.634-7.937-20.32-11-27.9A20.165,20.165,0,0,1,382.255,808.424Z" fill="#2699a6"/>
            <path id="Trazado_100487" data-name="Trazado 100487" d="M354.233,760.123c-9.346,2.63-19.058-1.922-28.727-2.767a37.87,37.87,0,0,0-17.488,2.659c6.28,8.868,16.41,23.478,21.879,32.991,5.4,2.1,10.7,4.73,16.386,4.245,8.444-.72,15.573-8.246,24.019-7.542,4.175.347,7.9,2.7,11.953,3.775a19.474,19.474,0,0,0,2.233.445c-3.354-6.811-8.473-23.061-13.412-40.271-.283.027-.567.032-.85.075C364.531,754.582,359.777,758.563,354.233,760.123Z" fill="#34abb5"/>
            <path id="Trazado_100488" data-name="Trazado 100488" d="M284.579,956.962c2.576.758,4.875,2.3,7.464,3.012,6.061,1.668,11.961-1.4,17.935-4.045a39.533,39.533,0,0,0-.08-7.331c-.616-4.926-3.593-8.585-3.7-13.854-.028-1.439.137-4.44.4-8.489-4.6-2.514-8.335-7.288-13.571-7.853-4.959-.535-9.169,2.852-13.644,5.348.27,1.928.441,3.456.493,4.493.437,8.752-11.114,22.515-22.268,34.973C266.869,961.62,275.577,954.312,284.579,956.962Z" fill="#42bdc4"/>
            <path id="Trazado_100489" data-name="Trazado 100489" d="M311.265,977.846c3.251-9.544-1.675-18.165-1.675-18.165s.234-1.568.388-3.752c-5.974,2.643-11.874,5.713-17.935,4.045-2.589-.713-4.888-2.254-7.464-3.012-9-2.65-17.71,4.658-26.965,6.254-4.063,4.537-8.068,8.9-11.427,12.784a19.244,19.244,0,0,1,7.248-.814c6.715.7,12.525,6.165,19.26,5.707,7.33-.5,13.366-7.947,20.625-6.812,5.436.85,9.02,6.2,13.795,8.834A9.334,9.334,0,0,0,311.265,977.846Z" fill="#5de0e3"/>
            <path id="Trazado_100490" data-name="Trazado 100490" d="M272.7,980.893c-6.735.458-12.545-5.009-19.26-5.707a19.244,19.244,0,0,0-7.248.814c-.919,1.063-1.793,2.093-2.6,3.078-5.114,3.386-16.814,2.77-18.969,9.851s11.7,5.542,13.855,5.85,12.007,3.817,15.7,3.817,8.005-3.817,8.005-3.817,8.928.308,15.086-2.771,12.509-5.849,14.105-6.465c1.2-.465,10.072.817,15.747-2.628-4.775-2.632-8.359-7.984-13.795-8.834C286.061,972.946,280.025,980.4,272.7,980.893Z" fill="#42bdc4"/>
            <path id="Trazado_100491" data-name="Trazado 100491" d="M309.364,862.925a106.98,106.98,0,0,0-1.553-18.085,5.044,5.044,0,0,1-2.4.092c-4.319-.9-5.925-7.436-10.325-7.755-3.168-.229-5.544,3.015-8.651,3.682-5.251,1.128-9.239-5.213-14.543-6.05-3.345-.528-6.485,1.2-9.622,2.812,1.863,8.536,3.975,18.4,6.073,28.443,1.788.174,3.581.282,5.378.293C285.81,866.429,297.5,862.4,309.364,862.925Z" fill="#5de0e3"/>
            <path id="Trazado_100492" data-name="Trazado 100492" d="M293.033,918.4c5.236.565,8.969,5.339,13.571,7.853.321-4.924.792-11.411,1.259-18.683a5.056,5.056,0,0,1-2.451.11c-4.319-.9-5.925-7.436-10.325-7.755-3.168-.23-5.544,3.015-8.651,3.682-4.2.9-7.594-2.971-11.5-4.987,2.045,10.543,3.67,19.541,4.452,25.128C283.864,921.254,288.074,917.867,293.033,918.4Z" fill="#5de0e3"/>
            <path id="Trazado_100493" data-name="Trazado 100493" d="M286.436,903.609c3.107-.667,5.483-3.912,8.651-3.682,4.4.319,6.006,6.857,10.325,7.755a5.056,5.056,0,0,0,2.451-.11c.9-14.053,1.778-30.925,1.5-44.647-11.866-.529-23.554,3.5-35.642,3.432-1.8-.011-3.59-.119-5.378-.293,2.335,11.174,4.653,22.558,6.593,32.558C278.842,900.638,282.235,904.51,286.436,903.609Z" fill="#42bdc4"/>
            <path id="Trazado_100494" data-name="Trazado 100494" d="M387.823,844.7c-3.372-.816-5.395-4.353-8.548-5.806-4.661-2.149-9.95.791-14.31,3.5-3.838,2.388-8.636,4.688-12.715,3.374,2.7,5.255,9.6,15.691,17.663,27.466,13.828-2.687,27.6-7.345,41.316-4.382,1.152.249,2.272.558,3.379.89-4.3-11.192-8.691-22.59-12.765-33.078C397.057,839.848,393.272,846.022,387.823,844.7Z" fill="#5de0e3"/>
            <path id="Trazado_100495" data-name="Trazado 100495" d="M369.913,873.242c7.553,11.029,16.1,23.2,23.1,33.3,3.4-1.934,6.394-5.949,10.056-7.861a11.208,11.208,0,0,1,10.78.338c1.868,1.129,3.644,2.886,5.816,2.7,2.763-.235,3.85-3.073,4.993-5.856-3.154-8.175-6.574-17.077-10.05-26.117-1.107-.332-2.227-.641-3.379-.89C397.508,865.9,383.741,870.555,369.913,873.242Z" fill="#42bdc4"/>
            <path id="Trazado_100496" data-name="Trazado 100496" d="M439.9,934.012c-.666-1.236-2.2-4.9-4.355-10.273-3.822,2.465-7.688,4.708-12.058,4.445-6.391-.385-11.252-6.048-17.436-7.71a15.742,15.742,0,0,0-3.884-.534c2.939,4.415,4.807,7.433,5,8.285,1,4.483.924,13.116,1.222,16.1.136,1.362,1.891,3.281,3.756,4.967.341-.17.681-.338,1.021-.509.586-.3,1.174-.586,1.762-.875a25.533,25.533,0,0,1,7.443-2.633c5.263-.785,10.57,1.225,15.885.988a34.983,34.983,0,0,0,9.394-2.1C445.353,940.992,442.808,937.623,439.9,934.012Z" fill="#42bdc4"/>
            <path id="Trazado_100497" data-name="Trazado 100497" d="M419.665,901.723c-2.172.185-3.948-1.572-5.816-2.7a11.208,11.208,0,0,0-10.78-.338c-3.662,1.912-6.66,5.927-10.056,7.861,3.564,5.143,6.725,9.747,9.153,13.4a15.742,15.742,0,0,1,3.884.534c6.184,1.662,11.045,7.325,17.436,7.71,4.37.263,8.236-1.98,12.058-4.445-2.777-6.934-6.581-16.718-10.886-27.872C423.515,898.65,422.428,901.488,419.665,901.723Z" fill="#5de0e3"/>
            <g id="Grupo_53756" data-name="Grupo 53756">
              <path id="Trazado_100498" data-name="Trazado 100498" d="M448.152,969.335c-3.852.249-7.7-.905-11.546-.638-5.83.4-10.694,3.887-14.969,8.08a12.146,12.146,0,0,0,1.95,4.21,14.855,14.855,0,0,0,7.2,5.311,5.17,5.17,0,0,0,.371,2.129c.538,1.254,1.723,2.219,4.049,2.4,7.751.6,8.943-2.087,11.328-2.981s21.761-.3,23.55-2.981a5.851,5.851,0,0,0,1.359-3.817c-.161-1.718-1.5-3.828-5.235-6.915-1.118-1.242-2.685-4.456-5.462-9.431l-.454.249C456.491,967.033,452.484,969.055,448.152,969.335Z" fill="#42bdc4"/>
              <path id="Trazado_100499" data-name="Trazado 100499" d="M438.251,946.26c-5.315.237-10.622-1.773-15.885-.988a25.533,25.533,0,0,0-7.443,2.633c-.588.289-1.176.579-1.762.875-.34.171-.68.339-1.021.509q.43.388.861.756c-.661,5.352-1.386,13.1-.444,15.74.8,2.23,4.91,4.539,8.571,6.212a17.307,17.307,0,0,0,.509,4.78c4.275-4.193,9.139-7.677,14.969-8.08,3.851-.267,7.694.887,11.546.638,4.332-.28,8.339-2.3,12.146-4.386l.454-.249a203.587,203.587,0,0,0-13.107-20.537A34.983,34.983,0,0,1,438.251,946.26Z" fill="#5de0e3"/>
            </g>
            <path id="Trazado_100500" data-name="Trazado 100500" d="M269.161,793.117c7.409.972,14.182,5.46,21.653,5.468a27.841,27.841,0,0,0,9.936-2.174c.307-9.234.915-23.713,1.34-33.527-4.569,2.421-9.16,4.855-14.181,4.352-5.813-.582-10.64-5.056-16.423-5.893-7.729-1.118-15.067,4.387-22.47,6.633,1.513,10.079,2.993,19.427,4.3,27.142C258.54,793.568,263.812,792.415,269.161,793.117Z" fill="#34abb5"/>
            <path id="Trazado_100501" data-name="Trazado 100501" d="M253.293,691.747c6.732.5,12.7,5.793,19.419,5.138,7.312-.714,13.127-8.338,20.417-7.417,6.5.82,10.551,8.11,16.95,9.5,6.956,1.516,13.168-4.351,19.994-6.378,8.655-2.57,17.3,1.18,26.045,4.406a165.558,165.558,0,0,0-6.215-16.8c-2.265-1.717-4.1-4.46-6.876-4.285-3,.19-4.606,3.737-7.35,4.969-5.971,2.683-11.579-6.658-18.044-5.657-4.505.7-7.757,6.312-12.221,5.384-4.319-.9-5.925-7.436-10.325-7.755-3.168-.23-5.544,3.015-8.651,3.682-5.251,1.127-9.239-5.213-14.543-6.05-6.495-1.025-12.217,6.451-18.653,5.1-4.046-.848-7.4-5.1-11.423-4.134a10.011,10.011,0,0,0-3.779,2.258q.078,2.8.215,5.661c.2,4.2.656,9.654,1.289,15.956C244.039,693.4,248.587,691.4,253.293,691.747Z" fill="#5de0e3"/>
            <path id="Trazado_100502" data-name="Trazado 100502" d="M269.161,646.792c7.409.972,14.182,5.461,21.653,5.468,10.19.01,19.083-8.3,29.268-7.979,8.142.253,15.482,6,23.439,6.631,2.671-9.993,8.353-23.959,12.852-34.342-13.8-1.011-27.133,11.838-41.152,9.407-8.236-1.428-14.975-7.966-23.259-9.077-9.3-1.246-18.1,4.575-27.456,5.247-7.51.539-15.021-2.235-22.414-4.473a326.122,326.122,0,0,0-3.828,35.338,52.721,52.721,0,0,0,5.761-1.337C252.292,649.274,260.628,645.673,269.161,646.792Z" fill="#2699a6"/>
            <path id="Trazado_100503" data-name="Trazado 100503" d="M253.24,675.593c6.436,1.35,12.158-6.126,18.653-5.1,5.3.837,9.292,7.177,14.543,6.05,3.107-.667,5.483-3.912,8.651-3.682,4.4.319,6.006,6.857,10.325,7.755,4.464.928,7.716-4.686,12.221-5.384,6.465-1,12.073,8.34,18.044,5.657,2.744-1.232,4.351-4.779,7.35-4.969,2.773-.175,4.611,2.568,6.876,4.285-3.413-8.134-6.824-15.482-7.666-18.428-.6-2.108-.01-6.023,1.284-10.864-7.957-.627-15.3-6.378-23.439-6.631-10.185-.317-19.078,7.989-29.268,7.979-7.471-.007-14.244-4.5-21.653-5.468-8.533-1.119-16.869,2.482-25.136,4.883a52.721,52.721,0,0,1-5.761,1.337c-.328,6.634-.426,13.509-.226,20.7a10.011,10.011,0,0,1,3.779-2.258C245.836,670.491,249.194,674.745,253.24,675.593Z" fill="#4fced4"/>
            <path id="Trazado_100504" data-name="Trazado 100504" d="M268.552,646.929a9.6,9.6,0,0,1-4.143-2.374c-1.069-1.307-1.09-3.4-.834-4.992.228-1.42-1.945-2.026-2.175-.595-.343,2.138-.372,4.67,1.114,6.423,1.365,1.611,3.744,2.263,5.726,2.677a.591.591,0,0,0,.312-1.139Z" fill="#4fced4"/>
            <path id="Trazado_100505" data-name="Trazado 100505" d="M259.158,644.549a8.419,8.419,0,0,0-7.392-.8.8.8,0,1,0,.616,1.472,7.065,7.065,0,0,1,6.239.263.537.537,0,0,0,.537-.93Z" fill="#4fced4"/>
            <path id="Trazado_100506" data-name="Trazado 100506" d="M252.453,646.658l-.2.206a.521.521,0,0,0,.23.86.831.831,0,0,0,.92-1.321.945.945,0,0,0-1.639.617,1.058,1.058,0,0,0,1.758.774c.892-.761.063-1.842-.845-1.957-1.1-.139-1.126,1.824-.013,1.718l.369-.876c.024.175.047.35.07.526l-.008-.034-.46.19-.09-.066-.059-.444.137-.14q.222.386.443.773l.153-.244a.485.485,0,0,0-.762-.582Z" fill="#4fced4"/>
            <path id="Trazado_100507" data-name="Trazado 100507" d="M332.052,639.079c.059-.532-.657-.761-1.192-.759a18.6,18.6,0,0,0-8.951,2.888c-2.752,1.574-5.338,3.449-8.207,4.8l12.808,1.078c-.022-.862,1.031-1.612.706-2.411-.254-.626-1.113-.661-1.784-.592l2.706-1.057c.261-.1.578-.311.492-.577a.507.507,0,0,0-.314-.273,2.57,2.57,0,0,0-1.664-.118,9.7,9.7,0,0,0,5.039-2.424A.958.958,0,0,0,332.052,639.079Z" fill="#4fced4"/>
            <path id="Trazado_100508" data-name="Trazado 100508" d="M255.614,597.166c5.029.891,8.557,5.729,13.489,7.058,7.266,1.957,14.038-4.154,21.333-5.995a7.923,7.923,0,0,1,3.788-.2c1.869.454,3.289,1.924,4.817,3.1,5.491,4.217,13.022,4.817,19.819,3.555s13.163-4.166,19.709-6.4a13.35,13.35,0,0,1,5.043-.971,17.371,17.371,0,0,1,4.721,1.317,39.824,39.824,0,0,0,26.774-.009c2.213-.8,4.422-1.81,6.774-1.848a18.68,18.68,0,0,1,5.986,1.316,87.682,87.682,0,0,0,15.647,3.519c-3.606-7.271-7.573-15.268-11.017-21.647a13.838,13.838,0,0,1-10.016-1.174c-2.56-1.4-4.671-3.608-7.407-4.611-10.277-3.769-20.749,11.231-30.89,7.106-4.658-1.9-7.535-7.478-12.526-8.067-4.883-.576-8.8,3.933-13.51,5.362-9.723,2.954-19.386-7.693-29.348-5.7-6,1.2-10.834,6.868-16.947,6.549-4.206-.219-7.723-3.268-11.795-4.348a17.389,17.389,0,0,0-9.591.529c-1.223,4.678-3.087,12.559-5.285,24.276C248.506,598.063,251.979,596.523,255.614,597.166Z" fill="#5de0e3"/>
            <path id="Trazado_100509" data-name="Trazado 100509" d="M264.506,622.147c9.353-.672,18.161-6.493,27.456-5.247,8.284,1.111,15.023,7.649,23.259,9.077,14.019,2.431,27.356-10.418,41.152-9.407,3.546-8.187,6.353-14.142,6.353-14.142s10.695,11.089,18.252,20.16c.74-.063,1.481-.124,2.212-.253,6.23-1.105,11.81-4.508,17.882-6.286a39.336,39.336,0,0,1,8.953-1.483c-1.826-3.511-4.084-8.062-6.511-12.956a87.682,87.682,0,0,1-15.647-3.519,18.68,18.68,0,0,0-5.986-1.316c-2.352.038-4.561,1.049-6.774,1.848a39.824,39.824,0,0,1-26.774.009,17.371,17.371,0,0,0-4.721-1.317,13.35,13.35,0,0,0-5.043.971c-6.546,2.231-12.912,5.135-19.709,6.4s-14.328.662-19.819-3.555c-1.528-1.173-2.948-2.643-4.817-3.1a7.923,7.923,0,0,0-3.788.2c-7.3,1.841-14.067,7.952-21.333,5.995-4.932-1.329-8.46-6.167-13.489-7.058-3.635-.643-7.108.9-10.432,2.724-.192,1.023-.383,2.044-.58,3.126-.882,4.849-1.728,9.723-2.51,14.658C249.485,619.912,257,622.686,264.506,622.147Z" fill="#42bdc4"/>
            <path id="Trazado_100510" data-name="Trazado 100510" d="M252.41,720.2c10.125-.8,17.063-12.464,27.216-12.727,5.978-.154,11.822,3.813,17.622,2.351,3.617-.912,6.61-3.849,10.328-4.147,6.074-.488,10.324,5.992,16.067,8.038,8.421,3,17.511-4.124,26.313-2.584,4.076.713,7.51,3.178,11.045,5.427-1.868-7.259-3.277-13-3.927-15.924-.255-1.147-.589-2.376-.956-3.635-8.75-3.226-17.39-6.976-26.045-4.406-6.826,2.027-13.038,7.894-19.994,6.378-6.4-1.394-10.453-8.684-16.95-9.5-7.29-.921-13.105,6.7-20.417,7.417-6.719.655-12.687-4.638-19.419-5.138-4.706-.349-9.254,1.651-13.751,3.587.718,7.14,1.669,15.369,2.762,24.109C245.676,719.471,249.038,720.467,252.41,720.2Z" fill="#2699a6"/>
            <path id="Trazado_100511" data-name="Trazado 100511" d="M271.893,834.809c5.3.837,9.292,7.178,14.543,6.05,3.107-.667,5.483-3.911,8.651-3.682,4.4.319,6.006,6.858,10.325,7.755a5.044,5.044,0,0,0,2.4-.092c-.091-.44-.178-.892-.278-1.3-3.632-14.894-5.67-25.006-6.51-32.295a28.249,28.249,0,0,1-10.209,2.279c-7.471-.007-14.244-4.5-21.653-5.468a34.349,34.349,0,0,0-13.271,1.282c.351,1.741.665,3.18.933,4.249,1,4.017,3.015,12.892,5.448,24.034C265.408,836.006,268.548,834.281,271.893,834.809Z" fill="#2699a6"/>
            <path id="Trazado_100512" data-name="Trazado 100512" d="M260.058,575.085c4.072,1.08,7.589,4.129,11.795,4.348,6.113.319,10.945-5.345,16.947-6.549,9.962-2,19.625,8.649,29.348,5.7,4.706-1.429,8.627-5.938,13.51-5.362,4.991.589,7.868,6.172,12.526,8.067,10.141,4.125,20.613-10.875,30.89-7.106,2.736,1,4.847,3.216,7.407,4.611a13.838,13.838,0,0,0,10.016,1.174c-2.666-4.938-5.019-8.905-6.643-10.8-5.5-6.415-9.44-15.167-15.369-21.38-5.68.5-10.662,4.082-16.253,5.244-9.505,1.975-18.88-3.24-28.468-4.755a37.857,37.857,0,0,0-19.042,1.914c-6.3,2.349-12.521,6.465-19.145,5.333-5.759-.985-10.267-5.783-15.978-7.019-10.745-2.326-21.622,8.528-32,4.881-2.533-.89-4.721-2.588-7.238-3.523-8.911-3.31-18.225,3.6-27.692,4.412a31.078,31.078,0,0,1-8.521-.63c.5,8.2,4.18,12.657,6.077,13.387,2.915,1.121,49.783,3.139,49.783,3.139s-.571,1.723-1.544,5.447A17.389,17.389,0,0,1,260.058,575.085Z" fill="#34abb5"/>
            <path id="Trazado_100513" data-name="Trazado 100513" d="M269.161,808.056c7.409.972,14.182,5.461,21.653,5.468a28.249,28.249,0,0,0,10.209-2.279,62.275,62.275,0,0,1-.464-7.059c0-1.429.074-4.215.191-7.775a27.841,27.841,0,0,1-9.936,2.174c-7.471-.008-14.244-4.5-21.653-5.468-5.349-.7-10.621.451-15.848,2,.98,5.794,1.858,10.661,2.577,14.22A34.349,34.349,0,0,1,269.161,808.056Z" fill="#4fced4"/>
            <path id="Trazado_100514" data-name="Trazado 100514" d="M273.675,737.155c13.546-.672,26.3-6.493,39.766-5.247,12,1.111,21.76,7.649,33.689,9.077,6.74.807,13.37-.072,19.952-1.567-2.271-8.275-4.369-16.205-6.081-22.859-3.535-2.249-6.969-4.714-11.045-5.427-8.8-1.54-17.892,5.583-26.313,2.584-5.743-2.046-9.993-8.526-16.067-8.038-3.718.3-6.711,3.235-10.328,4.147-5.8,1.462-11.644-2.505-17.622-2.351-10.153.263-17.091,11.928-27.216,12.727-3.372.266-6.734-.73-10.106-.758.564,4.51,1.165,9.152,1.792,13.852C253.87,735.392,263.772,737.646,273.675,737.155Z" fill="#42bdc4"/>
            <path id="Trazado_100515" data-name="Trazado 100515" d="M271.486,761.343c5.783.837,10.61,5.311,16.423,5.893,5.021.5,9.612-1.931,14.181-4.352.267-6.178.462-10.5.462-10.5s2.216,3.048,5.466,7.636a37.87,37.87,0,0,1,17.488-2.659c9.669.845,19.381,5.4,28.727,2.767,5.544-1.56,10.3-5.541,15.993-6.39.283-.043.567-.048.85-.075-1.359-4.735-2.7-9.539-3.994-14.24-6.582,1.495-13.212,2.374-19.952,1.567-11.929-1.428-21.689-7.966-33.689-9.077-13.462-1.246-26.22,4.575-39.766,5.247-9.9.491-19.8-1.763-29.579-3.86,1.551,11.63,3.255,23.592,4.92,34.681C256.419,765.73,263.757,760.225,271.486,761.343Z" fill="#5de0e3"/>
          </g>
          <path id="Trazado_100516" data-name="Trazado 100516" d="M302.368,489.777c-9.021-7.284-15.432-27.156-27.472-31.419l1.889,6.61a1.325,1.325,0,0,1-.421,1.365c3.715,2.128,9.5,5.633,11.233,7.745,2.607,3.186,9.268,15.929,11.875,17.667s7.82,9.847,7.82,60.531h4.344S312.164,497.686,302.368,489.777Z" fill="#34abb5"/>
          <path id="Trazado_100517" data-name="Trazado 100517" d="M313.792,547.459A12.775,12.775,0,0,1,322.5,542.1c1.685-.231,1.016-2.891-.7-2.593a11.808,11.808,0,0,0-9.191,7.463c-.289.715.795,1.059,1.179.492Z" fill="#34abb5"/>
          <path id="Trazado_100518" data-name="Trazado 100518" d="M317.761,546.568a10.8,10.8,0,0,1,5.852.324c1.92.641,2.589-2.721.393-2.847a12.76,12.76,0,0,0-6.7,1.444c-.612.318-.177,1.216.452,1.079Z" fill="#34abb5"/>
          <path id="Trazado_100519" data-name="Trazado 100519" d="M305.117,545.846a36.059,36.059,0,0,0-2.548-3.267c-.917-1.042-1.858-2.208-3.314-2.348a1.242,1.242,0,0,0-1.2,1.555c.419,1.261,1.637,1.9,2.625,2.7a33.582,33.582,0,0,1,2.841,2.6c.789.805,2.271-.273,1.6-1.241Z" fill="#34abb5"/>
          <path id="Trazado_100520" data-name="Trazado 100520" d="M304.011,548.526a14.4,14.4,0,0,0-7.327-.224c-1.143.257-.668,2.056.473,1.763a12.554,12.554,0,0,1,6.429.015.806.806,0,0,0,.425-1.554Z" fill="#34abb5"/>
          <path id="Trazado_100521" data-name="Trazado 100521" d="M295.062,545.3a.84.84,0,0,0-.849,1.114.751.751,0,0,0,.909.525,1.12,1.12,0,1,0-1.32-1.52.887.887,0,0,0,0,.91l.082.115a.824.824,0,0,0,1.4-.006.586.586,0,0,0,.125-.221q.3-.561-.859-.635l1.016.265-.062-.1c.025.187.049.374.074.561l.048-.116-.5.5.11-.025a.7.7,0,0,0-.175-1.371Z" fill="#34abb5"/>
          <path id="Trazado_100522" data-name="Trazado 100522" d="M317.873,536.061l-.089.032a.482.482,0,0,0-.341.442l-.008.108a.489.489,0,0,0,.248.433c1.057.56,1.535-1.185.453-1.515-1.416-.433-1.606,2.129-.047,2a.908.908,0,1,0-.23-1.794l.46.094.238.578.006-.142-.375.649.12-.084-.548.073-.017-.045-.182-.441.242-.281.555.228-.057-.091,0,.464.053-.079a.433.433,0,0,0-.483-.629Z" fill="#34abb5"/>
          <path id="Trazado_100523" data-name="Trazado 100523" d="M330.852,568.553c-.829-.582-1.991.093-2.558.933a9.15,9.15,0,0,1-1.708,2.486c.313-.554.612-1.294.193-1.773a1.075,1.075,0,0,0-1.43,0,3.171,3.171,0,0,0-.829,1.324c-1.291,3.1-2.924,6.394-5.965,7.819l8.937-2.643a11.994,11.994,0,0,0,3.749-5.637C331.508,570.2,331.6,569.075,330.852,568.553Z" fill="#5de0e3"/>
          <path id="Trazado_100524" data-name="Trazado 100524" d="M284.214,575.473c3.48-1.993,5.151-8.2,2.338-11.309-.9-1-2.22.445-1.435,1.45,2,2.554,1.13,7.435-1.3,9.354-.291.231.085.681.392.505Z" fill="#5de0e3"/>
          <path id="Trazado_100525" data-name="Trazado 100525" d="M290.1,570.782a6.7,6.7,0,0,1,4.156-2.29c1.22-.186.693-2.282-.5-1.867a8.087,8.087,0,0,0-4.417,3.575c-.27.462.395,1.006.761.582Z" fill="#5de0e3"/>
          <path id="Trazado_100526" data-name="Trazado 100526" d="M281.1,568.825a.63.63,0,1,0,1.259-.013.779.779,0,0,0-1.551-.116c-.124,1.046,1.383,1.149,1.569.167a.851.851,0,1,0-1.672-.315.588.588,0,1,0,1.16.16l-.238.049a.269.269,0,0,0-.527.068Z" fill="#5de0e3"/>
          <path id="Trazado_100527" data-name="Trazado 100527" d="M296.7,599.095c-4.336-2.715-4.139-8.678-3.161-13.046a1.563,1.563,0,0,0-2.849-1.189c-3.245,5.069-.467,13.763,4.83,16.28a1.181,1.181,0,0,0,1.18-2.045Z" fill="#42bdc4"/>
          <path id="Trazado_100528" data-name="Trazado 100528" d="M289.16,595.86a9.686,9.686,0,0,0-3.168-4.238c-1.327-1.011-3.977-2.514-5.474-.967a1.708,1.708,0,0,0-.262,2.087c.551.9,1.737,1.064,2.686,1.211a7.467,7.467,0,0,1,4.874,2.688c.5.6,1.635-.047,1.344-.781Z" fill="#42bdc4"/>
          <path id="Trazado_100529" data-name="Trazado 100529" d="M275.974,596.833c-1.618.3-.5,2.924,1.02,1.834,1.462-1.047-.208-3.365-1.708-2.32a1.49,1.49,0,0,0,1.625,2.491,1.64,1.64,0,0,0,.569-2.1,1.923,1.923,0,0,0-2.172-.922.992.992,0,0,0-.731.945,2.168,2.168,0,0,0,.657,1.668c.914.946,2.407-.565,1.435-1.45a.162.162,0,0,1-.121-.2l-.73.945.4-.4.463.354q-.159.3-.316.6c.95-.238.551-1.624-.389-1.452Z" fill="#42bdc4"/>
          <path id="Trazado_100530" data-name="Trazado 100530" d="M337.381,566.647c-1.28-.9-2.588.947-1.6,2.042a1.639,1.639,0,1,0-.213-1.992c-.893,1.488.919,2.89,2.292,2.2,1.287-.645.115-2.7-1.142-1.945q1.041,1.209-.251,1.272c1.025.611,1.857-.915.912-1.58Z" fill="#42bdc4"/>
          <path id="Trazado_100531" data-name="Trazado 100531" d="M333.662,601.93a74.462,74.462,0,0,0,11.107-3.544c4.865-2.062,8.929-4.787,14.419-3.2,1.54.444,2.635-1.955,1.107-2.653-3.387-1.545-6.7-1.138-10.132.188-5.785,2.234-11.056,5.485-16.945,7.555a.859.859,0,0,0,.444,1.659Z" fill="#42bdc4"/>
          <path id="Trazado_100532" data-name="Trazado 100532" d="M343.1,599.346c4.222-1.489,8.709-2.712,13.176-1.633a.967.967,0,0,0,.51-1.864c-5.015-1.325-9.611.214-14.22,2.221-.716.312-.206,1.537.534,1.276Z" fill="#42bdc4"/>
          <path id="Trazado_100533" data-name="Trazado 100533" d="M345.443,599.265a14.255,14.255,0,0,1,3.916-.373,32.84,32.84,0,0,0,3.557.341.65.65,0,0,0,.327-1.2c-2.245-1.472-5.743-.9-8.189-.218a.752.752,0,0,0,.389,1.452Z" fill="#42bdc4"/>
          <path id="Trazado_100534" data-name="Trazado 100534" d="M314.714,628.483c4.156.3,11.07.185,13.483-3.972,2.315-3.988-1.577-7.835-5.576-7.447a1.182,1.182,0,0,0-.017,2.362c1.939.059,4.495,1.113,3.947,3.635-.4,1.841-2.514,2.757-4.065,3.313a23.527,23.527,0,0,1-7.765,1.25.43.43,0,0,0-.007.859Z" fill="#2699a6"/>
          <path id="Trazado_100535" data-name="Trazado 100535" d="M331.264,622.049c2.8-3.125,3.092-8.287-.27-11.187a1.235,1.235,0,0,0-1.736,1.755c2.39,2.553,3.042,5.6.906,8.592-.46.644.575,1.427,1.1.84Z" fill="#2699a6"/>
          <path id="Trazado_100536" data-name="Trazado 100536" d="M334.88,612l-.019.629a.789.789,0,0,0,.779.79,1.467,1.467,0,0,0,1.462-1.61,1.587,1.587,0,0,0-2-1.273,1.411,1.411,0,0,0-.589,2.351c.906.9,2.1.354,2.734-.518.95-1.3-1.316-2.675-2.2-1.269q-.5.644.945.021l.333.807-.88-.052.961.555-.153-.607a.7.7,0,0,0-1.371.176Z" fill="#2699a6"/>
          <path id="Trazado_100537" data-name="Trazado 100537" d="M336.372,616.646l-.368.319a.945.945,0,0,0,.007,1.331,1.959,1.959,0,0,0,3.264-1.359,1.723,1.723,0,0,0-1.7-1.728,2.151,2.151,0,0,0-1.567.689,1.582,1.582,0,0,0-.233,1.861,1.671,1.671,0,0,0,1.878.684l-.835,0c-.4-.1.4.156.512.169a2.387,2.387,0,0,0,.767-.046l-.83,0,.113.028-.624-.36-.206-.332.285-1.074.089-.1.566,1.377.239-.417a.863.863,0,0,0-1.354-1.034Z" fill="#2699a6"/>
          <path id="Trazado_100538" data-name="Trazado 100538" d="M275.113,619.294a6.208,6.208,0,0,1-4.321-1.737,4.56,4.56,0,0,1-1.315-3.387,1.236,1.236,0,0,0-2.382-.652c-1.474,5.083,3.732,7.558,8.008,7.172a.7.7,0,0,0,.01-1.4Z" fill="#2699a6"/>
          <path id="Trazado_100539" data-name="Trazado 100539" d="M263.373,610.491l-.29.295a.638.638,0,0,0-.1.752,1.081,1.081,0,0,0,1.978-.234,1.179,1.179,0,0,0-1.831-1.14,1.235,1.235,0,0,0,.738,2.191c1.317-.028,1.441-1.694.524-2.329-.965-.669-1.975,1.058-.912,1.58l.575-.7,0,.625.241-.333c.4-.55-.471-1.178-.931-.71Z" fill="#2699a6"/>
          <path id="Trazado_100540" data-name="Trazado 100540" d="M273.643,614.9a2.736,2.736,0,0,1,.88-3.28.962.962,0,1,0-1.176-1.513,4.393,4.393,0,0,0-.98,5.327c.356.685,1.562.208,1.276-.534Z" fill="#2699a6"/>
          <path id="Trazado_100541" data-name="Trazado 100541" d="M315.365,649.013a7.263,7.263,0,0,0-3.047-.922,11.675,11.675,0,0,0-4.926.418,3.266,3.266,0,0,1,.767.671l2.551,2.993a5.29,5.29,0,0,0,2.26,1.821,3.783,3.783,0,0,0,2.584-.261,2.587,2.587,0,0,0,1.276-.989,2.021,2.021,0,0,0,.237-1.149A3.459,3.459,0,0,0,315.365,649.013Z" fill="#2699a6"/>
          <path id="Trazado_100542" data-name="Trazado 100542" d="M308.815,653.594a5.113,5.113,0,0,0-1.482-1.686,8.206,8.206,0,0,0-3.105-1.582,2.286,2.286,0,0,1,.209.687q.208,1.371.415,2.742a3.728,3.728,0,0,0,.675,1.931,2.667,2.667,0,0,0,1.645.805,1.823,1.823,0,0,0,1.132-.117,1.429,1.429,0,0,0,.57-.6A2.438,2.438,0,0,0,308.815,653.594Z" fill="#2699a6"/>
          <path id="Trazado_100543" data-name="Trazado 100543" d="M276.84,672.587a5.567,5.567,0,0,0-.208-1.2.982.982,0,0,0-.909-.69c.716.06,1.044-1.056.544-1.571a1.769,1.769,0,0,0-2.009-.144,25.305,25.305,0,0,0,3.19-1.99c.4-.294.843-.725.715-1.208-.15-.567-.92-.649-1.5-.559-3.048.47-5.684,2.331-8.081,4.27s-4.748,4.049-7.616,5.182l18.221.927A3.983,3.983,0,0,1,276.84,672.587Z" fill="#5de0e3"/>
          <path id="Trazado_100544" data-name="Trazado 100544" d="M327.067,695.453c3.438-2.575,6.221-6.275,6.119-10.766-.076-3.393-2.018-8.093-5.965-8.1a.919.919,0,0,0-.793,1.374c1.7,2.438,3.965,3.905,4.243,7.184.311,3.666-1.882,6.86-4.454,9.215-.571.524.209,1.572.85,1.093Z" fill="#2699a6"/>
          <path id="Trazado_100545" data-name="Trazado 100545" d="M334.17,690.8a8.816,8.816,0,0,1,3.09-2.075c1.029-.4,2.12-.474,3.175-.767.575-.16.661-1.132,0-1.243-2.648-.446-5.433,1.327-7.107,3.255-.494.568.3,1.377.839.83Z" fill="#2699a6"/>
          <path id="Trazado_100546" data-name="Trazado 100546" d="M327.279,691.426c1-2.363.183-5.79-2.564-6.567a1.078,1.078,0,0,0-.82,1.965,5.279,5.279,0,0,1,1.851,1.386,3.472,3.472,0,0,1,.452,2.764c-.137.617.808,1.1,1.081.452Z" fill="#2699a6"/>
          <path id="Trazado_100547" data-name="Trazado 100547" d="M335.123,677.1a.983.983,0,0,0,1.706.644c.791-.88-.238-2.077-1.23-1.971a1.445,1.445,0,0,0-.926,2.4,1.5,1.5,0,0,0,2.585-1.117c-.106-1.928-3.049-1.257-2.427.31l1.294-.7.31.4-.046-.127c-.232-.648-1.282-.608-1.266.162Z" fill="#2699a6"/>
          <path id="Trazado_100548" data-name="Trazado 100548" d="M315.025,686.525A.812.812,0,0,0,316.2,687.6a1,1,0,0,0-.591-1.768,1.309,1.309,0,0,0-1.244,1.943c.683,1.143,2.181.374,2.279-.725.136-1.515-2.552-1.31-2.11.27l.036.129.105-.8.161-.177.767-.1-.148-.023.58.444-.869.381c.024-.177.047-.355.07-.533l-.082.132.588-.337-.153.006.449.187-.113-.112.183.443.017-.138c.074-.6-.841-.795-1.1-.3Z" fill="#2699a6"/>
          <path id="Trazado_100549" data-name="Trazado 100549" d="M416.146,636.211a2.466,2.466,0,0,0-.776.824.742.742,0,0,0,.266.994c1.222.8,2.383-.8,1.535-1.866a1.53,1.53,0,0,0-2.635.836,1.572,1.572,0,0,0,2.46,1.348c1.268-.9.322-2.862-1.1-2.817-1.264.04-1.226,2.064-.014,1.933l.483-.694q.132.5.266.994A.8.8,0,0,1,417,637.3c.606-.5-.2-1.546-.85-1.093Z" fill="#4fced4"/>
          <path id="Trazado_100550" data-name="Trazado 100550" d="M408.571,634.083l-.393,1.075a.916.916,0,0,0,.868,1.147,1.73,1.73,0,0,0,1.651-2.486,1.863,1.863,0,0,0-3.066-.141,1.991,1.991,0,0,0,1.3,3.03c1.372.225,2.718-1.421,1.819-2.644A1.176,1.176,0,1,0,408.9,635.5q.879-1.358.395-.713-.243.442-.237-.3.435.574.869,1.148l.3-1.1a.86.86,0,0,0-1.657-.454Z" fill="#4fced4"/>
          <path id="Trazado_100551" data-name="Trazado 100551" d="M410.444,638.3a1.5,1.5,0,0,0-.139.937.644.644,0,0,0,.788.456,1.227,1.227,0,0,0,.62-.424c.767-.993-.852-1.96-1.269-.969Z" fill="#4fced4"/>
          <path id="Trazado_100552" data-name="Trazado 100552" d="M423.6,663.3c1.625-4.615-2.7-10.156-7.471-10.358-1.45-.061-1.691,1.784-.681,2.5,1.362.97,3.106,1.32,4.483,2.322a5.366,5.366,0,0,1,2.323,5.163.7.7,0,0,0,1.346.369Z" fill="#5de0e3"/>
          <path id="Trazado_100553" data-name="Trazado 100553" d="M427.535,661.476a3.6,3.6,0,0,1,1.865-2.5c1.551-.841-.008-3.344-1.359-2.314a6.044,6.044,0,0,0-2.51,4.541,1.024,1.024,0,0,0,2,.276Z" fill="#5de0e3"/>
          <path id="Trazado_100554" data-name="Trazado 100554" d="M400.668,617.113c-3.652-.225-5.357-3.241-5.409-6.608a.809.809,0,0,0-1.582-.218c-1.324,4.372,2.729,8.2,6.983,8.007a.591.591,0,0,0,.008-1.181Z" fill="#2699a6"/>
          <path id="Trazado_100555" data-name="Trazado 100555" d="M393.483,616.706a5.772,5.772,0,0,0-4.513-1.417c-1.431.161-3.482.907-3.8,2.489a.927.927,0,0,0,1.343,1.028c.94-.393,1.495-1.2,2.553-1.438A3.786,3.786,0,0,1,392.2,618c.9.7,2.189-.508,1.283-1.3Z" fill="#2699a6"/>
          <path id="Trazado_100556" data-name="Trazado 100556" d="M399.887,615.829c-.912-.982-.806-2.016-1.207-3.2a1.3,1.3,0,0,0-2.487-.007c-.686,1.734.577,3.933,1.807,5.113a1.343,1.343,0,0,0,1.887-1.908Z" fill="#2699a6"/>
          <path id="Trazado_100557" data-name="Trazado 100557" d="M271.542,705.966a20.441,20.441,0,0,0-10.181-.213.74.74,0,0,0-.507.318c-.167.346.235.683.577.859l4.215,2.171a1.532,1.532,0,0,0-1.66,1.292,1.251,1.251,0,0,0,1.516,1.278,4.144,4.144,0,0,0-2.3.755,1.432,1.432,0,0,0-.13,2.135c.2.144.462.231.568.453.132.276-.053.59-.214.85a3.588,3.588,0,0,0-.628,2.042,1.873,1.873,0,0,0,1.153,1.689l17.421-10.585C278.084,708.033,274.878,706.769,271.542,705.966Z" fill="#42bdc4"/>
          <path id="Trazado_100558" data-name="Trazado 100558" d="M281.2,707.57c-2.6-1.205-3.183-3.477-3.289-6.108a1.078,1.078,0,0,0-2.109-.291c-1.177,3.357,1.669,6.959,4.7,8.069.964.353,1.639-1.234.7-1.67Z" fill="#42bdc4"/>
          <path id="Trazado_100559" data-name="Trazado 100559" d="M351.274,728.052c-.538-.944-1.883-.948-2.954-.764-9.657,1.66-18.119,8.589-27.917,8.672l24.416,6.331a6.745,6.745,0,0,0,.358-3.336,2.321,2.321,0,0,0-2.412-1.908A1.761,1.761,0,0,0,344.426,736a6.682,6.682,0,0,0-4.581-1.382c3.536-.662,7.2-1.38,10.1-3.509C350.933,730.39,351.879,729.112,351.274,728.052Z" fill="#5de0e3"/>
          <path id="Trazado_100560" data-name="Trazado 100560" d="M328.593,731.245a10.918,10.918,0,0,0,2.019-10.756,1.122,1.122,0,1,0-2.061.863,8.938,8.938,0,0,1-.635,9.377c-.274.4.361.89.677.516Z" fill="#5de0e3"/>
          <path id="Trazado_100561" data-name="Trazado 100561" d="M334.2,728.782a6.757,6.757,0,0,1,4.287-2.335c.881-.124.524-1.491-.361-1.348a7.875,7.875,0,0,0-4.842,2.777c-.52.631.372,1.541.916.906Z" fill="#5de0e3"/>
          <path id="Trazado_100562" data-name="Trazado 100562" d="M277.985,737.628c-4.109-.816-7.751-2.026-9.626-6.089-.609-1.32-2.787-.388-2.356.986,1.579,5.031,7.292,5.763,11.822,6.263.662.073.814-1.03.16-1.16Z" fill="#5de0e3"/>
          <path id="Trazado_100563" data-name="Trazado 100563" d="M276.42,734.491a8.876,8.876,0,0,1-1.7-4.166c-.143-.78-1.383-.6-1.372.176a8.382,8.382,0,0,0,2.016,5.059c.6.752,1.658-.321,1.057-1.069Z" fill="#5de0e3"/>
          <path id="Trazado_100564" data-name="Trazado 100564" d="M262.874,764.381c4.63-1.99,9.062-8.438,6.208-13.475a1.027,1.027,0,0,0-1.9.509c.046,2.441.682,4.5-.265,6.912a9.753,9.753,0,0,1-4.642,5.036c-.685.37-.08,1.31.6,1.018Z" fill="#34abb5"/>
          <path id="Trazado_100565" data-name="Trazado 100565" d="M271.527,759.141a13.1,13.1,0,0,1,6.263-2.539c.948-.114.968-1.619.011-1.5a14.581,14.581,0,0,0-7.035,2.746c-.769.568-.018,1.872.761,1.3Z" fill="#34abb5"/>
          <path id="Trazado_100566" data-name="Trazado 100566" d="M276.2,751.22a1.6,1.6,0,0,0-1.325,1.319.835.835,0,0,0,.377.915,1.355,1.355,0,0,0,1.877-.507,1.427,1.427,0,0,0-.968-1.969c-1.2-.416-1.726,1.679-.51,1.864l.22-.871q.3.395.6.788l.094-.191a.7.7,0,0,0-.361-1.348Z" fill="#34abb5"/>
          <path id="Trazado_100567" data-name="Trazado 100567" d="M260.342,756.618a1.518,1.518,0,0,0,2.641-.178,1.076,1.076,0,0,0-.168-1.247,1.972,1.972,0,0,0-1.614-.6,1.3,1.3,0,0,0-1.274,1.114,1.274,1.274,0,0,0,.925,1.417,2.136,2.136,0,0,0,1.971-.476l-1.762-.732q.1-.515.542-.279c-.659-.537-1.793.157-1.261.98Z" fill="#34abb5"/>
          <path id="Trazado_100568" data-name="Trazado 100568" d="M333.738,761.9a15.6,15.6,0,0,0,9.2-6.027c.346-.479.961-1.035,1.424-.669a1.208,1.208,0,0,1,.3.49,5.853,5.853,0,0,0,3.582,3.075,9.727,9.727,0,0,0,4.81.175,1.426,1.426,0,0,1,.642-.027,1.607,1.607,0,0,1,.7.583c1.9,2.176,5.22,2.166,8.1,1.983" fill="#34abb5"/>
          <g id="Grupo_53758" data-name="Grupo 53758">
            <path id="Trazado_100569" data-name="Trazado 100569" d="M296.191,799.734l-5.421-.668A12.322,12.322,0,0,0,296.191,799.734Z" fill="#4fced4"/>
            <path id="Trazado_100570" data-name="Trazado 100570" d="M282.78,791.36c-2.393,1.01-4.908,2.04-7.495,1.8s-5.212-2.209-5.227-4.806a27.678,27.678,0,0,1-10.364,6.887l31.076,3.824A13.129,13.129,0,0,1,282.78,791.36Z" fill="#4fced4"/>
          </g>
          <path id="Trazado_100571" data-name="Trazado 100571" d="M366.739,780.973c-.443-.531-1.29-.345-1.931-.086a24.739,24.739,0,0,0-9.6,6.972c-1.964,2.334-3.487,5.024-5.565,7.258a14.219,14.219,0,0,1-2.87,2.385l17.51-4.918c-.461-1.168,1.049-2.171,1.3-3.4a.578.578,0,0,0-.074-.495.67.67,0,0,0-.581-.136,10.442,10.442,0,0,0-2.128.433,29.226,29.226,0,0,1,2.476-1.578c.767-.612,1.2-1.907.434-2.525a1.869,1.869,0,0,0-1.746-.1l1.908-1.566C366.564,782.644,367.312,781.661,366.739,780.973Z" fill="#4fced4"/>
          <path id="Trazado_100572" data-name="Trazado 100572" d="M294.372,813.236a4.927,4.927,0,0,1-3.72-2.494c-.742-1.4-.476-2.878-.423-4.383a.758.758,0,0,0-1.4-.381c-1.254,1.8-.711,4.357.52,6.062a6.677,6.677,0,0,0,5.015,2.7c.983.076.942-1.378.01-1.5Z" fill="#2699a6"/>
          <path id="Trazado_100573" data-name="Trazado 100573" d="M286.794,810.283c-1.343-2.683-4.532-4.838-7.617-4.263-1.227.229-.9,2.067.27,2.111,2.529.1,4.667.592,6.143,2.859a.7.7,0,0,0,1.2-.707Z" fill="#2699a6"/>
          <path id="Trazado_100574" data-name="Trazado 100574" d="M286.271,802.657a.7.7,0,0,0,.638,1.241.943.943,0,0,0,.516-1.049c-.122-.613-.7-.836-1.25-.908a.562.562,0,0,0-.49.281,1.178,1.178,0,0,0,.079,1.7.984.984,0,0,0,1.421-.294c.529-.714-.8-1.519-1.209-.7l.681-.144-.49.281.5.1c.283-.241-.083-.684-.392-.505Z" fill="#2699a6"/>
          <path id="Trazado_100575" data-name="Trazado 100575" d="M294.429,805.939a1.921,1.921,0,0,0-.5-3.771c-2.492-.015-2.578,3.508-.341,4.1,1.912.5,2.43-2.5.379-2.742l-.188-.022.681.185c-.194-.139-.366-.083-.517.17q-.412.488-.33.119c-1.1.515-.325,2.315.821,1.962Z" fill="#2699a6"/>
          <path id="Trazado_100576" data-name="Trazado 100576" d="M367.83,807.179c2.4-2.392,4.911-6.909,3.706-10.4a1.456,1.456,0,0,0-2.849.364c-.172,1.591.187,3.1-.176,4.712a11.327,11.327,0,0,1-2.036,4.288c-.592.8.682,1.7,1.355,1.034Z" fill="#2699a6"/>
          <path id="Trazado_100577" data-name="Trazado 100577" d="M374.469,797.6a1.307,1.307,0,0,0,.291,2.379,1.433,1.433,0,1,0-.69-2.063,1.473,1.473,0,0,0,1.727,2.056,1.175,1.175,0,1,0-.9-2.159l-.12.062.9-.119q.088.753.175,1.507l-.857.114.79-.612-.447.583.111-.082a.967.967,0,0,0-.979-1.666Z" fill="#2699a6"/>
          <path id="Trazado_100578" data-name="Trazado 100578" d="M362.671,801.912a1.644,1.644,0,0,0,2.6-.12,1.5,1.5,0,0,0-1.319-2.2c-1.624-.175-1.7,2.547-.019,2.577l.15,0-.892-.371.107.119-.379-.916-.013.149.626-1.084-.159.089.647-.173.384.176c-1.126-1.173-2.706.546-1.736,1.755Z" fill="#2699a6"/>
          <path id="Trazado_100579" data-name="Trazado 100579" d="M370.607,805.727a13.143,13.143,0,0,1,2.977-1.345c.971-.291,1.989-.368,2.946-.7.5-.17.63-1.033,0-1.14-2.254-.383-4.788.751-6.687,1.883a.752.752,0,0,0,.761,1.3Z" fill="#2699a6"/>
          <path id="Trazado_100580" data-name="Trazado 100580" d="M269.981,832.4a9.447,9.447,0,0,1,4.048,6.207c.449,2.626-.226,5.421.658,7.934a1.578,1.578,0,0,0,.424.71c.641.536,1.619-.056,2.089-.748,1.091-1.6,1.162-3.677,1.075-5.616a14.856,14.856,0,0,1,.376-5.768c.663-1.824,2.514-3.4,4.413-3" fill="#2699a6"/>
          <path id="Trazado_100581" data-name="Trazado 100581" d="M285.97,731.78c2.153,1.149,2.361,4.151,1.92,6.55s-1.223,5-.112,7.171a1.364,1.364,0,0,0,.886.814,1.39,1.39,0,0,0,1.084-.446c2.747-2.437,2.124-6.869,3.632-10.217.249-.553.778-1.166,1.342-.945.58.226.53,1.04.683,1.643a1.959,1.959,0,0,0,2.685,1.2c1.279-.672,1.347-2.428,1.469-3.868a13.978,13.978,0,0,1,2.412-6.722" fill="#42bdc4"/>
          <path id="Trazado_100582" data-name="Trazado 100582" d="M403.45,860.528l-29.6,9.312a12.864,12.864,0,0,1,11.09,7.1,10.6,10.6,0,0,0,1.821,3.2c.886.859,2.495,1.149,3.29.2a2.617,2.617,0,0,0,0-2.815,17.4,17.4,0,0,1-1.421-2.618,1.086,1.086,0,0,1,.051-.945,1,1,0,0,1,.75-.344c1.434-.117,2.6,1.053,3.684,2s2.714,1.749,3.885.913c1.5-1.073.6-3.421.92-5.237a1.474,1.474,0,0,1,.4-.861,2.1,2.1,0,0,1,1.559-.262,6.406,6.406,0,0,0,6.261-3.49C407.156,864.345,405.918,861.155,403.45,860.528Z" fill="#5de0e3"/>
          <path id="Trazado_100583" data-name="Trazado 100583" d="M294.542,895.4c1.049-4.019-.259-10.213-4.572-11.907-.931-.366-1.411.914-.882,1.529,1.19,1.383,2.551,2.293,3.379,4.016a9.482,9.482,0,0,1,.728,5.993c-.171.873,1.117,1.247,1.347.369Z" fill="#5de0e3"/>
          <path id="Trazado_100584" data-name="Trazado 100584" d="M298.478,895.225a4.7,4.7,0,0,1,1.583-2.674c.812-.678,2.191-.776,2.646-1.8a1.176,1.176,0,0,0-.413-1.54c-1.331-1-3.308.6-4.2,1.581a7.266,7.266,0,0,0-1.832,4.127c-.147,1.269,1.944,1.544,2.214.306Z" fill="#5de0e3"/>
          <path id="Trazado_100585" data-name="Trazado 100585" d="M291.225,896.209c-.553-1.776-2.164-3.685-4.156-3.779a.973.973,0,0,0-.49,1.8,7.6,7.6,0,0,1,1.673.922,3.472,3.472,0,0,1,1,1.581c.388,1.25,2.36.729,1.97-.527Z" fill="#5de0e3"/>
          <path id="Trazado_100586" data-name="Trazado 100586" d="M297.965,883.64a1.246,1.246,0,0,0,.24,1.933,1.379,1.379,0,0,0,1.049.205c.447-.087.617-.438.974-.623a1.313,1.313,0,0,0,.256-2.046,2.6,2.6,0,0,0-1.85-.746c-2.073-.13-2.084,3.092-.023,3.221a2.54,2.54,0,0,0,1.883-.636l-2.18-.578q-.009-.813,1.028-.239-.045.335-.088.669l.065-.127a.862.862,0,0,0-1.354-1.033Z" fill="#5de0e3"/>
          <path id="Trazado_100587" data-name="Trazado 100587" d="M415.888,924.918c2.554,2.991,3.386,8.561-1.208,10.151a1.335,1.335,0,1,0,1.026,2.453c5.772-2.594,5.118-9.726,1.163-13.6-.65-.637-1.558.317-.981.992Z" fill="#5de0e3"/>
          <path id="Trazado_100588" data-name="Trazado 100588" d="M421.066,927.078a5.927,5.927,0,0,0,5.236,7.11c1.89.217,1.992-3,.022-3.006a3.332,3.332,0,0,1-3.149-3.813c.144-1.213-1.835-1.461-2.109-.291Z" fill="#5de0e3"/>
          <path id="Trazado_100589" data-name="Trazado 100589" d="M392.192,882.972a2.626,2.626,0,0,0-.266,3.124,1.062,1.062,0,0,0,.923.533,1.942,1.942,0,0,0,1.527-2.986,1.992,1.992,0,0,0-3.461.705,2.069,2.069,0,0,0,2.951,2.235,2.169,2.169,0,0,0-.04-3.722c-1.4-.884-2.746,1.428-1.288,2.231-.5-.276.636-1.236.553-.325.108.249.048.384-.179.4q-.654-.3-.335-.662l1.21.495a.57.57,0,0,1,.013-.8c.657-.936-.887-2.138-1.608-1.227Z" fill="#5de0e3"/>
          <path id="Trazado_100590" data-name="Trazado 100590" d="M418.812,939.2c-1.66,1.517,1.258,3.97,2.47,1.874a1.957,1.957,0,0,0-.562-2.582,2.141,2.141,0,0,0-3.014.769c-1.018,1.483,1.4,2.869,2.417,1.4q-.133.155-.051.1-1.291-1.138.038-.273a.913.913,0,0,0-1.3-1.283Z" fill="#5de0e3"/>
          <path id="Trazado_100591" data-name="Trazado 100591" d="M269.884,961.089a39.377,39.377,0,0,0,14.806-17.425c1.407,3.009.253,6.915,2.2,9.61a5.055,5.055,0,0,0,5.225,1.89,1.561,1.561,0,0,1,1.059-.058,1.412,1.412,0,0,1,.512.561,13.518,13.518,0,0,0,12.326,6.063" fill="#5de0e3"/>
          <path id="Trazado_100592" data-name="Trazado 100592" d="M324.762,756.034c1.388.838,1.859,2.654,1.776,4.273s-.587,3.2-.617,4.819a3.18,3.18,0,0,0,.722,2.344.619.619,0,0,0,.3.187c.29.056.519-.241.648-.508.858-1.775.815-3.83,1.1-5.782a.977.977,0,0,1,.3-.685c.354-.257.867.062,1.051.459s.187.86.375,1.255a1.951,1.951,0,0,0,2.949.335,4.193,4.193,0,0,0,1.14-3.137,18.96,18.96,0,0,1,.085-3.431" fill="#5de0e3"/>
          <path id="Trazado_100593" data-name="Trazado 100593" d="M331.655,769.773l.213.3a.691.691,0,0,0,.589.341,1.284,1.284,0,1,0-.4-2.53,1.346,1.346,0,0,0-.86,2.119,1.745,1.745,0,0,0,2.678.109,1.639,1.639,0,0,0-1.986-2.555,1.937,1.937,0,0,0-.941,2.308c.455,1.707,3.285,1.45,3.166-.405l-.013-.194-.219.8-.007.043-2.307.013.123.1-.388-.668.045.143.336-1.269-.138.14.9-.37.221.043.534.7-.074-.2c-.037.277-.074.555-.11.832l-.9-.448.694,0-.347-.166c-.482-.23-1.174.285-.8.81Z" fill="#5de0e3"/>
          <path id="Trazado_100594" data-name="Trazado 100594" d="M258.847,689.9l-11.656-2.662a7.655,7.655,0,0,1,2.756,5.88c-.018,2.553-1.323,4.98-1.253,7.533a2.327,2.327,0,0,0,.385,1.381,1.021,1.021,0,0,0,1.288.324,1.347,1.347,0,0,0,.476-.683c.875-2.239.291-5.088,1.936-6.84a.5.5,0,0,1,.264-.173c.329-.052.413.428.466.757a1.914,1.914,0,0,0,2.3,1.347,3.665,3.665,0,0,0,2.23-1.856A7.07,7.07,0,0,0,258.847,689.9Z" fill="#5de0e3"/>
        </g>
      </g>
    </g>
  </g>
</svg>
