<svg xmlns="http://www.w3.org/2000/svg" width="167" height="167" viewBox="0 0 167 167">
  <g id="Grupo_87484" data-name="Grupo 87484" transform="translate(-385 -577)">
    <circle id="Elipse_4328" data-name="Elipse 4328" cx="83.5" cy="83.5" r="83.5" transform="translate(385 577)" fill="#fff"/>
    <g id="marcador-de-posicion" transform="translate(406.973 605.886)">
      <path id="Trazado_145731" data-name="Trazado 145731" d="M105.261,25V79.669a7.944,7.944,0,1,1,7.943,7.81H9.943a7.811,7.811,0,1,1,0-15.62,7.878,7.878,0,0,1,7.943,7.81V25Z" transform="translate(-0.046 12.099)" fill="#fde947"/>
      <path id="Trazado_145732" data-name="Trazado 145732" d="M44.639,28.385c2.376,1,3.981,2.915,3.981,5.106,0,3.235-3.5,5.857-7.81,5.857S33,36.726,33,33.491c0-2.191,1.6-4.1,3.981-5.106" transform="translate(30.666 15.323)" fill="#f2c351"/>
      <path id="Trazado_145733" data-name="Trazado 145733" d="M10,52.334h7.992a3.95,3.95,0,0,0,4-3.9V42.888a5.87,5.87,0,0,1,4.1-5.557l9.784-3.186a5.871,5.871,0,0,0,4.1-5.557V25H47.96v5.223a11.742,11.742,0,0,1-8.2,11.113l-8.419,2.743a1.956,1.956,0,0,0-1.365,1.853v2.5a3.95,3.95,0,0,0,4,3.9H73.933a3.95,3.95,0,0,0,4-3.9V25h7.992V48.43a3.95,3.95,0,0,0,4,3.9h7.992v7.81h-9.99a1.976,1.976,0,0,0-2,1.952v7.81a1.976,1.976,0,0,0,2,1.952h9.99v7.81h-9.99a1.976,1.976,0,0,0-2,1.952v5.857H77.929V64.049a3.95,3.95,0,0,0-4-3.9H55.952a3.95,3.95,0,0,0-4,3.9v23.43H43.965V60.144H29.979v1.54a45.752,45.752,0,0,1-7.992,25.794H12l1.86-2.546a41.974,41.974,0,0,0,8.13-24.788H10Z" transform="translate(7.574 12.099)" fill="#8892a0"/>
      <path id="Trazado_145734" data-name="Trazado 145734" d="M2,83.479a7.81,7.81,0,1,1,15.62,0V28.81A7.81,7.81,0,1,0,2,28.81Z" transform="translate(-0.046 8.289)" fill="#79c734"/>
      <path id="Trazado_145735" data-name="Trazado 145735" d="M54,83.479a7.81,7.81,0,1,1,15.62,0V28.81a7.81,7.81,0,0,0-15.62,0Z" transform="translate(51.482 8.289)" fill="#79c734"/>
      <path id="Trazado_145736" data-name="Trazado 145736" d="M45.572,53.859,59.63,35.115a17.572,17.572,0,1,0-28.115,0Z" transform="translate(25.946 -5.046)" fill="#fc6652"/>
      <ellipse id="Elipse_4329" data-name="Elipse 4329" cx="7.877" cy="7.462" rx="7.877" ry="7.462" transform="translate(63.366 10.136)" fill="#92fc35"/>
      <path id="Trazado_145737" data-name="Trazado 145737" d="M54,28.81V67.576A53.771,53.771,0,0,0,65.715,34.007a54.128,54.128,0,0,0-1.49-12.588A7.714,7.714,0,0,0,54,28.81Z" transform="translate(51.482 8.289)" fill="#8ad24a"/>
      <path id="Trazado_145738" data-name="Trazado 145738" d="M2,28.81V67.576A53.771,53.771,0,0,0,13.715,34.007a54.128,54.128,0,0,0-1.49-12.588A7.734,7.734,0,0,0,9.81,21,7.81,7.81,0,0,0,2,28.81Z" transform="translate(-0.046 8.289)" fill="#8ad24a"/>
      <g id="Grupo_86973" data-name="Grupo 86973" transform="translate(0 0)">
        <path id="Trazado_145739" data-name="Trazado 145739" d="M114.128,33.331a9.9,9.9,0,0,0-9.721,7.814H85.35l2.977-3.907A19.433,19.433,0,0,0,92.3,25.524a19.849,19.849,0,0,0-39.692,0,19.434,19.434,0,0,0,3.967,11.713l2.979,3.907-38.9,0a9.9,9.9,0,0,0-9.723-7.812A9.855,9.855,0,0,0,1,43.094V97.765a9.855,9.855,0,0,0,9.922,9.762l103.209,0a9.855,9.855,0,0,0,9.924-9.762V43.1a9.858,9.858,0,0,0-9.926-9.766ZM104.206,88H96.267V80.192h7.939Zm0-11.713H96.267a3.939,3.939,0,0,0-3.969,3.9V88a3.939,3.939,0,0,0,3.969,3.9h7.939v3.909l-7.939,0a3.939,3.939,0,0,0-3.969,3.9v3.907H88.327l0-21.479a5.914,5.914,0,0,0-5.954-5.857H64.512a5.914,5.914,0,0,0-5.954,5.857v21.477H54.586V78.24A1.967,1.967,0,0,0,52.6,76.288H38.711a1.967,1.967,0,0,0-1.985,1.952v1.539a43.867,43.867,0,0,1-7.064,23.843h-4.99A43.834,43.834,0,0,0,32.756,78.24a1.918,1.918,0,0,0-.58-1.38,2,2,0,0,0-1.405-.572H20.848V72.381H26.8a5.915,5.915,0,0,0,5.954-5.857l0-5.537a3.906,3.906,0,0,1,2.715-3.706l9.719-3.186a7.809,7.809,0,0,0,5.426-7.41V45.05h3.975v3.268A9.773,9.773,0,0,1,47.8,57.581l-8.362,2.741a3.906,3.906,0,0,0-2.715,3.706v2.5a5.914,5.914,0,0,0,5.954,5.855H82.37a5.913,5.913,0,0,0,5.954-5.855l0-21.477H92.3V66.521a5.914,5.914,0,0,0,5.954,5.857h5.954ZM84.357,103.624H62.527V82.147a1.97,1.97,0,0,1,1.985-1.952H82.37a1.97,1.97,0,0,1,1.985,1.952Zm-33.74,0h-16.3a47.686,47.686,0,0,0,6.375-23.43h9.924Zm-21.83-37.1A1.971,1.971,0,0,1,26.8,68.476H20.846V45.046l25.8,0v1.634a3.9,3.9,0,0,1-2.711,3.706l-9.719,3.186a7.812,7.812,0,0,0-5.43,7.412Zm75.419,1.952H98.252a1.97,1.97,0,0,1-1.985-1.952V45.048h7.939ZM72.451,9.9A15.767,15.767,0,0,1,88.327,25.526a15.534,15.534,0,0,1-3.178,9.37l-12.7,16.662L59.749,34.9a15.538,15.538,0,0,1-3.176-9.372A15.769,15.769,0,0,1,72.451,9.9ZM78.4,54.811c0,2.118-2.725,3.9-5.952,3.9s-5.954-1.787-5.954-3.9a3.31,3.31,0,0,1,1.526-2.554l2.842,3.727a2,2,0,0,0,3.176,0l2.84-3.725A3.313,3.313,0,0,1,78.4,54.811ZM65.629,49.121a7.13,7.13,0,0,0-3.1,5.689c0,4.307,4.45,7.81,9.924,7.81s9.922-3.5,9.922-7.81a7.139,7.139,0,0,0-3.1-5.689l3.106-4.073h1.985l0,21.475a1.97,1.97,0,0,1-1.985,1.952H42.678a1.97,1.97,0,0,1-1.985-1.952v-2.5l8.362-2.741a13.679,13.679,0,0,0,9.5-12.968V45.05h3.969ZM4.968,43.094a5.955,5.955,0,0,1,11.908,0V89.959a10.039,10.039,0,0,0-11.908,0Zm0,54.671a5.955,5.955,0,0,1,11.908,0,1.985,1.985,0,0,0,3.969,0V80.192h7.893a40.016,40.016,0,0,1-7.659,21.7l-1.254,1.728H10.921A5.914,5.914,0,0,1,4.968,97.765Zm109.161,5.859H96.267l0-3.907,9.924,0h0a1.97,1.97,0,0,0,1.985-1.952,5.955,5.955,0,1,1,5.954,5.857Zm5.954-13.663a10.039,10.039,0,0,0-11.908,0V43.1a5.754,5.754,0,0,1,1.743-4.141,5.98,5.98,0,0,1,4.212-1.718,5.917,5.917,0,0,1,5.954,5.861Z" transform="translate(-0.999 -5.999)" fill="#0f2771"/>
        <path id="Trazado_145740" data-name="Trazado 145740" d="M41.762,29.523A9.761,9.761,0,1,0,32,19.762,9.77,9.77,0,0,0,41.762,29.523Zm0-15.618A5.856,5.856,0,1,1,35.9,19.762,5.864,5.864,0,0,1,41.762,13.9Z" transform="translate(29.721 -2.188)" fill="#0f2771"/>
      </g>
    </g>
  </g>
</svg>
