<svg xmlns="http://www.w3.org/2000/svg" width="111.018" height="253" viewBox="0 0 111.018 253">
  <g id="Grupo_86922" data-name="Grupo 86922" transform="translate(-365.104 -341.722)">
    <path id="Trazado_145279" data-name="Trazado 145279" d="M423.528,423.44c-13.324,7.692-34.926,7.692-48.245,0s-13.315-20.159,0-27.855,34.921-7.688,48.245,0S436.838,415.748,423.528,423.44Z" transform="translate(0.664 165.512)" opacity="0.3"/>
    <path id="Trazado_145280" data-name="Trazado 145280" d="M389.23,392.059a169.248,169.248,0,0,0,16.362,9.606c1.368.688,1.159,4.77.906,5.356s-3.931,1.35-10.179.12-10.17-5.307-12.693-5.4c-4.765-.2-9.207-.262-12.822-2.456.1-1.022.844-9.211.844-9.211Z" transform="translate(19.613 166.374)" fill="#e6dab0"/>
    <path id="Trazado_145281" data-name="Trazado 145281" d="M381.035,394.127a156.84,156.84,0,0,0,8.469,14.949c.511.831.218,3.62-.608,4.064-7.839,4.232-13.328-.737-15.989-4.5s-4-8-4.885-9.66-.466-6.058-.466-6.058Z" transform="translate(8.089 176.195)" fill="#e6dab0"/>
    <path id="Trazado_145282" data-name="Trazado 145282" d="M398.45,364.657a8,8,0,0,0,1.386-9.948c-3.309-5.734-8.985-2.709-8.985-2.709l-4.832,4.188,6.728,8.985Z" transform="translate(71.975 32.625)" fill="#c2d2ed"/>
    <path id="Trazado_145283" data-name="Trazado 145283" d="M389.369,351.62l6.358-.308,2.212,11.172-6.675,2.142-4.814-5.708.6-5.716Z" transform="translate(73.459 33.003)" fill="#81a1cc"/>
    <path id="Trazado_145284" data-name="Trazado 145284" d="M386.97,354.77c.289-3.313,2.9-3.482,2.9-3.482l4.819-.169,2.567,2.58s2.114,11.512.213,9.962-7.568.577-8.212-3.891C388.742,358.86,386.677,358.092,386.97,354.77Z" transform="translate(75.15 32.337)" fill="#f0c6b4"/>
    <path id="Trazado_145285" data-name="Trazado 145285" d="M381.583,348.43s5.827-1.328,12.973,3.1A183.158,183.158,0,0,0,423.117,365.7c5.6-1.981,9.318-3.518,9.318-3.518s-2.58,2.127-.173,7.483c1.683,3.735,7.772,5.2,7.772,5.2s-11.978,5.658-14.94,5.52c-9.775-1.328-27.021-10.859-37.1-12.542.977-1.839-14.057-15.793-14.057-15.793Z" transform="translate(30.391 22.44)" fill="#e7edf8"/>
    <path id="Trazado_145286" data-name="Trazado 145286" d="M389.23,391.789a170.325,170.325,0,0,0,16.362,9.606c1.368.693,1.159,4.765.906,5.347s-3.931,1.346-10.179.133c-6.249-1.23-10.17-5.312-12.693-5.418-4.765-.191-9.207-.258-12.822-2.443.1-1.021.844-9.216.844-9.216Z" transform="translate(19.613 165.445)" fill="#613934"/>
    <path id="Trazado_145287" data-name="Trazado 145287" d="M370.8,470.433s6.364,7.15,18.427,1.217c2.061-29.561,13.4-54.174,16.362-86.329l-2.061-18.729-31.693,8.345Z" transform="translate(19.613 85.584)" fill="#003552"/>
    <path id="Trazado_145288" data-name="Trazado 145288" d="M381.035,393.872a157.817,157.817,0,0,0,8.469,14.936c.511.826.218,3.62-.608,4.068-7.839,4.228-13.328-.746-15.989-4.5s-4-7.985-4.885-9.66-.466-6.062-.466-6.062Z" transform="translate(8.089 175.259)" fill="#613934"/>
    <path id="Trazado_145289" data-name="Trazado 145289" d="M370.217,393.567s2.345,21.3.169,35.907c-4.637,31.093-2.474,46.145-3.158,53.872s16.108,7.941,16.9.928c4.29-38.31,13.146-67.436,14.252-92.937,14.953-11.672,15.984-25.249,15.984-25.249L378.1,369.344Z" transform="translate(7.24 83.853)" fill="#00537d"/>
    <path id="Trazado_145290" data-name="Trazado 145290" d="M371.127,350.621l-1.093,9.189,2.838,10.392s11.725,3.344,12.231,3.344,9.406-6.831,9.406-6.831l-2.323-13.781-12.751-6.187H373.97Z" transform="translate(16.97 17.296)" fill="#c7a495"/>
    <path id="Trazado_145291" data-name="Trazado 145291" d="M374.568,353.38s6.5,8.176,13.155,4.979c5.658-2.727,2.216-8.669,2.216-8.669l4.636,1.71,10.139,21.651s-.857,48.272-.857,50.5c-6.053,8.034-19.3,11.17-19.3,11.17l-5.778-7.559L369.66,373.4Z" transform="translate(15.68 27.416)" fill="#81a1cc"/>
    <path id="Trazado_145292" data-name="Trazado 145292" d="M373.886,352.681s12.378,12.968,12.378,25.772c0,7.723,1.421,47.179.653,90.974,7.057-2.118,10.419-8.692,10.419-14.669,0-27.091-1.808-53.126-1.585-73.6.182-16.619-7.257-22.264-17.4-32.31C378.354,348.844,372.718,349.981,373.886,352.681Z" transform="translate(29.676 24.509)" fill="#fff"/>
    <path id="Trazado_145293" data-name="Trazado 145293" d="M366.178,367.264c8.012-7.705,12.3-9.873,17.645-18.555.9,7.164,13.786,16.41,17.454,32.132,2.589,11.085.036,57.652,1.683,94.7-9.464,5.978-33.26,3.455-33.26-6,0-14.279,1.914-31.519,2.58-41.3a102.662,102.662,0,0,0-5.525-39.407S366.24,368.366,366.178,367.264Z" transform="translate(3.698 24.044)" fill="#fff"/>
    <path id="Trazado_145294" data-name="Trazado 145294" d="M382.119,358.834a13.075,13.075,0,0,1,3.3-.711c2.061-.289,6.24-.351,6.662.56.622,1.283-1.705,2.922-1.705,2.922l1.1,1.457-2.829.817-6.524-1.253Z" transform="translate(58.554 55.787)" fill="#f0c6b4"/>
    <path id="Trazado_145295" data-name="Trazado 145295" d="M397.413,347.579s1.9,8,1.8,8.758a3.877,3.877,0,0,1-.9,1.6,19.46,19.46,0,0,1,.342,3.309c0,1.612-2.452,12.968-2.785,14.612s-3.948,3.709-7.133,2.438c-7.39-2.945-11.1-6.307-11.934-7.532-.608-.875-.324-3.1-.324-3.1s-3.748-.644-4.779-3.606a40.392,40.392,0,0,1-1.736-4.117l.515-7.99,5.867-8.958H392Z" transform="translate(16.719 4.367)" fill="#f0c6b4"/>
    <path id="Trazado_145296" data-name="Trazado 145296" d="M373.383,361.592c2.514-.551,3.629,2.625,4.837,3.526,1.021-4.25,3.184-1.87,4.85-6.4.275-.742,2.829-1.972,2.554,1.288,13.337-.511,14.07-5.92,13.257-9.788-.653-3.131-7.608-11.294-19.981-7.519-5.2,1.586-9.011,6.209-9.22,13.519-.3,10.619,3.056,12.2,3.056,12.2S370.874,362.156,373.383,361.592Z" transform="translate(15.683 0)" fill="#ff8530"/>
    <g id="Grupo_86919" data-name="Grupo 86919" transform="translate(440.322 413.581)">
      <path id="Trazado_145297" data-name="Trazado 145297" d="M385.916,372.036V360.671l.884-2.58h3.007l.87,2.58v11.365a6.178,6.178,0,1,1-4.761,0Z" transform="translate(-381.768 -357.252)" fill="#659ec9" opacity="0.7"/>
      <g id="Grupo_86918" data-name="Grupo 86918" transform="translate(1.39 17.53)">
        <path id="Trazado_145298" data-name="Trazado 145298" d="M392.634,362.518a5.141,5.141,0,0,1-10.281,0Z" transform="translate(-382.353 -359.547)" fill="#4fbeff"/>
        <path id="Trazado_145299" data-name="Trazado 145299" d="M383.859,366.9a8.042,8.042,0,0,0,7.261,0c2-1.146,2-3.029,0-4.188a8.043,8.043,0,0,0-7.261,0C381.856,363.874,381.856,365.757,383.859,366.9Z" transform="translate(-382.34 -361.849)" fill="#8dd5ff"/>
      </g>
      <path id="Trazado_145300" data-name="Trazado 145300" d="M387.3,358.621v12.653s-3.637,1.772-3.637,5.076c0,3.016,1.537,4.046,3.833,4.712a4.993,4.993,0,0,1-5.143-5.227c0-2.327,1.71-3.9,3.9-4.677l.355-.124V358.621Z" transform="translate(-380.963 -355.428)" fill="#fff" opacity="0.2"/>
      <path id="Trazado_145301" data-name="Trazado 145301" d="M386.055,370.359v-11.9h.933v12.231l-.382.129a5.922,5.922,0,1,0,3.93,0l-.382-.129V358.461h.933v11.9a6.531,6.531,0,1,1-5.032,0Z" transform="translate(-382.04 -355.978)" fill="#517fa2"/>
      <path id="Trazado_145302" data-name="Trazado 145302" d="M383.73,361.02a4.914,4.914,0,0,0,4.49,0c1.23-.706,1.23-1.861,0-2.585a5,5,0,0,0-4.49,0C382.486,359.159,382.486,360.314,383.73,361.02Zm1.142-2.532a2.428,2.428,0,0,1,2.212,0c.613.351.613.919,0,1.279a2.455,2.455,0,0,1-2.212,0C384.258,359.407,384.258,358.839,384.871,358.488Z" transform="translate(-379.435 -357.902)" fill="#659ec9"/>
      <path id="Trazado_145303" data-name="Trazado 145303" d="M386.491,361.912a4.65,4.65,0,0,1,2.158,3.642,4.987,4.987,0,0,1-5.139,5.227c2.292-.666,3.833-1.7,3.833-4.712a5.3,5.3,0,0,0-2-3.931C384.932,361.774,385.638,361.281,386.491,361.912Z" transform="translate(-376.978 -345.146)" opacity="0.3"/>
      <path id="Trazado_145304" data-name="Trazado 145304" d="M386,359.4c-.053-.031-.107-.075-.164-.107a2.427,2.427,0,0,0-2.212,0,.88.88,0,0,0-.164.107c-.44-.346-.4-.853.164-1.164a2.428,2.428,0,0,1,2.212,0C386.392,358.551,386.437,359.058,386,359.4Z" transform="translate(-378.185 -357.654)" fill="#295e87"/>
    </g>
    <path id="Trazado_145305" data-name="Trazado 145305" d="M383.492,370.518c5.374.884,8.887,3.015,10.69,2.789a8.518,8.518,0,0,0,3.482-1.5s4.05-6.222,3.18-8.327-4.015-3.056-4.015-3.056.355,1.652-2.5,1.652c-2.176,0-2.531-1.479-2.531-1.479l-3.664-2.465c-2.514.991-3.167,2.03-7.39,4.01C379.171,362.933,383.074,369.79,383.492,370.518Z" transform="translate(52.54 56.485)" fill="#f0c6b4"/>
    <path id="Trazado_145306" data-name="Trazado 145306" d="M381.631,370.656s.937-.759,4.783-1.492c3.162-.6,1-11.214-2.212-10.188-3.26,1.039-4.814,1.377-4.814,1.377Z" transform="translate(49.156 59.135)" fill="#81a1cc"/>
    <path id="Trazado_145307" data-name="Trazado 145307" d="M371.221,353.058c-7.79,3.056-8.243,11.241-.768,22.188,3.127,4.583,19.728,29.17,23.579,31.573,4.552,2.825,30.8-8.079,38.905-11.6,5.116-2.221,1.443-16.131-4.295-14.336-8.656,2.691-20.661,6.093-27.336,8.154-1.243-2.016-12.524-20.172-14.625-25.5C384.234,357.344,376.528,350.98,371.221,353.058Z" transform="translate(0 37.629)" fill="#e7edf8"/>
    <g id="Grupo_86921" data-name="Grupo 86921" transform="translate(463.66 380.725)">
      <path id="Trazado_145308" data-name="Trazado 145308" d="M387.534,351.575l1.878-.928,2.3.421,5.361,26.357-.928,1.717-1.809.36-1.388-1.24Z" transform="translate(-386.47 -350.014)" fill="#659ec9" opacity="0.7"/>
      <g id="Grupo_86920" data-name="Grupo 86920" transform="translate(5.275 17.409)">
        <path id="Trazado_145309" data-name="Trazado 145309" d="M388.487,355.032l1.848,9.1a1.223,1.223,0,0,0,1.439.933l.013,0a1.205,1.205,0,0,0,.95-1.417l-1.843-9.1Z" transform="translate(-388.466 -354.042)" fill="#00537d"/>
        <path id="Trazado_145310" data-name="Trazado 145310" d="M388.952,355.832a1.9,1.9,0,0,0,1.719-.342.533.533,0,0,0-.2-.995,1.965,1.965,0,0,0-1.723.351C388.321,355.215,388.423,355.659,388.952,355.832Z" transform="translate(-388.482 -354.424)" fill="#1078ad"/>
      </g>
      <path id="Trazado_145311" data-name="Trazado 145311" d="M388.547,351.771l5.081,25.022a1.585,1.585,0,0,0,1.879,1.248l.031-.009a1.585,1.585,0,0,0,1.235-1.879l-5.081-25.026,1.119-.222,5.081,25.022a2.73,2.73,0,0,1-2.132,3.22l-.031.009a2.734,2.734,0,0,1-3.22-2.132L387.432,352Z" transform="translate(-386.822 -349.124)" fill="#517fa2"/>
      <path id="Trazado_145312" data-name="Trazado 145312" d="M387.752,351.2l5.081,25.022c.178.879.995,1.319.7-.142l-5.081-25.022Z" transform="translate(-385.721 -348.612)" fill="#fff" opacity="0.2"/>
      <path id="Trazado_145313" data-name="Trazado 145313" d="M388.162,351.115l5.081,25.017c.173.866.982,1.319.693-.147l-5.09-25.013Z" transform="translate(-384.31 -348.891)" opacity="0.3"/>
      <path id="Trazado_145314" data-name="Trazado 145314" d="M388.518,354.212a5.1,5.1,0,0,0,4.5-.915c1.084-.977.848-2.141-.529-2.6a5.121,5.121,0,0,0-4.508.915C386.888,352.578,387.123,353.737,388.518,354.212Zm.631-2.762a2.453,2.453,0,0,1,2.221-.457.682.682,0,0,1,.258,1.27,2.514,2.514,0,0,1-2.221.458C388.735,352.489,388.611,351.9,389.148,351.45Z" transform="translate(-387.295 -350.504)" fill="#659ec9"/>
      <path id="Trazado_145315" data-name="Trazado 145315" d="M390.6,351.815a.712.712,0,0,0-.178-.08,2.582,2.582,0,0,0-2.234.449c-.036.049-.089.1-.129.147-.524-.262-.573-.777-.075-1.181a2.453,2.453,0,0,1,2.221-.457C390.819,350.878,390.974,351.375,390.6,351.815Z" transform="translate(-386.127 -350.203)" fill="#295e87"/>
    </g>
    <path id="Trazado_145316" data-name="Trazado 145316" d="M390.722,353.793s-3.18,1.039-2.323,5.289c.875,4.246,1.99,7.821,4.512,7.719s3.842-9.287,3.491-12.347-6.231-3.335-6.231-3.335Z" transform="translate(79.663 32.337)" fill="#f0c6b4"/>
    <path id="Trazado_145317" data-name="Trazado 145317" d="M387.478,351.884c2.536-1.843,6.1,5.343,4.6,6.178C390.4,358.99,384.982,353.719,387.478,351.884Z" transform="translate(74.771 33.935)" fill="#f0c6b4"/>
    <path id="Trazado_145318" data-name="Trazado 145318" d="M386.326,352.422s-4.894,5.276,1.292,11.4A18.6,18.6,0,0,1,386.326,352.422Z" transform="translate(66.707 36.821)" fill="#c2d2ed"/>
  </g>
</svg>
