<svg xmlns="http://www.w3.org/2000/svg" xmlns:xlink="http://www.w3.org/1999/xlink" width="120" height="120" viewBox="0 0 120 120">
  <defs>
    <clipPath id="clip-path">
      <rect id="Rectángulo_32603" data-name="Rectángulo 32603" width="83" height="83" transform="translate(5409 -9476.77)" fill="#fde947" stroke="#707070" stroke-width="1"/>
    </clipPath>
  </defs>
  <g id="Grupo_87493" data-name="Grupo 87493" transform="translate(-5390.602 9495.183)">
    <ellipse id="Elipse_4276" data-name="Elipse 4276" cx="60" cy="60" rx="60" ry="60" transform="translate(5390.602 -9495.183)" fill="#fff"/>
    <g id="Enmascarar_grupo_51" data-name="Enmascarar grupo 51" clip-path="url(#clip-path)">
      <g id="manual" transform="translate(5409 -9476.77)">
        <g id="Grupo_86249" data-name="Grupo 86249">
          <g id="Grupo_86247" data-name="Grupo 86247">
            <path id="Trazado_143982" data-name="Trazado 143982" d="M74.961,55.882V78.429H59.771v-21Z" fill="#8d9fad"/>
            <path id="Trazado_143983" data-name="Trazado 143983" d="M70.5,75.073a8.671,8.671,0,0,1,0-9.292L46.389,61.293h-32.2V78.429H57.1Z" fill="#f1f4f6"/>
            <path id="Trazado_143984" data-name="Trazado 143984" d="M74.961,4.571V62.425L19.395,63.809l-3.273.094L8.037,70.427V12.573A11.37,11.37,0,0,1,19.395,1.216H71.607A3.355,3.355,0,0,1,74.961,4.571Z" fill="#bbcfd4"/>
            <path id="Trazado_143985" data-name="Trazado 143985" d="M19.395,1.216V63.809l-3.273.094L8.037,70.427V12.573A11.37,11.37,0,0,1,19.395,1.216Z" fill="#a3b8bf"/>
            <path id="Trazado_143986" data-name="Trazado 143986" d="M71.607,81.784H19.395a11.357,11.357,0,1,1,0-22.714H71.607a3.355,3.355,0,0,1,0,6.71H33.136L27.322,68.1,21.508,65.78H19.395a4.647,4.647,0,1,0,0,9.294H71.607a3.355,3.355,0,0,1,0,6.71Z" fill="#a3b8bf"/>
            <path id="Trazado_143987" data-name="Trazado 143987" d="M33.136,65.781V76.769a1.669,1.669,0,0,1-2.7,1.313l-2.085-1.636a1.668,1.668,0,0,0-2.06,0l-2.085,1.636a1.669,1.669,0,0,1-2.7-1.313V65.781Z" fill="#dd636e"/>
            <path id="Trazado_143988" data-name="Trazado 143988" d="M21.508,65.781H33.136v4.646H21.508Z" fill="#da4a54"/>
          </g>
          <g id="Grupo_86248" data-name="Grupo 86248">
            <path id="Trazado_143989" data-name="Trazado 143989" d="M25.879,46.584V13.7a6,6,0,0,1,6-6H62.475a6,6,0,0,1,6,6V46.584a6,6,0,0,1-6,6H31.881a6,6,0,0,1-6-6Z" fill="#4e5959"/>
            <path id="Trazado_143990" data-name="Trazado 143990" d="M35.578,52.587h-3.7a6,6,0,0,1-6-6V13.7a6,6,0,0,1,6-6h3.7a6,6,0,0,0-6,6V46.584A6,6,0,0,0,35.578,52.587Z" fill="#454b4b"/>
          </g>
          <path id="Trazado_143991" data-name="Trazado 143991" d="M60.3,30.142a13.035,13.035,0,0,0-.162-2.045,1.432,1.432,0,0,1,.7-1.467L62.7,25.548a1.431,1.431,0,0,0,.524-1.954l-2.353-4.076a1.431,1.431,0,0,0-1.954-.524l-1.874,1.082a1.432,1.432,0,0,1-1.618-.131,13.077,13.077,0,0,0-3.577-2.063,1.381,1.381,0,0,1-.889-1.291V14.4A1.431,1.431,0,0,0,49.53,12.97H44.824A1.431,1.431,0,0,0,43.393,14.4v2.192a1.38,1.38,0,0,1-.889,1.29,13.084,13.084,0,0,0-3.576,2.063,1.431,1.431,0,0,1-1.618.131l-1.874-1.082a1.431,1.431,0,0,0-1.954.524l-2.353,4.076a1.431,1.431,0,0,0,.523,1.954l1.873,1.082a1.432,1.432,0,0,1,.7,1.466,13.061,13.061,0,0,0,0,4.094,1.432,1.432,0,0,1-.7,1.466l-1.873,1.082a1.43,1.43,0,0,0-.523,1.954l2.353,4.076a1.431,1.431,0,0,0,1.954.524l1.874-1.082a1.432,1.432,0,0,1,1.618.131A13.084,13.084,0,0,0,42.505,42.4a1.38,1.38,0,0,1,.889,1.29v2.192a1.431,1.431,0,0,0,1.431,1.431h4.706a1.431,1.431,0,0,0,1.431-1.431V43.693a1.381,1.381,0,0,1,.889-1.291,13.077,13.077,0,0,0,3.577-2.063,1.431,1.431,0,0,1,1.619-.131l1.874,1.082a1.431,1.431,0,0,0,1.954-.524l2.353-4.076a1.431,1.431,0,0,0-.524-1.954l-1.873-1.081a1.432,1.432,0,0,1-.7-1.467,13.09,13.09,0,0,0,.161-2.046Zm-13.12,6.48a6.479,6.479,0,1,1,6.48-6.48,6.478,6.478,0,0,1-6.48,6.48Z" fill="#f1f4f6"/>
        </g>
        <g id="Grupo_86250" data-name="Grupo 86250">
          <path id="Trazado_143992" data-name="Trazado 143992" d="M76.177,4.571A4.576,4.576,0,0,0,71.607,0H19.395A12.587,12.587,0,0,0,6.822,12.573V70.427c0,.011,0,.021,0,.032A12.586,12.586,0,0,0,19.394,83H71.607a4.577,4.577,0,0,0,4.571-4.571c0-.011,0-.021,0-.031ZM31.92,76.768a.453.453,0,0,1-.733.357L29.1,75.49a2.878,2.878,0,0,0-3.561,0l-2.085,1.635a.453.453,0,0,1-.733-.357V75.075h0V67h9.2ZM20.292,67v6.862h-.9a3.431,3.431,0,0,1,0-6.862Zm14.06,0h34.2a9.961,9.961,0,0,0,0,6.862h-34.2Zm37.255,6.862h-.4a7.491,7.491,0,0,1,0-6.862h.4a4.541,4.541,0,0,0,2.139-.533v7.928a4.545,4.545,0,0,0-2.139-.533ZM9.254,59.444a10.154,10.154,0,0,1,8.925-10.066v8.537a12.572,12.572,0,0,0-8.925,5.093Zm8.925-46.205a12.567,12.567,0,0,0-8.725,4.829,10.163,10.163,0,0,1,8.725-8.06Zm-8.925-.666A10.154,10.154,0,0,1,18.179,2.507V7.561a12.572,12.572,0,0,0-8.925,5.093Zm0,13.179a10.154,10.154,0,0,1,8.925-10.066V46.931a12.573,12.573,0,0,0-8.925,5.093ZM71.607,80.568H19.394a10.141,10.141,0,0,1,0-20.282h6.484a1.216,1.216,0,0,0,0-2.432H20.611V2.432h51a2.141,2.141,0,0,1,2.139,2.139V58.388a4.543,4.543,0,0,0-2.139-.533H30.742a1.216,1.216,0,0,0,0,2.432H71.607a2.141,2.141,0,0,1,2.139,2.123v.031a2.142,2.142,0,0,1-2.139,2.124H19.394a5.863,5.863,0,0,0,0,11.725h.9v.478a2.882,2.882,0,0,0,4.665,2.27L27.042,77.4a.452.452,0,0,1,.559,0l2.084,1.635a2.885,2.885,0,0,0,4.666-2.27V76.29H71.606a2.141,2.141,0,0,1,2.139,2.123v.016s0,0,0,.007a2.142,2.142,0,0,1-2.139,2.132Z"/>
          <path id="Trazado_143993" data-name="Trazado 143993" d="M62.475,53.8a7.226,7.226,0,0,0,7.218-7.218V13.7a7.226,7.226,0,0,0-7.218-7.218H31.881A7.226,7.226,0,0,0,24.663,13.7V46.584A7.226,7.226,0,0,0,31.881,53.8H62.475Zm-35.38-7.218V13.7a4.792,4.792,0,0,1,4.786-4.786H62.475A4.792,4.792,0,0,1,67.261,13.7V46.584a4.792,4.792,0,0,1-4.786,4.786H31.881a4.792,4.792,0,0,1-4.786-4.786Z"/>
          <path id="Trazado_143994" data-name="Trazado 143994" d="M47.177,37.838A7.7,7.7,0,0,0,54.7,28.526a1.216,1.216,0,1,0-2.378.509,5.264,5.264,0,1,1-5.148-4.155,5.223,5.223,0,0,1,3.013.947,1.216,1.216,0,0,0,1.4-1.992,7.695,7.695,0,1,0-4.408,14Z"/>
          <path id="Trazado_143995" data-name="Trazado 143995" d="M34.036,42.609a2.629,2.629,0,0,0,2.008-.264l1.874-1.082a.216.216,0,0,1,.245.023,14.275,14.275,0,0,0,3.908,2.254.164.164,0,0,1,.106.154v2.192a2.649,2.649,0,0,0,2.646,2.646H49.53a2.649,2.649,0,0,0,2.646-2.646V43.694a.164.164,0,0,1,.107-.155,14.263,14.263,0,0,0,3.909-2.254.216.216,0,0,1,.245-.023l1.874,1.082a2.646,2.646,0,0,0,3.615-.969L64.28,37.3a2.646,2.646,0,0,0-.969-3.615L61.439,32.6a.216.216,0,0,1-.1-.224,14.233,14.233,0,0,0,0-4.474.216.216,0,0,1,.1-.224L63.312,26.6a2.646,2.646,0,0,0,.969-3.615L61.927,18.91a2.647,2.647,0,0,0-3.615-.969l-1.874,1.082A.216.216,0,0,1,56.193,19a14.27,14.27,0,0,0-3.909-2.254.165.165,0,0,1-.107-.155V14.4a2.649,2.649,0,0,0-2.646-2.646H44.824A2.649,2.649,0,0,0,42.178,14.4v2.192a.164.164,0,0,1-.106.154A14.273,14.273,0,0,0,38.163,19a.216.216,0,0,1-.245.023l-1.874-1.082a2.646,2.646,0,0,0-3.615.969l-2.353,4.076a2.649,2.649,0,0,0,.968,3.615l1.873,1.082a.216.216,0,0,1,.1.223,14.282,14.282,0,0,0,0,4.473.216.216,0,0,1-.1.223l-1.873,1.082a2.649,2.649,0,0,0-.968,3.615l2.353,4.076a2.63,2.63,0,0,0,1.607,1.233ZM32.26,35.791l1.873-1.082A2.665,2.665,0,0,0,35.422,32a11.838,11.838,0,0,1,0-3.714,2.665,2.665,0,0,0-1.289-2.709L32.26,24.5a.215.215,0,0,1-.079-.293l2.353-4.076a.215.215,0,0,1,.293-.079L36.7,21.13a2.664,2.664,0,0,0,2.992-.24,11.852,11.852,0,0,1,3.244-1.871,2.611,2.611,0,0,0,1.671-2.426V14.4a.215.215,0,0,1,.215-.215H49.53a.215.215,0,0,1,.215.215v2.192a2.611,2.611,0,0,0,1.672,2.427,11.844,11.844,0,0,1,3.244,1.871,2.664,2.664,0,0,0,2.992.239l1.874-1.082a.215.215,0,0,1,.294.078L62.174,24.2a.215.215,0,0,1-.079.293l-1.873,1.081a2.665,2.665,0,0,0-1.289,2.711,11.806,11.806,0,0,1,0,3.711,2.664,2.664,0,0,0,1.289,2.711L62.1,35.791a.215.215,0,0,1,.079.293L59.821,40.16a.215.215,0,0,1-.293.079l-1.874-1.082a2.664,2.664,0,0,0-2.992.24,11.845,11.845,0,0,1-3.244,1.871,2.612,2.612,0,0,0-1.672,2.427v2.192a.215.215,0,0,1-.215.215H44.824a.215.215,0,0,1-.215-.215V43.693a2.611,2.611,0,0,0-1.671-2.426A11.848,11.848,0,0,1,39.695,39.4a2.661,2.661,0,0,0-1.675-.59,2.633,2.633,0,0,0-1.317.35l-1.874,1.082a.215.215,0,0,1-.294-.078l-2.353-4.076a.215.215,0,0,1,.079-.294Z"/>
        </g>
      </g>
    </g>
  </g>
</svg>
