<svg xmlns="http://www.w3.org/2000/svg" xmlns:xlink="http://www.w3.org/1999/xlink" width="120" height="120" viewBox="0 0 120 120">
  <defs>
    <clipPath id="clip-path">
      <rect id="Rectángulo_32605" data-name="Rectángulo 32605" width="83" height="83" transform="translate(5409 -9093.013)" fill="#fde947" stroke="#707070" stroke-width="1"/>
    </clipPath>
  </defs>
  <g id="Grupo_87495" data-name="Grupo 87495" transform="translate(-5390.602 9111.656)">
    <ellipse id="Elipse_4276" data-name="Elipse 4276" cx="60" cy="60" rx="60" ry="60" transform="translate(5390.602 -9111.656)" fill="#fff"/>
    <g id="Enmascarar_grupo_53" data-name="Enmascarar grupo 53" clip-path="url(#clip-path)">
      <g id="casco" transform="translate(5409 -9093.013)">
        <g id="Grupo_86254" data-name="Grupo 86254">
          <path id="Trazado_144005" data-name="Trazado 144005" d="M52.567,4.51V4.15A2.767,2.767,0,0,0,49.8,1.383H33.2A2.767,2.767,0,0,0,30.433,4.15v.36a35.956,35.956,0,0,0-24.9,34.224H77.467A35.956,35.956,0,0,0,52.567,4.51Z" fill="#ffde17"/>
          <path id="Trazado_144006" data-name="Trazado 144006" d="M78.85,38.733H4.15A2.767,2.767,0,0,0,1.383,41.5v2.767A2.767,2.767,0,0,0,4.15,47.033h74.7a2.767,2.767,0,0,0,2.767-2.767V41.5A2.767,2.767,0,0,0,78.85,38.733Z" fill="#ffde17"/>
        </g>
        <path id="Trazado_144007" data-name="Trazado 144007" d="M74.7,62.25a5.533,5.533,0,0,0-5.533-5.533H13.833A5.533,5.533,0,0,0,8.3,62.25V73.317a8.3,8.3,0,0,0,8.3,8.3h8.3a16.588,16.588,0,0,0,14.262-8.1,2.739,2.739,0,0,1,4.676,0,16.588,16.588,0,0,0,14.262,8.1h8.3a8.3,8.3,0,0,0,8.3-8.3h0Zm-58.1,0a2.767,2.767,0,0,0-2.767,2.767A2.767,2.767,0,0,1,16.6,62.25Z" fill="#e6e7e8"/>
        <g id="Grupo_86255" data-name="Grupo 86255">
          <path id="Trazado_144008" data-name="Trazado 144008" d="M74.7,66.4h6.917v6.917H74.7Z" fill="#a7a9ac"/>
          <path id="Trazado_144009" data-name="Trazado 144009" d="M74.7,62.25h6.917V66.4H74.7Z" fill="#a7a9ac"/>
          <path id="Trazado_144010" data-name="Trazado 144010" d="M1.383,67.783V74.7H8.3V67.783Z" fill="#a7a9ac"/>
          <path id="Trazado_144011" data-name="Trazado 144011" d="M1.383,63.633H8.3v4.15H1.383Z" fill="#a7a9ac"/>
        </g>
        <g id="Grupo_86256" data-name="Grupo 86256">
          <path id="Trazado_144012" data-name="Trazado 144012" d="M78.85,37.35h-.055A37.173,37.173,0,0,0,53.886,3.522,4.15,4.15,0,0,0,49.8,0H33.2a4.15,4.15,0,0,0-4.086,3.522A37.173,37.173,0,0,0,4.205,37.35H4.15A4.15,4.15,0,0,0,0,41.5v2.767a4.15,4.15,0,0,0,4.15,4.15h74.7A4.15,4.15,0,0,0,83,44.267V41.5A4.15,4.15,0,0,0,78.85,37.35ZM29.05,6.489V30.433a1.383,1.383,0,1,0,2.767,0V4.15A1.383,1.383,0,0,1,33.2,2.767h6.917V33.2a1.383,1.383,0,0,0,2.767,0V2.767H49.8A1.383,1.383,0,0,1,51.183,4.15V30.433a1.383,1.383,0,1,0,2.767,0V6.489A34.417,34.417,0,0,1,76.028,37.35H6.972A34.417,34.417,0,0,1,29.05,6.489ZM80.233,44.267A1.383,1.383,0,0,1,78.85,45.65H4.15a1.383,1.383,0,0,1-1.383-1.383V41.5A1.383,1.383,0,0,1,4.15,40.117h74.7A1.383,1.383,0,0,1,80.233,41.5Z" fill="#231f20"/>
          <path id="Trazado_144013" data-name="Trazado 144013" d="M34.583,60.867H16.6a4.15,4.15,0,0,0-4.15,4.15V70.55a1.383,1.383,0,0,0,2.767,0V65.017A1.383,1.383,0,0,1,16.6,63.633H34.583a1.383,1.383,0,1,0,0-2.767Z" fill="#231f20"/>
          <path id="Trazado_144014" data-name="Trazado 144014" d="M81.617,60.867H75.945a6.929,6.929,0,0,0-6.778-5.533H13.833A6.925,6.925,0,0,0,6.917,62.25H1.383A1.383,1.383,0,0,0,0,63.633V74.7a1.383,1.383,0,0,0,1.383,1.383H7.332A9.7,9.7,0,0,0,16.6,83h8.3a18.081,18.081,0,0,0,15.449-8.772,1.357,1.357,0,0,1,2.3,0A18.081,18.081,0,0,0,58.1,83h8.3a9.683,9.683,0,0,0,9.573-8.3h5.644A1.383,1.383,0,0,0,83,73.317V62.25A1.383,1.383,0,0,0,81.617,60.867Zm-1.383,4.15h-4.15V63.633h4.15Zm-73.317,0V66.4H2.767V65.017Zm-4.15,8.3v-4.15h4.15v4.15ZM66.4,80.233H58.1a15.3,15.3,0,0,1-13.075-7.424,4.122,4.122,0,0,0-7.055,0A15.305,15.305,0,0,1,24.9,80.233H16.6a6.925,6.925,0,0,1-6.917-6.917V62.25a4.15,4.15,0,0,1,4.15-4.15H69.167a4.15,4.15,0,0,1,4.15,4.15V73.317A6.925,6.925,0,0,1,66.4,80.233Zm9.683-8.3v-4.15h4.15v4.15Z" fill="#231f20"/>
          <path id="Trazado_144015" data-name="Trazado 144015" d="M42.883,60.867H40.117a1.383,1.383,0,0,0,0,2.767h2.767a1.383,1.383,0,1,0,0-2.767Z" fill="#231f20"/>
        </g>
      </g>
    </g>
  </g>
</svg>
