<svg xmlns="http://www.w3.org/2000/svg" xmlns:xlink="http://www.w3.org/1999/xlink" width="125" height="177" viewBox="0 0 125 177">
  <defs>
    <clipPath id="clip-path">
      <rect id="Rectángulo_32741" data-name="Rectángulo 32741" width="125" height="124" transform="translate(0.233 -0.037)" fill="#fff" stroke="#707070" stroke-width="1"/>
    </clipPath>
  </defs>
  <g id="Grupo_87479" data-name="Grupo 87479" transform="translate(-270.999 -554)">
    <rect id="Rectángulo_32740" data-name="Rectángulo 32740" width="80" height="177" transform="translate(294 554)" fill="#8ad24a"/>
    <g id="Enmascarar_grupo_77" data-name="Enmascarar grupo 77" transform="translate(270.766 584.037)" clip-path="url(#clip-path)">
      <g id="gps" transform="translate(12.848 -0.462)">
        <path id="Trazado_146871" data-name="Trazado 146871" d="M118.413,85.579a47.807,47.807,0,1,1-95.613,0q0-1.044.044-2.079a47.8,47.8,0,1,1,95.579,2.079Z" transform="translate(-20.721 -10.752)" fill="#548aff"/>
        <circle id="Elipse_4342" data-name="Elipse 4342" cx="4.157" cy="4.157" r="4.157" transform="translate(49.885 99.77)" fill="#7dafff"/>
        <path id="Trazado_146872" data-name="Trazado 146872" d="M131.792,78.143h-7.675a4.156,4.156,0,0,1-3.245-1.559l-5.82-7.275a4.156,4.156,0,0,0-3.245-1.559H105.49a4.156,4.156,0,0,1-4.157-4.157V41.623a47.879,47.879,0,0,1,30.459,36.52Z" transform="translate(-34.82 -11.629)" fill="#08d175"/>
        <path id="Trazado_146873" data-name="Trazado 146873" d="M51.9,97.89v7.823a4.156,4.156,0,0,1-2.3,3.718l-3.721,1.86a4.156,4.156,0,0,0-2.3,3.718v3.666a4.156,4.156,0,0,1-4.157,4.157H31.166A47.575,47.575,0,0,1,22.8,95.812q0-1.044.044-2.079h24.9A4.156,4.156,0,0,1,51.9,97.89Z" transform="translate(-20.721 -20.984)" fill="#08d175"/>
        <path id="Trazado_146874" data-name="Trazado 146874" d="M81.084,150.386A47.931,47.931,0,0,1,48.165,142.4l5.908-7.387a4.155,4.155,0,0,1,5.552-.86l2.016,1.343a4.165,4.165,0,0,0,2.3.7h3.066a4.156,4.156,0,0,1,3.157,1.453Z" transform="translate(-25.275 -28.115)" fill="#08d175"/>
        <path id="Trazado_146875" data-name="Trazado 146875" d="M132.561,103.867a47.856,47.856,0,0,1-28.694,37.772V127.006a4.157,4.157,0,0,1,2.019-3.565l6.355-3.814a4.157,4.157,0,0,0,2.019-3.565v-8.039a4.156,4.156,0,0,1,4.157-4.157Z" transform="translate(-35.275 -22.803)" fill="#08d175"/>
        <path id="Trazado_146876" data-name="Trazado 146876" d="M90.809,20.071a12.471,12.471,0,1,0-24.943,0c0,6.888,12.471,22.864,12.471,22.864S90.809,26.959,90.809,20.071Z" transform="translate(-28.453 -5.521)" fill="#fde947"/>
        <path id="Trazado_146877" data-name="Trazado 146877" d="M120.037,85.727A49.956,49.956,0,0,0,83.164,37.556L82.082,41.57q1.328.358,2.619.792v20.5A6.243,6.243,0,0,0,90.937,69.1h6.316a2.067,2.067,0,0,1,1.623.78l5.818,7.272a6.2,6.2,0,0,0,4.869,2.34h5.887a45.682,45.682,0,0,1,.429,6.236c0,1.4-.067,2.787-.191,4.157h-12.28a6.243,6.243,0,0,0-6.236,6.236v8.039a2.089,2.089,0,0,1-1.009,1.782l-6.356,3.814A6.267,6.267,0,0,0,86.78,115.1v13.223a45.339,45.339,0,0,1-9.866,2.63L66.739,119.083A6.228,6.228,0,0,0,62,116.905H58.939a2.072,2.072,0,0,1-1.153-.349l-2.017-1.345a6.2,6.2,0,0,0-8.328,1.293l-4.664,5.83a46.126,46.126,0,0,1-7.874-7.507h4.07a6.243,6.243,0,0,0,6.236-6.236v-3.666a2.067,2.067,0,0,1,1.149-1.859l3.718-1.859a6.2,6.2,0,0,0,3.447-5.577V87.806a6.243,6.243,0,0,0-6.236-6.236H24.615a45.8,45.8,0,0,1,33.607-40L57.14,37.556a49.891,49.891,0,1,0,62.9,48.171Zm-72.749,0a2.081,2.081,0,0,1,2.079,2.079v7.823a2.067,2.067,0,0,1-1.149,1.859L44.5,99.347a6.2,6.2,0,0,0-3.447,5.577v3.666a2.081,2.081,0,0,1-2.079,2.079H31.844a45.458,45.458,0,0,1-7.421-24.943Zm62.276-10.393a2.067,2.067,0,0,1-1.623-.78l-5.818-7.272a6.2,6.2,0,0,0-4.869-2.34H90.937a2.081,2.081,0,0,1-2.079-2.079V43.987a45.863,45.863,0,0,1,25.824,31.347ZM90.937,115.1a2.089,2.089,0,0,1,1.009-1.782l6.356-3.814a6.267,6.267,0,0,0,3.028-5.347V96.12a2.081,2.081,0,0,1,2.079-2.079H115.12a45.875,45.875,0,0,1-24.183,32.411Zm-40.25,4a2.067,2.067,0,0,1,2.776-.431l2.017,1.345a6.215,6.215,0,0,0,3.459,1.048H62a2.077,2.077,0,0,1,1.578.726l8.257,9.633c-.56.02-1.122.034-1.687.034a45.451,45.451,0,0,1-23.927-6.776Z" transform="translate(-20.267 -10.899)" fill="#0f2771"/>
        <circle id="Elipse_4343" data-name="Elipse 4343" cx="4.157" cy="4.157" r="4.157" transform="translate(45.728 10.393)" fill="#0f2771"/>
        <path id="Trazado_146878" data-name="Trazado 146878" d="M77.883,5.067a14.566,14.566,0,0,0-14.55,14.55c0,6.856,9.975,20.313,12.471,23.573v1.369H69.569v4.157h8.314a2.079,2.079,0,0,0,2.079-2.079V43.19c2.5-3.26,12.471-16.717,12.471-23.573A14.566,14.566,0,0,0,77.883,5.067Zm0,4.157A10.4,10.4,0,0,1,88.276,19.617c0,3.993-5.83,13.231-10.393,19.422C73.321,32.848,67.49,23.61,67.49,19.617A10.4,10.4,0,0,1,77.883,9.224Z" transform="translate(-27.998 -5.067)" fill="#0f2771"/>
        <path id="Trazado_146879" data-name="Trazado 146879" d="M91.914,108.933H85.679a2.079,2.079,0,0,0-2.079,2.079v4.157h4.157V113.09h4.157Z" transform="translate(-31.636 -23.713)" fill="#0f2771"/>
        <path id="Trazado_146880" data-name="Trazado 146880" d="M98.8,112.181h4.157a2.079,2.079,0,0,0,2.079-2.079v-6.236h-4.157v4.157H98.8Z" transform="translate(-34.365 -22.803)" fill="#0f2771"/>
        <rect id="Rectángulo_32748" data-name="Rectángulo 32748" width="4.157" height="4.157" transform="translate(66.514 72.749)" fill="#0f2771"/>
        <path id="Trazado_146881" data-name="Trazado 146881" d="M105.036,80.612a2.079,2.079,0,0,0-2.079-2.079H98.8V82.69h2.079v4.157h4.157Z" transform="translate(-34.365 -18.255)" fill="#0f2771"/>
        <rect id="Rectángulo_32749" data-name="Rectángulo 32749" width="4.157" height="4.157" transform="translate(39.492 60.278)" fill="#0f2771"/>
        <rect id="Rectángulo_32750" data-name="Rectángulo 32750" width="4.157" height="4.157" transform="translate(47.807 60.278)" fill="#0f2771"/>
        <rect id="Rectángulo_32751" data-name="Rectángulo 32751" width="4.157" height="4.157" transform="translate(56.121 60.278)" fill="#0f2771"/>
        <path id="Trazado_146882" data-name="Trazado 146882" d="M53.2,80.157a2.079,2.079,0,0,0,2.079,2.079h6.236V78.079H57.357V76H53.2Z" transform="translate(-26.179 -17.801)" fill="#0f2771"/>
        <rect id="Rectángulo_32752" data-name="Rectángulo 32752" width="4.157" height="4.157" transform="translate(27.021 49.885)" fill="#0f2771"/>
        <path id="Trazado_146883" data-name="Trazado 146883" d="M63.593,53.2H55.279A2.079,2.079,0,0,0,53.2,55.279v4.157h4.157V57.357h6.236Z" transform="translate(-26.179 -13.708)" fill="#0f2771"/>
        <path id="Trazado_146884" data-name="Trazado 146884" d="M84.769,136.15a6.235,6.235,0,0,0,2.079-12.114V121.6H82.69v2.436a6.235,6.235,0,0,0,2.079,12.114Zm0-8.314a2.079,2.079,0,1,1-2.079,2.079,2.079,2.079,0,0,1,2.079-2.079Z" transform="translate(-30.727 -25.987)" fill="#0f2771"/>
      </g>
    </g>
  </g>
</svg>
