<svg xmlns="http://www.w3.org/2000/svg" xmlns:xlink="http://www.w3.org/1999/xlink" width="124" height="176" viewBox="0 0 124 176">
  <defs>
    <clipPath id="clip-path">
      <rect id="Rect치ngulo_32756" data-name="Rect치ngulo 32756" width="124" height="124" transform="translate(0.072 -0.038)" fill="#fff" stroke="#707070" stroke-width="1"/>
    </clipPath>
  </defs>
  <g id="Grupo_87483" data-name="Grupo 87483" transform="translate(-1206 -555)">
    <rect id="Rect치ngulo_32757" data-name="Rect치ngulo 32757" width="80" height="176" transform="translate(1228 555)" fill="#8ad24a"/>
    <g id="Enmascarar_grupo_81" data-name="Enmascarar grupo 81" transform="translate(1205.928 584.038)" clip-path="url(#clip-path)">
      <g id="deposito-de-agua" transform="translate(-0.462 -0.413)">
        <path id="Trazado_146915" data-name="Trazado 146915" d="M123.728,138.426l-4.992,6.656a4.186,4.186,0,0,1-3.328,1.663H48.853a4.188,4.188,0,0,1-3.329-1.663l-4.991-6.656,38.477-3.847,3.12-.312Zm0,0" transform="translate(-7.255 -24.033)" fill="#607d8b"/>
        <path id="Trazado_146916" data-name="Trazado 146916" d="M128.607,29.492a4.189,4.189,0,0,1-4.16,4.16H37.093a4.16,4.16,0,1,1,0-8.319h87.354A4.172,4.172,0,0,1,128.607,29.492Zm0,0" transform="translate(-5.895 -4.534)" fill="#607d8b"/>
        <path id="Trazado_146917" data-name="Trazado 146917" d="M117.489,138.494,112.5,145.15a4.187,4.187,0,0,1-3.328,1.663H48.853a4.188,4.188,0,0,1-3.329-1.663l-4.991-6.656,38.477-3.847Zm0,0" transform="translate(-7.255 -24.101)" fill="#cfd8dc"/>
        <path id="Trazado_146918" data-name="Trazado 146918" d="M122.368,29.492a4.19,4.19,0,0,1-4.16,4.16H37.093a4.16,4.16,0,0,1,0-8.319h81.115A4.172,4.172,0,0,1,122.368,29.492Zm0,0" transform="translate(-5.895 -4.534)" fill="#cfd8dc"/>
        <path id="Trazado_146919" data-name="Trazado 146919" d="M15.013,125.76,13.326,132.5a2.08,2.08,0,0,1-2.017,1.575H6.238A2.08,2.08,0,0,1,4.22,132.5L2.534,125.76l6.239-4.16Zm0,0" transform="translate(-0.454 -21.766)" fill="#3f51b5"/>
        <path id="Trazado_146920" data-name="Trazado 146920" d="M12.667,106.4H29.306v12.48H12.667Zm0,0" transform="translate(-2.267 -19.045)" fill="#cfd8dc"/>
        <path id="Trazado_146921" data-name="Trazado 146921" d="M40.346,103.867v20.8H32.026a4.172,4.172,0,0,1-4.16-4.16V103.867Zm0,0" transform="translate(-4.988 -18.592)" fill="#3f51b5"/>
        <path id="Trazado_146922" data-name="Trazado 146922" d="M27.867,96.423v-41.6a4.16,4.16,0,0,1,4.16-4.16h8.319V96.423Zm0,0" transform="translate(-4.988 -9.069)" fill="#3f51b5"/>
        <path id="Trazado_146923" data-name="Trazado 146923" d="M40.534,32.934h83.195v87.354H40.534Zm0,0" transform="translate(-7.255 -5.895)" fill="#1566c0"/>
        <path id="Trazado_146924" data-name="Trazado 146924" d="M40.534,32.934h76.955v87.354H40.534Zm0,0" transform="translate(-7.255 -5.895)" fill="#2296f3"/>
        <path id="Trazado_146925" data-name="Trazado 146925" d="M2.534,101.333h8.319a4.16,4.16,0,0,1,4.16,4.16v16.64H2.534Zm0,0" transform="translate(-0.454 -18.138)" fill="#3f51b5"/>
        <path id="Trazado_146926" data-name="Trazado 146926" d="M100.958,108.745A12.479,12.479,0,1,1,88.479,96.266,12.48,12.48,0,0,1,100.958,108.745Zm0,0" transform="translate(-13.604 -17.231)" fill="#ff5722"/>
        <path id="Trazado_146927" data-name="Trazado 146927" d="M107.465,6.694v6.072L101,12.787l-35.129.125V6.694a4.172,4.172,0,0,1,4.16-4.16H103.3a4.173,4.173,0,0,1,4.161,4.16Zm0,0" transform="translate(-11.79 -0.454)" fill="#1566c0"/>
        <path id="Trazado_146928" data-name="Trazado 146928" d="M119.28,23.066H48.565c0-3.41,5.574-6.427,14.205-8.34a.951.951,0,0,1,.1-.02,96.437,96.437,0,0,1,17.762-1.977c1.082-.041,2.184-.062,3.287-.062a110.983,110.983,0,0,1,13.852.831c2.329.291,4.555.646,6.593,1.082,9.026,1.893,14.913,4.992,14.913,8.486Zm0,0" transform="translate(-8.693 -2.267)" fill="#1566c0"/>
        <path id="Trazado_146929" data-name="Trazado 146929" d="M100.871,6.694v6.072l-34.9.126h-.1v-6.2a4.172,4.172,0,0,1,4.16-4.16H96.711a4.173,4.173,0,0,1,4.161,4.16Zm0,0" transform="translate(-11.79 -0.454)" fill="#2296f3"/>
        <path id="Trazado_146930" data-name="Trazado 146930" d="M112.687,23.066H48.565c0-3.41,5.574-6.427,14.205-8.34V13.582a112.441,112.441,0,0,1,14.559-.915q1.684,0,3.307.062A96.777,96.777,0,0,1,97.774,14.58c.041,0,.083.021.125.021,8.964,1.893,14.788,4.992,14.788,8.465Zm0,0" transform="translate(-8.693 -2.267)" fill="#2296f3"/>
        <path id="Trazado_146931" data-name="Trazado 146931" d="M118.552,18.719H112.18c-1.543-3.617-7.041-6.323-14.426-8.061V6.24A6.24,6.24,0,0,0,91.514,0H58.236A6.24,6.24,0,0,0,52,6.24v4.576c-7.036,1.742-12.235,4.392-13.727,7.9H31.2a6.24,6.24,0,1,0,0,12.479v8.319h-4.16a6.24,6.24,0,0,0-6.24,6.24V85.275H16.256a6.238,6.238,0,0,0-5.856-4.16H5.965L16.289,65.631a2.08,2.08,0,1,0-3.461-2.309L.349,82.041a1.71,1.71,0,0,0-.07.174,1.888,1.888,0,0,0-.158.386,1.994,1.994,0,0,0-.084.415c0,.065-.037.119-.037.184v20.795a2.048,2.048,0,0,0,.058.293c.01.07-.012.141,0,.208l1.687,6.743a4.158,4.158,0,0,0,4.039,3.155h5.071a4.158,4.158,0,0,0,4.035-3.15l1.687-6.743a.9.9,0,0,0,0-.209,1.983,1.983,0,0,0,.062-.3v-2.08H20.8a6.24,6.24,0,0,0,6.24,6.24H31.2v6.239a1.746,1.746,0,0,0,.048.233,4.006,4.006,0,0,0,.368,1.006l4.992,6.656a6.267,6.267,0,0,0,4.992,2.5h66.556a6.261,6.261,0,0,0,4.992-2.5l4.991-6.656a1.683,1.683,0,0,0,.1-.208,1.721,1.721,0,0,0,.266-.8,1.6,1.6,0,0,0,.048-.242V31.2a6.24,6.24,0,1,0,0-12.479ZM56.156,6.24a2.08,2.08,0,0,1,2.08-2.08H91.514a2.08,2.08,0,0,1,2.08,2.08V9.817a109.062,109.062,0,0,0-18.372-1.5A108.1,108.1,0,0,0,56.156,9.94Zm19.067,6.239c17.281,0,28.013,3.387,31.76,6.24H43.47c3.744-2.853,14.472-6.24,31.753-6.24ZM24.958,45.757a2.08,2.08,0,0,1,2.08-2.08H31.2v41.6h-6.24Zm-12.479,41.6v14.559H4.159V85.275H10.4a2.08,2.08,0,0,1,2.079,2.079Zm-1.624,22.879H5.782l-1.04-4.16h7.152Zm5.784-12.479V89.435H20.8v8.319Zm10.4,6.24a2.08,2.08,0,0,1-2.08-2.08V89.435H31.2v14.559ZM109.817,119.8a2.079,2.079,0,0,1-1.663.832H41.6a2.081,2.081,0,0,1-1.664-.832l-2.5-3.328h74.875Zm4.576-7.487H35.358V31.2h79.035Zm4.16-85.275H31.2a2.08,2.08,0,1,1,0-4.16h87.354a2.08,2.08,0,1,1,0,4.16Zm0,0" transform="translate(0 0)" fill="#0f2771"/>
        <path id="Trazado_146932" data-name="Trazado 146932" d="M65.413,108.559a2.08,2.08,0,0,0,2.079-2.08,18.719,18.719,0,0,1,37.438,0,2.08,2.08,0,1,0,4.16,0,22.879,22.879,0,0,0-45.757,0,2.08,2.08,0,0,0,2.08,2.08Zm0,0" transform="translate(-11.336 -14.964)" fill="#0f2771"/>
        <path id="Trazado_146933" data-name="Trazado 146933" d="M50.213,47.226h4.16a2.08,2.08,0,0,0,0-4.16h-4.16a2.08,2.08,0,1,0,0,4.16Zm0,0" transform="translate(-8.616 -7.709)" fill="#0f2771"/>
        <path id="Trazado_146934" data-name="Trazado 146934" d="M65.413,47.226H92.452a2.08,2.08,0,0,0,0-4.16H65.413a2.08,2.08,0,1,0,0,4.16Zm0,0" transform="translate(-11.336 -7.709)" fill="#0f2771"/>
        <path id="Trazado_146935" data-name="Trazado 146935" d="M100.659,101.088c-.012-.025,0-.051-.025-.074a.431.431,0,0,1-.065-.073,14.522,14.522,0,0,0-25.088,0c-.018.03-.048.046-.064.075s-.013.05-.026.074a14.44,14.44,0,0,0,0,14.41c.012.025.01.051.026.075s.064.079.093.122a14.519,14.519,0,0,0,25.03,0c.029-.043.069-.076.093-.122s.012-.05.025-.075a14.44,14.44,0,0,0,0-14.41Zm-10.553,17.4v-1.872a2.08,2.08,0,1,0-4.16,0v1.872a10.367,10.367,0,0,1-5.664-3.315l1.579-.913a2.08,2.08,0,0,0-2.079-3.6l-1.577.911a9.53,9.53,0,0,1,0-6.539l1.577.91a2.079,2.079,0,1,0,2.079-3.6l-1.579-.913a10.365,10.365,0,0,1,5.664-3.32v1.872a2.08,2.08,0,1,0,4.16,0V98.1a10.364,10.364,0,0,1,5.663,3.329l-1.579.913a2.08,2.08,0,1,0,2.08,3.6l1.577-.911a9.541,9.541,0,0,1,0,6.539l-1.577-.91a2.08,2.08,0,0,0-2.08,3.6l1.579.913a10.368,10.368,0,0,1-5.663,3.308Zm0,0" transform="translate(-13.15 -16.778)" fill="#0f2771"/>
      </g>
    </g>
  </g>
</svg>
