<svg xmlns="http://www.w3.org/2000/svg" xmlns:xlink="http://www.w3.org/1999/xlink" width="152" height="215" viewBox="0 0 152 215">
  <defs>
    <clipPath id="clip-path">
      <rect id="Rect치ngulo_32776" data-name="Rect치ngulo 32776" width="152" height="152" transform="translate(12254 -9134)" fill="#fff" stroke="#707070" stroke-width="1"/>
    </clipPath>
  </defs>
  <g id="Grupo_87491" data-name="Grupo 87491" transform="translate(-11885 9739)">
    <rect id="Rect치ngulo_32775" data-name="Rect치ngulo 32775" width="98" height="215" transform="translate(11912 -9739)" fill="#8ad24a"/>
    <g id="Enmascarar_grupo_88" data-name="Enmascarar grupo 88" transform="translate(-369 -570)" clip-path="url(#clip-path)">
      <g id="Fill_Outline" data-name="Fill Outline" transform="translate(12248.917 -9139.118)">
        <g id="Color">
          <g id="Grupo_87379" data-name="Grupo 87379">
            <g id="Grupo_87377" data-name="Grupo 87377">
              <path id="Trazado_147064" data-name="Trazado 147064" d="M95.622,113.857V85.092a37.921,37.921,0,0,0-35.975-38.21A37.336,37.336,0,0,0,20.95,84.2v29.65a6.857,6.857,0,0,1-2.871,5.575A6.842,6.842,0,0,0,20.215,131.6a141.181,141.181,0,0,0,76.139,0,6.842,6.842,0,0,0,2.136-12.179,6.857,6.857,0,0,1-2.869-5.565Z" fill="#93999a"/>
              <path id="Trazado_147065" data-name="Trazado 147065" d="M98.493,119.435a6.857,6.857,0,0,1-2.871-5.575V85.092A38.486,38.486,0,0,0,73.645,50.247,46.107,46.107,0,0,0,40.04,94.615v7.975A29.505,29.505,0,0,1,33.621,84.2,37.333,37.333,0,0,1,64.538,47.429a36.024,36.024,0,0,0-4.886-.545A37.336,37.336,0,0,0,20.95,84.2v29.65a6.857,6.857,0,0,1-2.871,5.575A6.842,6.842,0,0,0,20.215,131.6a141.181,141.181,0,0,0,76.139,0,6.842,6.842,0,0,0,2.139-12.167Z" fill="#656b76"/>
              <path id="Trazado_147066" data-name="Trazado 147066" d="M58.286,55.5a11.168,11.168,0,0,1-10.643-7.762l-6.3-19.688a7.856,7.856,0,0,1,12.212-8.692,7.856,7.856,0,0,0,9.442,0,7.856,7.856,0,0,1,12.212,8.692l-6.28,19.68A11.168,11.168,0,0,1,58.286,55.5Z" fill="#93999a"/>
              <path id="Trazado_147067" data-name="Trazado 147067" d="M65.888,40.293a11.166,11.166,0,0,1-10.643-7.765L50.6,17.965a7.879,7.879,0,0,0-9.245,10.076l6.29,19.685a11.163,11.163,0,0,0,21.267,0l2.96-9.207a11.117,11.117,0,0,1-5.981,1.774Z" fill="#656b76"/>
              <path id="Trazado_147068" data-name="Trazado 147068" d="M70.2,54.312a37.673,37.673,0,0,1-23.836,0A4.808,4.808,0,1,1,49.4,45.189a28.071,28.071,0,0,0,17.754,0A4.808,4.808,0,1,1,70.2,54.312Z" fill="#a6ef65"/>
              <circle id="Elipse_4354" data-name="Elipse 4354" cx="25.342" cy="25.342" r="25.342" transform="translate(35.478 68.422)" fill="#a6ef65"/>
              <g id="Grupo_87376" data-name="Grupo 87376">
                <path id="Trazado_147069" data-name="Trazado 147069" d="M70.2,49.244a37.673,37.673,0,0,1-23.836,0,4.749,4.749,0,0,1-2.534-2.027,4.734,4.734,0,0,0-.76,2.547,4.815,4.815,0,0,0,3.294,4.561,37.673,37.673,0,0,0,23.836,0,4.815,4.815,0,0,0,3.294-4.561,4.734,4.734,0,0,0-.76-2.547A4.749,4.749,0,0,1,70.2,49.244Z" fill="#c9ff98"/>
                <path id="Trazado_147070" data-name="Trazado 147070" d="M60.82,68.422a25.235,25.235,0,0,0-15.937,5.649A45.868,45.868,0,0,0,40.04,94.615v7.975a29.842,29.842,0,0,1-4.521-8.008,25.329,25.329,0,1,0,25.3-26.16Z" fill="#c9ff98"/>
              </g>
            </g>
            <g id="Grupo_87378" data-name="Grupo 87378">
              <path id="Trazado_147071" data-name="Trazado 147071" d="M139.886,126.186V90.655c0-25.01-19.447-46.309-44.439-47.2a46.122,46.122,0,0,0-47.8,46.091v36.639a8.466,8.466,0,0,1-3.547,6.89,8.469,8.469,0,0,0,2.637,15.048,174.4,174.4,0,0,0,94.055,0,8.469,8.469,0,0,0,2.646-15.045,8.467,8.467,0,0,1-3.548-6.893Z" fill="#d0d8da"/>
              <path id="Trazado_147072" data-name="Trazado 147072" d="M143.434,133.076a8.467,8.467,0,0,1-3.548-6.89v-5.068H102.02A36.639,36.639,0,0,1,65.381,84.479,46.1,46.1,0,0,1,90.2,43.588a46.122,46.122,0,0,0-42.554,45.96v36.639a8.466,8.466,0,0,1-3.547,6.89,8.469,8.469,0,0,0,2.637,15.048,174.4,174.4,0,0,0,94.055,0,8.469,8.469,0,0,0,2.646-15.048Z" fill="#93999a"/>
              <path id="Trazado_147073" data-name="Trazado 147073" d="M93.764,53.217A13.49,13.49,0,0,1,80.915,43.84l-7.6-23.787A9.506,9.506,0,0,1,88.07,9.551a9.511,9.511,0,0,0,11.4,0,9.506,9.506,0,0,1,14.756,10.5l-7.6,23.788a13.489,13.489,0,0,1-12.863,9.376Z" fill="#d0d8da"/>
              <path id="Trazado_147074" data-name="Trazado 147074" d="M103.9,38.012a13.49,13.49,0,0,1-12.849-9.378L84.4,7.856A9.516,9.516,0,0,0,73.3,20.045l7.6,23.788a13.489,13.489,0,0,0,25.7,0l2.169-6.779a13.411,13.411,0,0,1-4.871.958Z" fill="#93999a"/>
              <path id="Trazado_147075" data-name="Trazado 147075" d="M109.286,51.95a31.277,31.277,0,0,1-31.041,0,4.4,4.4,0,1,1,4.369-7.643,22.488,22.488,0,0,0,22.3,0,4.4,4.4,0,1,1,4.371,7.643Z" fill="#c9ff98"/>
              <path id="Trazado_147076" data-name="Trazado 147076" d="M109.286,46.882a31.277,31.277,0,0,1-31.041,0,4.379,4.379,0,0,1-1.379-1.295,4.308,4.308,0,0,0-.839,2.534,4.4,4.4,0,0,0,2.217,3.821,31.277,31.277,0,0,0,31.041,0,4.4,4.4,0,0,0,2.217-3.814,4.308,4.308,0,0,0-.839-2.534A4.372,4.372,0,0,1,109.286,46.882Z" fill="#a6ef65"/>
              <circle id="Elipse_4355" data-name="Elipse 4355" cx="35.478" cy="35.478" r="35.478" transform="translate(58.286 68.422)" fill="#c9ff98"/>
              <path id="Trazado_147077" data-name="Trazado 147077" d="M124.782,121.108a35.478,35.478,0,1,1-59.35-38.545c-.025.634-.051,1.292-.051,1.926a36.625,36.625,0,0,0,36.636,36.619Z" fill="#a6ef65"/>
            </g>
          </g>
        </g>
        <g id="Outline_copy" data-name="Outline copy">
          <g id="Grupo_87380" data-name="Grupo 87380">
            <path id="Trazado_147078" data-name="Trazado 147078" d="M69.624,117.839a7.524,7.524,0,0,0,6.589,3.8H88.7a2.534,2.534,0,1,0,0-5.068H76.207a2.534,2.534,0,0,1-2.195-3.8l4.435-7.684,1.08,4.029a2.534,2.534,0,0,0,4.9-1.313l-2.788-10.39a2.534,2.534,0,0,0-3.1-1.792l-10.39,2.788a2.534,2.534,0,1,0,1.313,4.9l4.921-1.32-4.752,8.251a7.521,7.521,0,0,0,0,7.6Z" fill="#0f2771"/>
            <path id="Trazado_147079" data-name="Trazado 147079" d="M117.9,117.839a7.529,7.529,0,0,0,0-7.6l-6.4-11.11a2.534,2.534,0,1,0-4.389,2.534l6.4,11.11a2.534,2.534,0,0,1-2.195,3.8H104.95l3.277-3.277a2.534,2.534,0,1,0-3.584-3.584l-7.6,7.6a2.534,2.534,0,0,0,0,3.583l7.6,7.6a2.534,2.534,0,1,0,3.584-3.584l-3.277-3.276h6.371a7.526,7.526,0,0,0,6.584-3.8Z" fill="#0f2771"/>
            <path id="Trazado_147080" data-name="Trazado 147080" d="M108.6,81.055a2.534,2.534,0,0,0-3.1,1.792l-1.08,4.034-4.07-7.055a7.6,7.6,0,0,0-13.178,0L81.093,90.345a2.534,2.534,0,1,0,4.389,2.534L91.564,82.36a2.534,2.534,0,0,1,4.389,0l4.4,7.615-4.916-1.318a2.534,2.534,0,1,0-1.31,4.9l10.39,2.788a2.572,2.572,0,0,0,.659.086,2.534,2.534,0,0,0,2.445-1.878l2.788-10.39a2.534,2.534,0,0,0-1.8-3.1Z" fill="#0f2771"/>
            <path id="Trazado_147081" data-name="Trazado 147081" d="M93.764,141.913a38.116,38.116,0,1,0-30.41-15.273,2.534,2.534,0,0,0,4.055-3.041,33.047,33.047,0,1,1,6.657,6.657,2.534,2.534,0,1,0-3.041,4.055,37.688,37.688,0,0,0,22.739,7.6Z" fill="#0f2771"/>
            <path id="Trazado_147082" data-name="Trazado 147082" d="M144.906,131.016a5.94,5.94,0,0,1-2.486-4.83V108.969a2.534,2.534,0,1,0-5.068,0v17.217a11.021,11.021,0,0,0,4.61,8.953,5.935,5.935,0,0,1-1.852,10.545,171.816,171.816,0,0,1-92.69,0,5.935,5.935,0,0,1-1.85-10.545,11.026,11.026,0,0,0,4.607-8.953V89.547A43.436,43.436,0,0,1,74.051,50.7a6.888,6.888,0,0,0,2.935,3.452,33.94,33.94,0,0,0,33.557,0,6.893,6.893,0,0,0,2.879-3.322,45.362,45.362,0,0,1,23.93,39.824v8.18a2.534,2.534,0,1,0,5.068,0v-8.18a49.692,49.692,0,0,0-29.09-45.481,6.86,6.86,0,0,0-9.668-3.064,19.747,19.747,0,0,1-3.8,1.629l1.49-10.433a2.534,2.534,0,1,0-5.018-.72L94.608,44.672c-.474.018-.945.028-1.419.015l-1.972-19.6a2.534,2.534,0,1,0-5.043.507L88,43.841A19.7,19.7,0,0,1,83.866,42.1a7.094,7.094,0,0,0-.971-.4L75.716,19.277a6.971,6.971,0,0,1,10.823-7.7,12.1,12.1,0,0,0,14.445,0,6.971,6.971,0,0,1,10.823,7.7L107.36,33.2a2.534,2.534,0,1,0,4.828,1.543l4.45-13.91a12.037,12.037,0,0,0-18.689-13.3,7.009,7.009,0,0,1-8.363,0,12.04,12.04,0,0,0-18.692,13.3l6.728,21.034a6.741,6.741,0,0,0-.672.284,6.862,6.862,0,0,0-2.686,2.886,7.382,7.382,0,0,0-2.3-1.827,7.227,7.227,0,0,0-5.6-.405c-.492.162-.993.3-1.5.431L68.329,31.12a2.534,2.534,0,1,0-4.871-1.389l-4.1,14.313c-.573.023-1.145.03-1.718.018L55.716,32.529a2.534,2.534,0,1,0-5,.831l1.673,10.035c-.735-.172-1.465-.373-2.182-.611a7.524,7.524,0,0,0-1.584-.327L43.768,27.27a5.322,5.322,0,0,1,8.277-5.894,10.461,10.461,0,0,0,12.483,0,2.534,2.534,0,0,0-3.041-4.055,5.367,5.367,0,0,1-6.4,0A10.39,10.39,0,0,0,38.937,28.813l4.774,14.919c-.038.025-.079.038-.117.063a7.225,7.225,0,0,0-2.9,4.691A39.888,39.888,0,0,0,18.416,84.2v19.7a2.534,2.534,0,1,0,5.068,0V84.2a34.819,34.819,0,0,1,18.21-30.542,7.314,7.314,0,0,0,3.872,3.061,39.6,39.6,0,0,0,10.605,1.967,48.255,48.255,0,0,0-6.082,9.4A27.964,27.964,0,0,0,32.944,93.764a27.622,27.622,0,0,0,12.164,22.929v9.493a5.95,5.95,0,0,1-2.483,4.83,11.178,11.178,0,0,0-2.215,2.1A138.959,138.959,0,0,1,20.9,129.176a4.323,4.323,0,0,1-1.348-7.681,9.4,9.4,0,0,0,3.933-7.638,2.534,2.534,0,1,0-5.068,0,4.326,4.326,0,0,1-1.809,3.515,9.376,9.376,0,0,0,2.929,16.685,143.54,143.54,0,0,0,18.689,3.87,10.955,10.955,0,0,0,7.831,12.64,176.886,176.886,0,0,0,47.711,6.551,176.862,176.862,0,0,0,47.715-6.557,11,11,0,0,0,3.427-19.545ZM90.769,49.6c.033,0,.063.018.1.018h.114a25.07,25.07,0,0,0,15.2-3.1,1.865,1.865,0,1,1,1.845,3.241,28.857,28.857,0,0,1-28.525,0,1.873,1.873,0,0,1-.943-1.622,1.835,1.835,0,0,1,.93-1.614,1.751,1.751,0,0,1,1.31-.21c.028,0,.056.013.084.013a1.921,1.921,0,0,1,.471.2A24.974,24.974,0,0,0,90.769,49.6Zm-45.108.487c0-.048-.02-.1-.023-.144s-.023-.124-.023-.19a2.255,2.255,0,0,1,.945-1.847,2.281,2.281,0,0,1,.945-.39h.073a2.245,2.245,0,0,1,1.014.091,30.187,30.187,0,0,0,6.718,1.4c.051,0,.1.028.147.028H55.5a31.1,31.1,0,0,0,5.747-.023h.041c.084,0,.162-.033.253-.041a30.377,30.377,0,0,0,6.416-1.366,2.141,2.141,0,0,1,1.287-.033,48.686,48.686,0,0,0-8.17,5.968,34.885,34.885,0,0,1-13.9-1.635,2.253,2.253,0,0,1-1.5-1.822ZM38.012,93.764a22.856,22.856,0,0,1,9.141-18.188,48.772,48.772,0,0,0-2.045,13.971v20.669a22.554,22.554,0,0,1-7.1-16.452Z" fill="#0f2771"/>
          </g>
        </g>
      </g>
    </g>
  </g>
</svg>
