<svg xmlns="http://www.w3.org/2000/svg" xmlns:xlink="http://www.w3.org/1999/xlink" width="152" height="215" viewBox="0 0 152 215">
  <defs>
    <clipPath id="clip-path">
      <rect id="Rect치ngulo_32784" data-name="Rect치ngulo 32784" width="152" height="152" transform="translate(11348 -9134)" fill="#fff" stroke="#707070" stroke-width="1"/>
    </clipPath>
  </defs>
  <g id="Grupo_87488" data-name="Grupo 87488" transform="translate(-12488 10150)">
    <rect id="Rect치ngulo_32785" data-name="Rect치ngulo 32785" width="98" height="215" transform="translate(12515 -10150)" fill="#8ad24a"/>
    <g id="Enmascarar_grupo_86" data-name="Enmascarar grupo 86" transform="translate(1140 -981)" clip-path="url(#clip-path)">
      <g id="equipo-de-laboratorio" transform="translate(11347.999 -9134)">
        <g id="Grupo_87364" data-name="Grupo 87364">
          <g id="Grupo_87352" data-name="Grupo 87352">
            <path id="Trazado_147033" data-name="Trazado 147033" d="M2.227,128.614A45.049,45.049,0,0,0,20.391,92.558V35.289a30.376,30.376,0,1,1,60.751,0v3.655a5.143,5.143,0,1,1-10.286,0V35.289a20.09,20.09,0,1,0-40.181,0V92.558A55.377,55.377,0,0,1,8.348,136.88Z" fill="#a9d3d8"/>
          </g>
          <path id="Trazado_147034" data-name="Trazado 147034" d="M81.142,35.289v3.655a5.142,5.142,0,0,1-10.284,0V35.289a19.985,19.985,0,0,0-3.928-11.92,36.258,36.258,0,0,1,5.148-9.7,30.275,30.275,0,0,1,9.064,21.624Z" fill="#90bac4"/>
          <g id="Grupo_87353" data-name="Grupo 87353">
            <path id="Trazado_147035" data-name="Trazado 147035" d="M143.653,136.88a55.377,55.377,0,0,1-22.329-44.321V35.289a20.09,20.09,0,0,0-40.181,0v3.655a5.143,5.143,0,1,1-10.286,0V35.289a30.376,30.376,0,0,1,60.752,0V92.558a45.049,45.049,0,0,0,18.165,36.056Z" fill="#cbe5e7"/>
          </g>
          <g id="Grupo_87363" data-name="Grupo 87363">
            <g id="Grupo_87354" data-name="Grupo 87354">
              <path id="Trazado_147036" data-name="Trazado 147036" d="M85.986,56.821H64.842v-19.7a2.939,2.939,0,0,1,2.939-2.939H83.047a2.939,2.939,0,0,1,2.939,2.939v19.7Z" fill="#eff5f6"/>
              <path id="Trazado_147037" data-name="Trazado 147037" d="M85.987,37.118v19.7H76v-19.7a2.938,2.938,0,0,0-2.939-2.939h9.987a2.94,2.94,0,0,1,2.939,2.939Z" fill="#cbe5e7"/>
            </g>
            <g id="Grupo_87355" data-name="Grupo 87355">
              <path id="Trazado_147038" data-name="Trazado 147038" d="M103.372,147.088H47.457a6.881,6.881,0,0,1-6.881-6.881V74.933A22.325,22.325,0,0,1,62.9,52.608H87.927a22.325,22.325,0,0,1,22.325,22.325v65.273A6.88,6.88,0,0,1,103.372,147.088Z" fill="#d3e1f4"/>
              <path id="Trazado_147039" data-name="Trazado 147039" d="M110.254,74.934v65.274a6.88,6.88,0,0,1-6.882,6.879H92.8a6.88,6.88,0,0,0,6.882-6.879V74.934A22.326,22.326,0,0,0,77.354,52.609H87.926a22.326,22.326,0,0,1,22.328,22.325Z" fill="#b3cbea"/>
              <path id="Trazado_147040" data-name="Trazado 147040" d="M110.254,88.37v51.838a6.88,6.88,0,0,1-6.882,6.879H47.456a6.877,6.877,0,0,1-6.879-6.879V88.37Z" fill="#68dbf9"/>
              <path id="Trazado_147041" data-name="Trazado 147041" d="M110.254,88.37v51.838a6.88,6.88,0,0,1-6.882,6.879H92.8a6.88,6.88,0,0,0,6.882-6.879V88.37Z" fill="#24d1f8"/>
            </g>
            <g id="Grupo_87358" data-name="Grupo 87358">
              <g id="Grupo_87356" data-name="Grupo 87356">
                <path id="Trazado_147042" data-name="Trazado 147042" d="M62.4,127.707l-4.14-1.64a2.969,2.969,0,0,1-1.667-3.853l7.588-19.155A85.942,85.942,0,0,0,70.219,71.4v-18.8H80.61V71.4a95.932,95.932,0,0,1-6.772,35.481L66.249,126.04a2.969,2.969,0,0,1-3.853,1.667Z" fill="#a9d3d8"/>
              </g>
              <g id="Grupo_87357" data-name="Grupo 87357">
                <path id="Trazado_147043" data-name="Trazado 147043" d="M68.522,88.369a85.935,85.935,0,0,1-4.345,14.689l-7.588,19.155a2.969,2.969,0,0,0,1.667,3.853l4.14,1.64a2.969,2.969,0,0,0,3.853-1.667l7.588-19.155A96.173,96.173,0,0,0,79.1,88.369H68.522Z" fill="#21c1f8"/>
              </g>
            </g>
            <g id="Grupo_87362" data-name="Grupo 87362">
              <g id="Grupo_87359" data-name="Grupo 87359">
                <path id="Trazado_147044" data-name="Trazado 147044" d="M88.433,127.707a2.969,2.969,0,0,1-3.853-1.667l-7.588-19.155A95.932,95.932,0,0,1,70.219,71.4v-18.8H80.61V71.4a85.582,85.582,0,0,0,6.042,31.654l7.588,19.155a2.969,2.969,0,0,1-1.667,3.853Z" fill="#cbe5e7"/>
              </g>
              <g id="Grupo_87360" data-name="Grupo 87360">
                <path id="Trazado_147045" data-name="Trazado 147045" d="M70.219,52.608H80.61V60.4H70.219Z" fill="#a9d3d8"/>
              </g>
              <g id="Grupo_87361" data-name="Grupo 87361">
                <path id="Trazado_147046" data-name="Trazado 147046" d="M86.651,103.059A85.906,85.906,0,0,1,82.3,88.369H71.724a96.194,96.194,0,0,0,5.267,18.516l7.588,19.155a2.969,2.969,0,0,0,3.853,1.667l4.14-1.64a2.969,2.969,0,0,0,1.667-3.853Z" fill="#24d1f8"/>
              </g>
            </g>
          </g>
        </g>
        <g id="Grupo_87365" data-name="Grupo 87365">
          <path id="Trazado_147047" data-name="Trazado 147047" d="M151.1,126.825a42.814,42.814,0,0,1-17.263-34.267V35.289A32.588,32.588,0,0,0,76,14.67,32.589,32.589,0,0,0,18.165,35.289V92.558A42.814,42.814,0,0,1,.9,126.825,2.227,2.227,0,0,0,3.552,130.4,47.285,47.285,0,0,0,22.618,92.558V35.289a28.138,28.138,0,0,1,50.7-16.825A32.4,32.4,0,0,0,70.4,24.69a22.312,22.312,0,0,0-41.949,10.6V92.558A53.14,53.14,0,0,1,7.023,135.091a2.227,2.227,0,1,0,2.651,3.579A57.613,57.613,0,0,0,32.9,92.558V35.289A17.865,17.865,0,0,1,68.32,31.952h-.538a5.171,5.171,0,0,0-5.165,5.165v2.668a2.224,2.224,0,0,0,0,4.445v6.156A24.488,24.488,0,0,0,50,54.046a2.226,2.226,0,1,0,2.344,3.786,20.048,20.048,0,0,1,10.559-3h5.091V71.4c0,.3-.006,1.047-.007,1.13a83.757,83.757,0,0,1-1.3,13.608H42.8V74.933A20.033,20.033,0,0,1,45.915,64.2a2.226,2.226,0,0,0-3.761-2.383,24.474,24.474,0,0,0-3.8,13.12v65.273a9.118,9.118,0,0,0,9.108,9.108h55.915a9.118,9.118,0,0,0,9.108-9.108V124.17a2.227,2.227,0,1,0-4.453,0v16.037a4.66,4.66,0,0,1-4.654,4.654H47.457a4.66,4.66,0,0,1-4.654-4.654V90.6h22.96a83.787,83.787,0,0,1-3.655,11.643l-7.589,19.155a5.2,5.2,0,0,0,2.917,6.744l4.14,1.64a5.2,5.2,0,0,0,6.744-2.917l7.095-17.91,7.1,17.909a5.185,5.185,0,0,0,6.743,2.917l4.141-1.64a5.2,5.2,0,0,0,2.917-6.744L88.72,102.238A83.868,83.868,0,0,1,85.062,90.6h22.963v23.533a2.227,2.227,0,0,0,4.453,0v-39.2A24.577,24.577,0,0,0,88.212,50.388V44.23a2.224,2.224,0,0,0,0-4.445V37.118a5.17,5.17,0,0,0-4.534-5.123,17.845,17.845,0,0,1,26.515-12.149A2.226,2.226,0,0,0,112.436,16,22.3,22.3,0,0,0,79.172,31.952h-5.89a28.15,28.15,0,0,1,56.1,3.337V92.558A47.285,47.285,0,0,0,148.448,130.4a2.227,2.227,0,0,0,2.651-3.579ZM67.069,50.381V44.234h16.69v6.147ZM72.445,71.4V54.834h5.938V71.4a88.2,88.2,0,0,0,1.236,14.738H73.606A94.185,94.185,0,0,1,72.445,71.4ZM64.179,125.22a.742.742,0,0,1-.963.417L59.076,124a.742.742,0,0,1-.417-.963l7.589-19.155a88.277,88.277,0,0,0,3.843-12.234,98.2,98.2,0,0,0,2.972,10.95c-.409,1.163-.843,2.33-1.295,3.47Zm20.4-21.342,7.588,19.155a.743.743,0,0,1-.416.964l-4.14,1.64h0a.741.741,0,0,1-.963-.417l-7.589-19.155a94.137,94.137,0,0,1-4.64-15.47H80.5a88.235,88.235,0,0,0,4.085,13.283Zm23.445-28.946V86.143H84.143A83.678,83.678,0,0,1,82.836,71.4V54.834h5.091A20.121,20.121,0,0,1,108.026,74.933ZM83.759,39.781H67.069V37.117a.713.713,0,0,1,.712-.712H83.047a.713.713,0,0,1,.712.712v2.664Z" fill="#0f2771"/>
          <path id="Trazado_147048" data-name="Trazado 147048" d="M144.978,135.09a53.141,53.141,0,0,1-21.427-42.532V35.289a22.259,22.259,0,0,0-3.177-11.463,2.227,2.227,0,1,0-3.817,2.294,17.8,17.8,0,0,1,2.541,9.169V92.559a57.613,57.613,0,0,0,23.23,46.111,2.227,2.227,0,1,0,2.65-3.579Z" fill="#0f2771"/>
          <path id="Trazado_147049" data-name="Trazado 147049" d="M98.5,130.041h-.031a2.227,2.227,0,1,0,0,4.453H98.5a2.227,2.227,0,1,0,0-4.453Z" fill="#0f2771"/>
          <path id="Trazado_147050" data-name="Trazado 147050" d="M93.3,134.653h-.031a2.227,2.227,0,1,0,0,4.453H93.3a2.227,2.227,0,1,0,0-4.453Z" fill="#0f2771"/>
          <path id="Trazado_147051" data-name="Trazado 147051" d="M102.889,104.078a2.226,2.226,0,0,0-2.227-2.227h-.031a2.227,2.227,0,0,0,0,4.453h.031A2.227,2.227,0,0,0,102.889,104.078Z" fill="#0f2771"/>
          <path id="Trazado_147052" data-name="Trazado 147052" d="M53.135,105.154a2.226,2.226,0,0,0-2.227-2.227h-.031a2.227,2.227,0,0,0,0,4.453h.031A2.227,2.227,0,0,0,53.135,105.154Z" fill="#0f2771"/>
          <path id="Trazado_147053" data-name="Trazado 147053" d="M52.579,134.072h.052a2.227,2.227,0,0,0,.02-4.453H52.6a2.227,2.227,0,0,0-.02,4.453Z" fill="#0f2771"/>
        </g>
      </g>
    </g>
  </g>
</svg>
