<svg xmlns="http://www.w3.org/2000/svg" width="338" height="165.04" viewBox="0 0 338 165.04">
  <g id="Grupo_86917" data-name="Grupo 86917" transform="translate(-1051 -981.96)">
    <rect id="Rectángulo_32647" data-name="Rectángulo 32647" width="338" height="82" transform="translate(1051 1065)" fill="#fff"/>
    <g id="Grupo_86491" data-name="Grupo 86491" transform="translate(604.69 662.179)">
      <g id="Grupo_86448" data-name="Grupo 86448" transform="translate(559.243 319.781)">
        <g id="Grupo_86439" data-name="Grupo 86439" transform="translate(28.068)">
          <g id="Grupo_86437" data-name="Grupo 86437" transform="translate(0 30.926)">
            <path id="Trazado_144597" data-name="Trazado 144597" d="M595.218,346.445h-6.81a20.805,20.805,0,0,0-11.3,0h-6.811v2.007h0c0,1.843,1.219,3.682,3.65,5.088,4.865,2.809,12.758,2.809,17.623,0,2.435-1.406,3.65-3.245,3.65-5.088h0Z" transform="translate(-570.295 -339.25)" fill="gray"/>
            <path id="Trazado_144598" data-name="Trazado 144598" d="M591.568,352.766c-4.865,2.809-12.758,2.809-17.623,0s-4.865-7.362,0-10.174,12.758-2.809,17.623,0S596.435,349.957,591.568,352.766Z" transform="translate(-570.295 -340.485)" fill="#a6a6a6"/>
          </g>
          <g id="Grupo_86438" data-name="Grupo 86438" transform="translate(0.681)">
            <path id="Trazado_144599" data-name="Trazado 144599" d="M594.4,321.149h-6.436a19.7,19.7,0,0,0-10.68,0h-6.442v30.936h0c0,1.74,1.153,3.48,3.453,4.81,4.6,2.658,12.055,2.658,16.656,0,2.3-1.329,3.449-3.069,3.449-4.81h0Z" transform="translate(-570.845 -314.349)" fill="#dae5f8"/>
            <path id="Trazado_144600" data-name="Trazado 144600" d="M590.953,327.124c-4.6,2.657-12.057,2.654-16.656,0s-4.6-6.96,0-9.617,12.055-2.654,16.656,0S595.556,324.47,590.953,327.124Z" transform="translate(-570.844 -315.517)" fill="#fff"/>
            <path id="Trazado_144601" data-name="Trazado 144601" d="M594.4,333.364c0,1.738-1.149,3.481-3.449,4.807-4.6,2.654-12.057,2.654-16.656,0-2.3-1.327-3.453-3.069-3.453-4.807h0v.953c0,1.743,1.153,3.48,3.453,4.81,4.6,2.654,12.055,2.654,16.656,0,2.3-1.329,3.449-3.067,3.449-4.81v-.953Z" transform="translate(-570.845 -311.258)" fill="#b4caed"/>
            <path id="Trazado_144602" data-name="Trazado 144602" d="M594.4,337.871c0,1.74-1.149,3.48-3.449,4.807-4.6,2.654-12.057,2.654-16.656,0-2.3-1.327-3.453-3.067-3.453-4.807h0v.955c0,1.74,1.153,3.48,3.453,4.81,4.6,2.654,12.055,2.654,16.656,0,2.3-1.329,3.449-3.069,3.449-4.81v-.955Z" transform="translate(-570.845 -310.183)" fill="#b4caed"/>
            <path id="Trazado_144603" data-name="Trazado 144603" d="M590.055,322.738a4.639,4.639,0,0,0-2.289-2.55,12.888,12.888,0,0,0-11.647,0,4.632,4.632,0,0,0-2.29,2.55c-.442-1.472.322-3.04,2.29-4.177a12.873,12.873,0,0,1,11.647,0C589.733,319.7,590.5,321.266,590.055,322.738Z" transform="translate(-570.162 -315.122)" fill="#b4caed"/>
            <path id="Trazado_144604" data-name="Trazado 144604" d="M590.032,322.424a4.642,4.642,0,0,1-2.289,2.545,12.872,12.872,0,0,1-11.647,0,2.562,2.562,0,0,1,0-5.1,12.888,12.888,0,0,1,11.647,0A4.638,4.638,0,0,1,590.032,322.424Z" transform="translate(-570.138 -314.809)" fill="#dae5f8"/>
          </g>
        </g>
        <g id="Grupo_86442" data-name="Grupo 86442" transform="translate(0 16.205)">
          <g id="Grupo_86440" data-name="Grupo 86440" transform="translate(0 30.925)">
            <path id="Trazado_144605" data-name="Trazado 144605" d="M572.557,359.525h-6.809a20.906,20.906,0,0,0-11.3,0h-6.811v2.012h0c0,1.842,1.215,3.682,3.653,5.086,4.865,2.809,12.755,2.809,17.621,0,2.434-1.4,3.65-3.244,3.65-5.086h0Z" transform="translate(-547.634 -352.332)" fill="gray"/>
            <path id="Trazado_144606" data-name="Trazado 144606" d="M568.907,365.85c-4.865,2.808-12.755,2.808-17.621,0s-4.869-7.364,0-10.175,12.755-2.809,17.621,0S573.772,363.041,568.907,365.85Z" transform="translate(-547.634 -353.568)" fill="#a6a6a6"/>
          </g>
          <g id="Grupo_86441" data-name="Grupo 86441" transform="translate(0.684)">
            <path id="Trazado_144607" data-name="Trazado 144607" d="M571.742,334.232H565.3a19.734,19.734,0,0,0-10.683,0h-6.436v30.937h0c0,1.739,1.15,3.479,3.45,4.81,4.6,2.654,12.059,2.654,16.656,0,2.3-1.33,3.451-3.07,3.451-4.81h0Z" transform="translate(-548.186 -327.432)" fill="#dae5f8"/>
            <path id="Trazado_144608" data-name="Trazado 144608" d="M568.291,340.209c-4.6,2.654-12.055,2.654-16.656,0s-4.6-6.962,0-9.617,12.059-2.657,16.656,0S572.891,337.553,568.291,340.209Z" transform="translate(-548.186 -328.6)" fill="#fff"/>
            <path id="Trazado_144609" data-name="Trazado 144609" d="M571.742,346.446c0,1.739-1.151,3.482-3.451,4.81-4.6,2.657-12.056,2.657-16.656,0-2.3-1.328-3.45-3.07-3.45-4.81h0v.956c0,1.738,1.15,3.481,3.45,4.811,4.6,2.654,12.059,2.654,16.656,0,2.3-1.33,3.451-3.073,3.451-4.811v-.956Z" transform="translate(-548.186 -324.342)" fill="#b4caed"/>
            <path id="Trazado_144610" data-name="Trazado 144610" d="M571.742,350.954c0,1.74-1.151,3.48-3.451,4.811-4.6,2.654-12.056,2.654-16.656,0-2.3-1.33-3.45-3.07-3.45-4.811h0v.957c0,1.738,1.15,3.48,3.45,4.808,4.6,2.654,12.059,2.654,16.656,0,2.3-1.328,3.451-3.071,3.451-4.808v-.957Z" transform="translate(-548.186 -323.266)" fill="#b4caed"/>
            <path id="Trazado_144611" data-name="Trazado 144611" d="M567.394,335.822a4.629,4.629,0,0,0-2.293-2.552,12.865,12.865,0,0,0-11.643,0,4.619,4.619,0,0,0-2.29,2.552c-.443-1.473.322-3.04,2.29-4.177a12.865,12.865,0,0,1,11.643,0C567.075,332.782,567.839,334.349,567.394,335.822Z" transform="translate(-547.503 -328.206)" fill="#b4caed"/>
            <path id="Trazado_144612" data-name="Trazado 144612" d="M567.371,335.509a4.649,4.649,0,0,1-2.293,2.545,12.865,12.865,0,0,1-11.643,0,2.563,2.563,0,0,1,0-5.1,12.865,12.865,0,0,1,11.643,0A4.629,4.629,0,0,1,567.371,335.509Z" transform="translate(-547.48 -327.893)" fill="#dae5f8"/>
          </g>
        </g>
        <g id="Grupo_86443" data-name="Grupo 86443" transform="translate(10.288 35.041)">
          <path id="Trazado_144613" data-name="Trazado 144613" d="M634.03,357.566l-54.258,31.326L555.94,375.134,610.2,343.807Z" transform="translate(-555.94 -343.807)" fill="#fff"/>
          <path id="Trazado_144614" data-name="Trazado 144614" d="M599.983,345.531l19.84,11.451-2.391,1.38-17.449-10.078Z" transform="translate(-545.431 -343.396)" fill="#dae5f8"/>
          <path id="Trazado_144615" data-name="Trazado 144615" d="M609.78,348.285,561.316,376.27l-2.388-1.38,50.852-29.358Z" transform="translate(-555.227 -343.396)" fill="#b4caed"/>
          <path id="Trazado_144616" data-name="Trazado 144616" d="M626.768,357.832,578.3,385.813,560.856,375.74l48.464-27.985Z" transform="translate(-554.767 -342.866)" fill="#2b9fe3"/>
          <path id="Trazado_144617" data-name="Trazado 144617" d="M579.772,387.313,555.94,373.552V369.1l23.832,13.758Z" transform="translate(-555.94 -337.773)" fill="#dae5f8"/>
          <path id="Trazado_144618" data-name="Trazado 144618" d="M575.181,390.7l54.258-31.326v-4.455l-54.258,31.326Z" transform="translate(-551.349 -341.157)" fill="#b4caed"/>
        </g>
        <g id="Grupo_86445" data-name="Grupo 86445" transform="translate(47.412 28.3)">
          <g id="Grupo_86444" data-name="Grupo 86444">
            <path id="Trazado_144619" data-name="Trazado 144619" d="M588.377,338.46l.757.437-2.044,3.534-.754-.436h0a1.021,1.021,0,0,1-.424-.934,3.184,3.184,0,0,1,1.444-2.5A1.015,1.015,0,0,1,588.377,338.46Z" transform="translate(-585.912 -338.364)" fill="#517fa2"/>
            <path id="Trazado_144620" data-name="Trazado 144620" d="M587.965,338.915a3.181,3.181,0,0,0-1.44,2.5c0,.917.645,1.288,1.44.83a3.189,3.189,0,0,0,1.444-2.5C589.409,338.827,588.762,338.454,587.965,338.915Z" transform="translate(-585.766 -338.28)" fill="#295e87"/>
          </g>
          <path id="Trazado_144621" data-name="Trazado 144621" d="M600.8,358.064a3.645,3.645,0,0,1-3.3,0,1.008,1.008,0,0,1,0-1.907,3.66,3.66,0,0,1,3.3,0A1.006,1.006,0,0,1,600.8,358.064Z" transform="translate(-583.309 -334.213)" opacity="0.3"/>
          <path id="Trazado_144622" data-name="Trazado 144622" d="M597.881,344.28l-8.948-5.2a.86.86,0,0,0-.892.077,2.753,2.753,0,0,0-1.244,2.15.859.859,0,0,0,.385.808h0l8.945,5.212a8.5,8.5,0,0,1,3.726,6.452v7.209h.005a.872.872,0,0,0,.516.716,2.727,2.727,0,0,0,2.48,0,.871.871,0,0,0,.511-.716h0v-7.209A11.952,11.952,0,0,0,597.881,344.28Z" transform="translate(-585.701 -338.216)" fill="#f5a52e"/>
        </g>
        <g id="Grupo_86447" data-name="Grupo 86447" transform="translate(19.346 44.505)">
          <g id="Grupo_86446" data-name="Grupo 86446">
            <path id="Trazado_144623" data-name="Trazado 144623" d="M565.712,351.546l.758.433-2.039,3.535-.758-.437h0a1.013,1.013,0,0,1-.42-.933,3.184,3.184,0,0,1,1.438-2.5A1,1,0,0,1,565.712,351.546Z" transform="translate(-563.253 -351.448)" fill="#517fa2"/>
            <path id="Trazado_144624" data-name="Trazado 144624" d="M565.3,352a3.194,3.194,0,0,0-1.442,2.5c0,.922.647,1.294,1.442.834a3.187,3.187,0,0,0,1.44-2.5C566.744,351.913,566.1,351.537,565.3,352Z" transform="translate(-563.108 -351.364)" fill="#295e87"/>
          </g>
          <path id="Trazado_144625" data-name="Trazado 144625" d="M578.2,371.125a3.645,3.645,0,0,1-3.3,0,1,1,0,0,1,0-1.905,3.644,3.644,0,0,1,3.3,0A1.006,1.006,0,0,1,578.2,371.125Z" transform="translate(-560.637 -347.302)" opacity="0.3"/>
          <path id="Trazado_144626" data-name="Trazado 144626" d="M575.222,357.365l-8.949-5.2a.854.854,0,0,0-.894.073,2.747,2.747,0,0,0-1.239,2.148.861.861,0,0,0,.38.81h0l8.942,5.211a8.5,8.5,0,0,1,3.726,6.453v7.209h.01a.872.872,0,0,0,.514.72,2.758,2.758,0,0,0,2.48,0,.869.869,0,0,0,.512-.72h0v-7.209A11.955,11.955,0,0,0,575.222,357.365Z" transform="translate(-563.041 -351.3)" fill="#f5a52e"/>
        </g>
      </g>
      <g id="Grupo_86471" data-name="Grupo 86471" transform="translate(505.31 347.021)">
        <path id="Trazado_144627" data-name="Trazado 144627" d="M520.136,436.721,493.31,421.233l26.826-15.49,26.828,15.49Z" transform="translate(-493.31 -325.973)" opacity="0.3"/>
        <g id="Grupo_86449" data-name="Grupo 86449" transform="translate(1.223 38.135)">
          <path id="Trazado_144628" data-name="Trazado 144628" d="M519.9,401.692,494.3,386.91l25.6-14.782,25.6,14.782Z" transform="translate(-494.298 -372.128)" fill="#fff"/>
          <path id="Trazado_144629" data-name="Trazado 144629" d="M519.9,441.189l-25.6-14.782V384.063l25.6,14.781Z" transform="translate(-494.298 -369.28)" fill="#dae5f8"/>
          <path id="Trazado_144630" data-name="Trazado 144630" d="M514.968,441.189l25.6-14.782V384.063l-25.6,14.781Z" transform="translate(-489.365 -369.28)" fill="#b4caed"/>
        </g>
        <g id="Grupo_86450" data-name="Grupo 86450" transform="translate(1.223 35.718)">
          <path id="Trazado_144631" data-name="Trazado 144631" d="M519.9,399.74l-25.6-14.781,25.6-14.782,25.6,14.782Z" transform="translate(-494.298 -370.177)" fill="#a6a6a6"/>
          <path id="Trazado_144632" data-name="Trazado 144632" d="M542.753,384.7l-1.155.668-22.143-12.783-22.14,12.783-1.154-.668,23.294-13.449Z" transform="translate(-493.853 -369.92)" fill="#575757"/>
          <path id="Trazado_144633" data-name="Trazado 144633" d="M541.375,385.112,519.233,397.9l-22.14-12.785,22.14-12.783Z" transform="translate(-493.631 -369.664)" fill="gray"/>
          <path id="Trazado_144634" data-name="Trazado 144634" d="M519.9,399.309l-25.6-14.781v-2.417l25.6,14.781Z" transform="translate(-494.298 -367.329)" fill="gray"/>
          <path id="Trazado_144635" data-name="Trazado 144635" d="M514.968,399.309l25.6-14.781v-2.417l-25.6,14.781Z" transform="translate(-489.365 -367.329)" fill="#575757"/>
        </g>
        <g id="Grupo_86453" data-name="Grupo 86453" transform="translate(15.336 88.695)">
          <g id="Grupo_86451" data-name="Grupo 86451" transform="translate(5.499)">
            <path id="Trazado_144636" data-name="Trazado 144636" d="M510.95,413.019l-.564.327,1.521,2.628.561-.322h0a.756.756,0,0,0,.318-.7,2.374,2.374,0,0,0-1.076-1.858A.758.758,0,0,0,510.95,413.019Z" transform="translate(-510.071 -412.948)" fill="#517fa2"/>
            <path id="Trazado_144637" data-name="Trazado 144637" d="M511.2,413.357a2.381,2.381,0,0,1,1.078,1.859c0,.686-.483.965-1.078.623a2.363,2.363,0,0,1-1.073-1.864C510.132,413.292,510.611,413.013,511.2,413.357Z" transform="translate(-510.132 -412.886)" fill="#295e87"/>
          </g>
          <g id="Grupo_86452" data-name="Grupo 86452" transform="translate(0 18.615)">
            <path id="Trazado_144638" data-name="Trazado 144638" d="M508.732,429.339v-.651l-3.038,0v.648h0a.747.747,0,0,0,.446.623,2.368,2.368,0,0,0,2.145,0A.763.763,0,0,0,508.732,429.339Z" transform="translate(-505.692 -427.807)" fill="#517fa2"/>
            <path id="Trazado_144639" data-name="Trazado 144639" d="M508.286,429.476a2.381,2.381,0,0,1-2.148,0,.658.658,0,0,1,0-1.245,2.358,2.358,0,0,1,2.148,0A.653.653,0,0,1,508.286,429.476Z" transform="translate(-505.692 -427.977)" fill="#295e87"/>
          </g>
          <path id="Trazado_144640" data-name="Trazado 144640" d="M509.963,414.343l1.49-.858a.639.639,0,0,1,.666.055,2.038,2.038,0,0,1,.922,1.6.638.638,0,0,1-.285.6h0l-1.489.87a6.341,6.341,0,0,0-2.772,4.808v10.854h-.007a.66.66,0,0,1-.385.536,2.036,2.036,0,0,1-1.845,0,.657.657,0,0,1-.385-.536h0V421.422A8.912,8.912,0,0,1,509.963,414.343Z" transform="translate(-505.648 -412.837)" fill="#edc255"/>
        </g>
        <g id="Grupo_86456" data-name="Grupo 86456" transform="translate(10.397 85.844)">
          <g id="Grupo_86454" data-name="Grupo 86454" transform="translate(5.498)">
            <path id="Trazado_144641" data-name="Trazado 144641" d="M506.963,410.717l-.565.326,1.522,2.631.561-.324h0a.749.749,0,0,0,.316-.7,2.372,2.372,0,0,0-1.073-1.857A.758.758,0,0,0,506.963,410.717Z" transform="translate(-506.082 -410.646)" fill="#517fa2"/>
            <path id="Trazado_144642" data-name="Trazado 144642" d="M507.216,411.056a2.374,2.374,0,0,1,1.08,1.86c0,.685-.484.962-1.08.622a2.377,2.377,0,0,1-1.073-1.862C506.143,410.99,506.625,410.711,507.216,411.056Z" transform="translate(-506.143 -410.584)" fill="#295e87"/>
          </g>
          <g id="Grupo_86455" data-name="Grupo 86455" transform="translate(0 18.615)">
            <path id="Trazado_144643" data-name="Trazado 144643" d="M504.744,427.036v-.651l-3.039,0v.647h0a.751.751,0,0,0,.446.623,2.364,2.364,0,0,0,2.145,0A.757.757,0,0,0,504.744,427.036Z" transform="translate(-501.704 -425.506)" fill="#517fa2"/>
            <path id="Trazado_144644" data-name="Trazado 144644" d="M504.3,427.174a2.386,2.386,0,0,1-2.15,0,.658.658,0,0,1,0-1.245,2.371,2.371,0,0,1,2.15,0A.654.654,0,0,1,504.3,427.174Z" transform="translate(-501.704 -425.675)" fill="#295e87"/>
          </g>
          <path id="Trazado_144645" data-name="Trazado 144645" d="M505.975,412.042l1.488-.86a.643.643,0,0,1,.669.055,2.038,2.038,0,0,1,.92,1.6.642.642,0,0,1-.285.606h0l-1.489.872a6.335,6.335,0,0,0-2.771,4.806v10.854H504.5a.662.662,0,0,1-.386.538,2.049,2.049,0,0,1-1.844,0,.655.655,0,0,1-.385-.538h0V419.12A8.914,8.914,0,0,1,505.975,412.042Z" transform="translate(-501.66 -410.535)" fill="#edc255"/>
        </g>
        <g id="Grupo_86459" data-name="Grupo 86459" transform="translate(5.457 74.985)">
          <g id="Grupo_86457" data-name="Grupo 86457" transform="translate(5.5)">
            <path id="Trazado_144646" data-name="Trazado 144646" d="M502.974,401.95l-.564.325,1.521,2.631.562-.322h0a.757.757,0,0,0,.317-.7,2.368,2.368,0,0,0-1.076-1.855A.758.758,0,0,0,502.974,401.95Z" transform="translate(-502.095 -401.879)" fill="#517fa2"/>
            <path id="Trazado_144647" data-name="Trazado 144647" d="M503.229,402.287a2.373,2.373,0,0,1,1.078,1.86c0,.686-.483.964-1.078.622a2.365,2.365,0,0,1-1.073-1.862C502.156,402.222,502.637,401.945,503.229,402.287Z" transform="translate(-502.156 -401.817)" fill="#295e87"/>
          </g>
          <g id="Grupo_86458" data-name="Grupo 86458" transform="translate(0 26.622)">
            <path id="Trazado_144648" data-name="Trazado 144648" d="M500.755,424.734v-.653l-3.037,0v.649h0a.753.753,0,0,0,.446.624,2.369,2.369,0,0,0,2.144,0A.756.756,0,0,0,500.755,424.734Z" transform="translate(-497.715 -423.204)" fill="#517fa2"/>
            <path id="Trazado_144649" data-name="Trazado 144649" d="M500.31,424.871a2.372,2.372,0,0,1-2.149,0,.657.657,0,0,1,0-1.244,2.372,2.372,0,0,1,2.149,0A.653.653,0,0,1,500.31,424.871Z" transform="translate(-497.716 -423.373)" fill="#295e87"/>
          </g>
          <path id="Trazado_144650" data-name="Trazado 144650" d="M501.987,403.275l1.489-.861a.642.642,0,0,1,.668.055,2.042,2.042,0,0,1,.922,1.6.638.638,0,0,1-.284.6h0l-1.49.873a6.337,6.337,0,0,0-2.772,4.807v18.859h-.007a.66.66,0,0,1-.386.54,2.048,2.048,0,0,1-1.844,0,.661.661,0,0,1-.385-.54h0V410.353A8.906,8.906,0,0,1,501.987,403.275Z" transform="translate(-497.672 -401.768)" fill="#edc255"/>
        </g>
        <g id="Grupo_86465" data-name="Grupo 86465" transform="translate(15.811)">
          <path id="Trazado_144651" data-name="Trazado 144651" d="M524.706,388.443a16.9,16.9,0,0,1-15.3,0c-4.23-2.44-4.23-6.4,0-8.835a16.911,16.911,0,0,1,15.3,0C528.93,382.046,528.93,386,524.706,388.443Z" transform="translate(-506.038 -332.646)" fill="#0d0d0d" opacity="0.3"/>
          <path id="Trazado_144652" data-name="Trazado 144652" d="M526.948,364.828h-20.09l5.073,14.88h0a2.884,2.884,0,0,0,1.395,1.531,7.893,7.893,0,0,0,7.152,0,2.88,2.88,0,0,0,1.395-1.531h0Z" transform="translate(-505.888 -335.735)" fill="#dae5f8"/>
          <g id="Grupo_86460" data-name="Grupo 86460" transform="translate(20.934 27.281)">
            <path id="Trazado_144653" data-name="Trazado 144653" d="M523.879,387.407V363.575h-.9v23.832h0a.224.224,0,0,0,.134.183.7.7,0,0,0,.637,0A.229.229,0,0,0,523.879,387.407Z" transform="translate(-522.976 -363.316)" fill="#edc255"/>
            <path id="Trazado_144654" data-name="Trazado 144654" d="M523.746,363.811a.711.711,0,0,1-.637,0,.194.194,0,0,1,0-.368.7.7,0,0,1,.637,0A.194.194,0,0,1,523.746,363.811Z" transform="translate(-522.976 -363.366)" fill="#a6a6a6"/>
          </g>
          <g id="Grupo_86461" data-name="Grupo 86461" transform="translate(0.193 27.281)">
            <path id="Trazado_144655" data-name="Trazado 144655" d="M507.133,387.407V363.575h-.9v23.832h0a.223.223,0,0,0,.133.183.706.706,0,0,0,.638,0A.225.225,0,0,0,507.133,387.407Z" transform="translate(-506.231 -363.316)" fill="#edc255"/>
            <path id="Trazado_144656" data-name="Trazado 144656" d="M507,363.811a.714.714,0,0,1-.638,0,.194.194,0,0,1,0-.368.7.7,0,0,1,.638,0A.194.194,0,0,1,507,363.811Z" transform="translate(-506.231 -363.366)" fill="#a6a6a6"/>
          </g>
          <g id="Grupo_86462" data-name="Grupo 86462" transform="translate(10.566 33.277)">
            <path id="Trazado_144657" data-name="Trazado 144657" d="M515.507,392.247V368.416h-.9v23.831h0a.22.22,0,0,0,.133.183.7.7,0,0,0,.635,0A.22.22,0,0,0,515.507,392.247Z" transform="translate(-514.606 -368.157)" fill="#edc255"/>
            <path id="Trazado_144658" data-name="Trazado 144658" d="M515.374,368.649a.686.686,0,0,1-.635,0,.193.193,0,0,1,0-.367.7.7,0,0,1,.635,0A.193.193,0,0,1,515.374,368.649Z" transform="translate(-514.606 -368.206)" fill="#a6a6a6"/>
          </g>
          <g id="Grupo_86463" data-name="Grupo 86463" transform="translate(0 19.365)">
            <path id="Trazado_144659" data-name="Trazado 144659" d="M528.106,362.242h-6.02a18.406,18.406,0,0,0-9.993,0h-6.018v1.774h0c0,1.629,1.075,3.254,3.227,4.5a17.23,17.23,0,0,0,15.577,0c2.152-1.246,3.228-2.871,3.228-4.5h0Z" transform="translate(-506.075 -355.883)" fill="#ffed83"/>
            <path id="Trazado_144660" data-name="Trazado 144660" d="M524.878,367.832a17.23,17.23,0,0,1-15.577,0c-4.3-2.485-4.3-6.51,0-8.994a17.207,17.207,0,0,1,15.577,0C529.181,361.321,529.181,365.347,524.878,367.832Z" transform="translate(-506.075 -356.974)" fill="#fff4b3"/>
          </g>
          <g id="Grupo_86464" data-name="Grupo 86464" transform="translate(0.193)">
            <path id="Trazado_144661" data-name="Trazado 144661" d="M527.873,346.515h-5.911a18.1,18.1,0,0,0-9.815,0h-5.916v19.374h0c0,1.6,1.057,3.2,3.171,4.418a16.926,16.926,0,0,0,15.3,0c2.111-1.22,3.167-2.82,3.167-4.418h0Z" transform="translate(-506.231 -340.267)" fill="#dae5f8"/>
            <path id="Trazado_144662" data-name="Trazado 144662" d="M524.706,352a16.9,16.9,0,0,1-15.3,0c-4.23-2.438-4.23-6.4,0-8.83a16.9,16.9,0,0,1,15.3,0C528.93,345.607,528.93,349.564,524.706,352Z" transform="translate(-506.231 -341.34)" fill="#fff"/>
            <path id="Trazado_144663" data-name="Trazado 144663" d="M527.873,351.159c0,1.6-1.058,3.2-3.167,4.421a16.911,16.911,0,0,1-15.3,0c-2.114-1.223-3.171-2.822-3.171-4.421h0v.878c0,1.6,1.057,3.2,3.171,4.419a16.911,16.911,0,0,0,15.3,0c2.111-1.219,3.167-2.822,3.167-4.419v-.878Z" transform="translate(-506.231 -338.997)" fill="#b4caed"/>
            <path id="Trazado_144664" data-name="Trazado 144664" d="M527.873,355.3c0,1.6-1.058,3.2-3.167,4.418a16.918,16.918,0,0,1-15.3,0c-2.114-1.223-3.171-2.819-3.171-4.418h0v.877c0,1.6,1.057,3.2,3.171,4.418a16.926,16.926,0,0,0,15.3,0c2.111-1.22,3.167-2.819,3.167-4.418V355.3Z" transform="translate(-506.231 -338.008)" fill="#b4caed"/>
            <path id="Trazado_144665" data-name="Trazado 144665" d="M523.88,347.973a4.244,4.244,0,0,0-2.107-2.34,11.805,11.805,0,0,0-10.7,0,4.253,4.253,0,0,0-2.1,2.34c-.406-1.35.3-2.791,2.1-3.837a11.828,11.828,0,0,1,10.7,0C523.582,345.182,524.285,346.622,523.88,347.973Z" transform="translate(-505.603 -340.978)" fill="#b4caed"/>
            <path id="Trazado_144666" data-name="Trazado 144666" d="M523.858,347.685a4.268,4.268,0,0,1-2.107,2.34,11.812,11.812,0,0,1-10.7,0,2.353,2.353,0,0,1,0-4.679,11.8,11.8,0,0,1,10.7,0A4.245,4.245,0,0,1,523.858,347.685Z" transform="translate(-505.582 -340.69)" fill="#dae5f8"/>
          </g>
        </g>
        <g id="Grupo_86467" data-name="Grupo 86467" transform="translate(43.237 84.667)">
          <path id="Trazado_144667" data-name="Trazado 144667" d="M539.963,428.576a10.74,10.74,0,0,1-9.729,0c-2.688-1.548-2.688-4.063,0-5.613a10.747,10.747,0,0,1,9.729,0C542.649,424.513,542.651,427.027,539.963,428.576Z" transform="translate(-528.218 -406.808)" opacity="0.3"/>
          <g id="Grupo_86466" data-name="Grupo 86466" transform="translate(0.733)">
            <path id="Trazado_144668" data-name="Trazado 144668" d="M541.33,427.608V412.616H528.809v14.992a3.112,3.112,0,0,0,1.836,2.556,9.776,9.776,0,0,0,8.855,0A3.12,3.12,0,0,0,541.33,427.608Z" transform="translate(-528.809 -408.999)" fill="#0b577d"/>
            <path id="Trazado_144669" data-name="Trazado 144669" d="M539.5,415.866a9.777,9.777,0,0,1-8.855,0c-2.441-1.414-2.441-3.7,0-5.11a9.784,9.784,0,0,1,8.855,0C541.94,412.166,541.94,414.451,539.5,415.866Z" transform="translate(-528.808 -409.696)" fill="#1078ad"/>
            <path id="Trazado_144670" data-name="Trazado 144670" d="M540.771,413.569a3.093,3.093,0,0,0-1.675-2.05,9.078,9.078,0,0,0-8.217,0,3.085,3.085,0,0,0-1.672,2.05c-.157-.957.4-1.945,1.672-2.678a9.078,9.078,0,0,1,8.217,0C540.366,411.625,540.926,412.612,540.771,413.569Z" transform="translate(-528.72 -409.645)" fill="#083c57"/>
            <path id="Trazado_144671" data-name="Trazado 144671" d="M540.766,413.448v.011a3.1,3.1,0,0,1-1.675,2.054,9.086,9.086,0,0,1-8.217,0,3.09,3.09,0,0,1-1.672-2.054v-.011a3.085,3.085,0,0,1,1.672-2.05,9.078,9.078,0,0,1,8.217,0A3.093,3.093,0,0,1,540.766,413.448Z" transform="translate(-528.715 -409.524)" fill="#0b577d"/>
          </g>
          <path id="Trazado_144672" data-name="Trazado 144672" d="M535.1,420.09a9.4,9.4,0,0,1-4.608-1.1,3.2,3.2,0,0,1-1.8-2.862,5.838,5.838,0,0,0,2.165,2.451,9.4,9.4,0,0,0,8.5,0c1.059-.612,2.176-2.638,2.176-2.441a3.231,3.231,0,0,1-1.816,2.853A9.408,9.408,0,0,1,535.1,420.09Z" transform="translate(-528.105 -408.167)" fill="#083c57"/>
          <path id="Trazado_144673" data-name="Trazado 144673" d="M541.751,415.369h0a2.7,2.7,0,0,0-.343-1.068v1.62a3.9,3.9,0,0,1-2.01,2.564,9.409,9.409,0,0,1-8.5,0,3.859,3.859,0,0,1-2.011-2.6V414.3a2.7,2.7,0,0,0-.343,1.068h0a4.691,4.691,0,0,0,0,1.107l.01-.01a3.553,3.553,0,0,0,1.989,2.639,10.2,10.2,0,0,0,9.216,0,3.566,3.566,0,0,0,1.989-2.639l.009.01A4.691,4.691,0,0,0,541.751,415.369Z" transform="translate(-528.149 -408.597)" fill="#1078ad"/>
          <path id="Trazado_144674" data-name="Trazado 144674" d="M535.1,422.988a9.429,9.429,0,0,1-4.608-1.1,3.2,3.2,0,0,1-1.8-2.862,5.838,5.838,0,0,0,2.165,2.451,9.4,9.4,0,0,0,8.5,0c1.059-.614,2.176-2.641,2.176-2.44a3.228,3.228,0,0,1-1.816,2.851A9.434,9.434,0,0,1,535.1,422.988Z" transform="translate(-528.105 -407.475)" fill="#083c57"/>
          <path id="Trazado_144675" data-name="Trazado 144675" d="M541.751,418.269h0a2.69,2.69,0,0,0-.343-1.068v1.619a3.909,3.909,0,0,1-2.01,2.563,9.4,9.4,0,0,1-8.5,0,3.853,3.853,0,0,1-2.011-2.6V417.2a2.689,2.689,0,0,0-.343,1.068h0a4.673,4.673,0,0,0,0,1.1l.01-.009a3.545,3.545,0,0,0,1.989,2.64,10.183,10.183,0,0,0,9.216,0,3.557,3.557,0,0,0,1.989-2.64l.009.009A4.673,4.673,0,0,0,541.751,418.269Z" transform="translate(-528.149 -407.905)" fill="#1078ad"/>
          <path id="Trazado_144676" data-name="Trazado 144676" d="M535.1,425.889a9.43,9.43,0,0,1-4.608-1.1,3.2,3.2,0,0,1-1.8-2.861,5.855,5.855,0,0,0,2.165,2.451,9.408,9.408,0,0,0,8.5,0c1.059-.614,2.176-2.641,2.176-2.444a3.227,3.227,0,0,1-1.816,2.854A9.435,9.435,0,0,1,535.1,425.889Z" transform="translate(-528.105 -406.783)" fill="#083c57"/>
          <path id="Trazado_144677" data-name="Trazado 144677" d="M541.751,421.167h0a2.679,2.679,0,0,0-.343-1.065v1.616a3.91,3.91,0,0,1-2.01,2.565,9.4,9.4,0,0,1-8.5,0,3.855,3.855,0,0,1-2.011-2.6V420.1a2.678,2.678,0,0,0-.343,1.065h0a4.7,4.7,0,0,0,0,1.109l.01-.011a3.551,3.551,0,0,0,1.989,2.641,10.214,10.214,0,0,0,9.216,0,3.561,3.561,0,0,0,1.989-2.641l.009.011A4.7,4.7,0,0,0,541.751,421.167Z" transform="translate(-528.149 -407.213)" fill="#1078ad"/>
          <ellipse id="Elipse_4304" data-name="Elipse 4304" cx="0.667" cy="0.386" rx="0.667" ry="0.386" transform="translate(9.776 2.093)" fill="#083c57"/>
        </g>
        <g id="Grupo_86469" data-name="Grupo 86469" transform="translate(31.717 91.751)">
          <path id="Trazado_144678" data-name="Trazado 144678" d="M530.663,434.3a10.75,10.75,0,0,1-9.731,0c-2.687-1.548-2.687-4.064,0-5.616a10.758,10.758,0,0,1,9.731,0C533.347,430.232,533.349,432.748,530.663,434.3Z" transform="translate(-518.917 -412.528)" opacity="0.3"/>
          <g id="Grupo_86468" data-name="Grupo 86468" transform="translate(0.732)">
            <path id="Trazado_144679" data-name="Trazado 144679" d="M532.028,433.327V418.336h-12.52v14.991a3.116,3.116,0,0,0,1.836,2.559,9.78,9.78,0,0,0,8.855,0A3.12,3.12,0,0,0,532.028,433.327Z" transform="translate(-519.508 -414.718)" fill="#0b577d"/>
            <path id="Trazado_144680" data-name="Trazado 144680" d="M530.2,421.585a9.784,9.784,0,0,1-8.855,0c-2.441-1.413-2.441-3.7,0-5.109a9.777,9.777,0,0,1,8.855,0C532.639,417.885,532.639,420.171,530.2,421.585Z" transform="translate(-519.507 -415.415)" fill="#1078ad"/>
            <path id="Trazado_144681" data-name="Trazado 144681" d="M531.471,419.285a3.1,3.1,0,0,0-1.675-2.045,9.071,9.071,0,0,0-8.217,0,3.1,3.1,0,0,0-1.676,2.045,2.718,2.718,0,0,1,1.676-2.674,9.079,9.079,0,0,1,8.217,0A2.719,2.719,0,0,1,531.471,419.285Z" transform="translate(-519.419 -415.364)" fill="#083c57"/>
            <path id="Trazado_144682" data-name="Trazado 144682" d="M531.466,419.165v.016a3.1,3.1,0,0,1-1.675,2.05,9.063,9.063,0,0,1-8.217,0,3.1,3.1,0,0,1-1.676-2.05v-.016a3.1,3.1,0,0,1,1.676-2.045,9.071,9.071,0,0,1,8.217,0A3.1,3.1,0,0,1,531.466,419.165Z" transform="translate(-519.415 -415.243)" fill="#0b577d"/>
          </g>
          <path id="Trazado_144683" data-name="Trazado 144683" d="M525.8,425.808a9.451,9.451,0,0,1-4.609-1.1,3.21,3.21,0,0,1-1.8-2.862,5.886,5.886,0,0,0,2.166,2.45,9.406,9.406,0,0,0,8.495,0c1.06-.614,2.176-2.639,2.174-2.441a3.223,3.223,0,0,1-1.814,2.854A9.456,9.456,0,0,1,525.8,425.808Z" transform="translate(-518.805 -413.886)" fill="#083c57"/>
          <path id="Trazado_144684" data-name="Trazado 144684" d="M532.45,421.09l-.005,0a2.643,2.643,0,0,0-.344-1.066v1.62a3.9,3.9,0,0,1-2.009,2.563,9.4,9.4,0,0,1-8.494,0,3.857,3.857,0,0,1-2.013-2.6V420.02a2.72,2.72,0,0,0-.342,1.066l-.005,0a4.775,4.775,0,0,0,0,1.107l.006-.014a3.564,3.564,0,0,0,1.992,2.642,10.2,10.2,0,0,0,9.217,0,3.557,3.557,0,0,0,1.989-2.642l.009.014A4.7,4.7,0,0,0,532.45,421.09Z" transform="translate(-518.849 -414.317)" fill="#1078ad"/>
          <path id="Trazado_144685" data-name="Trazado 144685" d="M525.8,428.71a9.438,9.438,0,0,1-4.609-1.1,3.212,3.212,0,0,1-1.8-2.865,5.865,5.865,0,0,0,2.166,2.451,9.392,9.392,0,0,0,8.495,0c1.06-.612,2.176-2.638,2.174-2.44a3.217,3.217,0,0,1-1.814,2.851A9.4,9.4,0,0,1,525.8,428.71Z" transform="translate(-518.805 -413.194)" fill="#083c57"/>
          <path id="Trazado_144686" data-name="Trazado 144686" d="M532.45,423.988h-.005a2.631,2.631,0,0,0-.344-1.066v1.618a3.893,3.893,0,0,1-2.009,2.564,9.39,9.39,0,0,1-8.494,0,3.85,3.85,0,0,1-2.013-2.6v-1.582a2.707,2.707,0,0,0-.342,1.066h-.005a4.771,4.771,0,0,0,0,1.107l.006-.01a3.554,3.554,0,0,0,1.992,2.639,10.2,10.2,0,0,0,9.217,0,3.547,3.547,0,0,0,1.989-2.639l.009.01A4.694,4.694,0,0,0,532.45,423.988Z" transform="translate(-518.849 -413.624)" fill="#1078ad"/>
          <path id="Trazado_144687" data-name="Trazado 144687" d="M525.8,431.607a9.437,9.437,0,0,1-4.609-1.1,3.2,3.2,0,0,1-1.8-2.861,5.856,5.856,0,0,0,2.166,2.451,9.406,9.406,0,0,0,8.495,0c1.06-.613,2.176-2.641,2.174-2.441a3.215,3.215,0,0,1-1.814,2.851A9.428,9.428,0,0,1,525.8,431.607Z" transform="translate(-518.805 -412.502)" fill="#083c57"/>
          <path id="Trazado_144688" data-name="Trazado 144688" d="M532.45,426.889h-.005a2.626,2.626,0,0,0-.344-1.065v1.618A3.906,3.906,0,0,1,530.091,430a9.406,9.406,0,0,1-8.494,0,3.857,3.857,0,0,1-2.013-2.6v-1.582a2.7,2.7,0,0,0-.342,1.065h-.005a4.765,4.765,0,0,0,0,1.106l.006-.009a3.563,3.563,0,0,0,1.992,2.638,10.193,10.193,0,0,0,9.217,0,3.556,3.556,0,0,0,1.989-2.638l.009.009A4.688,4.688,0,0,0,532.45,426.889Z" transform="translate(-518.849 -412.932)" fill="#1078ad"/>
          <path id="Trazado_144689" data-name="Trazado 144689" d="M527.95,417.763a1.044,1.044,0,0,1-.942,0c-.264-.151-.264-.393,0-.546a1.052,1.052,0,0,1,.942,0A.289.289,0,0,1,527.95,417.763Z" transform="translate(-517.034 -415.012)" fill="#083c57"/>
        </g>
        <g id="Grupo_86470" data-name="Grupo 86470" transform="translate(29.761 63.059)">
          <path id="Trazado_144690" data-name="Trazado 144690" d="M531.183,392.822l-12.858,7.46-.987-.57,12.858-7.461Z" transform="translate(-517.338 -392.251)" fill="#a6a6a6"/>
          <path id="Trazado_144691" data-name="Trazado 144691" d="M518.325,406.773l-.987-.571v-7.928l.987.57Z" transform="translate(-517.338 -390.814)" fill="gray"/>
          <path id="Trazado_144692" data-name="Trazado 144692" d="M530.992,400.641,518.135,408.1v-7.929l12.858-7.46Z" transform="translate(-517.148 -392.141)" fill="#575757"/>
          <path id="Trazado_144693" data-name="Trazado 144693" d="M530.185,393.72v6.446l-11.479,6.61v-.686l10.883-6.266v-5.764Z" transform="translate(-517.011 -391.901)" fill="gray"/>
          <path id="Trazado_144694" data-name="Trazado 144694" d="M529.589,394v5.764l-10.883,6.266v-5.758Z" transform="translate(-517.011 -391.835)" fill="#303033"/>
        </g>
      </g>
      <g id="Grupo_86478" data-name="Grupo 86478" transform="translate(573.712 404.405)">
        <path id="Trazado_144695" data-name="Trazado 144695" d="M635.711,445.671l-1.315-.762c6-4.338,9.265-9.706,9.265-15.385,0-6.615-4.423-12.813-12.459-17.453-7.944-4.587-18.5-7.113-29.713-7.113s-21.769,2.527-29.713,7.113c-8.035,4.64-12.459,10.838-12.459,17.453s4.424,12.817,12.459,17.456c7.945,4.585,18.5,7.113,29.713,7.113,10.29,0,20.013-2.132,27.685-6.027l1.194.691Z" transform="translate(-559.316 -383.544)" opacity="0.3"/>
        <path id="Trazado_144696" data-name="Trazado 144696" d="M642.908,411.427c-.767-5.493-4.785-10.863-12.063-15.065-16.271-9.394-42.644-9.394-58.91,0-7.24,4.18-11.255,9.515-12.052,14.977l-.152-.012,0,21.931c.022,6.137,4.087,12.272,12.2,16.954,16.266,9.395,42.642,9.395,58.91,0,8.109-4.682,12.174-10.814,12.2-16.954l0-21.831Z" transform="translate(-559.217 -387.276)" fill="#b4caed"/>
        <g id="Grupo_86472" data-name="Grupo 86472" transform="translate(8.71 5.007)">
          <path id="Trazado_144697" data-name="Trazado 144697" d="M572.053,414.666l-4.542,2.623-.262-22.028.26-.924,4.545-2.625Z" transform="translate(-566.133 -391.712)" fill="#575757"/>
          <path id="Trazado_144698" data-name="Trazado 144698" d="M567.726,416.937l-1.378-.793V393.189l1.378.8Z" transform="translate(-566.348 -391.359)" fill="gray"/>
        </g>
        <path id="Trazado_144699" data-name="Trazado 144699" d="M630.844,428.724c-16.268,9.394-42.644,9.394-58.91,0s-16.268-24.62,0-34.009,42.639-9.395,58.91,0S647.11,419.332,630.844,428.724Z" transform="translate(-559.216 -387.669)" fill="#fff"/>
        <path id="Trazado_144700" data-name="Trazado 144700" d="M641.721,412.083a14.444,14.444,0,0,1-1.416,5.675c-1.789-3.8-5.278-7.4-10.453-10.387-15.838-9.14-41.513-9.14-57.354,0-5.174,2.99-8.658,6.581-10.45,10.387a14.48,14.48,0,0,1-1.412-5.675c-.228-6.152,3.728-12.347,11.862-17.043,15.841-9.142,41.516-9.142,57.354,0C637.986,399.737,641.942,405.931,641.721,412.083Z" transform="translate(-559.003 -387.547)" fill="#575757"/>
        <path id="Trazado_144701" data-name="Trazado 144701" d="M640.031,415.383c-1.789,3.811-5.278,7.406-10.453,10.391-15.838,9.147-41.513,9.147-57.354,0-5.174-2.985-8.658-6.58-10.45-10.391,1.792-3.806,5.277-7.4,10.45-10.387,15.841-9.14,41.516-9.14,57.354,0C634.753,407.986,638.242,411.583,640.031,415.383Z" transform="translate(-558.729 -385.171)" fill="#2b9fe3"/>
        <path id="Trazado_144702" data-name="Trazado 144702" d="M635.633,422.121l0-11.377-.084.088c-.557-4.767-3.988-9.439-10.3-13.083-13.84-7.992-36.283-7.992-50.124,0-6.255,3.612-9.681,8.237-10.283,12.961l-.1.025v11.384a30.708,30.708,0,0,0,6.769,5.184c7.92,4.568,18.294,6.853,28.675,6.853s20.758-2.285,28.676-6.853A30.714,30.714,0,0,0,635.633,422.121Z" transform="translate(-558.02 -386.694)" fill="#575757"/>
        <path id="Trazado_144703" data-name="Trazado 144703" d="M625.253,425.5c-13.84,7.993-36.283,7.993-50.124,0s-13.84-20.947,0-28.939,36.284-7.989,50.124,0S639.094,417.507,625.253,425.5Z" transform="translate(-558.02 -386.978)" fill="#a6a6a6"/>
        <path id="Trazado_144704" data-name="Trazado 144704" d="M634.595,411.419a12.2,12.2,0,0,1-.971,4.241c-1.45-3.437-4.5-6.7-9.15-9.388-13.5-7.8-35.4-7.8-48.9,0-4.652,2.683-7.7,5.95-9.148,9.388a12.206,12.206,0,0,1-.97-4.241c-.223-5.268,3.152-10.581,10.118-14.6,13.5-7.795,35.4-7.795,48.9,0C631.438,400.837,634.812,406.151,634.595,411.419Z" transform="translate(-557.853 -386.882)" fill="#575757"/>
        <path id="Trazado_144705" data-name="Trazado 144705" d="M633.435,413.838c-1.445,3.443-4.493,6.706-9.15,9.389-13.5,7.795-35.4,7.795-48.9,0-4.652-2.683-7.7-5.945-9.148-9.389,1.448-3.437,4.5-6.7,9.148-9.388,13.5-7.8,35.4-7.8,48.9,0C628.935,407.134,631.985,410.4,633.435,413.838Z" transform="translate(-557.664 -385.061)" fill="#2b9fe3"/>
        <path id="Trazado_144706" data-name="Trazado 144706" d="M597.393,409.182a12.4,12.4,0,0,1-3.249.749l25.192,14.545.634-.312.781-1.989Z" transform="translate(-551.006 -382.536)" opacity="0.3"/>
        <g id="Grupo_86473" data-name="Grupo 86473" transform="translate(34.705 19.22)">
          <path id="Trazado_144707" data-name="Trazado 144707" d="M602.27,407.353H602.2a4.087,4.087,0,0,0-2.124-2.486,11.674,11.674,0,0,0-10.557,0,4.07,4.07,0,0,0-2.122,2.486h-.067v9.708h0a3.731,3.731,0,0,0,2.189,3.023,11.673,11.673,0,0,0,10.557,0,3.738,3.738,0,0,0,2.19-3.023h0Z" transform="translate(-587.335 -403.087)" fill="#575757"/>
          <path id="Trazado_144708" data-name="Trazado 144708" d="M600.08,410.544a11.65,11.65,0,0,1-10.557,0c-2.918-1.682-2.918-4.412,0-6.094a11.658,11.658,0,0,1,10.557,0C603,406.132,603,408.862,600.08,410.544Z" transform="translate(-587.335 -403.187)" fill="#a6a6a6"/>
        </g>
        <g id="Grupo_86474" data-name="Grupo 86474" transform="translate(8.71 0.734)">
          <path id="Trazado_144709" data-name="Trazado 144709" d="M589.907,407.918l4.545-2.626v-3.482l-5.012,1.909Z" transform="translate(-560.838 -385.029)" fill="#575757"/>
          <path id="Trazado_144710" data-name="Trazado 144710" d="M595.417,407.388l-24.526-17.945c-.6,2.129-4.543,1.158-4.543,1.158v3.482l29.069,16.787Z" transform="translate(-566.348 -387.98)" fill="gray"/>
          <path id="Trazado_144711" data-name="Trazado 144711" d="M570.891,388.262l-4.542,2.621,29.069,16.787,4.545-2.626Z" transform="translate(-566.348 -388.262)" fill="#a6a6a6"/>
        </g>
        <g id="Grupo_86475" data-name="Grupo 86475" transform="translate(37.739 17.179)">
          <path id="Trazado_144712" data-name="Trazado 144712" d="M598.647,407.4v-3.791h-8.862V407.4h0a2.2,2.2,0,0,0,1.3,1.81,6.932,6.932,0,0,0,6.267,0A2.2,2.2,0,0,0,598.647,407.4Z" transform="translate(-589.785 -401.045)" fill="#575757"/>
          <path id="Trazado_144713" data-name="Trazado 144713" d="M597.35,405.909a6.932,6.932,0,0,1-6.267,0c-1.73-1-1.73-2.62,0-3.622a6.932,6.932,0,0,1,6.267,0C599.082,403.289,599.082,404.911,597.35,405.909Z" transform="translate(-589.785 -401.539)" fill="#a6a6a6"/>
          <path id="Trazado_144714" data-name="Trazado 144714" d="M596.257,404.207a1.462,1.462,0,0,0-.661-.686,3.883,3.883,0,0,0-3.509,0,1.456,1.456,0,0,0-.661.686c-.187-.463.03-.974.661-1.338a3.868,3.868,0,0,1,3.509,0C596.228,403.233,596.444,403.744,596.257,404.207Z" transform="translate(-589.409 -401.322)" fill="#575757"/>
          <path id="Trazado_144715" data-name="Trazado 144715" d="M596.245,404.081a1.454,1.454,0,0,1-.661.688,3.868,3.868,0,0,1-3.509,0,.687.687,0,0,1,0-1.374,3.884,3.884,0,0,1,3.509,0A1.462,1.462,0,0,1,596.245,404.081Z" transform="translate(-589.397 -401.196)" fill="gray"/>
        </g>
        <g id="Grupo_86476" data-name="Grupo 86476" transform="translate(69.746 40.248)">
          <path id="Trazado_144716" data-name="Trazado 144716" d="M621.331,442.035l-4.545,2.623-.262-22.8,4.807-1.692Z" transform="translate(-615.411 -420.164)" fill="#575757"/>
          <path id="Trazado_144717" data-name="Trazado 144717" d="M617,444.36l-1.375-.794V421.7l.829.215.546-.5Z" transform="translate(-615.626 -419.866)" fill="gray"/>
        </g>
        <g id="Grupo_86477" data-name="Grupo 86477" transform="translate(42.055 19.98)">
          <path id="Trazado_144718" data-name="Trazado 144718" d="M616.826,423.458l4.545-2.623v-3.482l-5.009,1.909Z" transform="translate(-587.759 -400.566)" fill="#575757"/>
          <path id="Trazado_144719" data-name="Trazado 144719" d="M622.336,422.93l-24.525-17.945c-.6,2.128-4.542,1.158-4.542,1.158v3.48l29.067,16.786Z" transform="translate(-593.269 -403.517)" fill="gray"/>
          <path id="Trazado_144720" data-name="Trazado 144720" d="M597.811,403.8a2.153,2.153,0,0,1-1.292,1.879,6.438,6.438,0,0,1-3.25.747l29.067,16.787,4.544-2.626Z" transform="translate(-593.269 -403.8)" fill="#a6a6a6"/>
        </g>
      </g>
      <g id="Grupo_86490" data-name="Grupo 86490" transform="translate(628.506 349.004)">
        <g id="Grupo_86481" data-name="Grupo 86481" transform="translate(82.119 24.38)">
          <g id="Grupo_86479" data-name="Grupo 86479" transform="translate(0 23.134)">
            <path id="Trazado_144721" data-name="Trazado 144721" d="M669.853,384.89h4.1a12.611,12.611,0,0,1,6.815,0h4.1V386.1h0a3.728,3.728,0,0,1-2.195,3.064,11.737,11.737,0,0,1-10.624,0,3.732,3.732,0,0,1-2.2-3.064h0Z" transform="translate(-669.852 -380.556)" fill="gray"/>
            <path id="Trazado_144722" data-name="Trazado 144722" d="M672.053,388.7a11.759,11.759,0,0,0,10.623,0c2.927-1.694,2.927-4.439,0-6.134a11.767,11.767,0,0,0-10.623,0C669.119,384.263,669.119,387.007,672.053,388.7Z" transform="translate(-669.852 -381.301)" fill="#a6a6a6"/>
          </g>
          <g id="Grupo_86480" data-name="Grupo 86480" transform="translate(0.41)">
            <path id="Trazado_144723" data-name="Trazado 144723" d="M670.183,369.649h3.883a11.887,11.887,0,0,1,6.437,0h3.878V388.29h0a3.527,3.527,0,0,1-2.077,2.9,11.1,11.1,0,0,1-10.039,0,3.524,3.524,0,0,1-2.082-2.9h0Z" transform="translate(-670.183 -361.054)" fill="#fff"/>
            <path id="Trazado_144724" data-name="Trazado 144724" d="M684.127,369.711l-1.984-5.236h-9.721l-1.986,5.236c-.64,1.365-.036,2.888,1.827,3.965a11.119,11.119,0,0,0,10.039,0C684.16,372.6,684.767,371.076,684.127,369.711Z" transform="translate(-670.181 -362.182)" fill="#dae5f8"/>
            <path id="Trazado_144725" data-name="Trazado 144725" d="M670.183,377.009a3.52,3.52,0,0,0,2.082,2.9,11.08,11.08,0,0,0,10.039,0,3.523,3.523,0,0,0,2.077-2.9h0v.577a3.526,3.526,0,0,1-2.077,2.893,11.08,11.08,0,0,1-10.039,0,3.523,3.523,0,0,1-2.082-2.893v-.577Z" transform="translate(-670.183 -359.191)" fill="#dae5f8"/>
            <path id="Trazado_144726" data-name="Trazado 144726" d="M670.183,379.724a3.533,3.533,0,0,0,2.082,2.9,11.1,11.1,0,0,0,10.039,0,3.536,3.536,0,0,0,2.077-2.9h0v.575a3.524,3.524,0,0,1-2.077,2.9,11.088,11.088,0,0,1-10.039,0,3.521,3.521,0,0,1-2.082-2.9v-.575Z" transform="translate(-670.183 -358.544)" fill="#dae5f8"/>
            <path id="Trazado_144727" data-name="Trazado 144727" d="M680.377,363.46a7.774,7.774,0,0,0-7.014,0c-1.187.686-1.645,1.632-1.38,2.521a2.809,2.809,0,0,0,1.38,1.533,7.743,7.743,0,0,0,7.014,0,2.8,2.8,0,0,0,1.382-1.533C682.028,365.093,681.564,364.146,680.377,363.46Z" transform="translate(-669.771 -362.624)" fill="#fff"/>
          </g>
        </g>
        <g id="Grupo_86484" data-name="Grupo 86484" transform="translate(39.895)">
          <g id="Grupo_86482" data-name="Grupo 86482" transform="translate(0 23.134)">
            <path id="Trazado_144728" data-name="Trazado 144728" d="M635.763,365.209h4.1a12.487,12.487,0,0,1,6.807,0h4.1v1.209h0a3.726,3.726,0,0,1-2.2,3.067,11.747,11.747,0,0,1-10.621,0,3.726,3.726,0,0,1-2.2-3.067h0Z" transform="translate(-635.763 -360.874)" fill="gray"/>
            <path id="Trazado_144729" data-name="Trazado 144729" d="M637.962,369.018a11.732,11.732,0,0,0,10.621,0c2.929-1.69,2.929-4.437,0-6.129a11.731,11.731,0,0,0-10.621,0C635.03,364.581,635.03,367.328,637.962,369.018Z" transform="translate(-635.763 -361.618)" fill="#a6a6a6"/>
          </g>
          <g id="Grupo_86483" data-name="Grupo 86483" transform="translate(0.413)">
            <path id="Trazado_144730" data-name="Trazado 144730" d="M636.1,349.967h3.881a11.878,11.878,0,0,1,6.435,0h3.876v18.645h0a3.516,3.516,0,0,1-2.078,2.893,11.088,11.088,0,0,1-10.035,0,3.524,3.524,0,0,1-2.077-2.893h0Z" transform="translate(-636.096 -341.371)" fill="#fff"/>
            <path id="Trazado_144731" data-name="Trazado 144731" d="M650.039,350.029l-1.984-5.236h-9.723l-1.988,5.236c-.638,1.368-.031,2.888,1.83,3.962a11.1,11.1,0,0,0,10.035,0C650.069,352.917,650.674,351.4,650.039,350.029Z" transform="translate(-636.095 -342.499)" fill="#dae5f8"/>
            <path id="Trazado_144732" data-name="Trazado 144732" d="M636.1,357.327a3.524,3.524,0,0,0,2.077,2.9,11.081,11.081,0,0,0,10.035,0,3.516,3.516,0,0,0,2.078-2.9h0v.575a3.509,3.509,0,0,1-2.078,2.893,11.081,11.081,0,0,1-10.035,0A3.518,3.518,0,0,1,636.1,357.9v-.575Z" transform="translate(-636.096 -339.508)" fill="#dae5f8"/>
            <path id="Trazado_144733" data-name="Trazado 144733" d="M636.1,360.044a3.534,3.534,0,0,0,2.077,2.9,11.088,11.088,0,0,0,10.035,0,3.525,3.525,0,0,0,2.078-2.9h0v.572a3.517,3.517,0,0,1-2.078,2.9,11.081,11.081,0,0,1-10.035,0,3.526,3.526,0,0,1-2.077-2.9v-.572Z" transform="translate(-636.096 -338.86)" fill="#dae5f8"/>
            <path id="Trazado_144734" data-name="Trazado 144734" d="M646.289,343.781a7.746,7.746,0,0,0-7.016,0c-1.189.684-1.649,1.628-1.378,2.516a2.768,2.768,0,0,0,1.378,1.533,7.731,7.731,0,0,0,7.016,0,2.8,2.8,0,0,0,1.383-1.533C647.935,345.408,647.478,344.464,646.289,343.781Z" transform="translate(-635.685 -342.941)" fill="#fff"/>
          </g>
        </g>
        <g id="Grupo_86485" data-name="Grupo 86485" transform="translate(0 25.625)">
          <path id="Trazado_144735" data-name="Trazado 144735" d="M692.716,396.229l-32.7,18.878-56.467-32.6,32.7-18.878Z" transform="translate(-603.554 -363.629)" fill="#fff"/>
          <path id="Trazado_144736" data-name="Trazado 144736" d="M630.092,364.667l11.957,6.9-1.44.83-10.517-6.069Z" transform="translate(-597.221 -363.382)" fill="#dae5f8"/>
          <path id="Trazado_144737" data-name="Trazado 144737" d="M636,366.328l-29.2,16.863-1.442-.83L636,364.667Z" transform="translate(-603.125 -363.382)" fill="#b4caed"/>
          <path id="Trazado_144738" data-name="Trazado 144738" d="M646.235,372.077l-29.207,16.865-10.512-6.071,29.2-16.863Z" transform="translate(-602.847 -363.062)" fill="#003552"/>
          <path id="Trazado_144739" data-name="Trazado 144739" d="M641.378,371.182l11.955,6.9-1.44.828-10.515-6.071Z" transform="translate(-594.528 -361.827)" fill="#dae5f8"/>
          <path id="Trazado_144740" data-name="Trazado 144740" d="M647.282,372.841l-29.2,16.863-1.442-.83,30.647-17.691Z" transform="translate(-600.432 -361.827)" fill="#b4caed"/>
          <path id="Trazado_144741" data-name="Trazado 144741" d="M657.519,378.592l-29.207,16.865L617.8,389.384,647,372.521Z" transform="translate(-600.154 -361.508)" fill="#00537d"/>
          <path id="Trazado_144742" data-name="Trazado 144742" d="M652.662,377.7l11.954,6.9-1.44.831-10.515-6.071Z" transform="translate(-591.835 -360.273)" fill="#dae5f8"/>
          <path id="Trazado_144743" data-name="Trazado 144743" d="M658.566,379.355l-29.205,16.863-1.442-.828L658.566,377.7Z" transform="translate(-597.74 -360.273)" fill="#b4caed"/>
          <path id="Trazado_144744" data-name="Trazado 144744" d="M668.8,385.107l-29.21,16.863-10.51-6.071,29.2-16.863Z" transform="translate(-597.462 -359.953)" fill="#1078ad"/>
          <path id="Trazado_144745" data-name="Trazado 144745" d="M663.946,384.209l11.954,6.9-1.437.83-10.517-6.073Z" transform="translate(-589.143 -358.719)" fill="#dae5f8"/>
          <path id="Trazado_144746" data-name="Trazado 144746" d="M669.85,385.868l-29.2,16.865-1.439-.83,30.644-17.694Z" transform="translate(-595.047 -358.719)" fill="#b4caed"/>
          <path id="Trazado_144747" data-name="Trazado 144747" d="M680.09,391.622l-29.21,16.861-10.513-6.069,29.2-16.865Z" transform="translate(-594.769 -358.399)" fill="#2b9fe3"/>
          <path id="Trazado_144748" data-name="Trazado 144748" d="M660.021,414.156l-56.467-32.6V378.87l56.467,32.6Z" transform="translate(-603.554 -359.993)" fill="#dae5f8"/>
          <path id="Trazado_144749" data-name="Trazado 144749" d="M649.142,411.513l32.7-18.878v-2.687l-32.7,18.878Z" transform="translate(-592.675 -357.349)" fill="#b4caed"/>
        </g>
        <g id="Grupo_86487" data-name="Grupo 86487" transform="translate(74.527 45.93)">
          <g id="Grupo_86486" data-name="Grupo 86486" transform="translate(8.762)">
            <path id="Trazado_144750" data-name="Trazado 144750" d="M671.459,380.081l-.458.261,1.23,2.129.456-.26h0a.623.623,0,0,0,.258-.566,1.93,1.93,0,0,0-.872-1.5A.608.608,0,0,0,671.459,380.081Z" transform="translate(-670.748 -380.023)" fill="#517fa2"/>
            <path id="Trazado_144751" data-name="Trazado 144751" d="M671.664,380.353a1.927,1.927,0,0,1,.871,1.507c0,.551-.389.779-.871.5a1.915,1.915,0,0,1-.867-1.507C670.8,380.3,671.185,380.077,671.664,380.353Z" transform="translate(-670.797 -379.972)" fill="#295e87"/>
          </g>
          <path id="Trazado_144752" data-name="Trazado 144752" d="M664.134,391.891a2.176,2.176,0,0,0,1.993,0,.6.6,0,0,0,0-1.146,2.2,2.2,0,0,0-1.993,0A.6.6,0,0,0,664.134,391.891Z" transform="translate(-663.723 -377.521)" opacity="0.3"/>
          <path id="Trazado_144753" data-name="Trazado 144753" d="M667.274,383.587l5.4-3.134a.512.512,0,0,1,.538.048,1.645,1.645,0,0,1,.748,1.292.519.519,0,0,1-.228.489v0l-5.393,3.139a5.118,5.118,0,0,0-2.243,3.883v4.35h-.005a.517.517,0,0,1-.311.429,1.65,1.65,0,0,1-1.492,0,.524.524,0,0,1-.312-.429h0v-4.35A7.212,7.212,0,0,1,667.274,383.587Z" transform="translate(-663.663 -379.933)" fill="#f5a52e"/>
        </g>
        <g id="Grupo_86489" data-name="Grupo 86489" transform="translate(32.302 21.551)">
          <g id="Grupo_86488" data-name="Grupo 86488" transform="translate(8.759)">
            <path id="Trazado_144754" data-name="Trazado 144754" d="M637.369,360.4l-.457.264,1.228,2.132.457-.265h0a.613.613,0,0,0,.254-.561,1.918,1.918,0,0,0-.869-1.507A.613.613,0,0,0,637.369,360.4Z" transform="translate(-636.654 -360.341)" fill="#517fa2"/>
            <path id="Trazado_144755" data-name="Trazado 144755" d="M637.573,360.671a1.924,1.924,0,0,1,.871,1.507c0,.554-.39.779-.871.5a1.927,1.927,0,0,1-.87-1.5C636.7,360.618,637.1,360.394,637.573,360.671Z" transform="translate(-636.704 -360.29)" fill="#295e87"/>
          </g>
          <path id="Trazado_144756" data-name="Trazado 144756" d="M630.046,372.211a2.2,2.2,0,0,0,1.988,0,.606.606,0,0,0,0-1.148,2.188,2.188,0,0,0-1.988,0A.605.605,0,0,0,630.046,372.211Z" transform="translate(-629.632 -357.839)" opacity="0.3"/>
          <path id="Trazado_144757" data-name="Trazado 144757" d="M633.19,363.905l5.392-3.134a.522.522,0,0,1,.538.046,1.666,1.666,0,0,1,.748,1.3.522.522,0,0,1-.232.487h0l-5.389,3.136a5.13,5.13,0,0,0-2.242,3.891v4.345H632a.523.523,0,0,1-.313.433,1.661,1.661,0,0,1-1.49,0,.53.53,0,0,1-.311-.433h0v-4.345A7.206,7.206,0,0,1,633.19,363.905Z" transform="translate(-629.573 -360.251)" fill="#f5a52e"/>
        </g>
      </g>
    </g>
  </g>
</svg>
