<svg xmlns="http://www.w3.org/2000/svg" xmlns:xlink="http://www.w3.org/1999/xlink" width="152" height="215" viewBox="0 0 152 215">
  <defs>
    <clipPath id="clip-path">
      <rect id="Rect치ngulo_32768" data-name="Rect치ngulo 32768" width="152" height="152" transform="translate(12556 -9544)" fill="#fff" stroke="#707070" stroke-width="1"/>
    </clipPath>
  </defs>
  <g id="Grupo_87487" data-name="Grupo 87487" transform="translate(-12187 10150)">
    <rect id="Rect치ngulo_32769" data-name="Rect치ngulo 32769" width="98" height="215" transform="translate(12214 -10150)" fill="#8ad24a"/>
    <g id="Enmascarar_grupo_84" data-name="Enmascarar grupo 84" transform="translate(-369 -571)" clip-path="url(#clip-path)">
      <g id="nevera-portatil" transform="translate(12556 -9544)">
        <path id="Trazado_146997" data-name="Trazado 146997" d="M88.395,55.206H2.227v56.539a9.417,9.417,0,0,0,9.387,8.66H140.386a9.417,9.417,0,0,0,9.387-8.66V55.206Z" fill="#dff6fd"/>
        <path id="Trazado_146998" data-name="Trazado 146998" d="M149.773,38.34H2.227V31.086a9.934,9.934,0,0,1,9.934-9.934H139.839a9.934,9.934,0,0,1,9.934,9.934Z" fill="#dff6fd"/>
        <path id="Trazado_146999" data-name="Trazado 146999" d="M149.774,55.207v56.537a9.419,9.419,0,0,1-9.387,8.66h-8.612a9.417,9.417,0,0,0,9.387-8.66V55.207Z" fill="#99e6fc"/>
        <path id="Trazado_147000" data-name="Trazado 147000" d="M149.774,31.087v7.252h-8.612V31.087a9.931,9.931,0,0,0-9.934-9.934h8.612a9.933,9.933,0,0,1,9.934,9.934Z" fill="#99e6fc"/>
        <path id="Trazado_147001" data-name="Trazado 147001" d="M2.227,38.34H149.773V55.206H2.227Z" fill="#fee8c7"/>
        <path id="Trazado_147002" data-name="Trazado 147002" d="M140.774,38.34h9V55.206h-9Z" fill="#fedba6"/>
        <path id="Trazado_147003" data-name="Trazado 147003" d="M135.362,130.848H16.734a4.078,4.078,0,0,1-4.078-4.078v-6.364H139.44v6.364A4.079,4.079,0,0,1,135.362,130.848Z" fill="#01d0fb"/>
        <path id="Trazado_147004" data-name="Trazado 147004" d="M12.656,120.405H139.439v5.221H12.656Z" fill="#01c0fa"/>
        <g id="Grupo_87345" data-name="Grupo 87345">
          <path id="Trazado_147005" data-name="Trazado 147005" d="M39.9,120.405H24.455V93.77a7.721,7.721,0,0,1,15.441,0v26.636Z" fill="#99e6fc"/>
          <path id="Trazado_147006" data-name="Trazado 147006" d="M69.144,120.405H53.7V93.77a7.721,7.721,0,0,1,15.441,0Z" fill="#99e6fc"/>
          <path id="Trazado_147007" data-name="Trazado 147007" d="M98.393,120.405H82.952V93.77a7.721,7.721,0,0,1,15.441,0Z" fill="#99e6fc"/>
          <path id="Trazado_147008" data-name="Trazado 147008" d="M127.641,120.405H112.2V93.77a7.721,7.721,0,1,1,15.441,0Z" fill="#99e6fc"/>
        </g>
        <path id="Trazado_147009" data-name="Trazado 147009" d="M39.9,93.769V120.4h-5.99V93.769a7.73,7.73,0,0,0-4.725-7.118A7.719,7.719,0,0,1,39.9,93.769Z" fill="#62dbfb"/>
        <path id="Trazado_147010" data-name="Trazado 147010" d="M69.143,93.769V120.4H63.156V93.769a7.718,7.718,0,0,0-4.725-7.118,7.718,7.718,0,0,1,10.712,7.118Z" fill="#62dbfb"/>
        <path id="Trazado_147011" data-name="Trazado 147011" d="M98.392,93.769V120.4H92.4V93.769A7.73,7.73,0,0,0,87.68,86.65a7.718,7.718,0,0,1,10.712,7.118Z" fill="#62dbfb"/>
        <path id="Trazado_147012" data-name="Trazado 147012" d="M127.64,93.769V120.4h-5.99V93.769a7.718,7.718,0,0,0-4.725-7.118,7.719,7.719,0,0,1,10.715,7.118Z" fill="#62dbfb"/>
        <path id="Trazado_147013" data-name="Trazado 147013" d="M36.616,58.8H24.273a2.453,2.453,0,0,1-2.453-2.453V37.2a2.453,2.453,0,0,1,2.453-2.453H36.616A2.453,2.453,0,0,1,39.069,37.2V56.345A2.453,2.453,0,0,1,36.616,58.8Z" fill="#9c9c9c"/>
        <path id="Trazado_147014" data-name="Trazado 147014" d="M127.823,58.8H115.48a2.453,2.453,0,0,1-2.453-2.453V37.2a2.453,2.453,0,0,1,2.453-2.453h12.343a2.453,2.453,0,0,1,2.453,2.453V56.345A2.453,2.453,0,0,1,127.823,58.8Z" fill="#9c9c9c"/>
        <path id="Trazado_147015" data-name="Trazado 147015" d="M58.98,38.34l1.66,5.686a3.591,3.591,0,0,0,3.491,2.747H87.965a3.591,3.591,0,0,0,3.491-2.747l1.66-5.686Z" fill="#fece85"/>
        <path id="Trazado_147016" data-name="Trazado 147016" d="M139.838,18.925H53.529a2.227,2.227,0,0,0,0,4.455h86.309a7.716,7.716,0,0,1,7.707,7.707v5.027H132.37a4.685,4.685,0,0,0-4.547-3.591H115.48a4.685,4.685,0,0,0-4.547,3.591H41.163a4.685,4.685,0,0,0-4.547-3.591H24.273a4.685,4.685,0,0,0-4.547,3.591H4.455V31.086a7.716,7.716,0,0,1,7.707-7.707H43.284a2.227,2.227,0,1,0,0-4.455H12.162A12.175,12.175,0,0,0,0,31.086v80.659q0,.09.007.179A11.717,11.717,0,0,0,10.428,122.57v4.2a6.313,6.313,0,0,0,6.306,6.306h9.523a2.227,2.227,0,0,0,0-4.455H16.734a1.853,1.853,0,0,1-1.851-1.851v-4.137h122.33v4.137a1.853,1.853,0,0,1-1.851,1.851H36.5a2.227,2.227,0,0,0,0,4.455h98.859a6.313,6.313,0,0,0,6.306-6.306v-4.211a11.716,11.716,0,0,0,10.325-10.634c.005-.06.007-.119.007-.179V31.086a12.175,12.175,0,0,0-12.162-12.162ZM115.255,37.2a.226.226,0,0,1,.226-.226h12.343a.226.226,0,0,1,.226.226V56.345a.226.226,0,0,1-.226.226H115.48a.226.226,0,0,1-.226-.226ZM90.145,40.567,89.318,43.4c-.01.033-.019.067-.027.1a1.36,1.36,0,0,1-1.326,1.044H64.131A1.36,1.36,0,0,1,62.805,43.5c-.008-.034-.017-.068-.027-.1l-.828-2.834Zm-48.849,0H57.31l1.18,4.039A5.8,5.8,0,0,0,64.131,49H87.965a5.8,5.8,0,0,0,5.642-4.395l1.179-4.039H110.8V52.979H41.3ZM24.047,37.2a.226.226,0,0,1,.226-.226H36.616a.226.226,0,0,1,.226.226V56.345a.226.226,0,0,1-.226.226H24.273a.226.226,0,0,1-.226-.226V37.2ZM4.455,40.567H19.593V52.979H4.455Zm33.214,77.611H26.682V93.77a5.493,5.493,0,0,1,10.987,0v24.408Zm29.248,0H55.93V93.77a5.493,5.493,0,0,1,10.987,0Zm58.5,0H114.427V93.77a5.493,5.493,0,1,1,10.986,0Zm22.132-6.528a7.229,7.229,0,0,1-7.16,6.528H129.868V93.77a9.948,9.948,0,1,0-19.9,0v24.408H100.62V104.005a2.227,2.227,0,1,0-4.455,0v14.173H85.179V93.77a5.493,5.493,0,0,1,10.987,0,2.227,2.227,0,0,0,4.455,0,9.948,9.948,0,1,0-19.9,0v24.408H71.372V93.77a9.948,9.948,0,1,0-19.9,0v24.408H42.123V93.77a9.948,9.948,0,0,0-19.9,0v24.408H11.614a7.23,7.23,0,0,1-7.16-6.528V57.434H19.726a4.685,4.685,0,0,0,4.547,3.592H36.616a4.685,4.685,0,0,0,4.547-3.592h69.77a4.685,4.685,0,0,0,4.547,3.592h12.343a4.685,4.685,0,0,0,4.547-3.592h15.175V111.65Zm0-58.671H132.5V40.567h15.042Z" fill="#0f2771"/>
      </g>
    </g>
  </g>
</svg>
