<svg xmlns="http://www.w3.org/2000/svg" xmlns:xlink="http://www.w3.org/1999/xlink" width="152" height="215" viewBox="0 0 152 215">
  <defs>
    <clipPath id="clip-path">
      <rect id="Rect치ngulo_32794" data-name="Rect치ngulo 32794" width="152" height="152" transform="translate(11952 -8724)" fill="#fff" stroke="#707070" stroke-width="1"/>
    </clipPath>
  </defs>
  <g id="Grupo_87495" data-name="Grupo 87495" transform="translate(-11583 9332)">
    <rect id="Rect치ngulo_32793" data-name="Rect치ngulo 32793" width="98" height="215" transform="translate(11610 -9332)" fill="#8ad24a"/>
    <g id="Enmascarar_grupo_92" data-name="Enmascarar grupo 92" transform="translate(-369 -573)" clip-path="url(#clip-path)">
      <g id="agua" transform="translate(11952 -8724)">
        <path id="Trazado_147111" data-name="Trazado 147111" d="M136.859,149.031H116.078l-4.453-36.219h29.687Z" fill="#fff"/>
        <path id="Trazado_147112" data-name="Trazado 147112" d="M84.906,26.719H67.094a5.937,5.937,0,0,1-5.937-5.937V14.844H78.969a5.937,5.937,0,0,1,5.937,5.937Z" fill="#cbf4fb"/>
        <path id="Trazado_147113" data-name="Trazado 147113" d="M96.781,38.594H78.969a5.937,5.937,0,0,1-5.937-5.937V26.719H90.844a5.937,5.937,0,0,1,5.937,5.937Z" fill="#fff"/>
        <path id="Trazado_147114" data-name="Trazado 147114" d="M108.656,50.469H90.844a5.937,5.937,0,0,1-5.937-5.937V38.594h17.812a5.937,5.937,0,0,1,5.937,5.937Z" fill="#cbf4fb"/>
        <path id="Trazado_147115" data-name="Trazado 147115" d="M120.531,62.344H102.719a5.937,5.937,0,0,1-5.937-5.937V50.469h17.812a5.937,5.937,0,0,1,5.937,5.937Z" fill="#fff"/>
        <path id="Trazado_147116" data-name="Trazado 147116" d="M108.656,62.344v5.937a5.937,5.937,0,0,0,5.937,5.937h5.937V86.094h11.875V68.281a5.937,5.937,0,0,0-5.937-5.937Z" fill="#cbf4fb"/>
        <path id="Trazado_147117" data-name="Trazado 147117" d="M37.406,14.844v57L10.687,84.609v64.422H76V84.609L49.281,71.844v-57h23.75V8.906a5.937,5.937,0,0,0-5.937-5.937H49.281A11.875,11.875,0,0,0,37.406,14.844Z" fill="#fff"/>
        <g id="Grupo_87400" data-name="Grupo 87400">
          <path id="Trazado_147118" data-name="Trazado 147118" d="M139.659,126.267l-2.8,22.764H116.078l-2.8-22.764a18.064,18.064,0,0,1,4.878,1.835,16.63,16.63,0,0,0,16.625,0A18.064,18.064,0,0,1,139.659,126.267Z" fill="#cbf4fb"/>
          <path id="Trazado_147119" data-name="Trazado 147119" d="M25.531,48.094H37.406V59.969H25.531Z" fill="#cbf4fb"/>
          <path id="Trazado_147120" data-name="Trazado 147120" d="M49.281,48.094H61.156V59.969H49.281Z" fill="#cbf4fb"/>
          <path id="Trazado_147121" data-name="Trazado 147121" d="M76,125.281H87.875v11.875H76Z" fill="#cbf4fb"/>
        </g>
        <path id="Trazado_147122" data-name="Trazado 147122" d="M76,117.254v31.777H10.687V117.254a18.124,18.124,0,0,0,7.719-2.215,17.983,17.983,0,0,1,8.312-2.227,17.983,17.983,0,0,1,8.312,2.227,17.983,17.983,0,0,0,8.312,2.227,17.983,17.983,0,0,0,8.312-2.227,17.983,17.983,0,0,1,8.312-2.227,17.983,17.983,0,0,1,8.312,2.227A18.124,18.124,0,0,0,76,117.254Z" fill="#98eaf9"/>
        <path id="Trazado_147123" data-name="Trazado 147123" d="M132.406,106.875a5.937,5.937,0,0,1-11.875,0c0-3.279,5.937-8.906,5.937-8.906S132.406,103.6,132.406,106.875Z" fill="#98eaf9"/>
        <g id="Grupo_87401" data-name="Grupo 87401">
          <path id="Trazado_147124" data-name="Trazado 147124" d="M143.536,110.845a2.968,2.968,0,0,0-2.224-1h-6.448a8.864,8.864,0,0,0,.511-2.969c0-4.227-5.254-9.535-6.864-11.061a2.969,2.969,0,0,0-4.084,0c-1.61,1.526-6.864,6.834-6.864,11.061a8.864,8.864,0,0,0,.511,2.969h-6.448a2.969,2.969,0,0,0-2.946,3.331l4.453,36.219A2.969,2.969,0,0,0,116.078,152h20.781a2.969,2.969,0,0,0,2.946-2.607l4.453-36.219a2.968,2.968,0,0,0-.723-2.329Zm-17.066-8.577c1.653,1.907,2.927,3.829,2.967,4.61a2.969,2.969,0,0,1-5.937,0c.037-.775,1.315-2.7,2.97-4.612Zm7.763,43.793H118.7l-1.882-15.3a19.6,19.6,0,0,0,19.292,0Zm2.72-22.125a19.617,19.617,0,0,0-3.7,1.616,13.664,13.664,0,0,1-13.578,0,19.642,19.642,0,0,0-3.7-1.616l-1-8.156h22.975Z" fill="#0f2771"/>
          <path id="Trazado_147125" data-name="Trazado 147125" d="M117.562,77.187v8.906a2.969,2.969,0,0,0,2.969,2.969h11.875a2.969,2.969,0,0,0,2.969-2.969V68.281a8.916,8.916,0,0,0-8.906-8.906H123.5V56.406a8.916,8.916,0,0,0-8.906-8.906h-2.969V44.531a8.916,8.916,0,0,0-8.906-8.906H99.75V32.656a8.916,8.916,0,0,0-8.906-8.906H87.875V20.781a8.916,8.916,0,0,0-8.906-8.906H76V8.906A8.909,8.909,0,0,0,67.094,0H49.281A14.833,14.833,0,0,0,34.437,14.844V45.125H25.531a2.969,2.969,0,0,0-2.969,2.969V59.969a2.969,2.969,0,0,0,2.969,2.969h8.906V69.97L9.408,81.931a2.98,2.98,0,0,0-1.689,2.678v64.422A2.97,2.97,0,0,0,10.687,152H76a2.97,2.97,0,0,0,2.969-2.969v-8.906h8.906a2.969,2.969,0,0,0,2.969-2.969V125.281a2.969,2.969,0,0,0-2.969-2.969H78.969V111.251a2.969,2.969,0,0,0-5.937,0v2.531a15.211,15.211,0,0,1-3.226-1.29,21.1,21.1,0,0,0-5.593-2.144,10.046,10.046,0,0,0,.21-1.988,11.268,11.268,0,0,0-2.072-6.225,5.484,5.484,0,0,1-.9-2.68,6.959,6.959,0,0,1,1.007-3.136,2.969,2.969,0,0,0-4.983-3.229,12.9,12.9,0,0,0-1.961,6.364,11.268,11.268,0,0,0,2.072,6.225,5.484,5.484,0,0,1,.9,2.68,5.109,5.109,0,0,1-.294,1.577,21.358,21.358,0,0,0-8.046,2.548,14.459,14.459,0,0,1-2.376,1.032c.018-.232.03-.466.03-.7a11.268,11.268,0,0,0-2.072-6.225,5.484,5.484,0,0,1-.9-2.68,6.959,6.959,0,0,1,1.007-3.136,2.969,2.969,0,0,0-4.983-3.229,12.9,12.9,0,0,0-1.961,6.364,11.268,11.268,0,0,0,2.072,6.225,5.484,5.484,0,0,1,.9,2.68,4.842,4.842,0,0,1-.226,1.36,15.559,15.559,0,0,1-5.079-1.681,21.1,21.1,0,0,0-5.593-2.144,10.046,10.046,0,0,0,.21-1.988,11.268,11.268,0,0,0-2.072-6.225,5.481,5.481,0,0,1-.9-2.68,6.959,6.959,0,0,1,1.007-3.136,2.969,2.969,0,0,0-4.983-3.229,12.908,12.908,0,0,0-1.961,6.364,11.268,11.268,0,0,0,2.072,6.225,5.484,5.484,0,0,1,.9,2.681,5.109,5.109,0,0,1-.294,1.577,21.364,21.364,0,0,0-8.057,2.555,15.1,15.1,0,0,1-3.226,1.291V86.48l20.781-9.928v7.167a2.969,2.969,0,0,0,5.937,0V14.844a8.94,8.94,0,0,1,8.906-8.906H67.094a2.981,2.981,0,0,1,2.969,2.969v2.969H49.281a2.97,2.97,0,0,0-2.969,2.969V83.719a2.969,2.969,0,0,0,5.937,0V76.551l22.4,10.7a2.942,2.942,0,0,0,1.277.291A2.968,2.968,0,0,0,77.211,81.9a0,0,0,0,0,0,0L52.25,69.97V62.937h8.906a2.969,2.969,0,0,0,2.969-2.969V48.094a2.969,2.969,0,0,0-2.969-2.969H52.25V17.812h5.937v2.969a8.916,8.916,0,0,0,8.906,8.906h2.969v2.969a8.916,8.916,0,0,0,8.906,8.906h2.969v2.969a8.916,8.916,0,0,0,8.906,8.906h2.969v2.969a8.916,8.916,0,0,0,8.906,8.906h2.969v2.969a8.916,8.916,0,0,0,8.906,8.906ZM78.969,128.25h5.937v5.937H78.969Zm-59.05-10.657a15.137,15.137,0,0,1,6.8-1.812,15.136,15.136,0,0,1,6.789,1.806,21.061,21.061,0,0,0,9.836,2.648,21.057,21.057,0,0,0,9.825-2.641,15.137,15.137,0,0,1,6.8-1.812,15.136,15.136,0,0,1,6.789,1.806,21.308,21.308,0,0,0,6.274,2.29v26.185H13.656V119.877A21.285,21.285,0,0,0,19.919,117.593ZM34.437,57H28.5V51.062h5.937Zm23.75-5.937V57H52.25V51.062ZM67.094,23.75a2.972,2.972,0,0,1-2.969-2.969V17.812H78.969a2.972,2.972,0,0,1,2.969,2.969V23.75ZM78.969,35.625A2.972,2.972,0,0,1,76,32.656V29.687H90.844a2.972,2.972,0,0,1,2.969,2.969v2.969ZM90.844,47.5a2.972,2.972,0,0,1-2.969-2.969V41.562h14.844a2.972,2.972,0,0,1,2.969,2.969V47.5Zm11.875,11.875a2.972,2.972,0,0,1-2.969-2.969V53.437h14.844a2.972,2.972,0,0,1,2.969,2.969v2.969Zm8.906,8.906V65.312h14.844a2.972,2.972,0,0,1,2.969,2.969V83.125H123.5V74.219a2.969,2.969,0,0,0-2.969-2.969h-5.937A2.972,2.972,0,0,1,111.625,68.281Z" fill="#0f2771"/>
          <path id="Trazado_147126" data-name="Trazado 147126" d="M76,94.926a2.967,2.967,0,1,0,2.969,2.966A2.971,2.971,0,0,0,76,94.926Z" fill="#0f2771"/>
        </g>
      </g>
    </g>
  </g>
</svg>
