<svg xmlns="http://www.w3.org/2000/svg" xmlns:xlink="http://www.w3.org/1999/xlink" width="154" height="215" viewBox="0 0 154 215">
  <defs>
    <clipPath id="clip-path">
      <rect id="Rect치ngulo_32826" data-name="Rect치ngulo 32826" width="154" height="152" transform="translate(11952 -8306)" fill="#fff" stroke="#707070" stroke-width="1"/>
    </clipPath>
  </defs>
  <g id="Grupo_87500" data-name="Grupo 87500" transform="translate(-11583 8921)">
    <rect id="Rect치ngulo_32818" data-name="Rect치ngulo 32818" width="98" height="215" transform="translate(11610 -8921)" fill="#8ad24a"/>
    <g id="Enmascarar_grupo_96" data-name="Enmascarar grupo 96" transform="translate(-369 -580)" clip-path="url(#clip-path)">
      <g id="botas" transform="translate(11947.896 -8311.065)">
        <path id="Trazado_147171" data-name="Trazado 147171" d="M67.774,78.293,95.3,13.028a108.527,108.527,0,0,0-29.7-4.9L43.915,7.6l-21.9,70.127L15.187,93.782A37.452,37.452,0,0,0,12.2,109.163L96.84,135.589l4.908-15.716a9.182,9.182,0,0,0-5.31-11.242l-19.345-7.857a17.1,17.1,0,0,1-9.32-22.483Z" fill="#a6ef65"/>
        <path id="Trazado_147172" data-name="Trazado 147172" d="M92.31,150.1l-38.691-12.08,1.51-4.836-21.764-6.8-1.51,4.836L7.673,123.673l4.53-14.509L96.84,135.59Z" fill="#eb9840"/>
        <path id="Trazado_147173" data-name="Trazado 147173" d="M95.3,13.028a108.527,108.527,0,0,0-29.7-4.9L43.915,7.6l-6.04,19.345L83.43,41.169Z" fill="#c9ff98"/>
        <path id="Trazado_147174" data-name="Trazado 147174" d="M101.115,112.877a9.183,9.183,0,0,0-4.677-4.243l-19.345-7.857a17.1,17.1,0,0,1-9.319-22.483l5.781-13.708-4.69-1.425a6.428,6.428,0,0,0-7.33,2.673l-6.393,10a15.853,15.853,0,0,1-28.417-3.588l-1.536-4.671L22.019,77.727l-5,11.756,8.191,2.508a12.974,12.974,0,0,1,8.517,16.251l-2.16,6.967,65.278,20.382,4.908-15.716a9.181,9.181,0,0,0-.635-7Z" fill="#2a6377"/>
        <path id="Trazado_147175" data-name="Trazado 147175" d="M109.71,93.3l6.823-70.5a108.521,108.521,0,0,0-29.815,4.176L65.866,32.933V106.4L64.13,123.761a37.456,37.456,0,0,0,1.736,15.571h88.666V122.869a9.18,9.18,0,0,0-8.418-9.149l-20.808-1.734A17.1,17.1,0,0,1,109.71,93.3Z" fill="#4895aa"/>
        <path id="Trazado_147176" data-name="Trazado 147176" d="M109.71,93.3l6.823-70.5a108.521,108.521,0,0,0-29.815,4.176L65.866,32.933V106.4L64.13,123.761a37.456,37.456,0,0,0,1.736,15.571h88.666V122.869a9.18,9.18,0,0,0-8.418-9.149l-20.808-1.734A17.1,17.1,0,0,1,109.71,93.3Z" fill="#4895aa"/>
        <path id="Trazado_147177" data-name="Trazado 147177" d="M109.71,93.3l6.823-70.5a108.521,108.521,0,0,0-29.815,4.176L65.866,32.933V106.4L64.13,123.761a37.456,37.456,0,0,0,1.736,15.571v3.939h88.666v-20.4a9.18,9.18,0,0,0-8.418-9.149l-20.808-1.734A17.1,17.1,0,0,1,109.71,93.3Z" fill="#a6ef65"/>
        <path id="Trazado_147178" data-name="Trazado 147178" d="M73.466,134.266a37.456,37.456,0,0,1-1.736-15.571l1.736-17.362V30.762l-7.6,2.171V106.4L64.13,123.761a37.456,37.456,0,0,0,1.736,15.571h88.666v-5.067Z" fill="#a6ef65"/>
        <path id="Trazado_147179" data-name="Trazado 147179" d="M154.533,154.533H114v-5.067H91.2v5.067H65.866v-15.2h88.666Z" fill="#ecb347"/>
        <g id="Grupo_87406" data-name="Grupo 87406">
          <path id="Trazado_147180" data-name="Trazado 147180" d="M121.6,146.933h5.067v7.6H121.6Z" fill="#eb9840"/>
          <path id="Trazado_147181" data-name="Trazado 147181" d="M131.733,146.933H136.8v7.6h-5.067Z" fill="#eb9840"/>
          <path id="Trazado_147182" data-name="Trazado 147182" d="M141.866,146.933h5.067v7.6h-5.067Z" fill="#eb9840"/>
        </g>
        <path id="Trazado_147183" data-name="Trazado 147183" d="M116.533,22.8a108.521,108.521,0,0,0-29.815,4.176L65.866,32.933V53.2h47.725Z" fill="#c9ff98"/>
        <path id="Trazado_147184" data-name="Trazado 147184" d="M65.866,32.933V53.2h7.6V30.762Z" fill="#a6ef65"/>
        <path id="Trazado_147185" data-name="Trazado 147185" d="M82.333,122.866a12.974,12.974,0,0,0-9.174-3.8H64.6l-.47,4.7a37.456,37.456,0,0,0,1.736,15.571H86.133V132.04a12.974,12.974,0,0,0-3.8-9.174Z" fill="#4895aa"/>
        <path id="Trazado_147186" data-name="Trazado 147186" d="M71.73,123.761l.47-4.7H64.6l-.47,4.7a37.456,37.456,0,0,0,1.736,15.571h7.6a37.456,37.456,0,0,1-1.736-15.571Z" fill="#2a6377"/>
        <path id="Trazado_147187" data-name="Trazado 147187" d="M129.2,126.666a10.133,10.133,0,0,0,10.133-10.133v-3.378l-14.026-1.169A17.1,17.1,0,0,1,109.71,93.3l1.429-14.769h-4.9a6.428,6.428,0,0,0-6.2,4.735L96.918,94.718a15.853,15.853,0,0,1-28.195,5.043l-2.857-4V106.4L64.6,119.066h8.559A12.974,12.974,0,0,1,86.133,132.04v7.293h32.933V136.8A10.133,10.133,0,0,1,129.2,126.666Z" fill="#2a6377"/>
        <path id="Trazado_147188" data-name="Trazado 147188" d="M73.466,108.933v-4.8a15.838,15.838,0,0,1-4.742-4.375l-2.858-4V106.4L64.6,119.066h7.853Z" fill="#133442"/>
        <path id="Trazado_147189" data-name="Trazado 147189" d="M154.533,122.869a9.18,9.18,0,0,0-8.418-9.148l-6.782-.565v3.378A10.133,10.133,0,0,1,129.2,126.666,10.133,10.133,0,0,0,119.066,136.8v2.533h35.466Z" fill="#4895aa"/>
        <path id="Trazado_147190" data-name="Trazado 147190" d="M32.83,98.353a12.974,12.974,0,0,0-7.623-6.362l-8.189-2.508-1.831,4.3A37.452,37.452,0,0,0,12.2,109.164l19.359,6.044,2.16-6.967a12.974,12.974,0,0,0-.893-9.888Z" fill="#4895aa"/>
        <path id="Trazado_147191" data-name="Trazado 147191" d="M146.325,111.2l-20.808-1.734a14.563,14.563,0,0,1-13.286-15.915l6.823-70.5a2.533,2.533,0,0,0-2.522-2.777,111,111,0,0,0-22.5,2.306l3.6-8.56a2.533,2.533,0,0,0-1.578-3.4,111.047,111.047,0,0,0-30.4-5.014L43.977,5.067A2.533,2.533,0,0,0,41.5,6.844l-14.237,45.6,4.836,1.51,7.442-23.836,23.8,7.43V61.1A8.979,8.979,0,0,0,59.4,64.469l-6.393,10a13.32,13.32,0,0,1-23.875-3.016l-1.283-3.9,2.663-8.53-4.836-1.51-6.038,19.34L12.857,92.791a39.721,39.721,0,0,0-3.188,15.994L5.257,122.918a2.533,2.533,0,0,0,1.663,3.173l24.182,7.55a2.533,2.533,0,0,0,3.173-1.663l.755-2.418,16.927,5.285-.755,2.418a2.533,2.533,0,0,0,1.663,3.173l10.468,3.269v10.827a2.533,2.533,0,0,0,2.533,2.533H91.2a2.533,2.533,0,0,0,2.533-2.533V152h17.733v2.533A2.533,2.533,0,0,0,114,157.066h40.533a2.533,2.533,0,0,0,2.533-2.533V122.869A11.713,11.713,0,0,0,146.325,111.2Zm3.727,6.973a6.6,6.6,0,0,1,1.947,4.7V136.8H121.6a7.609,7.609,0,0,1,7.6-7.6,12.681,12.681,0,0,0,12.667-12.667v-.624l4.038.336A6.655,6.655,0,0,1,150.052,118.169ZM45.764,10.179l19.769.481a105.993,105.993,0,0,1,26.332,3.988l-3.95,9.369q-.95.253-1.893.522L65.17,30.5a2.527,2.527,0,0,0-1.742,1.773l-22.38-6.988ZM36.306,84.842A18.4,18.4,0,0,0,57.276,77.2l6.057-9.473V78.533H68.4v-22.8h38V50.666h-38V34.844l19.014-5.432a105.974,105.974,0,0,1,26.325-4.042L108.838,76h-2.6A8.98,8.98,0,0,0,97.6,82.6L94.474,94.051a13.32,13.32,0,0,1-23.689,4.237L68.4,94.948V83.6H63.333v22.673l-1.571,15.71-27.04-8.442L36.141,109A15.507,15.507,0,0,0,25.96,89.574l-5.5-1.717,3.89-9.138q.049-.116.087-.237l.922-2.953a18.423,18.423,0,0,0,10.946,9.312ZM83.6,136.8H67.741a34.665,34.665,0,0,1-1.09-12.786l.241-2.414h6.266A10.441,10.441,0,0,1,83.6,132.04ZM18.468,92.542l5.982,1.868A10.441,10.441,0,0,1,31.3,107.489l-1.418,4.543L14.75,107.305a34.67,34.67,0,0,1,2.77-12.53Zm37.416,38.221-21.763-6.8a2.533,2.533,0,0,0-3.173,1.663l-.755,2.418-19.346-6.039,3.02-9.674,47.546,14.845a39.606,39.606,0,0,0,1.477,11.077l-6.1-1.9.755-2.418a2.533,2.533,0,0,0-1.663-3.174ZM152,152h-5.067v-5.067h-5.067V152H136.8v-5.067h-5.067V152h-5.067v-5.067H121.6V152h-5.067v-2.533A2.533,2.533,0,0,0,114,146.933H91.2a2.533,2.533,0,0,0-2.533,2.533V152H68.4V141.866H98.8V136.8H88.666V132.04a15.507,15.507,0,0,0-15.508-15.507H67.4l.988-9.88a2.477,2.477,0,0,0,.013-.253v-3.093a18.375,18.375,0,0,0,30.963-7.922l3.122-11.448a3.9,3.9,0,0,1,3.756-2.87h2.107l-1.161,11.992A19.63,19.63,0,0,0,125.1,114.511l11.7.975v1.047a7.609,7.609,0,0,1-7.6,7.6A12.681,12.681,0,0,0,116.533,136.8H103.866v5.067H152Z" fill="#0f2771"/>
      </g>
    </g>
  </g>
</svg>
