<svg xmlns="http://www.w3.org/2000/svg" xmlns:xlink="http://www.w3.org/1999/xlink" width="154" height="215" viewBox="0 0 154 215">
  <defs>
    <clipPath id="clip-path">
      <rect id="Rect치ngulo_32825" data-name="Rect치ngulo 32825" width="154" height="152" transform="translate(11650 -8306)" fill="#fff" stroke="#707070" stroke-width="1"/>
    </clipPath>
  </defs>
  <g id="Grupo_87499" data-name="Grupo 87499" transform="translate(-11281 8921)">
    <rect id="Rect치ngulo_32817" data-name="Rect치ngulo 32817" width="98" height="215" transform="translate(11308 -8921)" fill="#8ad24a"/>
    <g id="Enmascarar_grupo_95" data-name="Enmascarar grupo 95" transform="translate(-369 -580)" clip-path="url(#clip-path)">
      <g id="mascara-de-gas" transform="translate(11650 -8307)">
        <g id="Grupo_87405" data-name="Grupo 87405">
          <g id="Grupo_87403" data-name="Grupo 87403">
            <path id="Trazado_147162" data-name="Trazado 147162" d="M39.854,105.542,22.631,88.377,19.442,85.2a3.952,3.952,0,0,0-5.559,0l-9.729,9.7a3.92,3.92,0,0,0,0,5.54l23.627,23.547a3.952,3.952,0,0,0,5.559,0l9.729-9.7a3.92,3.92,0,0,0,0-5.54Z" fill="#c9ff98"/>
            <path id="Trazado_147163" data-name="Trazado 147163" d="M131.368,88.377l-17.222,17.165-3.215,3.2a3.92,3.92,0,0,0,0,5.54l9.729,9.7a3.952,3.952,0,0,0,5.559,0l23.627-23.547a3.92,3.92,0,0,0,0-5.54l-9.729-9.7a3.952,3.952,0,0,0-5.559,0Z" fill="#c9ff98"/>
            <circle id="Elipse_4356" data-name="Elipse 4356" cx="11.426" cy="11.426" r="11.426" transform="translate(65.573 62.229)" fill="#c9ff98"/>
          </g>
          <path id="Trazado_147164" data-name="Trazado 147164" d="M88.426,73.654A11.426,11.426,0,1,1,77,62.228,11.426,11.426,0,0,1,88.426,73.654Zm14.217,20.384a45.73,45.73,0,0,0,15.813-18.574l0,0a45.2,45.2,0,0,0,4.193-19.072c-19.367,0-27.206-27.519-45.65-27.519S50.716,56.394,31.349,56.394a45.2,45.2,0,0,0,4.193,19.072l0,0a45.751,45.751,0,0,0,67.1,18.574Z" fill="#bccbd3"/>
          <g id="Grupo_87404" data-name="Grupo 87404">
            <path id="Trazado_147165" data-name="Trazado 147165" d="M118.457,75.466a45.709,45.709,0,0,1-15.815,18.572l11.5,11.5,17.222-17.164Z" fill="#636a75"/>
            <path id="Trazado_147166" data-name="Trazado 147166" d="M51.355,94.04A45.73,45.73,0,0,1,35.542,75.466L22.631,88.377l17.222,17.164Z" fill="#636a75"/>
          </g>
        </g>
        <path id="Trazado_147167" data-name="Trazado 147167" d="M67.69,47.393a3,3,0,0,0,2.022-.782l.059-.054a3.008,3.008,0,0,0-4.047-4.451l-.058.054a3.008,3.008,0,0,0,2.024,5.234Z" fill="#0f2771"/>
        <path id="Trazado_147168" data-name="Trazado 147168" d="M63.612,48.573a3.009,3.009,0,0,0-4.254-.017c-2.649,2.627-6.5,6.181-8.7,8.1a3.008,3.008,0,0,0,3.956,4.532c2.236-1.952,6.143-5.546,8.98-8.36A3.007,3.007,0,0,0,63.612,48.573Z" fill="#0f2771"/>
        <path id="Trazado_147169" data-name="Trazado 147169" d="M151.969,92.764l-9.729-9.7a6.96,6.96,0,0,0-9.806,0l-1.062,1.059-9.348-9.348a48.11,48.11,0,0,0,3.634-18.385,3.008,3.008,0,0,0-3.008-3.008c-8.53,0-14.713-6.363-21.258-13.1C94.5,33.2,87.381,25.867,77,25.867S59.5,33.2,52.608,40.287c-6.546,6.736-12.728,13.1-21.259,13.1a3.008,3.008,0,0,0-3.008,3.008,48.108,48.108,0,0,0,3.634,18.385l-9.347,9.347-1.062-1.059a6.96,6.96,0,0,0-9.806,0l-9.728,9.7a6.928,6.928,0,0,0,0,9.8l23.627,23.547a6.96,6.96,0,0,0,9.806,0l9.728-9.7a6.928,6.928,0,0,0,0-9.8l-1.081-1.077,7.673-7.673a48.711,48.711,0,0,0,50.431,0l7.673,7.673-1.081,1.078a6.928,6.928,0,0,0,0,9.8l9.729,9.7a6.96,6.96,0,0,0,9.806,0l23.627-23.547a6.927,6.927,0,0,0,0-9.8ZM40.945,112.156l-9.729,9.7a.944.944,0,0,1-1.313,0L6.278,98.3a.912.912,0,0,1,0-1.28l9.729-9.7a.944.944,0,0,1,1.313,0l3.188,3.177,0,0L37.73,107.672l0,0,3.211,3.2a.911.911,0,0,1,0,1.28Zm-1.1-10.864L26.889,88.374,34.767,80.5A48.7,48.7,0,0,0,46.752,94.389Zm-5.4-42.1c9.389-1.256,16.029-8.088,22.47-14.717C63.216,38,69.161,31.883,77,31.883S90.783,38,97.077,44.479c6.441,6.629,13.081,13.46,22.47,14.717a42.651,42.651,0,0,1-85.1,0Zm72.8,35.194A48.724,48.724,0,0,0,119.233,80.5l7.878,7.879-12.962,12.918ZM147.722,98.3l-23.627,23.547a.944.944,0,0,1-1.312,0l-9.729-9.7a.913.913,0,0,1,0-1.28l3.212-3.2,0,0,17.222-17.164,0,0,3.188-3.177a.944.944,0,0,1,1.313,0l9.729,9.7a.912.912,0,0,1,0,1.28Z" fill="#0f2771"/>
        <path id="Trazado_147170" data-name="Trazado 147170" d="M77,59.22A14.434,14.434,0,1,0,91.434,73.654,14.451,14.451,0,0,0,77,59.22Zm0,22.853a8.419,8.419,0,1,1,8.418-8.418A8.428,8.428,0,0,1,77,82.072Z" fill="#0f2771"/>
      </g>
    </g>
  </g>
</svg>
