<svg xmlns="http://www.w3.org/2000/svg" xmlns:xlink="http://www.w3.org/1999/xlink" width="1240" height="1717" viewBox="0 0 1240 1717">
  <defs>
    <clipPath id="clip-path">
      <rect id="Rect치ngulo_32827" data-name="Rect치ngulo 32827" width="1240" height="1713" transform="translate(0 -0.168)" fill="none"/>
    </clipPath>
  </defs>
  <g id="Grupo_100481" data-name="Grupo 100481" transform="translate(-180 -1089)">
    <rect id="Rect치ngulo_32671" data-name="Rect치ngulo 32671" width="1240" height="1717" transform="translate(180 1089)" fill="#f3f9ff"/>
    <g id="Grupo_87439" data-name="Grupo 87439" transform="translate(180 1093.168)">
      <g id="Grupo_87438" data-name="Grupo 87438" transform="translate(0 0)" clip-path="url(#clip-path)">
        <g id="Grupo_87430" data-name="Grupo 87430" transform="translate(-556.885 382.526)">
          <path id="Trazado_147217" data-name="Trazado 147217" d="M724.2,349.183h779.737c-2.406-26.428-23.828-47.029-49.791-46.871-24.088.147-44.068,18.112-48.516,41.829a36.192,36.192,0,0,0-28.97-1.419A70.516,70.516,0,0,0,1380.6,319c-.211-37.59-29.629-67.885-65.705-67.665s-65.157,30.868-64.946,68.459c.01,1.476.074,2.938.173,4.391a47.781,47.781,0,0,0-20.067-4.269,48.679,48.679,0,0,0-36.091,16.5c-2.515-19.14-18.313-33.835-37.353-33.722a36.383,36.383,0,0,0-22.674,8.133c.188-2.168.285-4.362.275-6.582-.214-37.59-29.632-67.885-65.708-67.668-34.285.209-62.223,27.9-64.745,62.915a48.8,48.8,0,0,0-38.174-18.262c-27.466.168-49.6,23.5-49.438,52.117,0,.341.02.677.027,1.013a36.2,36.2,0,0,0-30.8,6.887q.089-1.872.084-3.773c-.211-37.588-29.632-67.885-65.708-67.665s-65.152,30.868-64.944,68.459a71.892,71.892,0,0,0,.561,8.42,36.2,36.2,0,0,0-31.175,2.486Z" transform="translate(-228.998 50.959)" fill="#fff"/>
          <path id="Trazado_147218" data-name="Trazado 147218" d="M524.559,237.925h779.735c-2.4-26.431-23.825-47.031-49.786-46.874-24.09.147-44.071,18.112-48.518,41.829a36.22,36.22,0,0,0-28.969-1.419,70.461,70.461,0,0,0,3.944-23.717c-.211-37.59-29.629-67.885-65.705-67.665s-65.157,30.868-64.946,68.459c.01,1.476.077,2.938.174,4.391a47.8,47.8,0,0,0-20.065-4.269,48.678,48.678,0,0,0-36.091,16.507c-2.518-19.143-18.316-33.838-37.356-33.724a36.4,36.4,0,0,0-22.674,8.133c.189-2.168.285-4.36.275-6.583-.213-37.59-29.632-67.885-65.708-67.668-34.283.209-62.225,27.9-64.745,62.915a48.785,48.785,0,0,0-38.172-18.259c-27.469.165-49.6,23.5-49.441,52.115,0,.341.02.677.027,1.016a35.965,35.965,0,0,0-8.473-.964A36.37,36.37,0,0,0,685.74,230c.06-1.251.089-2.51.082-3.773-.209-37.59-29.627-67.885-65.7-67.665s-65.152,30.866-64.944,68.456a70.851,70.851,0,0,0,.561,8.423,36.178,36.178,0,0,0-31.177,2.486Z" transform="translate(-524.559 -125.324)" fill="#fff"/>
          <path id="Trazado_147219" data-name="Trazado 147219" d="M1158.226,297.593h779.738c-2.406-26.431-23.828-47.031-49.788-46.874-24.088.147-44.071,18.112-48.518,41.829a36.191,36.191,0,0,0-28.969-1.419,70.458,70.458,0,0,0,3.944-23.717c-.211-37.59-29.629-67.885-65.705-67.665s-65.157,30.868-64.946,68.459c.01,1.476.077,2.938.176,4.391a47.833,47.833,0,0,0-20.067-4.27A48.691,48.691,0,0,0,1628,284.834c-2.515-19.143-18.313-33.838-37.354-33.724a36.4,36.4,0,0,0-22.674,8.133c.189-2.168.285-4.36.276-6.583-.213-37.59-29.632-67.885-65.708-67.668-34.283.209-62.223,27.9-64.746,62.915a48.8,48.8,0,0,0-38.172-18.262c-27.469.168-49.6,23.5-49.441,52.117,0,.341.02.677.03,1.016a36.167,36.167,0,0,0-30.8,6.888c.057-1.251.086-2.51.082-3.773-.211-37.59-29.629-67.885-65.705-67.665s-65.155,30.866-64.946,68.456a71.329,71.329,0,0,0,.563,8.423,36.178,36.178,0,0,0-31.177,2.486Z" transform="translate(413.569 -30.784)" fill="#fff"/>
        </g>
        <g id="Grupo_87431" data-name="Grupo 87431" transform="translate(-811.732 710.486)">
          <path id="Trazado_147220" data-name="Trazado 147220" d="M1810.051,952.109c21.632-40.508,7.655-91.618-31.219-114.149-34.1-19.768-76.007-10.989-100.392,18.781a61.453,61.453,0,0,0-20.151-18.872,58.85,58.85,0,0,0-19.633-7.149,109.135,109.135,0,0,0,23.674-30.191c28.414-53.2,10.048-120.331-41.012-149.933s-115.493-10.475-143.907,42.731c-1.116,2.088-2.136,4.21-3.108,6.34a81.34,81.34,0,0,0-25.043-22.663,77.444,77.444,0,0,0-63.527-6.637c11.07-29.09.01-62.918-26.941-78.543a58.422,58.422,0,0,0-38.2-7.327c1.922-2.9,3.736-5.916,5.415-9.058,28.414-53.2,10.046-120.333-41.015-149.935-48.523-28.131-109.094-12.227-139.383,35.076-4.368-23.485-18.276-44.871-39.908-57.41-38.876-22.539-87.928-7.973-109.558,32.53-.258.483-.484.974-.732,1.458a60.842,60.842,0,0,0-11.217-8.384,58.391,58.391,0,0,0-37.492-7.435c1.037-1.716,2.044-3.463,3-5.254,28.411-53.2,10.048-120.333-41.015-149.935s-115.491-10.47-143.9,42.733a113.338,113.338,0,0,0-5.638,12.343,61.146,61.146,0,0,0-16.788-14.351c-29.309-16.992-66.286-6.017-82.6,24.526L421.818,776.958l1122.194,650.574L1781.354,983.1A82.074,82.074,0,0,0,1810.051,952.109Z" transform="translate(-421.818 -252.222)" fill="#fff"/>
          <path id="Trazado_147221" data-name="Trazado 147221" d="M2305.315,366.6c-12.194-44.584-56.766-70.423-99.547-57.715-37.525,11.144-61.2,48.223-58.239,87.242a58.124,58.124,0,0,0-27.057,1.5,59.479,59.479,0,0,0-18.736,9.41,114.3,114.3,0,0,0-3.748-38.79c-16.016-58.553-74.561-92.491-130.756-75.8s-88.774,77.683-72.757,136.238c.63,2.3,1.347,4.549,2.106,6.774a77.1,77.1,0,0,0-33.089,2.427c-22.22,6.6-39.566,22.3-49.423,42.105-11.917-28.723-42.7-44.5-72.356-35.688a60.493,60.493,0,0,0-31.981,22.963c-.61-3.468-1.374-6.934-2.319-10.4-16.019-58.55-74.563-92.489-130.761-75.8-53.4,15.861-85.437,71.728-74.754,127.495a77.66,77.66,0,0,0-67.179-11.2c-42.788,12.708-67.583,59.142-55.391,103.718.144.532.315,1.044.469,1.569a58.489,58.489,0,0,0-13.62,2.336,60.455,60.455,0,0,0-31.557,22.363c-.431-1.974-.905-3.952-1.446-5.924-16.017-58.555-74.558-92.491-130.756-75.8s-88.769,77.68-72.755,136.235a114.121,114.121,0,0,0,4.393,12.883,58.189,58.189,0,0,0-21.612,2.22c-32.256,9.578-50.951,44.581-41.759,78.194l134.132,490.361,1235.033-366.74-133.794-489.12A86.855,86.855,0,0,0,2305.315,366.6Z" transform="translate(535.348 -195.219)" fill="#fff"/>
        </g>
        <g id="Grupo_87432" data-name="Grupo 87432" transform="translate(-250.264 1228.982)" opacity="0.81">
          <path id="Trazado_147222" data-name="Trazado 147222" d="M2122.788,452.846c-67.146,0-67.146,31.013-134.3,31.013s-67.137-31.013-134.276-31.013-67.136,31.013-134.275,31.013-67.137-31.013-134.273-31.013-67.136,31.013-134.271,31.013-67.139-31.013-134.278-31.013-67.136,31.013-134.273,31.013-67.136-31.013-134.276-31.013S981.435,483.859,914.3,483.859s-67.134-31.013-134.266-31.013l-131.857,527.2s254.857-9.692,264.156,0,1344.753,0,1344.753,0V483.859C2189.935,483.859,2189.935,452.846,2122.788,452.846Z" transform="translate(-648.173 -452.846)" fill="#4cd2ee"/>
          <path id="Trazado_147223" data-name="Trazado 147223" d="M2122.788,463.856c-67.146,0-67.146,31.013-134.3,31.013s-67.137-31.013-134.276-31.013-67.136,31.013-134.275,31.013-67.137-31.013-134.273-31.013-67.136,31.013-134.271,31.013-67.139-31.013-134.278-31.013-67.136,31.013-134.273,31.013-67.136-31.013-134.276-31.013S981.435,494.869,914.3,494.869s-67.134-31.013-134.266-31.013l-131.857,527.2s254.857-9.692,264.156,0,1344.753,0,1344.753,0V494.869C2189.935,494.869,2189.935,463.856,2122.788,463.856Z" transform="translate(-648.173 -435.402)" fill="#32b0d1"/>
          <path id="Trazado_147224" data-name="Trazado 147224" d="M2122.788,490.856c-67.146,0-67.146,31.013-134.3,31.013s-67.137-31.013-134.276-31.013-67.136,31.013-134.275,31.013-67.137-31.013-134.273-31.013-67.136,31.013-134.271,31.013-67.139-31.013-134.278-31.013-67.136,31.013-134.273,31.013-67.136-31.013-134.276-31.013S981.435,521.869,914.3,521.869s-67.134-31.013-134.266-31.013l-131.857,527.2s254.857-9.692,264.156,0,1344.753,0,1344.753,0V521.869C2189.935,521.869,2189.935,490.856,2122.788,490.856Z" transform="translate(-648.173 -392.622)" fill="#22869e"/>
        </g>
        <g id="Grupo_87436" data-name="Grupo 87436" transform="translate(232.541 115.84)">
          <g id="Grupo_87433" data-name="Grupo 87433" transform="translate(711.515 71.733)">
            <path id="Trazado_147225" data-name="Trazado 147225" d="M1104.263,318.643c0,16.124,12.547,29.2,28.022,29.2a27.021,27.021,0,0,0,11.142-2.4c1.95,14.137,13.62,25,27.729,25,14.972,0,27.2-12.232,27.98-27.627a36.042,36.042,0,0,0,23.547,8.795c20.469,0,37.061-17.292,37.061-38.616s-16.592-38.616-37.061-38.616a35.686,35.686,0,0,0-13.623,2.7,27.574,27.574,0,0,0-51.006-3,24.471,24.471,0,0,0-14.015-4.417c-12.99,0-23.688,10.2-25.14,23.322A29.392,29.392,0,0,0,1104.263,318.643Z" transform="translate(-1104.263 -258.367)" fill="#fff"/>
            <path id="Trazado_147226" data-name="Trazado 147226" d="M1222.684,309.449a36.039,36.039,0,0,1-23.547-8.792c-.779,15.4-13.007,27.627-27.98,27.627-14.109,0-25.779-10.87-27.729-25.007a26.978,26.978,0,0,1-11.142,2.4c-13.422,0-24.624-9.839-27.367-22.965a30.523,30.523,0,0,0-.655,6.272c0,16.124,12.547,29.2,28.022,29.2a27.021,27.021,0,0,0,11.142-2.4c1.95,14.137,13.62,25,27.729,25,14.972,0,27.2-12.232,27.98-27.627a36.042,36.042,0,0,0,23.547,8.795c20.469,0,37.061-17.292,37.061-38.617a40.259,40.259,0,0,0-.528-6.254C1256.341,295.431,1241.1,309.449,1222.684,309.449Z" transform="translate(-1104.263 -228.711)" fill="#abddf5"/>
          </g>
          <g id="Grupo_87434" data-name="Grupo 87434" transform="translate(-32 172.619)">
            <path id="Trazado_147227" data-name="Trazado 147227" d="M974.734,326.46c-1.218-11.015-10.2-19.572-21.1-19.572a20.56,20.56,0,0,0-11.765,3.706,23.142,23.142,0,0,0-42.808,2.515,29.946,29.946,0,0,0-11.433-2.267c-17.18,0-31.108,14.509-31.108,32.411s13.928,32.409,31.108,32.409a30.25,30.25,0,0,0,19.762-7.378c.655,12.919,10.916,23.187,23.482,23.187,11.844,0,21.637-9.123,23.277-20.988A22.63,22.63,0,0,0,963.5,372.5c12.988,0,23.52-10.971,23.52-24.505A24.672,24.672,0,0,0,974.734,326.46Z" transform="translate(-856.522 -297.403)" fill="#fff"/>
            <path id="Trazado_147228" data-name="Trazado 147228" d="M887.63,340.278a30.252,30.252,0,0,0,19.762-7.381c.655,12.919,10.916,23.187,23.482,23.187,11.844,0,21.637-9.123,23.277-20.988a22.629,22.629,0,0,0,9.349,2.016c11.266,0,20.667-8.257,22.969-19.275a25.716,25.716,0,0,1,.551,5.264c0,13.535-10.532,24.505-23.52,24.505a22.629,22.629,0,0,1-9.349-2.016c-1.64,11.865-11.433,20.988-23.277,20.988-12.566,0-22.828-10.268-23.482-23.187a30.25,30.25,0,0,1-19.762,7.378c-17.18,0-31.108-14.514-31.108-32.409a33.834,33.834,0,0,1,.444-5.249C859.38,328.508,872.166,340.278,887.63,340.278Z" transform="translate(-856.522 -272.512)" fill="#abddf5"/>
          </g>
          <g id="Grupo_87435" data-name="Grupo 87435" transform="translate(479.359)">
            <path id="Trazado_147229" data-name="Trazado 147229" d="M1049.775,266.323c0,9.552,7.431,17.3,16.6,17.3a15.975,15.975,0,0,0,6.6-1.427,16.843,16.843,0,0,0,16.431,14.816c8.87,0,16.115-7.249,16.574-16.37a21.358,21.358,0,0,0,13.95,5.21c12.13,0,21.96-10.245,21.96-22.877s-9.83-22.877-21.96-22.877a21.082,21.082,0,0,0-8.069,1.6,16.338,16.338,0,0,0-30.22-1.778,14.525,14.525,0,0,0-8.3-2.615,15.234,15.234,0,0,0-14.893,13.816A17.42,17.42,0,0,0,1049.775,266.323Z" transform="translate(-1049.775 -230.611)" fill="#fff"/>
            <path id="Trazado_147230" data-name="Trazado 147230" d="M1119.933,260.876a21.357,21.357,0,0,1-13.95-5.21c-.459,9.12-7.7,16.367-16.574,16.367a16.841,16.841,0,0,1-16.431-14.814,16.014,16.014,0,0,1-6.6,1.424,16.78,16.78,0,0,1-16.215-13.607,18.153,18.153,0,0,0-.387,3.716c0,9.552,7.431,17.3,16.6,17.3a15.975,15.975,0,0,0,6.6-1.427,16.843,16.843,0,0,0,16.431,14.816c8.87,0,16.115-7.249,16.574-16.37a21.358,21.358,0,0,0,13.95,5.21c12.13,0,21.96-10.245,21.96-22.877a23.677,23.677,0,0,0-.315-3.706C1139.876,252.57,1130.849,260.876,1119.933,260.876Z" transform="translate(-1049.775 -213.041)" fill="#abddf5"/>
          </g>
        </g>
        <g id="Grupo_87437" data-name="Grupo 87437" transform="translate(449.452 897.27)">
          <path id="Trazado_147231" data-name="Trazado 147231" d="M944.481,252.265l5.027,10.2,9.193,5.578-9.193,5.578-5.027,10.2-5.029-10.2-9.19-5.578,9.19-5.578Z" transform="translate(-930.262 -134.702)" fill="#fff"/>
          <path id="Trazado_147232" data-name="Trazado 147232" d="M1068.074,329.363l3.517,7.134,6.429,3.9-6.429,3.9-3.517,7.134-3.517-7.134-6.429-3.9,6.429-3.9Z" transform="translate(-740.961 -12.546)" fill="#fff"/>
          <path id="Trazado_147233" data-name="Trazado 147233" d="M1049.338,206.776l7.473,15.159,13.662,8.291-13.662,8.291-7.473,15.16-7.473-15.16-13.662-8.291,13.662-8.291Z" transform="translate(-785.264 -206.776)" fill="#fff"/>
        </g>
      </g>
    </g>
  </g>
</svg>
