<svg xmlns="http://www.w3.org/2000/svg" xmlns:xlink="http://www.w3.org/1999/xlink" width="154" height="215" viewBox="0 0 154 215">
  <defs>
    <clipPath id="clip-path">
      <rect id="Rect치ngulo_32824" data-name="Rect치ngulo 32824" width="154" height="152" transform="translate(11348 -8306)" fill="#fff" stroke="#707070" stroke-width="1"/>
    </clipPath>
  </defs>
  <g id="Grupo_87498" data-name="Grupo 87498" transform="translate(-12489 9328)">
    <rect id="Rect치ngulo_32823" data-name="Rect치ngulo 32823" width="98" height="215" transform="translate(12516 -9328)" fill="#8ad24a"/>
    <g id="Enmascarar_grupo_97" data-name="Enmascarar grupo 97" transform="translate(1141 -987)" clip-path="url(#clip-path)">
      <g id="traje-de-seguridad" transform="translate(11349 -8306)">
        <g id="Grupo_87407" data-name="Grupo 87407">
          <path id="Trazado_147192" data-name="Trazado 147192" d="M122.668,90.544h-9.78V36.695A34.469,34.469,0,0,0,78.42,2.227H73.58A34.468,34.468,0,0,0,39.112,36.695V90.544h-9.78A13.359,13.359,0,0,0,15.972,103.9v42.9a2.969,2.969,0,0,0,2.969,2.969H133.059a2.969,2.969,0,0,0,2.969-2.969V103.9a13.359,13.359,0,0,0-13.359-13.359Z" fill="#8ac9fe"/>
        </g>
        <g id="Grupo_87408" data-name="Grupo 87408">
          <path id="Trazado_147193" data-name="Trazado 147193" d="M39.112,46.073a27.405,27.405,0,0,1,16.655-25.18A34.49,34.49,0,0,1,82.412,2.458a34.822,34.822,0,0,0-3.992-.232H73.58A34.468,34.468,0,0,0,39.112,36.695Z" fill="#60b7ff"/>
          <path id="Trazado_147194" data-name="Trazado 147194" d="M39.112,62.069V90.544h-9.78A13.359,13.359,0,0,0,15.972,103.9v42.9a2.969,2.969,0,0,0,2.969,2.969H31.766A2.969,2.969,0,0,1,28.8,146.8V109.547a8.906,8.906,0,0,1,8.906-8.906h9.78a4.453,4.453,0,0,0,4.453-4.453V86.869A30.4,30.4,0,0,1,39.112,62.069Z" fill="#60b7ff"/>
        </g>
        <path id="Trazado_147195" data-name="Trazado 147195" d="M70.887,92.486H81.113v57.287H70.887Z" fill="#60b7ff"/>
        <g id="Grupo_87409" data-name="Grupo 87409">
          <path id="Trazado_147196" data-name="Trazado 147196" d="M90.585,89.415l.561-.972L83.02,83.751a12.759,12.759,0,0,1-14.039,0l-8.126,4.692.561.972a1.482,1.482,0,0,1-.334,1.877,30.33,30.33,0,0,0,8.448,1.195H82.471a30.33,30.33,0,0,0,8.448-1.195A1.482,1.482,0,0,1,90.585,89.415Z" fill="#d8ecfe"/>
          <path id="Trazado_147197" data-name="Trazado 147197" d="M85.525,18.71H66.475A27.4,27.4,0,0,0,39.112,46.073v16A30.383,30.383,0,0,0,50.954,86.138l-4.789-8.3a1.484,1.484,0,0,1,.543-2.028l3.856-2.227a1.484,1.484,0,0,1,2.028.543l.561.972,10.8-6.236h0a12.766,12.766,0,0,1,24.095,0h0l10.8,6.236.561-.972a1.484,1.484,0,0,1,2.028-.543l3.856,2.227a1.484,1.484,0,0,1,.543,2.028l-4.79,8.3a30.383,30.383,0,0,0,11.842-24.069v-16A27.4,27.4,0,0,0,85.525,18.71Z" fill="#d8ecfe"/>
        </g>
        <g id="Grupo_87410" data-name="Grupo 87410">
          <path id="Trazado_147198" data-name="Trazado 147198" d="M46.164,77.842a1.484,1.484,0,0,1,.543-2.028l3.856-2.227a1.477,1.477,0,0,1,.563-.188,21.8,21.8,0,0,1-3.3-11.559V46.408A18.959,18.959,0,0,1,56.316,30.6,27.354,27.354,0,0,1,78.868,18.71H66.475A27.4,27.4,0,0,0,39.112,46.074v16A30.382,30.382,0,0,0,50.954,86.138Z" fill="#c4e2ff"/>
        </g>
        <g id="Grupo_87411" data-name="Grupo 87411">
          <path id="Trazado_147199" data-name="Trazado 147199" d="M52.592,74.131l.561.972,10.8-6.236h0a12.766,12.766,0,0,1,24.094,0h0l10.8,6.236.561-.972a1.484,1.484,0,0,1,1.465-.731,21.819,21.819,0,0,0,3.3-11.559V46.408a18.98,18.98,0,0,0-18.98-18.98H66.811a18.98,18.98,0,0,0-18.98,18.98V61.841a21.818,21.818,0,0,0,3.3,11.559,1.485,1.485,0,0,1,1.465.731Z" fill="#554e56"/>
        </g>
        <g id="Grupo_87412" data-name="Grupo 87412">
          <path id="Trazado_147200" data-name="Trazado 147200" d="M57.068,57.052a16.51,16.51,0,0,1-9.237-6.316V61.841a21.818,21.818,0,0,0,3.3,11.559,1.485,1.485,0,0,1,1.465.731l.561.972,6.175-3.565a21.829,21.829,0,0,1-2.26-9.7Z" fill="#433f43"/>
        </g>
        <path id="Trazado_147201" data-name="Trazado 147201" d="M77.289,48.548a1.479,1.479,0,0,0-2.578,0c-2.929,5.279-8.028,8.808-13.852,8.924v1.1a11.751,11.751,0,0,0,3.8,8.663,12.764,12.764,0,0,1,22.687,0,11.751,11.751,0,0,0,3.8-8.663v-1.1C85.317,57.355,80.218,53.827,77.289,48.548Z" fill="#433f43"/>
        <g id="Grupo_87413" data-name="Grupo 87413">
          <path id="Trazado_147202" data-name="Trazado 147202" d="M85.19,27.429H66.81A18.98,18.98,0,0,0,47.83,46.408v4.328a15.933,15.933,0,0,0,12.732,6.741c5.947,0,11.17-3.561,14.148-8.93a1.479,1.479,0,0,1,2.578,0c2.978,5.369,8.2,8.93,14.148,8.93a15.933,15.933,0,0,0,12.732-6.741V46.408A18.979,18.979,0,0,0,85.19,27.429Z" fill="#f6a96c"/>
        </g>
        <g id="Grupo_87415" data-name="Grupo 87415">
          <g id="Grupo_87414" data-name="Grupo 87414">
            <path id="Trazado_147203" data-name="Trazado 147203" d="M58.17,52.079a4.371,4.371,0,0,1-1.1-2.933V46.408a18.979,18.979,0,0,1,18.98-18.979H66.81a18.98,18.98,0,0,0-18.98,18.979v4.328a15.933,15.933,0,0,0,12.732,6.741,14.733,14.733,0,0,0,4.618-.743,16.4,16.4,0,0,1-7.01-4.655Z" fill="#ea9b58"/>
          </g>
        </g>
        <g id="Grupo_87422" data-name="Grupo 87422">
          <g id="Grupo_87418" data-name="Grupo 87418">
            <g id="Grupo_87417" data-name="Grupo 87417">
              <path id="Trazado_147204" data-name="Trazado 147204" d="M63.234,73.091a12.742,12.742,0,0,1,.718-4.223L53.152,75.1l7.7,13.34,8.126-4.692A12.753,12.753,0,0,1,63.234,73.091Z" fill="#918291"/>
              <g id="Grupo_87416" data-name="Grupo 87416">
                <path id="Trazado_147205" data-name="Trazado 147205" d="M57.015,93.669l3.856-2.227a1.484,1.484,0,0,0,.543-2.028L52.591,74.131a1.484,1.484,0,0,0-2.028-.543l-3.856,2.227a1.484,1.484,0,0,0-.543,2.028l8.824,15.283A1.484,1.484,0,0,0,57.015,93.669Z" fill="#c9ff98"/>
              </g>
            </g>
          </g>
          <g id="Grupo_87421" data-name="Grupo 87421">
            <g id="Grupo_87420" data-name="Grupo 87420">
              <path id="Trazado_147206" data-name="Trazado 147206" d="M98.847,75.1l-10.8-6.236A12.765,12.765,0,0,1,83.02,83.752l8.126,4.692Z" fill="#918291"/>
              <g id="Grupo_87419" data-name="Grupo 87419">
                <path id="Trazado_147207" data-name="Trazado 147207" d="M94.985,93.669l-3.856-2.227a1.484,1.484,0,0,1-.543-2.028l8.824-15.283a1.484,1.484,0,0,1,2.028-.543l3.856,2.227a1.484,1.484,0,0,1,.543,2.028L97.012,93.126a1.484,1.484,0,0,1-2.028.543Z" fill="#c9ff98"/>
              </g>
            </g>
          </g>
        </g>
        <g id="Grupo_87423" data-name="Grupo 87423">
          <circle id="Elipse_4357" data-name="Elipse 4357" cx="12.766" cy="12.766" r="12.766" transform="translate(63.234 60.325)" fill="#b5adb6"/>
        </g>
        <g id="Grupo_87424" data-name="Grupo 87424">
          <path id="Trazado_147208" data-name="Trazado 147208" d="M72.141,73.091a12.77,12.77,0,0,1,8.313-11.966,12.766,12.766,0,1,0,0,23.932,12.769,12.769,0,0,1-8.312-11.966Z" fill="#a79ba7"/>
        </g>
        <g id="Grupo_87425" data-name="Grupo 87425">
          <circle id="Elipse_4358" data-name="Elipse 4358" cx="5.344" cy="5.344" r="5.344" transform="translate(70.656 67.747)" fill="#c9ff98"/>
        </g>
        <g id="Grupo_87429" data-name="Grupo 87429">
          <path id="Trazado_147210" data-name="Trazado 147210" d="M63.592,39.336a2.226,2.226,0,0,0-2.227,2.227v6.372a2.227,2.227,0,0,0,4.453,0V41.563A2.226,2.226,0,0,0,63.592,39.336Z" fill="#0f2771"/>
          <path id="Trazado_147211" data-name="Trazado 147211" d="M88.408,39.336a2.226,2.226,0,0,0-2.227,2.227v6.372a2.227,2.227,0,0,0,4.453,0V41.563A2.226,2.226,0,0,0,88.408,39.336Z" fill="#0f2771"/>
          <path id="Trazado_147212" data-name="Trazado 147212" d="M136.028,132.555a2.226,2.226,0,0,0,2.227-2.227V103.9a15.6,15.6,0,0,0-15.586-15.586h-7.553V36.695A36.737,36.737,0,0,0,78.42,0H73.58A36.737,36.737,0,0,0,36.885,36.695V88.318H29.332A15.6,15.6,0,0,0,13.746,103.9v42.9a5.2,5.2,0,0,0,5.2,5.2H133.059a5.2,5.2,0,0,0,5.2-5.2v-6.086a2.227,2.227,0,0,0-4.453,0V146.8a.743.743,0,0,1-.742.742H83.34V94.7a32.554,32.554,0,0,0,7.228-1.009l3.3,1.907a3.689,3.689,0,0,0,1.849.5,3.729,3.729,0,0,0,.967-.128,3.687,3.687,0,0,0,2.253-1.729l3.823-6.622a32.9,32.9,0,0,0,7.9-9.113v12.04a2.226,2.226,0,0,0,2.227,2.227h9.78A11.145,11.145,0,0,1,133.8,103.9v26.425A2.226,2.226,0,0,0,136.028,132.555ZM73.113,147.547V115.484a2.227,2.227,0,0,0-4.453,0v32.063H18.941a.743.743,0,0,1-.742-.742V103.9A11.145,11.145,0,0,1,29.332,92.771h9.78a2.226,2.226,0,0,0,2.227-2.227V78.5a32.9,32.9,0,0,0,7.9,9.113l3.823,6.622a3.685,3.685,0,0,0,2.253,1.729,3.729,3.729,0,0,0,.967.128,3.685,3.685,0,0,0,1.849-.5l3.3-1.907A32.571,32.571,0,0,0,68.66,94.7v10.395a2.227,2.227,0,0,0,4.453,0V94.713h5.773v52.834Zm18.324-92.3c-4.937,0-9.5-2.91-12.2-7.783a3.7,3.7,0,0,0-6.472,0c-2.7,4.873-7.265,7.783-12.2,7.783a13.616,13.616,0,0,1-10.505-5.285V46.408A16.772,16.772,0,0,1,66.81,29.655H85.19a16.772,16.772,0,0,1,16.753,16.753v3.558A13.617,13.617,0,0,1,91.438,55.251Zm10.506.861v5.729a19.566,19.566,0,0,1-2.469,9.531,3.7,3.7,0,0,0-1.3.773L90.137,67.5a13.936,13.936,0,0,0,3.189-7.908A17.6,17.6,0,0,0,101.943,56.112ZM76,58.1a14.967,14.967,0,0,0-11.531,5.423,9.491,9.491,0,0,1-1.337-4.014A18.645,18.645,0,0,0,76,50.738a18.647,18.647,0,0,0,12.868,8.77,9.492,9.492,0,0,1-1.337,4.014A14.967,14.967,0,0,0,76,58.1ZM86.539,73.091A10.539,10.539,0,1,1,76,62.552,10.551,10.551,0,0,1,86.539,73.091ZM65.132,83.4l-3.463,2-5.475-9.483,4.815-2.78A14.935,14.935,0,0,0,65.132,83.4ZM58.674,59.595A13.936,13.936,0,0,0,61.863,67.5l-8.041,4.643a3.707,3.707,0,0,0-1.3-.771,19.567,19.567,0,0,1-2.469-9.533V56.112a17.6,17.6,0,0,0,8.617,3.482Zm-7.64,16.293,8.082,14L56.545,91.37l-8.082-14ZM88.2,89.671a28.179,28.179,0,0,1-5.724.589H69.529a28.2,28.2,0,0,1-5.724-.589c-.015-.11-.029-.221-.054-.329l5.22-3.014a14.953,14.953,0,0,0,14.058,0l5.22,3.014C88.224,89.45,88.21,89.561,88.2,89.671ZM90.331,85.4l-3.463-2a14.934,14.934,0,0,0,4.123-10.264l4.815,2.78Zm5.124,5.968-2.571-1.484,8.082-14,2.571,1.484Zm15.207-29.3a28.015,28.015,0,0,1-3.109,12.855,3.687,3.687,0,0,0-1.147-1.037l-2.475-1.429A24,24,0,0,0,106.4,61.841V46.408A21.23,21.23,0,0,0,85.19,25.2H66.81A21.23,21.23,0,0,0,45.6,46.408V61.841a24,24,0,0,0,2.465,10.616l-2.475,1.429a3.687,3.687,0,0,0-1.147,1.037,28.01,28.01,0,0,1-3.109-12.855v-16A25.165,25.165,0,0,1,66.475,20.936H80.156a2.227,2.227,0,0,0,0-4.453H66.475A29.576,29.576,0,0,0,42.241,29.114,32.3,32.3,0,0,1,73.58,4.453h4.84a32.3,32.3,0,0,1,31.333,24.636,29.537,29.537,0,0,0-18.8-12.1,2.226,2.226,0,1,0-.815,4.378,25.138,25.138,0,0,1,20.523,24.711Z" fill="#0f2771"/>
          <path id="Trazado_147213" data-name="Trazado 147213" d="M76,65.52a7.57,7.57,0,1,0,7.57,7.57A7.579,7.579,0,0,0,76,65.52Zm0,10.688a3.117,3.117,0,1,1,3.117-3.117A3.121,3.121,0,0,1,76,76.208Z" fill="#0f2771"/>
          <path id="Trazado_147215" data-name="Trazado 147215" d="M48.984,117.711H32.953a2.227,2.227,0,0,0,0,4.453H48.984a2.227,2.227,0,0,0,0-4.453Z" fill="#0f2771"/>
          <path id="Trazado_147216" data-name="Trazado 147216" d="M48.984,124.836H32.953a2.227,2.227,0,0,0,0,4.453H48.984a2.227,2.227,0,0,0,0-4.453Z" fill="#0f2771"/>
        </g>
      </g>
    </g>
  </g>
</svg>
