<svg xmlns="http://www.w3.org/2000/svg" xmlns:xlink="http://www.w3.org/1999/xlink" width="69" height="69" viewBox="0 0 69 69">
  <defs>
    <clipPath id="clip-path">
      <rect id="Rectángulo_5148" data-name="Rectángulo 5148" width="69" height="69" transform="translate(353 528)" fill="#fde947"/>
    </clipPath>
  </defs>
  <g id="Enmascarar_grupo_62" data-name="Enmascarar grupo 62" transform="translate(-353 -528)" clip-path="url(#clip-path)">
    <g id="recoleccion-de-datos" transform="translate(353 528)">
      <path id="Trazado_145319" data-name="Trazado 145319" d="M67.85,33.35v32.2a2.307,2.307,0,0,1-2.3,2.3H3.45a2.307,2.307,0,0,1-2.3-2.3V32.476a3.467,3.467,0,0,1,1.012-2.438l2.576-2.576A3.467,3.467,0,0,1,7.176,26.45H20.424a3.467,3.467,0,0,1,2.438,1.012l2.576,2.576a3.467,3.467,0,0,0,2.438,1.012H65.55a2.307,2.307,0,0,1,2.3,2.3Zm0,0" fill="#b6fc77"/>
      <path id="Trazado_145320" data-name="Trazado 145320" d="M64.4,33.35v32.2a2.307,2.307,0,0,1-2.3,2.3H3.45a2.307,2.307,0,0,1-2.3-2.3V32.476a3.467,3.467,0,0,1,1.012-2.438l2.576-2.576A3.467,3.467,0,0,1,7.176,26.45h9.8a3.466,3.466,0,0,1,2.438,1.012l2.576,2.576a3.469,3.469,0,0,0,2.438,1.012H62.1a2.307,2.307,0,0,1,2.3,2.3Zm0,0" fill="#d3ffac"/>
      <path id="Trazado_145321" data-name="Trazado 145321" d="M6.9,37.95H20.7a1.15,1.15,0,0,1,1.15,1.15v2.3a1.15,1.15,0,0,1-1.15,1.15H6.9A1.15,1.15,0,0,1,5.75,41.4V39.1A1.15,1.15,0,0,1,6.9,37.95Zm0,0" fill="#8ad24a"/>
      <path id="Trazado_145322" data-name="Trazado 145322" d="M6.9,37.95H17.25A1.15,1.15,0,0,1,18.4,39.1v2.3a1.15,1.15,0,0,1-1.15,1.15H6.9A1.15,1.15,0,0,1,5.75,41.4V39.1A1.15,1.15,0,0,1,6.9,37.95Zm0,0" fill="#b6fc77"/>
      <path id="Trazado_145323" data-name="Trazado 145323" d="M32.2,28.75h2.3a1.15,1.15,0,0,1,1.15,1.15v2.3a1.15,1.15,0,0,1-1.15,1.15H32.2a1.15,1.15,0,0,1-1.15-1.15V29.9a1.15,1.15,0,0,1,1.15-1.15Zm0,0" fill="#d3ffac"/>
      <path id="Trazado_145324" data-name="Trazado 145324" d="M32.2,19.55h2.3a1.15,1.15,0,0,1,1.15,1.15V23a1.15,1.15,0,0,1-1.15,1.15H32.2A1.15,1.15,0,0,1,31.05,23V20.7a1.15,1.15,0,0,1,1.15-1.15Zm0,0" fill="#d3ffac"/>
      <path id="Trazado_145325" data-name="Trazado 145325" d="M32.2,10.35h2.3a1.15,1.15,0,0,1,1.15,1.15v2.3a1.15,1.15,0,0,1-1.15,1.15H32.2a1.15,1.15,0,0,1-1.15-1.15V11.5a1.15,1.15,0,0,1,1.15-1.15Zm0,0" fill="#d3ffac"/>
      <path id="Trazado_145326" data-name="Trazado 145326" d="M32.2,1.15h2.3A1.15,1.15,0,0,1,35.65,2.3V4.6A1.15,1.15,0,0,1,34.5,5.75H32.2A1.15,1.15,0,0,1,31.05,4.6V2.3A1.15,1.15,0,0,1,32.2,1.15Zm0,0" fill="#d3ffac"/>
      <path id="Trazado_145327" data-name="Trazado 145327" d="M41.4,28.75h2.3a1.15,1.15,0,0,1,1.15,1.15v2.3a1.15,1.15,0,0,1-1.15,1.15H41.4a1.15,1.15,0,0,1-1.15-1.15V29.9A1.15,1.15,0,0,1,41.4,28.75Zm0,0" fill="#d3ffac"/>
      <path id="Trazado_145328" data-name="Trazado 145328" d="M41.4,10.35h2.3a1.15,1.15,0,0,1,1.15,1.15v2.3a1.15,1.15,0,0,1-1.15,1.15H41.4a1.15,1.15,0,0,1-1.15-1.15V11.5a1.15,1.15,0,0,1,1.15-1.15Zm0,0" fill="#d3ffac"/>
      <path id="Trazado_145329" data-name="Trazado 145329" d="M50.6,19.55h2.3a1.15,1.15,0,0,1,1.15,1.15V23a1.15,1.15,0,0,1-1.15,1.15H50.6A1.15,1.15,0,0,1,49.45,23V20.7A1.15,1.15,0,0,1,50.6,19.55Zm0,0" fill="#d3ffac"/>
      <path id="Trazado_145330" data-name="Trazado 145330" d="M50.6,1.15h2.3A1.15,1.15,0,0,1,54.05,2.3V4.6A1.15,1.15,0,0,1,52.9,5.75H50.6A1.15,1.15,0,0,1,49.45,4.6V2.3A1.15,1.15,0,0,1,50.6,1.15Zm0,0" fill="#d3ffac"/>
      <path id="Trazado_145331" data-name="Trazado 145331" d="M59.8,28.75h2.3a1.15,1.15,0,0,1,1.15,1.15v2.3a1.15,1.15,0,0,1-1.15,1.15H59.8a1.15,1.15,0,0,1-1.15-1.15V29.9A1.15,1.15,0,0,1,59.8,28.75Zm0,0" fill="#d3ffac"/>
      <path id="Trazado_145332" data-name="Trazado 145332" d="M32.2,37.95h2.3a1.15,1.15,0,0,1,1.15,1.15v2.3a1.15,1.15,0,0,1-1.15,1.15H32.2a1.15,1.15,0,0,1-1.15-1.15V39.1a1.15,1.15,0,0,1,1.15-1.15Zm0,0" fill="#d3ffac"/>
      <path id="Trazado_145333" data-name="Trazado 145333" d="M50.6,37.95h2.3a1.15,1.15,0,0,1,1.15,1.15v2.3a1.15,1.15,0,0,1-1.15,1.15H50.6a1.15,1.15,0,0,1-1.15-1.15V39.1A1.15,1.15,0,0,1,50.6,37.95Zm0,0" fill="#d3ffac"/>
      <path id="Trazado_145334" data-name="Trazado 145334" d="M41.4,47.15h2.3a1.15,1.15,0,0,1,1.15,1.15v2.3a1.15,1.15,0,0,1-1.15,1.15H41.4a1.15,1.15,0,0,1-1.15-1.15V48.3A1.15,1.15,0,0,1,41.4,47.15Zm0,0" fill="#d3ffac"/>
      <path id="Trazado_145335" data-name="Trazado 145335" d="M50.6,56.35h2.3a1.15,1.15,0,0,1,1.15,1.15v2.3a1.15,1.15,0,0,1-1.15,1.15H50.6a1.15,1.15,0,0,1-1.15-1.15V57.5A1.15,1.15,0,0,1,50.6,56.35Zm0,0" fill="#d3ffac"/>
      <path id="Trazado_145336" data-name="Trazado 145336" d="M59.8,10.35h2.3a1.15,1.15,0,0,1,1.15,1.15v2.3a1.15,1.15,0,0,1-1.15,1.15H59.8a1.15,1.15,0,0,1-1.15-1.15V11.5a1.15,1.15,0,0,1,1.15-1.15Zm0,0" fill="#d3ffac"/>
      <path id="Trazado_145337" data-name="Trazado 145337" d="M59.8,47.15h2.3a1.15,1.15,0,0,1,1.15,1.15v2.3a1.15,1.15,0,0,1-1.15,1.15H59.8a1.15,1.15,0,0,1-1.15-1.15V48.3A1.15,1.15,0,0,1,59.8,47.15Zm0,0" fill="#d3ffac"/>
      <path id="Trazado_145338" data-name="Trazado 145338" d="M59.8,1.15h2.3A1.15,1.15,0,0,1,63.25,2.3V4.6A1.15,1.15,0,0,1,62.1,5.75H59.8A1.15,1.15,0,0,1,58.65,4.6V2.3A1.15,1.15,0,0,1,59.8,1.15Zm0,0" fill="#d3ffac"/>
      <path id="Trazado_145339" data-name="Trazado 145339" d="M3.45,67.85H6.9a2.307,2.307,0,0,1-2.3-2.3V32.476a3.466,3.466,0,0,1,1.012-2.438l2.576-2.576a3.466,3.466,0,0,1,2.438-1.012H7.176a3.467,3.467,0,0,0-2.438,1.012L2.162,30.038A3.467,3.467,0,0,0,1.15,32.476V65.55a2.307,2.307,0,0,0,2.3,2.3Zm0,0" fill="#fff"/>
      <g id="Grupo_86923" data-name="Grupo 86923">
        <path id="Trazado_145340" data-name="Trazado 145340" d="M20.7,43.7H6.9a2.3,2.3,0,0,1-2.3-2.3V39.1a2.3,2.3,0,0,1,2.3-2.3H20.7A2.3,2.3,0,0,1,23,39.1v2.3A2.3,2.3,0,0,1,20.7,43.7ZM6.9,39.1v2.3H20.7l0-2.3Zm0,0" fill="#8ad24a"/>
        <path id="Trazado_145341" data-name="Trazado 145341" d="M21.85,55.2H5.75a1.15,1.15,0,1,1,0-2.3h16.1a1.15,1.15,0,1,1,0,2.3Zm0,0" fill="#8ad24a"/>
        <path id="Trazado_145342" data-name="Trazado 145342" d="M31.05,59.8H5.75a1.15,1.15,0,1,1,0-2.3h25.3a1.15,1.15,0,1,1,0,2.3Zm0,0" fill="#8ad24a"/>
        <path id="Trazado_145343" data-name="Trazado 145343" d="M14.95,64.4H5.75a1.15,1.15,0,1,1,0-2.3h9.2a1.15,1.15,0,1,1,0,2.3Zm0,0" fill="#8ad24a"/>
        <path id="Trazado_145344" data-name="Trazado 145344" d="M34.5,34.5H32.2a2.3,2.3,0,0,1-2.3-2.3V29.9a2.3,2.3,0,0,1,2.3-2.3h2.3a2.3,2.3,0,0,1,2.3,2.3v2.3A2.3,2.3,0,0,1,34.5,34.5Zm-2.3-4.6v2.3h2.3l0-2.3Zm0,0" fill="#8ad24a"/>
        <path id="Trazado_145345" data-name="Trazado 145345" d="M34.5,25.3H32.2A2.3,2.3,0,0,1,29.9,23V20.7a2.3,2.3,0,0,1,2.3-2.3h2.3a2.3,2.3,0,0,1,2.3,2.3V23A2.3,2.3,0,0,1,34.5,25.3Zm-2.3-4.6V23h2.3l0-2.3Zm0,0" fill="#8ad24a"/>
        <path id="Trazado_145346" data-name="Trazado 145346" d="M34.5,16.1H32.2a2.3,2.3,0,0,1-2.3-2.3V11.5a2.3,2.3,0,0,1,2.3-2.3h2.3a2.3,2.3,0,0,1,2.3,2.3v2.3A2.3,2.3,0,0,1,34.5,16.1Zm-2.3-4.6v2.3h2.3l0-2.3Zm0,0" fill="#8ad24a"/>
        <path id="Trazado_145347" data-name="Trazado 145347" d="M34.5,6.9H32.2a2.3,2.3,0,0,1-2.3-2.3V2.3A2.3,2.3,0,0,1,32.2,0h2.3a2.3,2.3,0,0,1,2.3,2.3V4.6a2.3,2.3,0,0,1-2.3,2.3ZM32.2,2.3V4.6h2.3l0-2.3Zm0,0" fill="#8ad24a"/>
        <path id="Trazado_145348" data-name="Trazado 145348" d="M43.7,34.5H41.4a2.3,2.3,0,0,1-2.3-2.3V29.9a2.3,2.3,0,0,1,2.3-2.3h2.3A2.3,2.3,0,0,1,46,29.9v2.3A2.3,2.3,0,0,1,43.7,34.5Zm-2.3-4.6v2.3h2.3l0-2.3Zm0,0" fill="#8ad24a"/>
        <path id="Trazado_145349" data-name="Trazado 145349" d="M43.7,16.1H41.4a2.3,2.3,0,0,1-2.3-2.3V11.5a2.3,2.3,0,0,1,2.3-2.3h2.3A2.3,2.3,0,0,1,46,11.5v2.3A2.3,2.3,0,0,1,43.7,16.1Zm-2.3-4.6v2.3h2.3l0-2.3Zm0,0" fill="#8ad24a"/>
        <path id="Trazado_145350" data-name="Trazado 145350" d="M52.9,25.3H50.6A2.3,2.3,0,0,1,48.3,23V20.7a2.3,2.3,0,0,1,2.3-2.3h2.3a2.3,2.3,0,0,1,2.3,2.3V23A2.3,2.3,0,0,1,52.9,25.3Zm-2.3-4.6V23h2.3l0-2.3Zm0,0" fill="#8ad24a"/>
        <path id="Trazado_145351" data-name="Trazado 145351" d="M52.9,6.9H50.6a2.3,2.3,0,0,1-2.3-2.3V2.3A2.3,2.3,0,0,1,50.6,0h2.3a2.3,2.3,0,0,1,2.3,2.3V4.6a2.3,2.3,0,0,1-2.3,2.3ZM50.6,2.3V4.6h2.3l0-2.3Zm0,0" fill="#8ad24a"/>
        <path id="Trazado_145352" data-name="Trazado 145352" d="M62.1,34.5H59.8a2.3,2.3,0,0,1-2.3-2.3V29.9a2.3,2.3,0,0,1,2.3-2.3h2.3a2.3,2.3,0,0,1,2.3,2.3v2.3A2.3,2.3,0,0,1,62.1,34.5Zm-2.3-4.6v2.3h2.3l0-2.3Zm0,0" fill="#8ad24a"/>
        <path id="Trazado_145353" data-name="Trazado 145353" d="M52.9,43.7H50.6a2.3,2.3,0,0,1-2.3-2.3V39.1a2.3,2.3,0,0,1,2.3-2.3h2.3a2.3,2.3,0,0,1,2.3,2.3v2.3A2.3,2.3,0,0,1,52.9,43.7Zm-2.3-4.6v2.3h2.3l0-2.3Zm0,0" fill="#8ad24a"/>
        <path id="Trazado_145354" data-name="Trazado 145354" d="M43.7,52.9H41.4a2.3,2.3,0,0,1-2.3-2.3V48.3A2.3,2.3,0,0,1,41.4,46h2.3A2.3,2.3,0,0,1,46,48.3v2.3A2.3,2.3,0,0,1,43.7,52.9Zm-2.3-4.6v2.3h2.3l0-2.3Zm0,0" fill="#8ad24a"/>
        <path id="Trazado_145355" data-name="Trazado 145355" d="M52.9,62.1H50.6a2.3,2.3,0,0,1-2.3-2.3V57.5a2.3,2.3,0,0,1,2.3-2.3h2.3a2.3,2.3,0,0,1,2.3,2.3v2.3A2.3,2.3,0,0,1,52.9,62.1Zm-2.3-4.6v2.3h2.3l0-2.3Zm0,0" fill="#8ad24a"/>
        <path id="Trazado_145356" data-name="Trazado 145356" d="M62.1,16.1H59.8a2.3,2.3,0,0,1-2.3-2.3V11.5a2.3,2.3,0,0,1,2.3-2.3h2.3a2.3,2.3,0,0,1,2.3,2.3v2.3A2.3,2.3,0,0,1,62.1,16.1Zm-2.3-4.6v2.3h2.3l0-2.3Zm0,0" fill="#8ad24a"/>
        <path id="Trazado_145357" data-name="Trazado 145357" d="M62.1,52.9H59.8a2.3,2.3,0,0,1-2.3-2.3V48.3A2.3,2.3,0,0,1,59.8,46h2.3a2.3,2.3,0,0,1,2.3,2.3v2.3A2.3,2.3,0,0,1,62.1,52.9Zm-2.3-4.6v2.3h2.3l0-2.3Zm0,0" fill="#8ad24a"/>
        <path id="Trazado_145358" data-name="Trazado 145358" d="M62.1,6.9H59.8a2.3,2.3,0,0,1-2.3-2.3V2.3A2.3,2.3,0,0,1,59.8,0h2.3a2.3,2.3,0,0,1,2.3,2.3V4.6a2.3,2.3,0,0,1-2.3,2.3ZM59.8,2.3V4.6h2.3l0-2.3Zm0,0" fill="#8ad24a"/>
      </g>
      <path id="Trazado_145359" data-name="Trazado 145359" d="M0,65.55V32.479H2.3V65.55Zm0,0" fill="#fff"/>
      <path id="Trazado_145360" data-name="Trazado 145360" d="M1.15,59.8A1.153,1.153,0,0,0,0,60.95v4.6H2.3v-4.6A1.153,1.153,0,0,0,1.15,59.8Zm0,0" fill="#8ad24a"/>
      <path id="Trazado_145361" data-name="Trazado 145361" d="M2.3,32.479H0V51.75a1.15,1.15,0,1,0,2.3,0Zm0,0" fill="#8ad24a"/>
      <path id="Trazado_145362" data-name="Trazado 145362" d="M0,56.35a1.211,1.211,0,0,0,.334.816l.172.138a.875.875,0,0,0,.207.1.74.74,0,0,0,.207.069,1.678,1.678,0,0,0,.23.023,1.209,1.209,0,0,0,.816-.334,1.187,1.187,0,0,0,0-1.633,1.2,1.2,0,0,0-.38-.242A1.146,1.146,0,0,0,1.15,55.2a1.21,1.21,0,0,0-.816.333A1.211,1.211,0,0,0,0,56.35Zm0,0" fill="#8ad24a"/>
      <path id="Trazado_145363" data-name="Trazado 145363" d="M65.55,69H3.45A3.454,3.454,0,0,1,0,65.55a1.15,1.15,0,0,1,2.3,0A1.152,1.152,0,0,0,3.45,66.7h62.1a1.152,1.152,0,0,0,1.15-1.15V33.35a1.152,1.152,0,0,0-1.15-1.15H64.4a2.3,2.3,0,0,1-2.3,2.3H59.8a2.3,2.3,0,0,1-2.3-2.3H46a2.3,2.3,0,0,1-2.3,2.3H41.4a2.3,2.3,0,0,1-2.3-2.3H36.8a2.3,2.3,0,0,1-2.3,2.3H32.2a2.3,2.3,0,0,1-2.3-2.3H27.879a4.569,4.569,0,0,1-3.253-1.348l-2.578-2.578a2.287,2.287,0,0,0-1.627-.674H7.179a2.287,2.287,0,0,0-1.627.674L2.974,30.852A2.286,2.286,0,0,0,2.3,32.479a1.15,1.15,0,1,1-2.3,0,4.567,4.567,0,0,1,1.348-3.253l2.578-2.578A4.567,4.567,0,0,1,7.179,25.3H20.421a4.568,4.568,0,0,1,3.253,1.348l2.578,2.578a2.286,2.286,0,0,0,1.627.674H31.05a1.15,1.15,0,0,1,1.15,1.15V32.2h2.3V31.05a1.15,1.15,0,0,1,1.15-1.15h4.6a1.15,1.15,0,0,1,1.15,1.15V32.2h2.3V31.05a1.15,1.15,0,0,1,1.15-1.15h13.8a1.15,1.15,0,0,1,1.15,1.15V32.2h2.3V31.05a1.15,1.15,0,0,1,1.15-1.15h2.3A3.454,3.454,0,0,1,69,33.35v32.2A3.454,3.454,0,0,1,65.55,69Zm0,0" fill="#8ad24a"/>
      <path id="Trazado_145364" data-name="Trazado 145364" d="M34.5,43.7H32.2a2.3,2.3,0,0,1-2.3-2.3V39.1a2.3,2.3,0,0,1,2.3-2.3h2.3a2.3,2.3,0,0,1,2.3,2.3v2.3A2.3,2.3,0,0,1,34.5,43.7Zm-2.3-4.6v2.3h2.3l0-2.3Zm0,0" fill="#8ad24a"/>
    </g>
  </g>
</svg>
