<svg xmlns="http://www.w3.org/2000/svg" xmlns:xlink="http://www.w3.org/1999/xlink" width="69" height="69" viewBox="0 0 69 69">
  <defs>
    <clipPath id="clip-path">
      <rect id="Rectángulo_32697" data-name="Rectángulo 32697" width="69" height="69" transform="translate(766.25 528)" fill="#3ca8f4"/>
    </clipPath>
  </defs>
  <g id="Enmascarar_grupo_66" data-name="Enmascarar grupo 66" transform="translate(-766.25 -528)" clip-path="url(#clip-path)">
    <g id="storage-conection-communication-network-social_network" data-name="storage-conection-communication-network-social network" transform="translate(763.95 525.7)">
      <g id="Grupo_86935" data-name="Grupo 86935">
        <circle id="Elipse_4325" data-name="Elipse 4325" cx="2.3" cy="2.3" r="2.3" transform="translate(40.25 34.5)" fill="#bef38f"/>
        <path id="Trazado_145491" data-name="Trazado 145491" d="M18.4,41.4c8.257,0,14.95-2.058,14.95-4.6V27.6c0,2.542-6.693,4.6-14.95,4.6S3.45,30.141,3.45,27.6v9.2C3.45,39.341,10.143,41.4,18.4,41.4Z" fill="#d4f5b7"/>
        <g id="gota-de-agua" transform="translate(-4.959 45.679)">
          <g id="Grupo_86929" data-name="Grupo 86929" transform="translate(55.597 0.486)">
            <g id="Grupo_86927" data-name="Grupo 86927">
              <path id="Trazado_145492" data-name="Trazado 145492" d="M82.1,23.909a8.553,8.553,0,1,1-15.326-3.688h0L73.664,10l4.412,6.549" transform="translate(-65.111 -10)" fill="#d3ffac"/>
            </g>
            <g id="Grupo_86928" data-name="Grupo 86928" transform="translate(10.837 4.026)">
              <path id="Trazado_145493" data-name="Trazado 145493" d="M288.068,99.677a3.81,3.81,0,0,1,.746-2.271h0l3.081-4.574,3.081,4.574h0a3.828,3.828,0,1,1-6.909,2.271Z" transform="translate(-288.068 -92.831)" fill="#b6fc77"/>
            </g>
          </g>
          <g id="Grupo_86930" data-name="Grupo 86930" transform="translate(55.111 0)">
            <path id="Trazado_145494" data-name="Trazado 145494" d="M101.866,251.667a5.7,5.7,0,0,1-2.892-8.82.5.5,0,0,0,.044-.072.486.486,0,0,0-.831-.5,6.67,6.67,0,0,0,.03,7.94,6.724,6.724,0,0,0,3.361,2.378.486.486,0,0,0,.289-.928Z" transform="translate(-94.86 -230.306)" fill="#29b39d"/>
            <path id="Trazado_145495" data-name="Trazado 145495" d="M74.575,11.358a4.28,4.28,0,0,0-.834-2.55L70.664,4.24a.486.486,0,0,0-.806,0l-1.3,1.925L64.553.214a.486.486,0,0,0-.806,0L56.866,10.429a9.039,9.039,0,1,0,16.323,5.353,9.124,9.124,0,0,0-.078-1.189A4.3,4.3,0,0,0,74.575,11.358ZM70.261,5.382l2.673,3.969.017.024a3.342,3.342,0,1,1-5.381,0l.016-.023,1.377-2.044.008-.011Zm1.956,10.4A8.067,8.067,0,1,1,57.656,11l.017-.025L64.15,1.356l3.826,5.679L66.782,8.808a4.313,4.313,0,0,0,5.415,6.4q.02.284.02.57Z" transform="translate(-55.111 0)" fill="#29b39d"/>
            <path id="Trazado_145496" data-name="Trazado 145496" d="M312.533,204.637a1.652,1.652,0,0,1,.143-.675.486.486,0,1,0-.888-.395,2.639,2.639,0,0,0,.946,3.264.486.486,0,0,0,.541-.808A1.664,1.664,0,0,1,312.533,204.637Z" transform="translate(-299.097 -193.398)" fill="#29b39d"/>
            <path id="Trazado_145497" data-name="Trazado 145497" d="M218.068,447.511a.486.486,0,1,0-.544.662A.49.49,0,0,0,218.068,447.511Z" transform="translate(-209.259 -425.477)" fill="#29b39d"/>
            <path id="Trazado_145498" data-name="Trazado 145498" d="M357.377,268.05a.486.486,0,1,0,0-.808A.488.488,0,0,0,357.377,268.05Z" transform="translate(-342.482 -254.174)" fill="#29b39d"/>
          </g>
        </g>
        <g id="gota-de-agua-2" data-name="gota-de-agua" transform="translate(-4.959 3.679)">
          <g id="Grupo_86933" data-name="Grupo 86933" transform="translate(55.597 0.486)">
            <g id="Grupo_86931" data-name="Grupo 86931">
              <path id="Trazado_145499" data-name="Trazado 145499" d="M82.1,23.909a8.553,8.553,0,1,1-15.326-3.688h0L73.664,10l4.412,6.549" transform="translate(-65.111 -10)" fill="#d3ffac"/>
            </g>
            <g id="Grupo_86932" data-name="Grupo 86932" transform="translate(10.837 4.026)">
              <path id="Trazado_145500" data-name="Trazado 145500" d="M288.068,99.677a3.81,3.81,0,0,1,.746-2.271h0l3.081-4.574,3.081,4.574h0a3.828,3.828,0,1,1-6.909,2.271Z" transform="translate(-288.068 -92.831)" fill="#b6fc77"/>
            </g>
          </g>
          <g id="Grupo_86934" data-name="Grupo 86934" transform="translate(55.111 0)">
            <path id="Trazado_145501" data-name="Trazado 145501" d="M101.866,251.667a5.7,5.7,0,0,1-2.892-8.82.5.5,0,0,0,.044-.072.486.486,0,0,0-.831-.5,6.67,6.67,0,0,0,.03,7.94,6.724,6.724,0,0,0,3.361,2.378.486.486,0,0,0,.289-.928Z" transform="translate(-94.86 -230.306)" fill="#29b39d"/>
            <path id="Trazado_145502" data-name="Trazado 145502" d="M74.575,11.358a4.28,4.28,0,0,0-.834-2.55L70.664,4.24a.486.486,0,0,0-.806,0l-1.3,1.925L64.553.214a.486.486,0,0,0-.806,0L56.866,10.429a9.039,9.039,0,1,0,16.323,5.353,9.124,9.124,0,0,0-.078-1.189A4.3,4.3,0,0,0,74.575,11.358ZM70.261,5.382l2.673,3.969.017.024a3.342,3.342,0,1,1-5.381,0l.016-.023,1.377-2.044.008-.011Zm1.956,10.4A8.067,8.067,0,1,1,57.656,11l.017-.025L64.15,1.356l3.826,5.679L66.782,8.808a4.313,4.313,0,0,0,5.415,6.4q.02.284.02.57Z" transform="translate(-55.111 0)" fill="#29b39d"/>
            <path id="Trazado_145503" data-name="Trazado 145503" d="M312.533,204.637a1.652,1.652,0,0,1,.143-.675.486.486,0,1,0-.888-.395,2.639,2.639,0,0,0,.946,3.264.486.486,0,0,0,.541-.808A1.664,1.664,0,0,1,312.533,204.637Z" transform="translate(-299.097 -193.398)" fill="#29b39d"/>
            <path id="Trazado_145504" data-name="Trazado 145504" d="M218.068,447.511a.486.486,0,1,0-.544.662A.49.49,0,0,0,218.068,447.511Z" transform="translate(-209.259 -425.477)" fill="#29b39d"/>
            <path id="Trazado_145505" data-name="Trazado 145505" d="M357.377,268.05a.486.486,0,1,0,0-.808A.488.488,0,0,0,357.377,268.05Z" transform="translate(-342.482 -254.174)" fill="#29b39d"/>
          </g>
        </g>
      </g>
      <path id="Trazado_145506" data-name="Trazado 145506" d="M16.1,26.45h4.6v2.3H16.1Z" fill="#29b39d"/>
      <path id="Trazado_145507" data-name="Trazado 145507" d="M16.1,35.65h4.6v2.3H16.1Z" fill="#29b39d"/>
      <path id="Trazado_145508" data-name="Trazado 145508" d="M16.1,44.85h4.6v2.3H16.1Z" fill="#29b39d"/>
      <path id="Trazado_145509" data-name="Trazado 145509" d="M48.3,10.35V8.05H42.55A1.15,1.15,0,0,0,41.4,9.2V33.557a3.49,3.49,0,0,0-2.093,2.093H34.5V27.6c0-3.772-8.1-5.75-16.1-5.75S2.3,23.828,2.3,27.6V46c0,3.772,8.1,5.75,16.1,5.75S34.5,49.772,34.5,46V37.95h4.807A3.49,3.49,0,0,0,41.4,40.043V64.4a1.15,1.15,0,0,0,1.15,1.15H48.3v-2.3H43.7V40.043a3.436,3.436,0,0,0,0-6.486V10.35ZM32.2,46c0,1.219-5.244,3.45-13.8,3.45S4.6,47.219,4.6,46V39.9c2.967,1.748,8.406,2.645,13.8,2.645s10.833-.9,13.8-2.645Zm0-9.2c0,1.219-5.244,3.45-13.8,3.45S4.6,38.019,4.6,36.8V30.7c2.967,1.748,8.406,2.645,13.8,2.645s10.833-.9,13.8-2.645ZM18.4,31.05c-8.556,0-13.8-2.231-13.8-3.45s5.244-3.45,13.8-3.45,13.8,2.231,13.8,3.45S26.956,31.05,18.4,31.05Zm24.15,6.9A1.15,1.15,0,1,1,43.7,36.8,1.15,1.15,0,0,1,42.55,37.95Z" fill="#29b39d"/>
    </g>
  </g>
</svg>
