<svg xmlns="http://www.w3.org/2000/svg" xmlns:xlink="http://www.w3.org/1999/xlink" width="69" height="69" viewBox="0 0 69 69">
  <defs>
    <clipPath id="clip-path">
      <rect id="Rectángulo_32701" data-name="Rectángulo 32701" width="69" height="69" transform="translate(1179.5 528)" fill="#fde947"/>
    </clipPath>
  </defs>
  <g id="Enmascarar_grupo_70" data-name="Enmascarar grupo 70" transform="translate(-1179.5 -528)" clip-path="url(#clip-path)">
    <g id="consulta" transform="translate(1179.498 527.998)">
      <path id="Trazado_145645" data-name="Trazado 145645" d="M53.91,1.076V23.718H50.675v2.156L44.2,23.718l-12.928.011V1.076Z" fill="#d3ffac"/>
      <path id="Trazado_145646" data-name="Trazado 145646" d="M31.268,5.389V19.416h-.011l-7.537-.011-5.391,2.156V19.405H15.095V5.389H31.257Z" fill="#e7ffd2"/>
      <path id="Trazado_145647" data-name="Trazado 145647" d="M63.613,42.058v3.224a9.7,9.7,0,0,1-19.407,0V42.058Z" fill="#e7ffd2"/>
      <path id="Trazado_145648" data-name="Trazado 145648" d="M60.376,42.058v3.224a9.649,9.649,0,0,1-8.084,9.553,9.679,9.679,0,0,0,11.322-9.552V42.059H60.376Z" fill="#d3ffac"/>
      <path id="Trazado_145649" data-name="Trazado 145649" d="M49.6,58.22c0,1.2,1.93,2.156,4.313,2.156s4.324-.96,4.324-2.156h3.224a5.386,5.386,0,0,1,5.391,5.391v3.235a1.072,1.072,0,0,1-1.078,1.067l-23.72.011a1.074,1.074,0,0,1-1.078-1.078V63.611a5.379,5.379,0,0,1,5.391-5.391Z" fill="#d3ffac"/>
      <path id="Trazado_145650" data-name="Trazado 145650" d="M61.457,58.22H58.233a5.385,5.385,0,0,1,5.377,5.39v3.235a1.072,1.072,0,0,1-1.078,1.067H65.77a1.073,1.073,0,0,0,1.078-1.067V63.611a5.387,5.387,0,0,0-5.391-5.391Z" fill="#b6fc77"/>
      <path id="Trazado_145651" data-name="Trazado 145651" d="M53.91,36.656A2.163,2.163,0,0,0,56.066,34.5c0-1.2-2.156-2.879-2.156-2.879S51.753,33.3,51.753,34.5A2.156,2.156,0,0,0,53.91,36.656Zm0-7.537a9.7,9.7,0,0,1,9.7,9.7v1.953l-.043.065c-1.294-.927-4.021-2.016-9.661-2.016-5.7,0-8.421,1.121-9.7,2.039V38.825a9.7,9.7,0,0,1,9.7-9.7Z" fill="#d3ffac"/>
      <path id="Trazado_145652" data-name="Trazado 145652" d="M53.91,29.12a9.754,9.754,0,0,0-1.618.146,9.7,9.7,0,0,1,8.084,9.558v.662A9.334,9.334,0,0,1,63.57,40.84l.043-.065V38.822a9.7,9.7,0,0,0-9.7-9.7Z" fill="#b6fc77"/>
      <path id="Trazado_145653" data-name="Trazado 145653" d="M58.222,58.22h.011c0,1.2-1.93,2.156-4.324,2.156S49.6,59.417,49.6,58.22V53.972a9.683,9.683,0,0,0,8.626,0Z" fill="#e7ffd2"/>
      <path id="Trazado_145654" data-name="Trazado 145654" d="M63.613,42.058H43.128a2.855,2.855,0,0,1,1.078-1.2c1.283-.918,4-2.039,9.7-2.039,5.639,0,8.367,1.089,9.661,2.016a2.89,2.89,0,0,1,1.121,1.218Z" fill="#fff"/>
      <path id="Trazado_145655" data-name="Trazado 145655" d="M56.066,34.5a2.156,2.156,0,1,1-4.313,0c0-1.2,2.156-2.879,2.156-2.879S56.066,33.3,56.066,34.5Z" fill="#fff"/>
      <path id="Trazado_145656" data-name="Trazado 145656" d="M28.033,40.969V63.611a5.386,5.386,0,0,0-5.391-5.391H19.407V53.972a9.7,9.7,0,0,0,5.391-8.69V40.969Z" fill="#b6fc77"/>
      <path id="Trazado_145657" data-name="Trazado 145657" d="M5.391,45.282a9.661,9.661,0,0,0,5.391,8.69V58.22H7.547a5.379,5.379,0,0,0-5.391,5.391V40.969H5.391Z" fill="#b6fc77"/>
      <path id="Trazado_145658" data-name="Trazado 145658" d="M19.407,53.972V58.22l-.011.011-4.3,5.38L10.782,58.22V53.972a9.683,9.683,0,0,0,8.626,0Z" fill="#e7ffd2"/>
      <path id="Trazado_145659" data-name="Trazado 145659" d="M28.033,66.835v.011a1.072,1.072,0,0,1-1.078,1.067l-23.72.011a1.074,1.074,0,0,1-1.078-1.078V63.611A5.379,5.379,0,0,1,7.547,58.22h3.235l4.313,5.391,4.3-5.38.011-.011h3.235a5.386,5.386,0,0,1,5.391,5.391Z" fill="#d3ffac"/>
      <path id="Trazado_145660" data-name="Trazado 145660" d="M22.642,58.22H19.407A5.387,5.387,0,0,1,24.8,63.611v3.235a1.072,1.072,0,0,1-1.078,1.067h3.238a1.073,1.073,0,0,0,1.078-1.067V63.611A5.387,5.387,0,0,0,22.642,58.22Z" fill="#b6fc77"/>
      <path id="Trazado_145661" data-name="Trazado 145661" d="M6.48,40.969H24.8v4.313a9.7,9.7,0,0,1-19.407,0V40.969Z" fill="#e7ffd2"/>
      <path id="Trazado_145662" data-name="Trazado 145662" d="M23.731,40.969h-2.17v4.313a9.647,9.647,0,0,1-8.086,9.553A9.68,9.68,0,0,0,24.8,45.283V40.97H23.731Z" fill="#d3ffac"/>
      <path id="Trazado_145663" data-name="Trazado 145663" d="M10.793,40.969H2.156a12.938,12.938,0,0,1,25.877,0H10.793Z" fill="#d3ffac"/>
      <path id="Trazado_145664" data-name="Trazado 145664" d="M15.095,28.042a12.97,12.97,0,0,0-1.621.112A12.932,12.932,0,0,1,24.8,40.97h3.238A12.94,12.94,0,0,0,15.095,28.042Z" fill="#b6fc77"/>
      <g id="Grupo_86947" data-name="Grupo 86947">
        <path id="Trazado_145665" data-name="Trazado 145665" d="M40.971,64.689a1.077,1.077,0,0,1-1.078-1.078,6.476,6.476,0,0,1,6.469-6.469,1.078,1.078,0,1,1,0,2.156,4.317,4.317,0,0,0-4.313,4.313A1.077,1.077,0,0,1,40.971,64.689Z" fill="#8ad24a"/>
        <path id="Trazado_145666" data-name="Trazado 145666" d="M49.6,59.3H46.362a1.078,1.078,0,0,1,0-2.156H49.6a1.078,1.078,0,1,1,0,2.156Z" fill="#8ad24a"/>
        <path id="Trazado_145667" data-name="Trazado 145667" d="M40.971,67.924a1.077,1.077,0,0,1-1.078-1.078V63.611a1.078,1.078,0,1,1,2.156,0v3.235A1.077,1.077,0,0,1,40.971,67.924Z" fill="#8ad24a"/>
        <path id="Trazado_145668" data-name="Trazado 145668" d="M66.848,64.689a1.077,1.077,0,0,1-1.078-1.078A4.317,4.317,0,0,0,61.457,59.3a1.078,1.078,0,0,1,0-2.156,6.476,6.476,0,0,1,6.469,6.469A1.077,1.077,0,0,1,66.848,64.689Z" fill="#8ad24a"/>
        <path id="Trazado_145669" data-name="Trazado 145669" d="M61.457,59.3H58.222a1.078,1.078,0,0,1,0-2.156h3.235a1.078,1.078,0,1,1,0,2.156Z" fill="#8ad24a"/>
        <path id="Trazado_145670" data-name="Trazado 145670" d="M66.848,67.924a1.077,1.077,0,0,1-1.078-1.078V63.611a1.078,1.078,0,1,1,2.156,0v3.235A1.077,1.077,0,0,1,66.848,67.924Z" fill="#8ad24a"/>
        <path id="Trazado_145671" data-name="Trazado 145671" d="M49.6,59.3a1.077,1.077,0,0,1-1.078-1.078V53.976a1.078,1.078,0,1,1,2.156,0V58.22A1.077,1.077,0,0,1,49.6,59.3Z" fill="#8ad24a"/>
        <path id="Trazado_145672" data-name="Trazado 145672" d="M58.222,59.3a1.077,1.077,0,0,1-1.078-1.078V53.976a1.078,1.078,0,1,1,2.156,0V58.22A1.077,1.077,0,0,1,58.222,59.3Z" fill="#8ad24a"/>
        <path id="Trazado_145673" data-name="Trazado 145673" d="M53.91,56.064a10.793,10.793,0,0,1-10.782-10.78,1.078,1.078,0,0,1,2.156,0,8.626,8.626,0,0,0,17.251,0,1.078,1.078,0,0,1,2.156,0A10.793,10.793,0,0,1,53.91,56.064Z" fill="#8ad24a"/>
        <path id="Trazado_145674" data-name="Trazado 145674" d="M63.613,39.9a1.077,1.077,0,0,1-1.078-1.078,8.626,8.626,0,0,0-17.251,0,1.078,1.078,0,1,1-2.156,0,10.782,10.782,0,0,1,21.564,0A1.077,1.077,0,0,1,63.613,39.9Z" fill="#8ad24a"/>
        <path id="Trazado_145675" data-name="Trazado 145675" d="M2.156,64.688A1.077,1.077,0,0,1,1.078,63.61a6.476,6.476,0,0,1,6.469-6.469,1.078,1.078,0,0,1,0,2.156A4.317,4.317,0,0,0,3.235,63.61,1.077,1.077,0,0,1,2.156,64.688Z" fill="#8ad24a"/>
        <path id="Trazado_145676" data-name="Trazado 145676" d="M10.782,59.3H7.547a1.078,1.078,0,0,1,0-2.156h3.235a1.078,1.078,0,0,1,0,2.156Z" fill="#8ad24a"/>
        <path id="Trazado_145677" data-name="Trazado 145677" d="M2.156,67.924a1.077,1.077,0,0,1-1.078-1.078V63.61a1.078,1.078,0,0,1,2.156,0v3.236A1.077,1.077,0,0,1,2.156,67.924Z" fill="#8ad24a"/>
        <path id="Trazado_145678" data-name="Trazado 145678" d="M28.033,64.688a1.077,1.077,0,0,1-1.078-1.078A4.317,4.317,0,0,0,22.642,59.3a1.078,1.078,0,0,1,0-2.156,6.476,6.476,0,0,1,6.469,6.469A1.077,1.077,0,0,1,28.033,64.688Z" fill="#8ad24a"/>
        <path id="Trazado_145679" data-name="Trazado 145679" d="M22.642,59.3H19.407a1.078,1.078,0,1,1,0-2.156h3.235a1.078,1.078,0,0,1,0,2.156Z" fill="#8ad24a"/>
        <path id="Trazado_145680" data-name="Trazado 145680" d="M28.033,67.924a1.077,1.077,0,0,1-1.078-1.078V63.61a1.078,1.078,0,0,1,2.156,0v3.236A1.077,1.077,0,0,1,28.033,67.924Z" fill="#8ad24a"/>
        <path id="Trazado_145681" data-name="Trazado 145681" d="M10.782,59.3A1.077,1.077,0,0,1,9.7,58.219V53.975a1.078,1.078,0,0,1,2.156,0v4.244A1.077,1.077,0,0,1,10.782,59.3Z" fill="#8ad24a"/>
        <path id="Trazado_145682" data-name="Trazado 145682" d="M19.407,59.3a1.077,1.077,0,0,1-1.078-1.078V53.975a1.078,1.078,0,0,1,2.156,0v4.244A1.077,1.077,0,0,1,19.407,59.3Z" fill="#8ad24a"/>
        <path id="Trazado_145683" data-name="Trazado 145683" d="M15.093,56.063a10.792,10.792,0,0,1-10.78-10.78,1.078,1.078,0,1,1,2.156,0,8.626,8.626,0,0,0,17.251,0,1.078,1.078,0,1,1,2.156,0A10.794,10.794,0,0,1,15.093,56.063Z" fill="#8ad24a"/>
        <path id="Trazado_145684" data-name="Trazado 145684" d="M50.673,26.958a1.088,1.088,0,0,1-.341-.055l-6.3-2.1-12.759.013h0a1.077,1.077,0,0,1-1.078-1.078V1.08A1.078,1.078,0,0,1,31.268,0h22.64A1.078,1.078,0,0,1,54.986,1.08V23.723A1.078,1.078,0,0,1,53.907,24.8H51.752v1.079a1.078,1.078,0,0,1-1.078,1.077ZM44.2,22.645a1.079,1.079,0,0,1,.341.055L49.6,24.384v-.662a1.078,1.078,0,0,1,1.078-1.077h2.154V2.159H32.346v20.5Z" fill="#8ad24a"/>
        <path id="Trazado_145685" data-name="Trazado 145685" d="M18.327,22.643a1.078,1.078,0,0,1-1.078-1.078V20.487H15.093a1.078,1.078,0,0,1-1.078-1.078V5.4a1.078,1.078,0,0,1,1.078-1.078H31.259a1.078,1.078,0,0,1,0,2.156H16.171V18.33h2.156a1.078,1.078,0,0,1,1.078,1.078v.564l3.913-1.566a.834.834,0,0,1,.4-.077l7.541.013a1.078,1.078,0,0,1,0,2.156h0l-7.333-.012-5.2,2.079a1.068,1.068,0,0,1-.4.077Z" fill="#8ad24a"/>
        <path id="Trazado_145686" data-name="Trazado 145686" d="M42.048,18.33a1.078,1.078,0,0,1-1.078-1.078V10.786a1.078,1.078,0,0,1,2.156,0v6.466A1.078,1.078,0,0,1,42.048,18.33Z" fill="#8ad24a"/>
        <path id="Trazado_145687" data-name="Trazado 145687" d="M42.081,8.629a1.078,1.078,0,0,1-.012-2.156h.012a1.078,1.078,0,1,1,0,2.156Z" fill="#8ad24a"/>
        <path id="Trazado_145688" data-name="Trazado 145688" d="M3.235,69a2.159,2.159,0,0,1-2.156-2.156,1.078,1.078,0,1,1,2.156,0v0a1.077,1.077,0,1,1,0,2.154Z" fill="#8ad24a"/>
        <path id="Trazado_145689" data-name="Trazado 145689" d="M26.955,69a1.078,1.078,0,1,1,0-2.156,1.078,1.078,0,1,1,2.156,0A2.159,2.159,0,0,1,26.955,69Z" fill="#8ad24a"/>
        <path id="Trazado_145690" data-name="Trazado 145690" d="M3.235,69a1.078,1.078,0,0,1,0-2.156l23.72,0a1.078,1.078,0,0,1,0,2.156Z" fill="#8ad24a"/>
        <path id="Trazado_145691" data-name="Trazado 145691" d="M42.05,69a2.159,2.159,0,0,1-2.156-2.156,1.078,1.078,0,1,1,2.156,0v0a1.077,1.077,0,1,1,0,2.154Z" fill="#8ad24a"/>
        <path id="Trazado_145692" data-name="Trazado 145692" d="M65.77,69a1.078,1.078,0,1,1,0-2.156,1.078,1.078,0,1,1,2.156,0A2.159,2.159,0,0,1,65.77,69Z" fill="#8ad24a"/>
        <path id="Trazado_145693" data-name="Trazado 145693" d="M42.05,69a1.078,1.078,0,1,1,0-2.156l23.72,0a1.078,1.078,0,0,1,0,2.156Z" fill="#8ad24a"/>
        <path id="Trazado_145694" data-name="Trazado 145694" d="M15.094,64.688a1.078,1.078,0,0,1-.84-1.752l4.306-5.372a1.078,1.078,0,0,1,1.682,1.348l-4.306,5.372a1.074,1.074,0,0,1-.842.4Z" fill="#8ad24a"/>
        <path id="Trazado_145695" data-name="Trazado 145695" d="M15.1,64.688a1.08,1.08,0,0,1-.843-.4L9.941,58.893a1.079,1.079,0,0,1,1.684-1.348l4.312,5.391a1.078,1.078,0,0,1-.841,1.752Z" fill="#8ad24a"/>
        <path id="Trazado_145696" data-name="Trazado 145696" d="M64.693,43.143H43.128a1.078,1.078,0,0,1,0-2.156H64.693a1.078,1.078,0,1,1,0,2.156Z" fill="#8ad24a"/>
        <path id="Trazado_145697" data-name="Trazado 145697" d="M43.134,43.173a1.121,1.121,0,0,1-.357-.059,1.1,1.1,0,0,1-.673-1.39c.221-.664,1.83-3.976,11.805-3.976s11.584,3.312,11.805,3.976a1.078,1.078,0,1,1-2.045.682c-.006,0-1.309-2.5-9.761-2.5-8.5,0-9.767,2.529-9.778,2.554a1.039,1.039,0,0,1-1,.714Z" fill="#8ad24a"/>
        <path id="Trazado_145698" data-name="Trazado 145698" d="M44.206,46.362a1.077,1.077,0,0,1-1.078-1.078V42.065a1.078,1.078,0,0,1,2.156,0v3.219A1.077,1.077,0,0,1,44.206,46.362Z" fill="#8ad24a"/>
        <path id="Trazado_145699" data-name="Trazado 145699" d="M63.613,46.362a1.077,1.077,0,0,1-1.078-1.078V42.065a1.078,1.078,0,0,1,2.156,0v3.219A1.077,1.077,0,0,1,63.613,46.362Z" fill="#8ad24a"/>
        <path id="Trazado_145700" data-name="Trazado 145700" d="M63.613,41.855a1.077,1.077,0,0,1-1.078-1.078V38.824a1.078,1.078,0,1,1,2.156,0v1.954A1.077,1.077,0,0,1,63.613,41.855Z" fill="#8ad24a"/>
        <path id="Trazado_145701" data-name="Trazado 145701" d="M44.206,41.948a1.077,1.077,0,0,1-1.078-1.078V38.825a1.078,1.078,0,1,1,2.156,0V40.87A1.077,1.077,0,0,1,44.206,41.948Z" fill="#8ad24a"/>
        <path id="Trazado_145702" data-name="Trazado 145702" d="M28.033,42.057a1.077,1.077,0,0,1-1.078-1.078,11.86,11.86,0,0,0-23.72,0,1.078,1.078,0,1,1-2.156,0,14.017,14.017,0,0,1,28.033,0A1.077,1.077,0,0,1,28.033,42.057Z" fill="#8ad24a"/>
        <path id="Trazado_145703" data-name="Trazado 145703" d="M28.033,42.057H2.156a1.078,1.078,0,1,1,0-2.156H28.033a1.078,1.078,0,1,1,0,2.156Z" fill="#8ad24a"/>
        <path id="Trazado_145704" data-name="Trazado 145704" d="M28.033,64.689a1.077,1.077,0,0,1-1.078-1.078V40.979a1.078,1.078,0,0,1,2.156,0V63.611A1.077,1.077,0,0,1,28.033,64.689Z" fill="#8ad24a"/>
        <path id="Trazado_145705" data-name="Trazado 145705" d="M2.156,64.689a1.077,1.077,0,0,1-1.078-1.078V40.979a1.078,1.078,0,0,1,2.156,0V63.611A1.077,1.077,0,0,1,2.156,64.689Z" fill="#8ad24a"/>
        <path id="Trazado_145706" data-name="Trazado 145706" d="M5.391,46.361a1.077,1.077,0,0,1-1.078-1.078V40.969a1.078,1.078,0,1,1,2.156,0v4.314A1.077,1.077,0,0,1,5.391,46.361Z" fill="#8ad24a"/>
        <path id="Trazado_145707" data-name="Trazado 145707" d="M24.8,46.361a1.077,1.077,0,0,1-1.078-1.078v-4.3a1.078,1.078,0,0,1,2.156,0v4.3A1.077,1.077,0,0,1,24.8,46.361Z" fill="#8ad24a"/>
        <path id="Trazado_145708" data-name="Trazado 145708" d="M6.486,42.057a1.077,1.077,0,0,1-1.078-1.078V39.892a1.078,1.078,0,1,1,2.156,0v1.087A1.078,1.078,0,0,1,6.486,42.057Z" fill="#8ad24a"/>
        <path id="Trazado_145709" data-name="Trazado 145709" d="M10.8,42.057a1.077,1.077,0,0,1-1.078-1.078V39.892a1.078,1.078,0,1,1,2.156,0v1.087A1.078,1.078,0,0,1,10.8,42.057Z" fill="#8ad24a"/>
        <path id="Trazado_145710" data-name="Trazado 145710" d="M15.112,42.057a1.077,1.077,0,0,1-1.078-1.078V39.892a1.078,1.078,0,1,1,2.156,0v1.087A1.078,1.078,0,0,1,15.112,42.057Z" fill="#8ad24a"/>
        <path id="Trazado_145711" data-name="Trazado 145711" d="M19.425,42.057a1.077,1.077,0,0,1-1.078-1.078V39.892a1.078,1.078,0,1,1,2.156,0v1.087A1.078,1.078,0,0,1,19.425,42.057Z" fill="#8ad24a"/>
        <path id="Trazado_145712" data-name="Trazado 145712" d="M23.737,42.057a1.077,1.077,0,0,1-1.078-1.078V39.892a1.078,1.078,0,1,1,2.156,0v1.087A1.078,1.078,0,0,1,23.737,42.057Z" fill="#8ad24a"/>
        <path id="Trazado_145713" data-name="Trazado 145713" d="M53.907,37.735A3.239,3.239,0,0,1,50.673,34.5c0-1.594,1.968-3.254,2.571-3.725a1.078,1.078,0,0,1,1.326,0c.6.471,2.571,2.133,2.571,3.725a3.239,3.239,0,0,1-3.235,3.235Zm0-4.679A3.739,3.739,0,0,0,52.829,34.5a1.078,1.078,0,0,0,2.156,0A3.812,3.812,0,0,0,53.907,33.055Z" fill="#8ad24a"/>
        <path id="Trazado_145714" data-name="Trazado 145714" d="M53.918,61.465c-3.077,0-5.4-1.392-5.4-3.239a1.078,1.078,0,1,1,2.156,0c0,.27,1.149,1.083,3.243,1.083s3.243-.813,3.243-1.083a1.078,1.078,0,1,1,2.156,0C59.318,60.073,57,61.465,53.918,61.465Z" fill="#8ad24a"/>
      </g>
    </g>
  </g>
</svg>
