<svg xmlns="http://www.w3.org/2000/svg" width="105" height="91.321" viewBox="0 0 105 91.321">
  <g id="Grupo_87122" data-name="Grupo 87122" transform="translate(-826 -4209.333)">
    <rect id="Rectángulo_32725" data-name="Rectángulo 32725" width="105" height="46" transform="translate(826 4254.654)" fill="#3ca8f4"/>
    <g id="Grupo_87121" data-name="Grupo 87121" transform="translate(599.797 4085.198)">
      <path id="Trazado_146094" data-name="Trazado 146094" d="M273.969,200.12a11.806,11.806,0,0,1-5.8-1.389l-17.915-10.343a4.266,4.266,0,0,1-2.488-3.493,4.116,4.116,0,0,1,2.285-3.435v0l23.874-13.79a12.8,12.8,0,0,1,11.6,0L303.4,177.985l.05.027c1.614.932,2.5,2.19,2.489,3.544a4.266,4.266,0,0,1-2.489,3.506l-23.677,13.67A11.826,11.826,0,0,1,273.969,200.12Z" transform="translate(0 9.245)" opacity="0.3"/>
      <g id="Grupo_87106" data-name="Grupo 87106" transform="translate(288.184 128.993)">
        <path id="Trazado_146095" data-name="Trazado 146095" d="M297.975,162.92l1.461-1.422-2.713-26.69-4.3-6.688-8.767,1.951v3.883l4.928-1.1,3.337,26.567,2.042,2.217Z" transform="translate(-280.31 -128.119)" fill="#003552"/>
        <path id="Trazado_146096" data-name="Trazado 146096" d="M281.193,161.793l-.281,2.218,5.625,3.247,1.577-2.168-1.294-.048Z" transform="translate(-280.912 -120.731)" fill="#003552"/>
        <path id="Trazado_146097" data-name="Trazado 146097" d="M288.018,167.52l10.509-10.232-6.055-3.495-11.329,9.756Z" transform="translate(-280.862 -122.487)" fill="#517fa2"/>
        <path id="Trazado_146098" data-name="Trazado 146098" d="M297.636,130.9l-6.19-.648-2.578,2.6v3.884l4.929-1.1,3.338,26.568-11.329,9.757-.28,2.217,15.834-13.642Z" transform="translate(-279.9 -127.651)" fill="#295e87"/>
        <path id="Trazado_146099" data-name="Trazado 146099" d="M298.046,131.365l-5.623-3.246-8.767,1.951,5.622,3.247Z" transform="translate(-280.31 -128.119)" fill="#517fa2"/>
      </g>
      <path id="Trazado_146100" data-name="Trazado 146100" d="M305.582,140.644l-.8-1.586-.768-.917-19.2-11.188a11.57,11.57,0,0,0-5.415-1.1,11.956,11.956,0,0,0-4.977,1.1l-23.23,13.44-2.075,1.489-1.106,2.1L254.3,193.2h0a3.456,3.456,0,0,0,1.929,2.457l12.958,7.482a10.412,10.412,0,0,0,9.411,0l18.784-10.793a3.505,3.505,0,0,0,1.919-2.386h0Z" transform="translate(0.054 0.376)" fill="#8dd5ff" opacity="0.5"/>
      <path id="Trazado_146101" data-name="Trazado 146101" d="M268.158,193.027l-12.591-7.27c-2.527-1.457-2.527-3.826,0-5.282l18.253-10.49a10.12,10.12,0,0,1,9.149,0l12.592,7.271c2.524,1.455,2.524,3.825,0,5.281l-18.255,10.49A10.125,10.125,0,0,1,268.158,193.027Z" transform="translate(1.296 9.818)" fill="#4fbeff"/>
      <path id="Trazado_146102" data-name="Trazado 146102" d="M305.582,140.676c.009-1.188-.772-2.377-2.338-3.281l-.006,0v-.006l-17.916-10.343a12.507,12.507,0,0,0-11.3,0l-23.679,13.67v0c-1.564.907-2.345,2.1-2.331,3.287l.619-.024a3.663,3.663,0,0,1,2.152-3.016l0,0L274.452,127.3a11.576,11.576,0,0,1,10.437,0L302.8,137.645h.007a3.66,3.66,0,0,1,2.152,3.012Z" transform="translate(0.054 0.344)" fill="#c7f2ff"/>
      <g id="Grupo_87107" data-name="Grupo 87107" transform="translate(254.074 170.967)" opacity="0.7">
        <path id="Trazado_146103" data-name="Trazado 146103" d="M296.674,174.608l-19.116,11.037a9.352,9.352,0,0,1-8.425,0l-14.463-8.351a3.174,3.174,0,0,1-1.7-2.077h0l.985,7.684c.006.045.015.09.023.135l0,.026h0a3.253,3.253,0,0,0,1.711,2.039l12.87,7.431a9.456,9.456,0,0,0,8.521,0L295.8,181.725a3.128,3.128,0,0,0,1.74-2.22h0l.862-7.158H298.4A3.046,3.046,0,0,1,296.674,174.608Z" transform="translate(-252.933 -160.391)" fill="#4fbeff"/>
        <path id="Trazado_146104" data-name="Trazado 146104" d="M278,162.542a8.6,8.6,0,0,0-4.209,1l-19.117,11.035c-2.317,1.338-2.316,3.525,0,4.863l14.463,8.351a9.352,9.352,0,0,0,8.425,0l19.116-11.037c2.317-1.338,2.317-3.526,0-4.864l-14.464-8.349a8.6,8.6,0,0,0-4.213-1Z" transform="translate(-252.938 -162.542)" fill="#8dd5ff"/>
      </g>
      <g id="Grupo_87108" data-name="Grupo 87108" transform="translate(270.347 162.37)">
        <path id="Trazado_146105" data-name="Trazado 146105" d="M270.679,172.728,268.467,174l-.925-1.29.345-3.03,2.791-.266Z" transform="translate(-266.008 -152.436)" fill="#c2d2ed"/>
        <path id="Trazado_146106" data-name="Trazado 146106" d="M266.284,158.579l.791,15.531h0a2.879,2.879,0,0,0,1.668,2.273,8.477,8.477,0,0,1-.166-3.943,15.743,15.743,0,0,0,2.892,4.824,8.82,8.82,0,0,0,5.386-.874,2.874,2.874,0,0,0,1.677-2.279h0l.79-15.531Z" transform="translate(-266.284 -154.814)" fill="#e7edf8"/>
        <path id="Trazado_146107" data-name="Trazado 146107" d="M276.191,159.439a12.545,12.545,0,0,0-6.791,0h-3.078l.151,2.966a5.815,5.815,0,0,0,1.029.741,11.691,11.691,0,0,0,10.585,0,5.725,5.725,0,0,0,1.029-.741l.151-2.966Z" transform="translate(-266.275 -154.728)" fill="#c2d2ed" opacity="0.5"/>
        <path id="Trazado_146108" data-name="Trazado 146108" d="M277.417,161.918a10.19,10.19,0,0,1-9.222,0c-2.547-1.469-2.547-3.853,0-5.324a10.19,10.19,0,0,1,9.222,0C279.96,158.065,279.96,160.449,277.417,161.918Z" transform="translate(-266.284 -155.491)" fill="#fff"/>
      </g>
      <g id="Grupo_87114" data-name="Grupo 87114" transform="translate(248.683 126.404)">
        <path id="Trazado_146109" data-name="Trazado 146109" d="M304.772,141.074l-.307-.81-.651-1.482-1.155-1L284.149,127.2a10.591,10.591,0,0,0-5.191-.938,13.122,13.122,0,0,0-5.195,1.5l-23.172,13.456-1.53,1.532-.252,1.33-.212.473,3.967,24.626a1.294,1.294,0,0,0,.023.149l0,.029h0a3.605,3.605,0,0,0,1.9,2.256l14.245,8.225a10.463,10.463,0,0,0,9.432,0l20.717-11.961a3.468,3.468,0,0,0,1.928-2.458h0Z" transform="translate(-248.5 -125.943)" fill="#517fa2" opacity="0.4"/>
        <path id="Trazado_146110" data-name="Trazado 146110" d="M277.29,174.327a10.2,10.2,0,0,1-9.189,0l-13.885-8.015c-2.525-1.46-2.525-3.848,0-5.307l20.192-11.656a10.2,10.2,0,0,1,9.192,0l13.88,8.015c2.529,1.458,2.529,3.846,0,5.305Z" transform="translate(-247.683 -121.113)" fill="#295e87" opacity="0.4"/>
        <g id="Grupo_87113" data-name="Grupo 87113" transform="translate(20.697 28.008)">
          <g id="Grupo_87109" data-name="Grupo 87109" transform="translate(0 7.607)">
            <path id="Trazado_146111" data-name="Trazado 146111" d="M280.465,158.833h-4.091a12.521,12.521,0,0,0-6.791,0h-4.092v.652h0a3.724,3.724,0,0,0,2.195,3.056,11.7,11.7,0,0,0,10.585,0,3.723,3.723,0,0,0,2.194-3.057h0Z" transform="translate(-265.491 -154.511)" fill="#e7edf8"/>
            <path id="Trazado_146112" data-name="Trazado 146112" d="M278.271,162.582a11.691,11.691,0,0,1-10.585,0c-2.923-1.688-2.923-4.424,0-6.111a11.691,11.691,0,0,1,10.585,0C281.195,158.158,281.195,160.895,278.271,162.582Z" transform="translate(-265.491 -155.204)" fill="#fff"/>
          </g>
          <g id="Grupo_87111" data-name="Grupo 87111" transform="translate(0.967 3.157)">
            <path id="Trazado_146113" data-name="Trazado 146113" d="M279.326,154.715h-3.564a10.927,10.927,0,0,0-5.915,0h-3.563v4.777h0a3.244,3.244,0,0,0,1.911,2.663,10.19,10.19,0,0,0,9.222,0,3.245,3.245,0,0,0,1.91-2.663h0Z" transform="translate(-266.284 -150.951)" fill="#e7edf8"/>
            <g id="Grupo_87110" data-name="Grupo 87110" transform="translate(0.171 5.478)">
              <path id="Trazado_146114" data-name="Trazado 146114" d="M275.361,157.586c-.09.05-.184.1-.28.144v3.233c.1-.048.19-.1.28-.145Z" transform="translate(-264.525 -155.709)" fill="#c2d2ed"/>
              <path id="Trazado_146115" data-name="Trazado 146115" d="M274.854,157.833c-.093.04-.188.078-.282.113v3.231c.094-.035.189-.073.282-.113Z" transform="translate(-264.637 -155.655)" fill="#c2d2ed"/>
              <path id="Trazado_146116" data-name="Trazado 146116" d="M274.342,158.025c-.091.03-.185.061-.279.089v3.23c.094-.028.188-.057.279-.088Z" transform="translate(-264.748 -155.613)" fill="#c2d2ed"/>
              <path id="Trazado_146117" data-name="Trazado 146117" d="M268.232,157.73c-.1-.045-.189-.094-.28-.144v3.231c.091.05.184.1.28.145Z" transform="translate(-266.089 -155.709)" fill="#c2d2ed"/>
              <path id="Trazado_146118" data-name="Trazado 146118" d="M267.443,160.5c.09.065.182.128.28.19v-3.231c-.1-.062-.19-.127-.28-.191Z" transform="translate(-266.2 -155.78)" fill="#c2d2ed"/>
              <path id="Trazado_146119" data-name="Trazado 146119" d="M275.871,157.265c-.089.065-.182.129-.28.191v3.233c.1-.063.191-.127.28-.191Z" transform="translate(-264.413 -155.78)" fill="#c2d2ed"/>
              <path id="Trazado_146120" data-name="Trazado 146120" d="M272.815,158.363c-.094.012-.187.023-.28.033v3.231l.28-.032Z" transform="translate(-265.083 -155.539)" fill="#c2d2ed"/>
              <path id="Trazado_146121" data-name="Trazado 146121" d="M276.611,159.8a2.958,2.958,0,0,0,.278-.522v-3.231a3,3,0,0,1-.278.522Z" transform="translate(-264.189 -156.047)" fill="#c2d2ed"/>
              <path id="Trazado_146122" data-name="Trazado 146122" d="M272.026,161.659l.28-.016v-3.231c-.093.007-.187.012-.28.016Z" transform="translate(-265.195 -155.528)" fill="#c2d2ed"/>
              <path id="Trazado_146123" data-name="Trazado 146123" d="M273.324,158.285c-.094.017-.187.034-.279.048v3.233l.279-.049Z" transform="translate(-264.972 -155.556)" fill="#c2d2ed"/>
              <path id="Trazado_146124" data-name="Trazado 146124" d="M273.831,158.174c-.09.022-.183.045-.277.065v3.233c.094-.022.187-.044.277-.067Z" transform="translate(-264.86 -155.58)" fill="#c2d2ed"/>
              <path id="Trazado_146125" data-name="Trazado 146125" d="M267.213,157.092a3.486,3.486,0,0,1-.28-.271v3.231a3.7,3.7,0,0,0,.28.271Z" transform="translate(-266.312 -155.877)" fill="#c2d2ed"/>
              <path id="Trazado_146126" data-name="Trazado 146126" d="M268.741,157.946c-.1-.035-.188-.073-.28-.113v3.23c.093.041.185.079.28.115Z" transform="translate(-265.977 -155.655)" fill="#c2d2ed"/>
              <path id="Trazado_146127" data-name="Trazado 146127" d="M271.795,158.433q-.137,0-.278,0v3.231h.278Z" transform="translate(-265.307 -155.524)" fill="#c2d2ed"/>
              <path id="Trazado_146128" data-name="Trazado 146128" d="M276.379,156.821c-.085.091-.178.184-.277.271v3.231c.1-.088.191-.179.277-.271Z" transform="translate(-264.301 -155.877)" fill="#c2d2ed"/>
              <path id="Trazado_146129" data-name="Trazado 146129" d="M271.287,158.428c-.094,0-.188-.009-.28-.016v3.231l.28.016Z" transform="translate(-265.419 -155.528)" fill="#c2d2ed"/>
              <path id="Trazado_146130" data-name="Trazado 146130" d="M266.7,156.569a2.851,2.851,0,0,1-.279-.522v3.233a2.842,2.842,0,0,0,.279.521Z" transform="translate(-266.424 -156.047)" fill="#c2d2ed"/>
              <path id="Trazado_146131" data-name="Trazado 146131" d="M270.779,158.4c-.1-.01-.189-.021-.282-.033V161.6c.093.011.185.022.282.032Z" transform="translate(-265.531 -155.539)" fill="#c2d2ed"/>
              <path id="Trazado_146132" data-name="Trazado 146132" d="M269.249,158.114c-.094-.028-.185-.059-.279-.089v3.231c.094.03.185.06.279.088Z" transform="translate(-265.865 -155.613)" fill="#c2d2ed"/>
              <path id="Trazado_146133" data-name="Trazado 146133" d="M269.76,158.239c-.094-.02-.187-.043-.282-.065v3.23l.282.067Z" transform="translate(-265.754 -155.58)" fill="#c2d2ed"/>
              <path id="Trazado_146134" data-name="Trazado 146134" d="M270.27,158.333c-.094-.013-.189-.03-.282-.048v3.231c.093.017.188.032.282.049Z" transform="translate(-265.642 -155.556)" fill="#c2d2ed"/>
            </g>
            <path id="Trazado_146135" data-name="Trazado 146135" d="M277.417,157.981a10.19,10.19,0,0,1-9.222,0c-2.547-1.469-2.547-3.853,0-5.324a10.19,10.19,0,0,1,9.222,0C279.96,154.128,279.96,156.512,277.417,157.981Z" transform="translate(-266.284 -151.555)" fill="#fff"/>
          </g>
          <g id="Grupo_87112" data-name="Grupo 87112" transform="translate(3.645)">
            <path id="Trazado_146136" data-name="Trazado 146136" d="M276.167,150.828h-2.1a6.428,6.428,0,0,0-3.484,0h-2.1v4.685h0a1.913,1.913,0,0,0,1.125,1.568,6.008,6.008,0,0,0,5.434,0,1.914,1.914,0,0,0,1.128-1.568h0Z" transform="translate(-268.48 -148.61)" fill="#e7edf8"/>
            <path id="Trazado_146137" data-name="Trazado 146137" d="M275.039,152.753a6.008,6.008,0,0,1-5.434,0c-1.5-.867-1.5-2.273,0-3.139a6.008,6.008,0,0,1,5.434,0C276.541,150.481,276.541,151.886,275.039,152.753Z" transform="translate(-268.48 -148.965)" fill="#fff"/>
            <path id="Trazado_146138" data-name="Trazado 146138" d="M275.037,151.3a1.6,1.6,0,0,0-.826-.969,4.529,4.529,0,0,0-4.113,0,1.588,1.588,0,0,0-.827.969,1.332,1.332,0,0,1,.827-1.4,4.544,4.544,0,0,1,4.113,0A1.332,1.332,0,0,1,275.037,151.3Z" transform="translate(-268.312 -148.868)" fill="#c2d2ed"/>
            <path id="Trazado_146139" data-name="Trazado 146139" d="M275.032,151.225a1.589,1.589,0,0,1-.826.972,4.551,4.551,0,0,1-4.113,0,.983.983,0,0,1,0-1.941,4.529,4.529,0,0,1,4.113,0A1.6,1.6,0,0,1,275.032,151.225Z" transform="translate(-268.307 -148.791)" fill="#e7edf8"/>
          </g>
        </g>
        <path id="Trazado_146140" data-name="Trazado 146140" d="M279.566,126.6a10.014,10.014,0,0,1,4.917,1.162L302.4,138.1a2.6,2.6,0,0,1,0,4.981L278.72,156.756a10.992,10.992,0,0,1-9.833,0L250.97,146.412a2.6,2.6,0,0,1,0-4.981l23.677-13.67a10.023,10.023,0,0,1,4.919-1.162Zm0-.6a10.711,10.711,0,0,0-5.221,1.243l-23.675,13.67c-2.87,1.657-2.868,4.369,0,6.025l17.916,10.343a11.581,11.581,0,0,0,10.433,0l23.679-13.67c2.872-1.657,2.872-4.368,0-6.025l-17.915-10.343A10.679,10.679,0,0,0,279.566,126Z" transform="translate(-248.517 -125.996)" fill="#659ec9"/>
      </g>
      <g id="Grupo_87115" data-name="Grupo 87115" transform="translate(251.096 138.193)" opacity="0.5">
        <path id="Trazado_146141" data-name="Trazado 146141" d="M300.055,149.283l-21.66,12.5a10.6,10.6,0,0,1-9.546,0l-16.388-9.461a3.532,3.532,0,0,1-1.947-2.457l2.3,14.359c.006.049.013.1.024.146l0,.026h0a3.5,3.5,0,0,0,1.845,2.2l13.861,8a10.192,10.192,0,0,0,9.176,0l20.157-11.638a3.376,3.376,0,0,0,1.877-2.391h0l2.206-13.555A3.655,3.655,0,0,1,300.055,149.283Z" transform="translate(-250.493 -133.173)" fill="#249e48"/>
        <path id="Trazado_146142" data-name="Trazado 146142" d="M278.9,135.664a9.764,9.764,0,0,0-4.773,1.136l-21.66,12.5c-2.624,1.516-2.623,3.995,0,5.512l16.388,9.461a10.6,10.6,0,0,0,9.546,0l21.66-12.5c2.624-1.517,2.624-4,0-5.513l-16.39-9.46a9.737,9.737,0,0,0-4.773-1.136Z" transform="translate(-250.496 -135.664)" fill="#68e38b"/>
      </g>
      <path id="Trazado_146143" data-name="Trazado 146143" d="M305.582,137.982l-1.206,2.242-2.092,1.355-22.256,12.8a10.63,10.63,0,0,1-5.825,1.691A15.92,15.92,0,0,1,268.8,155l-19.18-11.163-1.066-1.306-.541-1.213,6.29,49.221h0A3.456,3.456,0,0,0,256.229,193l12.958,7.482a10.412,10.412,0,0,0,9.411,0l18.784-10.793A3.505,3.505,0,0,0,299.3,187.3h0Z" transform="translate(0.054 3.038)" fill="#8dd5ff" opacity="0.3"/>
      <g id="Grupo_87116" data-name="Grupo 87116" transform="translate(252.891 152.808)">
        <path id="Trazado_146144" data-name="Trazado 146144" d="M253.11,150.016l10.89.428-3.434,26.77Z" transform="translate(-251.718 -147.131)" fill="#c7f2ff" opacity="0.4"/>
        <path id="Trazado_146145" data-name="Trazado 146145" d="M253.361,150.535l-1.392-2.885,8.848,30.084Z" transform="translate(-251.969 -147.65)" fill="#c7f2ff" opacity="0.7"/>
      </g>
      <path id="Trazado_146146" data-name="Trazado 146146" d="M304.961,137.967a3.663,3.663,0,0,1-2.152,3.013L279.13,154.65a11.569,11.569,0,0,1-10.433,0l-8.959-5.171-8.958-5.171a3.663,3.663,0,0,1-2.152-3.009l-.619.024a3.982,3.982,0,0,0,2.339,3.235l3.144,1.817c-2.328,1.934.738,6.285.738,6.285s7.542,1.773,10.89.428l3.141,1.814a12.515,12.515,0,0,0,11.307,0l23.677-13.669a3.982,3.982,0,0,0,2.338-3.247Z" transform="translate(0.054 3.034)" fill="#c7f2ff"/>
      <path id="Trazado_146147" data-name="Trazado 146147" d="M253,145.192c-2.1,1.745.667,5.673.667,5.673s6.805,1.6,9.829.387Z" transform="translate(0.977 4.619)" fill="#517fa2" opacity="0.4"/>
      <g id="Grupo_87120" data-name="Grupo 87120" transform="translate(247.763 124.135)">
        <g id="Grupo_87117" data-name="Grupo 87117">
          <path id="Trazado_146148" data-name="Trazado 146148" d="M305.519,139.2a5.358,5.358,0,0,0-2.07-1.966l-.05-.026L285.527,126.89a12.795,12.795,0,0,0-11.6,0l-23.874,13.789v0a5.2,5.2,0,0,0-1.873,1.852l-.412-.127v1.71a4.263,4.263,0,0,0,2.488,3.493l17.915,10.343a12.818,12.818,0,0,0,11.606,0l23.677-13.67a4.263,4.263,0,0,0,2.489-3.506v-1.662Z" transform="translate(-247.763 -123.836)" fill="#295e87"/>
          <path id="Trazado_146149" data-name="Trazado 146149" d="M273.969,157.98a11.78,11.78,0,0,1-5.8-1.393l-17.915-10.341a4.265,4.265,0,0,1-2.488-3.493,4.12,4.12,0,0,1,2.285-3.436v0l23.874-13.789a12.8,12.8,0,0,1,11.6,0L303.4,135.842l.05.028c1.614.93,2.5,2.189,2.489,3.543a4.268,4.268,0,0,1-2.489,3.506l-23.677,13.668A11.8,11.8,0,0,1,273.969,157.98Z" transform="translate(-247.763 -124.135)" fill="#659ec9"/>
        </g>
        <g id="Grupo_87118" data-name="Grupo 87118" transform="translate(3.531 0.671)">
          <path id="Trazado_146150" data-name="Trazado 146150" d="M273.823,154.6a10.432,10.432,0,0,1-5.13-1.229l-15.836-9.144a3.768,3.768,0,0,1-2.2-3.087,3.647,3.647,0,0,1,2.018-3.037v0l21.106-12.19a11.33,11.33,0,0,1,10.26,0l15.8,9.121.044.023a3.307,3.307,0,0,1,0,6.232l-20.933,12.085A10.427,10.427,0,0,1,273.823,154.6Z" transform="translate(-250.659 -124.685)" fill="#c7f2ff" opacity="0.2"/>
          <path id="Trazado_146151" data-name="Trazado 146151" d="M290.6,132.242l-.042-.018-3.807-2.2a10.054,10.054,0,0,0-9.116,0l-18.76,10.835h0a3.518,3.518,0,0,0-1.749,2.207,3.611,3.611,0,0,0,1.91,2.3l3.839,2.219a10.061,10.061,0,0,0,9.12,0l18.605-10.74a3.62,3.62,0,0,0,1.909-2.3A3.627,3.627,0,0,0,290.6,132.242Z" transform="translate(-249.241 -123.754)" fill="#517fa2"/>
          <path id="Trazado_146152" data-name="Trazado 146152" d="M292.56,134.258a2.4,2.4,0,0,1-.045.456,3.627,3.627,0,0,0-1.909-2.3l-.042-.018-3.807-2.2a10.054,10.054,0,0,0-9.116,0l-18.76,10.835h0a3.518,3.518,0,0,0-1.749,2.207,2.361,2.361,0,0,1-.048-.446,3.251,3.251,0,0,1,1.8-2.7h0l18.76-10.834a10.064,10.064,0,0,1,9.116,0l3.807,2.2.042.022A3.337,3.337,0,0,1,292.56,134.258Z" transform="translate(-249.249 -123.922)" fill="#295e87"/>
        </g>
        <g id="Grupo_87119" data-name="Grupo 87119" transform="translate(13.708 4.621)">
          <path id="Trazado_146153" data-name="Trazado 146153" d="M289.147,133.485a1.314,1.314,0,0,0,.766-1.08v-2.392l-1.055.447-1.221-.706a3.962,3.962,0,0,0-3.583,0l-18.116,10.46-6.933,2.952V145.5l3.454,2a7.105,7.105,0,0,0,.888.427,3.5,3.5,0,0,0,1.513-.419Z" transform="translate(-259.005 -127.618)" fill="#295e87"/>
          <path id="Trazado_146154" data-name="Trazado 146154" d="M263.07,145.851a3.646,3.646,0,0,1-1.792-.429l-1.507-.871a1.311,1.311,0,0,1-.766-1.078,1.26,1.26,0,0,1,.7-1.058h0l24.346-14.061a3.962,3.962,0,0,1,3.583,0l1.51.872a1.155,1.155,0,0,1,0,2.175L264.86,145.422A3.643,3.643,0,0,1,263.07,145.851Z" transform="translate(-259.005 -127.925)" fill="#659ec9"/>
        </g>
      </g>
    </g>
  </g>
</svg>
