<svg xmlns="http://www.w3.org/2000/svg" xmlns:xlink="http://www.w3.org/1999/xlink" width="120" height="120" viewBox="0 0 120 120">
  <defs>
    <clipPath id="clip-path">
      <rect id="Rectángulo_32597" data-name="Rectángulo 32597" width="83" height="83" transform="translate(5019 -10436)" fill="#fde947" stroke="#707070" stroke-width="1"/>
    </clipPath>
  </defs>
  <g id="Grupo_87488" data-name="Grupo 87488" transform="translate(-5000.063 10453.188)">
    <ellipse id="Elipse_4276" data-name="Elipse 4276" cx="60" cy="60" rx="60" ry="60" transform="translate(5120.063 -10333.188) rotate(180)" fill="#fff"/>
    <g id="Enmascarar_grupo_46" data-name="Enmascarar grupo 46" clip-path="url(#clip-path)">
      <g id="lanzador" transform="translate(5019 -10436)">
        <path id="Trazado_143930" data-name="Trazado 143930" d="M80.713,34.462H72.09l-.665,4.983h5.35v7.808a6.981,6.981,0,0,1-6.991,6.955c-.11,0-.219,0-.328-.008l-.66,4.95c.326.027.656.042.989.042a11.982,11.982,0,0,0,12-11.938V35.528A1.069,1.069,0,0,0,80.713,34.462Z" fill="#bef0ff"/>
        <path id="Trazado_143931" data-name="Trazado 143931" d="M72.194,29.45a1.64,1.64,0,0,0-1.234-.559H8.442a1.638,1.638,0,0,0-1.358,2.558L17.295,46.5,18.77,57.561H34.183a.82.82,0,0,1,.812.936l-2.83,19.7h30.7a3.871,3.871,0,0,0,3.832-3.34l5.885-44.107A1.638,1.638,0,0,0,72.194,29.45Z" fill="#abebff"/>
        <path id="Trazado_143932" data-name="Trazado 143932" d="M68.123,28.891H19.656a.692.692,0,0,0-.7.8L22.67,57.561H34.183a.82.82,0,0,1,.812.936L32.717,74.347H62.059a.954.954,0,0,0,.918-.8l5.85-43.849A.693.693,0,0,0,68.123,28.891Z" fill="#e7f9ff"/>
        <path id="Trazado_143933" data-name="Trazado 143933" d="M18.952,29.694a.692.692,0,0,1,.7-.8H10.5a1.635,1.635,0,0,0,.279.873L20.965,44.783Z" fill="#bef0ff"/>
        <path id="Trazado_143934" data-name="Trazado 143934" d="M22.67,57.561h3.467L22.419,29.694a.692.692,0,0,1,.7-.8H19.656a.692.692,0,0,0-.7.8Z" opacity="0.1"/>
        <path id="Trazado_143935" data-name="Trazado 143935" d="M34.755,60.166,32.717,74.347H62.059a.954.954,0,0,0,.918-.8l1.785-13.377H34.755Z" fill="#78dde1"/>
        <path id="Trazado_143936" data-name="Trazado 143936" d="M7.749,80.956a.82.82,0,0,1-.812-.7l-2.285-15.9L1.331,58.8a.82.82,0,0,1,.7-1.24H34.183a.82.82,0,0,1,.812.936L31.868,80.253a.82.82,0,0,1-.812.7H7.749Z" fill="#bef0ff"/>
        <path id="Trazado_143937" data-name="Trazado 143937" d="M5.369,57.561l2.806,4.692a4.094,4.094,0,0,1,.539,1.52l1.88,13.084H28.212l2.773-19.3H5.369Z" fill="#e7f9ff"/>
        <path id="Trazado_143938" data-name="Trazado 143938" d="M8.928,65.266l1.666,11.591H28.212l1.666-11.591Z" fill="#ffcb00"/>
        <g id="Grupo_86242" data-name="Grupo 86242">
          <path id="Trazado_143939" data-name="Trazado 143939" d="M30.022,19.352a3.214,3.214,0,0,1-3.22-3.2A3.169,3.169,0,0,1,27.022,15c.005-.013,2.713-4.963,2.713-4.963a.328.328,0,0,1,.575,0s2.708,4.95,2.713,4.963a3.176,3.176,0,0,1,.219,1.156A3.214,3.214,0,0,1,30.022,19.352Z" fill="#78dde1"/>
          <path id="Trazado_143940" data-name="Trazado 143940" d="M59.334,19.985a3.214,3.214,0,0,1-3.22-3.2,3.172,3.172,0,0,1,.219-1.156c.005-.013,2.713-4.963,2.713-4.963a.328.328,0,0,1,.575,0s2.708,4.95,2.713,4.963a3.176,3.176,0,0,1,.219,1.156A3.214,3.214,0,0,1,59.334,19.985Z" fill="#78dde1"/>
        </g>
        <g id="Grupo_86243" data-name="Grupo 86243">
          <path id="Trazado_143941" data-name="Trazado 143941" d="M45.283,23.944a3.207,3.207,0,0,1-3.213-3.194,3.163,3.163,0,0,1,.219-1.154c0-.013,2.707-4.953,2.707-4.953a.327.327,0,0,1,.573,0s2.7,4.94,2.708,4.954A3.162,3.162,0,0,1,48.5,20.75,3.208,3.208,0,0,1,45.283,23.944Z" fill="#48d1d6"/>
          <path id="Trazado_143942" data-name="Trazado 143942" d="M41.276,9.673A2.584,2.584,0,0,1,38.687,7.1a2.549,2.549,0,0,1,.177-.929c0-.01,2.181-3.99,2.181-3.99a.264.264,0,0,1,.462,0s2.177,3.979,2.182,3.99a2.549,2.549,0,0,1,.176.929A2.584,2.584,0,0,1,41.276,9.673Z" fill="#48d1d6"/>
        </g>
        <path id="Trazado_143943" data-name="Trazado 143943" d="M80.713,33.246H73.479l.312-2.34a2.855,2.855,0,0,0-2.831-3.231H8.442a2.854,2.854,0,0,0-2.364,4.456l3.409,5.025A1.216,1.216,0,1,0,11.5,35.792L8.091,30.766a.423.423,0,0,1,.352-.66H9.611a1.215,1.215,0,0,0,.16.34L19.8,45.228l1.483,11.117H19.835L18.5,46.34a1.217,1.217,0,0,0-.2-.522l-3.942-5.81a1.216,1.216,0,0,0-2.012,1.365l3.78,5.573,1.254,9.4H2.036a2.035,2.035,0,0,0-1.748,3.08l3.2,5.345,2.25,15.656a2.046,2.046,0,0,0,2.016,1.746H31.056a2.046,2.046,0,0,0,2.016-1.746l.146-1.017H62.869a5.091,5.091,0,0,0,5.037-4.4l1.949-14.608A13.2,13.2,0,0,0,83,47.253V35.528A2.287,2.287,0,0,0,80.713,33.246Zm-68.234-3.14h5.3l1.3,9.729Zm7.755,0H67.545L63.7,58.95H56.414a1.216,1.216,0,0,0,0,2.432h6.958L61.8,73.131H34.12l1.688-11.749h7.248v2.756H40.336a1.216,1.216,0,0,0,0,2.432h2.721v2.756H40.336a1.216,1.216,0,0,0,0,2.432h8.037a1.216,1.216,0,1,0,0-2.432H45.488V66.569h2.885a1.216,1.216,0,1,0,0-2.432H45.488V61.381h5.576a1.216,1.216,0,0,0,0-2.432H45.488V56.194h1.378a1.216,1.216,0,0,0,0-2.432H45.488V51.006h2.885a1.216,1.216,0,1,0,0-2.432H45.488V45.818h1.378a1.216,1.216,0,0,0,0-2.432H45.488V40.631h1.378a1.216,1.216,0,0,0,0-2.432H45.488V35.443h2.885a1.216,1.216,0,1,0,0-2.432H40.336a1.216,1.216,0,0,0,0,2.432h2.721V38.2H41.843a1.216,1.216,0,1,0,0,2.432h1.214v2.756H41.843a1.216,1.216,0,1,0,0,2.432h1.214v2.756H40.336a1.216,1.216,0,0,0,0,2.432h2.721v2.756H41.843a1.216,1.216,0,1,0,0,2.432h1.214V58.95h-6.9l.04-.279a2.035,2.035,0,0,0-2.016-2.325H23.734L22.17,44.622Zm9.348,28.67-.758,5.273H9.982l-.065-.45a5.286,5.286,0,0,0-.7-1.971L7.512,58.777H29.582ZM27.158,75.642H11.648l-1.316-9.16H28.475Zm3.556,4.1H8.092L5.856,64.182a1.218,1.218,0,0,0-.16-.451L2.733,58.777H4.679l2.452,4.1a2.866,2.866,0,0,1,.379,1.068L9.39,77.03a1.216,1.216,0,0,0,1.2,1.043H28.212a1.216,1.216,0,0,0,1.2-1.043l2.623-18.253h1.688ZM65.5,74.692a2.651,2.651,0,0,1-2.627,2.285h-29.3l.2-1.414H62.058A2.176,2.176,0,0,0,64.181,73.7L70,30.106h.962a.423.423,0,0,1,.421.479ZM72.49,40.661h3.07v6.592a5.757,5.757,0,0,1-4.7,5.638Zm8.079,6.592A10.761,10.761,0,0,1,70.181,57.965l.344-2.575a8.2,8.2,0,0,0,7.467-8.137V39.445a1.216,1.216,0,0,0-1.216-1.216H72.814l.34-2.551h7.414V47.253Z"/>
        <path id="Trazado_143944" data-name="Trazado 143944" d="M17.782,62.875h3.483a1.216,1.216,0,0,0,0-2.432H17.782a1.216,1.216,0,1,0,0,2.432Z"/>
        <path id="Trazado_143945" data-name="Trazado 143945" d="M18.668,70.089h1.581a1.216,1.216,0,1,0,0-2.432H18.668a1.216,1.216,0,1,0,0,2.432Z"/>
        <path id="Trazado_143946" data-name="Trazado 143946" d="M21.265,71.263H17.782a1.216,1.216,0,1,0,0,2.432h3.483a1.216,1.216,0,0,0,0-2.432Z"/>
        <path id="Trazado_143947" data-name="Trazado 143947" d="M30.022,20.568a4.409,4.409,0,0,0,4.128-6.026c-.032-.08-.032-.08-2.774-5.092a1.544,1.544,0,0,0-2.708,0c-2.744,5.016-2.744,5.016-2.779,5.1a4.379,4.379,0,0,0-.3,1.6A4.431,4.431,0,0,0,30.022,20.568ZM28.13,15.5c.2-.359,1.127-2.062,1.891-3.46.764,1.4,1.694,3.1,1.891,3.459a1.953,1.953,0,0,1,.113.651,2,2,0,0,1-4.008,0A1.946,1.946,0,0,1,28.13,15.5Z"/>
        <path id="Trazado_143948" data-name="Trazado 143948" d="M59.334,21.2a4.409,4.409,0,0,0,4.129-6.026c-.032-.08-.032-.08-2.774-5.092a1.544,1.544,0,0,0-2.708,0c-2.741,5.01-2.741,5.01-2.772,5.087l-.007.017a4.381,4.381,0,0,0-.3,1.6A4.431,4.431,0,0,0,59.334,21.2Zm-1.891-5.067c.2-.362,1.127-2.063,1.891-3.459.764,1.4,1.694,3.1,1.891,3.459a1.955,1.955,0,0,1,.113.651,2,2,0,0,1-4.008,0A1.951,1.951,0,0,1,57.443,16.133Z"/>
        <path id="Trazado_143949" data-name="Trazado 143949" d="M43.929,14.059c-2.527,4.62-2.729,4.988-2.773,5.095h0a4.371,4.371,0,0,0-.3,1.6,4.43,4.43,0,0,0,8.859,0,4.37,4.37,0,0,0-.3-1.6,1.216,1.216,0,1,0-2.265.884,1.952,1.952,0,0,1,.136.711,2,2,0,0,1-4,0A1.938,1.938,0,0,1,43.4,20.1c.187-.343,1.052-1.926,1.885-3.448l.078.142a1.216,1.216,0,1,0,2.133-1.167l-.858-1.568a1.543,1.543,0,0,0-2.707,0Z"/>
        <path id="Trazado_143950" data-name="Trazado 143950" d="M41.276,10.889a3.783,3.783,0,0,0,3.54-5.172c-.031-.077-.031-.077-2.242-4.119a1.479,1.479,0,0,0-2.6,0c-2.213,4.045-2.213,4.045-2.247,4.132a3.758,3.758,0,0,0-.26,1.371A3.8,3.8,0,0,0,41.276,10.889Zm-1.3-4.215,1.3-2.382c.588,1.075,1.151,2.1,1.3,2.381a1.331,1.331,0,0,1,.071.427,1.373,1.373,0,0,1-2.746,0A1.325,1.325,0,0,1,39.973,6.674Z"/>
      </g>
    </g>
  </g>
</svg>
