<svg xmlns="http://www.w3.org/2000/svg" xmlns:xlink="http://www.w3.org/1999/xlink" width="120" height="120" viewBox="0 0 120 120">
  <defs>
    <clipPath id="clip-path">
      <rect id="Rectángulo_32599" data-name="Rectángulo 32599" width="83" height="83" transform="translate(720 709)" fill="#fde947" stroke="#707070" stroke-width="1"/>
    </clipPath>
  </defs>
  <g id="Grupo_87487" data-name="Grupo 87487" transform="translate(-5390.602 10645)">
    <ellipse id="Elipse_4276" data-name="Elipse 4276" cx="60" cy="60" rx="60" ry="60" transform="translate(5390.602 -10645)" fill="#fff"/>
    <g id="Enmascarar_grupo_45" data-name="Enmascarar grupo 45" transform="translate(4689 -11336)" clip-path="url(#clip-path)">
      <g id="cronografo" transform="translate(720 709.001)">
        <g id="Grupo_86236" data-name="Grupo 86236">
          <path id="Trazado_143898" data-name="Trazado 143898" d="M76.095,47.788H68.257L58.964,59.166H76.095a5.689,5.689,0,0,0,0-11.378Z" fill="#ffddce"/>
          <path id="Trazado_143899" data-name="Trazado 143899" d="M81.784,53.477a5.689,5.689,0,0,1-5.689,5.689H58.964l3.23-3.953h13.9A5.692,5.692,0,0,0,81.432,51.5a5.673,5.673,0,0,1,.353,1.976Z" fill="#ffcbbe"/>
          <path id="Trazado_143900" data-name="Trazado 143900" d="M75.274,36.411H67.437L58.143,47.789H75.274a5.689,5.689,0,0,0,0-11.378Z" fill="#ffddce"/>
          <path id="Trazado_143901" data-name="Trazado 143901" d="M80.964,42.1a5.689,5.689,0,0,1-5.689,5.689H58.144l3.23-3.953h13.9a5.692,5.692,0,0,0,5.337-3.712,5.673,5.673,0,0,1,.353,1.976Z" fill="#ffcbbe"/>
          <path id="Trazado_143902" data-name="Trazado 143902" d="M71.172,25.033H63.334L54.041,36.411H71.172a5.689,5.689,0,1,0,0-11.378Z" fill="#ffddce"/>
          <path id="Trazado_143903" data-name="Trazado 143903" d="M76.861,30.721a5.689,5.689,0,0,1-5.689,5.689H54.041l3.23-3.953h13.9a5.692,5.692,0,0,0,5.337-3.712,5.673,5.673,0,0,1,.353,1.976Z" fill="#ffcbbe"/>
          <path id="Trazado_143904" data-name="Trazado 143904" d="M50.774,70.524H24.365L12.79,60.477,10.1,48.986l4.914-13.551,5.4-12.715a16.349,16.349,0,0,1,8.016-8.368l9.907-4.719a6.5,6.5,0,0,1,8.97,3.838,0,0,0,0,1,0,0,6.5,6.5,0,0,1-.683,5.5l-4.081,6.462,6.06,33.234,2.04,11.188Z" fill="#ffddce"/>
          <path id="Trazado_143905" data-name="Trazado 143905" d="M50.652,69.856c-.123.225-.245.448-.366.668H24.365L20.5,56c5.241,2.34,18.12,7.1,28.116,2.663a18.251,18.251,0,0,0,2.161-1.136c8.405-5.173,4,4.739-.121,12.324Z" fill="#ffcbbe"/>
          <path id="Trazado_143906" data-name="Trazado 143906" d="M47.314,13.472c-1.582-2.567-8.415.3-12.871,2.66C30.364,18.293,19.42,32.214,18.2,47.37L15.017,35.435l5.4-12.715a16.349,16.349,0,0,1,8.016-8.368l9.907-4.719a6.5,6.5,0,0,1,8.97,3.838Z" fill="#ffcbbe"/>
          <g id="Grupo_86234" data-name="Grupo 86234">
            <path id="Trazado_143907" data-name="Trazado 143907" d="M55.011,14.628H64.02v9.847H55.011Z" transform="translate(8.898 -17.354) rotate(17.928)" fill="#ffd064"/>
            <path id="Trazado_143908" data-name="Trazado 143908" d="M66.961,19.594q-6.846-2.012-13.575-4.39a3.581,3.581,0,0,1-2.243-4.449l.021-.066A3.581,3.581,0,0,1,55.587,8.4q6.846,2.012,13.575,4.39a3.581,3.581,0,0,1,2.243,4.448l-.021.066A3.581,3.581,0,0,1,66.961,19.594Z" fill="#f6e266"/>
            <path id="Trazado_143909" data-name="Trazado 143909" d="M59.41,17.252q-3.024-.987-6.024-2.047a3.582,3.582,0,0,1-2.243-4.449l.022-.067A3.581,3.581,0,0,1,55.587,8.4q3.054.9,6.082,1.867a3.707,3.707,0,0,0-4.162,2.475l-.022.069a3.708,3.708,0,0,0,1.925,4.444Z" fill="#ffd064"/>
          </g>
          <path id="Trazado_143910" data-name="Trazado 143910" d="M67.905,59.146H60.068L50.774,70.524H67.905a5.689,5.689,0,0,0,0-11.378Z" fill="#ffddce"/>
          <path id="Trazado_143911" data-name="Trazado 143911" d="M73.595,64.834a5.689,5.689,0,0,1-5.689,5.689H50.775L54,66.57h13.9a5.692,5.692,0,0,0,5.337-3.712,5.67,5.67,0,0,1,.353,1.976Z" fill="#ffcbbe"/>
          <g id="Grupo_86235" data-name="Grupo 86235">
            <circle id="Elipse_4294" data-name="Elipse 4294" cx="25.281" cy="25.281" r="25.281" transform="translate(25.493 19.961)" fill="#f6e266"/>
            <path id="Trazado_143912" data-name="Trazado 143912" d="M52.4,70.473c-.537.033-1.078.051-1.623.051a25.282,25.282,0,0,1,0-50.563c.545,0,1.086.018,1.623.051a25.284,25.284,0,0,0,0,50.461Z" fill="#ffd064"/>
            <circle id="Elipse_4295" data-name="Elipse 4295" cx="19.322" cy="19.322" r="19.322" transform="translate(31.452 25.92)" fill="#d3effb"/>
            <path id="Trazado_143913" data-name="Trazado 143913" d="M54.151,64.284a19.323,19.323,0,1,1,0-38.085,19.326,19.326,0,0,0,0,38.085Z" fill="#9dc6fb"/>
            <path id="Trazado_143914" data-name="Trazado 143914" d="M50.774,47.7a2.461,2.461,0,0,1-2.461-2.461V38.957a2.461,2.461,0,0,1,4.923,0v6.285A2.461,2.461,0,0,1,50.774,47.7Z" fill="#2b4d66"/>
          </g>
          <path id="Trazado_143915" data-name="Trazado 143915" d="M24.365,70.524l-13.8,4.232L4.612,52.413l-3.4-12.747,13.8-4.23,3.4,12.746Z" fill="#dd636e"/>
          <path id="Trazado_143916" data-name="Trazado 143916" d="M18.413,48.181l-13.8,4.232-3.4-12.747,13.8-4.23Z" fill="#cb5769"/>
        </g>
        <g id="Grupo_86237" data-name="Grupo 86237">
          <path id="Trazado_143917" data-name="Trazado 143917" d="M80.977,48.594A6.953,6.953,0,0,0,79.57,47.51a6.907,6.907,0,0,0-3.21-12.23,6.9,6.9,0,0,0-5.188-11.463H66.345q-.893-.651-1.84-1.229l.724-2.241q.694.208,1.388.413a4.916,4.916,0,0,0,1.389.2,4.753,4.753,0,0,0,4.534-3.287l.023-.07a4.771,4.771,0,0,0-3-5.965c-4.485-1.585-9.073-3.068-13.637-4.41a4.77,4.77,0,0,0-5.921,3.078l-.025.077a4.77,4.77,0,0,0,3,5.965q.682.241,1.367.478L53.676,18.9a26.591,26.591,0,0,0-5.6-.023A7.714,7.714,0,0,0,37.823,8.535l-9.907,4.719a17.531,17.531,0,0,0-7.416,6.67A1.216,1.216,0,1,0,22.573,21.2a15.107,15.107,0,0,1,6.389-5.747l9.907-4.719a5.283,5.283,0,0,1,6.738,7.591l-.68,1.075a26.5,26.5,0,0,0-5.232,49.911H25.3l-9-33.782,4.288-10.089a1.216,1.216,0,1,0-2.238-.951l-4.23,9.954L.86,38.5A1.216,1.216,0,0,0,.041,39.98L9.388,75.068a1.215,1.215,0,0,0,1.531.849l13.628-4.179H67.906A6.9,6.9,0,0,0,73.18,60.382h2.914a6.9,6.9,0,0,0,4.883-11.787ZM79.748,42.1a4.472,4.472,0,0,1-2.492,4.014c.009-.29.016-.58.016-.871a26.414,26.414,0,0,0-1.09-7.524A4.472,4.472,0,0,1,79.748,42.1ZM71.172,26.249a4.475,4.475,0,0,1,3.411,7.371,26.629,26.629,0,0,0-5.353-7.371h1.942ZM52.3,11.121l.018-.054a2.379,2.379,0,0,1,2.925-1.5c4.522,1.329,9.068,2.8,13.512,4.37a2.38,2.38,0,0,1,1.489,2.937l-.017.054a2.379,2.379,0,0,1-2.925,1.5c-4.522-1.329-9.068-2.8-13.512-4.37A2.38,2.38,0,0,1,52.3,11.121Zm4.347,6.494q3.112,1.049,6.254,2.022l-.57,1.765a26.288,26.288,0,0,0-6.224-2.118ZM11.413,73.223,2.692,40.486l11.476-3.519L22.889,69.7Zm56.493-3.915H61.869a26.369,26.369,0,0,0,3.218-1.765A1.216,1.216,0,0,0,63.771,65.5a24.1,24.1,0,1,1,3.635-2.865,1.216,1.216,0,1,0,1.681,1.757,27.09,27.09,0,0,0,2.247-2.428,4.473,4.473,0,0,1-3.428,7.345ZM76.095,57.95H74.043A26.12,26.12,0,0,0,76.995,49.1a4.473,4.473,0,0,1-.9,8.855Z"/>
          <path id="Trazado_143918" data-name="Trazado 143918" d="M50.774,24.7A20.538,20.538,0,1,0,71.313,45.242,20.561,20.561,0,0,0,50.774,24.7ZM60.857,60.274l-.592-1.025a1.216,1.216,0,1,0-2.106,1.216l.593,1.028a17.972,17.972,0,0,1-6.763,1.814V60.477a1.216,1.216,0,1,0-2.432,0v2.829A17.969,17.969,0,0,1,42.8,61.493l.593-1.028a1.216,1.216,0,1,0-2.106-1.216l-.592,1.025a18.255,18.255,0,0,1-4.95-4.95l1.025-.592a1.216,1.216,0,0,0-1.216-2.106l-1.028.593a17.972,17.972,0,0,1-1.814-6.763h2.829a1.216,1.216,0,0,0,0-2.432H32.71a17.971,17.971,0,0,1,1.814-6.763l1.028.593a1.216,1.216,0,0,0,1.216-2.106l-1.025-.592a18.255,18.255,0,0,1,4.95-4.95l.592,1.025a1.216,1.216,0,1,0,2.106-1.216L42.8,28.991a17.969,17.969,0,0,1,6.763-1.814v2.829a1.216,1.216,0,0,0,2.432,0V27.177a17.971,17.971,0,0,1,6.763,1.814l-.593,1.028a1.216,1.216,0,1,0,2.106,1.216l.592-1.025a18.255,18.255,0,0,1,4.95,4.95l-1.025.592A1.216,1.216,0,1,0,66,37.857l1.028-.593a17.972,17.972,0,0,1,1.814,6.763H66.01a1.216,1.216,0,0,0,0,2.432h2.829a17.968,17.968,0,0,1-1.814,6.763L66,52.627a1.216,1.216,0,1,0-1.216,2.106l1.025.592a18.255,18.255,0,0,1-4.95,4.95Z"/>
          <path id="Trazado_143919" data-name="Trazado 143919" d="M50.774,35.279A3.681,3.681,0,0,0,47.1,38.957v6.285a3.677,3.677,0,0,0,7.355,0V38.957A3.682,3.682,0,0,0,50.774,35.279Zm1.246,9.963a1.246,1.246,0,0,1-2.492,0V38.957a1.246,1.246,0,0,1,2.492,0Z"/>
        </g>
      </g>
    </g>
  </g>
</svg>
