<svg xmlns="http://www.w3.org/2000/svg" xmlns:xlink="http://www.w3.org/1999/xlink" width="120" height="120" viewBox="0 0 120 120">
  <defs>
    <clipPath id="clip-path">
      <rect id="Rectángulo_32601" data-name="Rectángulo 32601" width="83" height="83" transform="translate(5409 -9860)" fill="#fde947" stroke="#707070" stroke-width="1"/>
    </clipPath>
  </defs>
  <g id="Grupo_87491" data-name="Grupo 87491" transform="translate(-5390.602 9878.413)">
    <ellipse id="Elipse_4276" data-name="Elipse 4276" cx="60" cy="60" rx="60" ry="60" transform="translate(5390.602 -9878.413)" fill="#fff"/>
    <g id="Enmascarar_grupo_49" data-name="Enmascarar grupo 49" clip-path="url(#clip-path)">
      <g id="medidor-de-ph" transform="translate(5409 -9860)">
        <path id="Trazado_143974" data-name="Trazado 143974" d="M17.556,52.642l4.49,28.737H60.953l4.49-28.737a7.886,7.886,0,0,0-4.756-1.983,7.942,7.942,0,0,0-4.8,2.026,7.95,7.95,0,0,1-4.8,2.026,7.95,7.95,0,0,1-4.8-2.026,7.95,7.95,0,0,0-4.8-2.026,7.948,7.948,0,0,0-4.8,2.026,7.95,7.95,0,0,1-4.8,2.026,7.879,7.879,0,0,1-4.789-2.026,7.754,7.754,0,0,0-4.76-2.026,7.886,7.886,0,0,0-4.756,1.983Z" fill="#ff7b79"/>
        <path id="Trazado_143975" data-name="Trazado 143975" d="M15.563,39.879l1.994,12.763a7.886,7.886,0,0,1,4.756-1.983,7.754,7.754,0,0,1,4.76,2.026,7.879,7.879,0,0,0,4.789,2.026,7.95,7.95,0,0,0,4.8-2.026,7.948,7.948,0,0,1,4.8-2.026,7.95,7.95,0,0,1,4.8,2.026,7.949,7.949,0,0,0,4.8,2.026,7.949,7.949,0,0,0,4.8-2.026,7.942,7.942,0,0,1,4.8-2.026,7.886,7.886,0,0,1,4.756,1.983l1.994-12.763Z" fill="#fff"/>
        <path id="Trazado_143976" data-name="Trazado 143976" d="M64.2,8.105V18.6a6.527,6.527,0,0,1-1.688,4.319l-8.525,9.5v21.5a6.384,6.384,0,0,1-2.944.788,7.862,7.862,0,0,1-4.785-2.026,7.906,7.906,0,0,0-4.795-2.026,7.926,7.926,0,0,0-4.8,2.026,8.115,8.115,0,0,1-4.843,2.026,6.733,6.733,0,0,1-2.962-.759V32.422l-8.444-9.5A6.448,6.448,0,0,1,18.8,18.6V8.105a6.485,6.485,0,0,1,6.484-6.484H57.711A6.485,6.485,0,0,1,64.2,8.105Z" fill="#a0c8ff"/>
        <path id="Trazado_143977" data-name="Trazado 143977" d="M28.937,8.105H54.063V21.074H28.937Z" fill="#ffda8f"/>
        <circle id="Elipse_4297" data-name="Elipse 4297" cx="3.242" cy="3.242" r="3.242" transform="translate(38.258 60.305)" fill="#fff"/>
        <g id="Grupo_86245" data-name="Grupo 86245">
          <path id="Trazado_143978" data-name="Trazado 143978" d="M63.972,62.067a1.621,1.621,0,1,0,1.35,1.851,1.626,1.626,0,0,0-1.35-1.851Z"/>
          <path id="Trazado_143979" data-name="Trazado 143979" d="M68.67,38.825a1.623,1.623,0,0,0-1.232-.567H55.6V33.04L63.717,24a8.134,8.134,0,0,0,2.1-5.4V8.105A8.115,8.115,0,0,0,57.711,0H25.289a8.115,8.115,0,0,0-8.105,8.105V18.6A8.056,8.056,0,0,0,19.2,24l8.033,9.041v5.218H15.563a1.621,1.621,0,0,0-1.6,1.871l1.994,12.763,4.49,28.737A1.624,1.624,0,0,0,22.047,83H60.953a1.624,1.624,0,0,0,1.6-1.371l1.641-10.5a1.621,1.621,0,0,0-3.2-.5l-1.427,9.133H23.435L19.306,53.34A6.8,6.8,0,0,1,19.925,53a5.3,5.3,0,0,1,2.37-.644h.039a5.11,5.11,0,0,1,2.49.747c.362.214,1.762,1.316,2.411,1.782V68.41a8.184,8.184,0,0,0,8.187,8.105H47.579A8.046,8.046,0,0,0,55.6,68.41V54.859c.811-.433,1.851-1.451,2.6-1.864a5.359,5.359,0,0,1,2.444-.715,6.088,6.088,0,0,1,3.04,1.06l-.445,2.869a1.622,1.622,0,0,0,3.206.5l.6-3.819,1.994-12.763a1.62,1.62,0,0,0-.37-1.3ZM27.234,50.8a4.153,4.153,0,0,0-.764-.525,9.312,9.312,0,0,0-1.8-.84,7.527,7.527,0,0,0-2.365-.4,7.983,7.983,0,0,0-3.537.878L17.456,41.5h9.778ZM52.361,68.41a4.8,4.8,0,0,1-4.782,4.863H35.421a4.939,4.939,0,0,1-4.944-4.863V65.168h6.439a4.862,4.862,0,0,0,9.169,0h6.277ZM39.879,63.547A1.621,1.621,0,1,1,41.5,65.168,1.623,1.623,0,0,1,39.879,63.547Zm12.482-1.621H46.084a4.862,4.862,0,0,0-9.169,0H30.477V56.219a8.64,8.64,0,0,0,1.3.114,9.779,9.779,0,0,0,5.954-2.465,6.421,6.421,0,0,1,3.715-1.588,6.387,6.387,0,0,1,3.7,1.586,9.283,9.283,0,0,0,5.84,2.466,7.254,7.254,0,0,0,1.368-.118ZM51,53.091a6.094,6.094,0,0,1-3.625-1.575s0-.007,0-.011a9.608,9.608,0,0,0-5.915-2.466A9.638,9.638,0,0,0,35.537,51.5a6.6,6.6,0,0,1-3.758,1.59,5.069,5.069,0,0,1-1.3-.2V41.5H52.361V52.832A3.391,3.391,0,0,1,51,53.091Zm1.818-21.749a1.658,1.658,0,0,0-.452,1.08v5.836H30.477V32.422a1.58,1.58,0,0,0-.371-1.08l-8.465-9.5A4.84,4.84,0,0,1,20.426,18.6V8.105a4.869,4.869,0,0,1,4.863-4.863H57.711a4.869,4.869,0,0,1,4.863,4.863V18.6a4.879,4.879,0,0,1-1.256,3.239ZM64.229,49.916a8.006,8.006,0,0,0-3.542-.878,8.485,8.485,0,0,0-4.254,1.234c-.3.173-.506.347-.83.507V41.5h9.941Z"/>
          <path id="Trazado_143980" data-name="Trazado 143980" d="M53.982,6.484H28.855a1.621,1.621,0,0,0-1.621,1.621V21.074A1.621,1.621,0,0,0,28.855,22.7H53.982A1.621,1.621,0,0,0,55.6,21.074V8.105A1.621,1.621,0,0,0,53.982,6.484ZM52.361,19.453H30.477V9.727H52.361Z"/>
          <path id="Trazado_143981" data-name="Trazado 143981" d="M35.421,16.211H47.579a1.621,1.621,0,0,0,0-3.242H35.421a1.621,1.621,0,0,0,0,3.242Z"/>
        </g>
      </g>
    </g>
  </g>
</svg>
