<svg xmlns="http://www.w3.org/2000/svg" xmlns:xlink="http://www.w3.org/1999/xlink" width="120" height="120" viewBox="0 0 120 120">
  <defs>
    <clipPath id="clip-path">
      <rect id="Rectángulo_32600" data-name="Rectángulo 32600" width="83" height="83" transform="translate(5409 -10243)" fill="#fde947" stroke="#707070" stroke-width="1"/>
    </clipPath>
  </defs>
  <g id="Grupo_87489" data-name="Grupo 87489" transform="translate(-5390.602 10261.644)">
    <ellipse id="Elipse_4276" data-name="Elipse 4276" cx="60" cy="60" rx="60" ry="60" transform="translate(5390.602 -10261.644)" fill="#fff"/>
    <g id="Enmascarar_grupo_47" data-name="Enmascarar grupo 47" clip-path="url(#clip-path)">
      <g id="termometro" transform="translate(5409 -10243)">
        <path id="Trazado_143951" data-name="Trazado 143951" d="M80.367,20.6l-38.9,38.9a4.9,4.9,0,0,1-2.758,1.385l-9.682,1.42a4.915,4.915,0,0,0-2.395,1.057L10.213,77.384v0L5.806,81.147A2.808,2.808,0,0,1,1.854,77.2l3.763-4.407L19.633,56.371a4.915,4.915,0,0,0,1.057-2.395l1.42-9.682A4.9,4.9,0,0,1,23.5,41.537l38.9-38.9a4.906,4.906,0,0,1,6.941,0L80.367,13.66a4.906,4.906,0,0,1,0,6.941Z" fill="#f2fbff"/>
        <path id="Trazado_143952" data-name="Trazado 143952" d="M67.493,1.471a4.875,4.875,0,0,0-1.85,1.163l-38.9,38.9A4.9,4.9,0,0,0,25.354,44.3l-1.42,9.682a4.915,4.915,0,0,1-1.057,2.395L8.86,72.789,5.1,77.2a2.809,2.809,0,0,0,.188,3.763,2.688,2.688,0,0,0,.365.306,2.808,2.808,0,0,1-3.8-4.07l3.763-4.407L19.633,56.372a4.915,4.915,0,0,0,1.057-2.395l1.42-9.682A4.9,4.9,0,0,1,23.5,41.537l38.9-38.9a4.9,4.9,0,0,1,5.093-1.163Z" fill="#dff6fd"/>
        <path id="Trazado_143953" data-name="Trazado 143953" d="M74.942,18.852l-1.878,1.878h0L37.915,55.877l-9.626,1.412a2.239,2.239,0,0,1-2.576-2.576l1.412-9.626L62.272,9.939v0L64.15,8.059a2.433,2.433,0,0,1,3.441,0l7.352,7.352a2.433,2.433,0,0,1,0,3.441Z" fill="#c8effe"/>
        <path id="Trazado_143954" data-name="Trazado 143954" d="M67.491,7.967c-.034.029-.066.06-.1.092L65.515,9.937v0l-30.8,30.8-3.593,3.593-.756.756-1.412,9.626a2.238,2.238,0,0,0,1.109,2.315l-1.775.261a2.239,2.239,0,0,1-2.576-2.576l1.412-9.626L62.272,9.939v0L64.15,8.059a2.432,2.432,0,0,1,3.342-.092Z" fill="#99e6fc"/>
        <path id="Trazado_143955" data-name="Trazado 143955" d="M74.942,18.852l-1.878,1.878h0L62.272,9.939v0L64.15,8.059a2.433,2.433,0,0,1,3.441,0l7.352,7.352a2.433,2.433,0,0,1,0,3.441Z" fill="#fd8087"/>
        <path id="Trazado_143956" data-name="Trazado 143956" d="M67.491,7.967c-.034.029-.066.06-.1.092L65.515,9.937v0L63.893,11.56,62.272,9.939v0L64.15,8.059a2.432,2.432,0,0,1,3.342-.092Z" fill="#fe646f"/>
        <path id="Trazado_143957" data-name="Trazado 143957" d="M10.213,77.384v0L5.806,81.147A2.808,2.808,0,0,1,1.854,77.2l3.763-4.407Z" fill="#fd8087"/>
        <path id="Trazado_143958" data-name="Trazado 143958" d="M5.285,80.959a2.688,2.688,0,0,0,.365.306,2.808,2.808,0,0,1-3.8-4.07l3.763-4.407,1.75,1.75L5.1,77.2a2.809,2.809,0,0,0,.188,3.763Z" fill="#fe646f"/>
        <path id="Trazado_143959" data-name="Trazado 143959" d="M42.1,40.994l-.1-.1a7.555,7.555,0,0,1,0-10.684L52.885,19.335a7.555,7.555,0,0,1,10.684,0l.1.1a7.555,7.555,0,0,1,0,10.684L52.788,40.994A7.555,7.555,0,0,1,42.1,40.994Z" fill="#62dbfb"/>
        <path id="Trazado_143960" data-name="Trazado 143960" d="M45.25,30.213a7.555,7.555,0,0,0,0,10.685l.1.1a7.522,7.522,0,0,0,3.721,2.038A7.549,7.549,0,0,1,42.1,40.994l-.1-.1a7.555,7.555,0,0,1,0-10.685L52.884,19.335A7.553,7.553,0,0,1,59.848,17.3a7.531,7.531,0,0,0-3.721,2.037Z" fill="#01d0fb"/>
        <path id="Trazado_143961" data-name="Trazado 143961" d="M46.694,28.672h5.081V38.835H46.694Z" transform="translate(38.294 -24.932) rotate(45)" fill="#f2fbff"/>
        <circle id="Elipse_4296" data-name="Elipse 4296" cx="2.541" cy="2.541" r="2.541" transform="translate(55.697 22.222)" fill="#fd8087"/>
        <path id="Trazado_143962" data-name="Trazado 143962" d="M29.066,43.76H44.31v5.081H29.066Z" transform="translate(43.492 -12.383) rotate(45)" fill="#fd8087"/>
        <path id="Trazado_143963" data-name="Trazado 143963" d="M29.566,40.577h5.081v2.286H29.566Z" transform="translate(-20.1 34.927) rotate(-45)" fill="#fe646f"/>
        <g id="Grupo_86244" data-name="Grupo 86244">
          <path id="Trazado_143964" data-name="Trazado 143964" d="M16.152,70.714l-5.874,5.015L7.272,72.723,20.558,57.161l.016-.019a6.132,6.132,0,0,0,1.319-2.988l1.421-9.683A3.709,3.709,0,0,1,24.355,42.4L63.26,3.493c1.79-1.6,3.6-1.541,5.221,0L72.12,7.132a1.216,1.216,0,0,0,1.72-1.72L70.2,1.774a6.175,6.175,0,0,0-8.661,0l-38.9,38.9a6.157,6.157,0,0,0-1.728,3.441l-1.42,9.68a3.7,3.7,0,0,1-.788,1.793L.929,76.406l-.016.019A4.024,4.024,0,0,0,6.6,82.072l11.136-9.508a1.216,1.216,0,0,0-1.579-1.85Zm-11.125,9.5A1.646,1.646,0,0,1,2.9,80.1a1.614,1.614,0,0,1-.114-2.125l2.9-3.4,2.735,2.735Z"/>
          <path id="Trazado_143965" data-name="Trazado 143965" d="M81.227,12.8,77.589,9.161a1.216,1.216,0,1,0-1.72,1.72l3.638,3.638a3.69,3.69,0,0,1,0,5.222l-38.9,38.9a3.711,3.711,0,0,1-2.075,1.041l-9.683,1.421a6.133,6.133,0,0,0-2.987,1.319l-.02.016-5.656,4.829a1.216,1.216,0,1,0,1.579,1.85l5.645-4.82a3.7,3.7,0,0,1,1.792-.788l9.681-1.42a6.158,6.158,0,0,0,3.442-1.728l38.9-38.9a6.175,6.175,0,0,0,0-8.662Z"/>
          <path id="Trazado_143966" data-name="Trazado 143966" d="M47.147,25.068l0,0a1.216,1.216,0,0,0-1.72,0l-19.16,19.16a1.216,1.216,0,0,0-.343.683l-1.412,9.626a3.371,3.371,0,0,0,3.956,3.957l9.626-1.412a1.217,1.217,0,0,0,.683-.343L75.8,19.712a3.649,3.649,0,0,0,0-5.161L68.45,7.2a3.649,3.649,0,0,0-5.16,0L49.172,21.319a1.216,1.216,0,0,0,0,1.72l0,0,0,0a1.216,1.216,0,0,0,1.72,0L53.744,20.2c5.745-5.741,14.89,3.232,9.063,9.063L51.929,40.134c-5.744,5.743-14.89-3.232-9.061-9.061l4.282-4.282a1.216,1.216,0,0,0,0-1.72l0,0ZM40.287,51.775l-9.061-9.061L33.1,40.84,42.161,49.9ZM37.34,54.732l-9.229,1.354a1.024,1.024,0,0,1-1.2-1.2l1.354-9.228L29.5,44.429,38.572,53.5ZM66.73,8.919l7.352,7.352a1.217,1.217,0,0,1,0,1.721L73.063,19.01,63.991,9.938,65.01,8.919a1.285,1.285,0,0,1,1.721,0Zm-2.2,9.653a9.524,9.524,0,0,0-6.513-2.656l4.258-4.258,9.072,9.072-4.258,4.258a8.747,8.747,0,0,0-2.558-6.416ZM41.147,41.758a8.77,8.77,0,0,0,6.512,2.656l-3.773,3.773-9.071-9.071,3.773-3.773a8.747,8.747,0,0,0,2.56,6.415Z"/>
          <path id="Trazado_143967" data-name="Trazado 143967" d="M50.179,27.508,42.992,34.7a1.216,1.216,0,0,0,0,1.72l3.594,3.594a1.216,1.216,0,0,0,1.72,0l7.187-7.187a1.216,1.216,0,0,0,0-1.72L51.9,27.508A1.327,1.327,0,0,0,50.179,27.508Zm-2.734,9.921-1.874-1.874,5.468-5.468,1.874,1.874Z"/>
          <path id="Trazado_143968" data-name="Trazado 143968" d="M60.895,27.42a3.708,3.708,0,0,0,0-5.313,3.762,3.762,0,0,0-5.314,0,3.716,3.716,0,0,0,0,5.314,3.871,3.871,0,0,0,5.313,0ZM57.3,23.826a1.325,1.325,0,1,1,0,1.874A1.327,1.327,0,0,1,57.3,23.826Z"/>
        </g>
      </g>
    </g>
  </g>
</svg>
