<svg xmlns="http://www.w3.org/2000/svg" xmlns:xlink="http://www.w3.org/1999/xlink" width="120" height="120" viewBox="0 0 120 120">
  <defs>
    <clipPath id="clip-path">
      <rect id="Rectángulo_32602" data-name="Rectángulo 32602" width="83" height="83" transform="translate(5019 -9668)" fill="#fde947" stroke="#707070" stroke-width="1"/>
    </clipPath>
  </defs>
  <g id="Grupo_87492" data-name="Grupo 87492" transform="translate(-5000.063 9686.799)">
    <ellipse id="Elipse_4276" data-name="Elipse 4276" cx="60" cy="60" rx="60" ry="60" transform="translate(5120.063 -9566.799) rotate(180)" fill="#fff"/>
    <g id="Enmascarar_grupo_50" data-name="Enmascarar grupo 50" clip-path="url(#clip-path)">
      <g id="Page-1" transform="translate(5020.388 -9668)">
        <g id="_048---Water-Test" data-name="048---Water-Test" transform="translate(-1.383)">
          <g id="Icons" transform="translate(1.383 1.383)">
            <path id="Shape" d="M74.7,47.033V70.55a9.683,9.683,0,0,1-19.367,0V59.483a20.418,20.418,0,0,0,4.15-12.339v-.111Z" fill="#02a9f4"/>
            <path id="Shape-2" data-name="Shape" d="M70.55,47.033V70.55a9.683,9.683,0,0,1-7.608,9.462,10.14,10.14,0,0,0,2.075.221A9.683,9.683,0,0,0,74.7,70.55V47.033Z" fill="#0377bc"/>
            <path id="Shape-3" data-name="Shape" d="M74.7,12.45V47.033H59.483a29.327,29.327,0,0,0-4.15-14.013V12.45Z" fill="#f5f5f5"/>
            <path id="Rectangle-path" d="M70.55,12.45H74.7V47.033H70.55Z" fill="#cfd8dc"/>
            <rect id="Rectangle-path-2" data-name="Rectangle-path" width="27.667" height="12.45" rx="4.15" transform="translate(51.183)" fill="#9e9e9e"/>
            <path id="Shape-4" data-name="Shape" d="M74.7,0H70.55A4.15,4.15,0,0,1,74.7,4.15V8.3a4.15,4.15,0,0,1-4.15,4.15H74.7A4.15,4.15,0,0,0,78.85,8.3V4.15A4.15,4.15,0,0,0,74.7,0Z" fill="#707070"/>
            <path id="Shape-5" data-name="Shape" d="M26.283,34.583a12.45,12.45,0,0,1-8.3,11.731,12.588,12.588,0,0,1-6.294.553A12.45,12.45,0,0,1,1.7,37.613C-.692,27.487,9.835,17.97,12.962,15.48a1.383,1.383,0,0,1,1.7,0c2.158,1.688,7.774,6.737,10.306,12.976A15.9,15.9,0,0,1,26.283,34.583Z" fill="#3f51b5"/>
            <path id="Shape-6" data-name="Shape" d="M59.483,47.213a20.418,20.418,0,0,1-4.15,12.339,20.861,20.861,0,0,1-20.114,7.94,20.6,20.6,0,0,1-16.6-15.217,21.027,21.027,0,0,1-.553-5.907,12.45,12.45,0,0,0,8.217-11.786A15.894,15.894,0,0,0,25,28.5,66.621,66.621,0,0,1,37.35,15.7a2.31,2.31,0,0,1,2.836,0A63.232,63.232,0,0,1,55.333,33.02,29.216,29.216,0,0,1,59.483,47.213Z" fill="#02a9f4"/>
            <g id="Grupo_86246" data-name="Grupo 86246">
              <path id="Shape-7" data-name="Shape" d="M12.616,42.786H12.45a8.217,8.217,0,0,1-6.681-6.128,1.419,1.419,0,0,1,2.767-.636,5.4,5.4,0,0,0,4.371,4.012,1.388,1.388,0,1,1-.221,2.767Z" fill="#f5f5f5"/>
              <path id="Shape-8" data-name="Shape" d="M36.1,63.426h-.221A16.42,16.42,0,0,1,22.6,51.28a1.386,1.386,0,0,1,2.7-.636A13.6,13.6,0,0,0,36.368,60.7a1.388,1.388,0,0,1-.221,2.767Z" fill="#f5f5f5"/>
              <path id="Shape-9" data-name="Shape" d="M65.017,76.083a5.381,5.381,0,0,1-5.533-5.533,1.383,1.383,0,1,1,2.767,0,2.6,2.6,0,0,0,2.767,2.767,1.383,1.383,0,1,1,0,2.767Z" fill="#f5f5f5"/>
            </g>
          </g>
          <g id="Icons_copy">
            <path id="Shape-10" data-name="Shape" d="M77.467,71.933V15.023a5.533,5.533,0,0,0,4.15-5.34V5.533A5.533,5.533,0,0,0,76.083,0H56.717a5.533,5.533,0,0,0-5.533,5.533v4.15a5.533,5.533,0,0,0,4.15,5.34V29.659A68.53,68.53,0,0,0,42.4,16.019a3.652,3.652,0,0,0-4.537,0A68.572,68.572,0,0,0,26.643,27.266,40.117,40.117,0,0,0,16.96,15.839a2.767,2.767,0,0,0-3.417,0C11.067,17.734-.941,27.874,1.771,39.314A13.833,13.833,0,0,0,12.837,49.606a13.017,13.017,0,0,0,2.379.194,13.833,13.833,0,0,0,2.767-.3,23.3,23.3,0,0,0,.623,4.454,22.036,22.036,0,0,0,17.776,16.3,23.754,23.754,0,0,0,3.735.3,22.216,22.216,0,0,0,14.442-5.284c.29-.235.539-.512.816-.775v7.442a11.067,11.067,0,0,0,22.133,0ZM53.95,9.683V5.533a2.767,2.767,0,0,1,2.767-2.767H76.083A2.767,2.767,0,0,1,78.85,5.533v4.15a2.767,2.767,0,0,1-2.767,2.767H56.717A2.767,2.767,0,0,1,53.95,9.683Zm4.15,5.533H74.7v4.15H69.167a1.383,1.383,0,0,0,0,2.767H74.7v4.15H69.167a1.383,1.383,0,0,0,0,2.767H74.7V33.2H69.167a1.383,1.383,0,0,0,0,2.767H74.7v4.15H69.167a1.383,1.383,0,0,0,0,2.767H74.7v4.15H62.25A31.457,31.457,0,0,0,58.1,34.072ZM13.322,46.881a10.984,10.984,0,0,1-8.853-8.148c-2.379-10.057,9.365-19.685,10.749-20.75,1.134.9,11.067,8.992,11.067,17.983a11.067,11.067,0,0,1-7.332,10.416,11.191,11.191,0,0,1-5.63.5Zm39.4,16.282a19.6,19.6,0,0,1-15.895,4.358A19.256,19.256,0,0,1,21.29,53.286a20.6,20.6,0,0,1-.539-4.662,13.723,13.723,0,0,0,8.3-12.657,16.849,16.849,0,0,0-1.12-5.852A65.971,65.971,0,0,1,39.563,18.177a.941.941,0,0,1,1.134,0A63.08,63.08,0,0,1,55.444,34.943,28.109,28.109,0,0,1,59.483,48.6,19.09,19.09,0,0,1,52.719,63.163Zm5.381,8.77V61.365A21.691,21.691,0,0,0,62.25,49.8H74.7v4.15H69.167a1.383,1.383,0,0,0,0,2.767H74.7v4.15H69.167a1.383,1.383,0,0,0,0,2.767H74.7v8.3a8.3,8.3,0,0,1-16.6,0Z"/>
          </g>
        </g>
      </g>
    </g>
  </g>
</svg>
