<svg xmlns="http://www.w3.org/2000/svg" xmlns:xlink="http://www.w3.org/1999/xlink" width="124" height="177" viewBox="0 0 124 177">
  <defs>
    <clipPath id="clip-path">
      <rect id="Rectángulo_32747" data-name="Rectángulo 32747" width="124" height="124" transform="translate(0.384 -0.037)" fill="#fff" stroke="#707070" stroke-width="1"/>
    </clipPath>
  </defs>
  <g id="Grupo_87482" data-name="Grupo 87482" transform="translate(-972.999 -554)">
    <rect id="Rectángulo_32755" data-name="Rectángulo 32755" width="80" height="177" transform="translate(995 554)" fill="#8ad24a"/>
    <g id="Enmascarar_grupo_80" data-name="Enmascarar grupo 80" transform="translate(972.615 584.037)" clip-path="url(#clip-path)">
      <g id="muestra" transform="translate(21.791 -0.462)">
        <g id="Grupo_87338" data-name="Grupo 87338" transform="translate(1.928 1.928)">
          <path id="Trazado_146911" data-name="Trazado 146911" d="M97.753,67.083v56.465c0,5.9-3.771,11.28-9.669,11.28H54.244c-5.9,0-9.669-5.382-9.669-11.28V67.083H97.753Z" transform="translate(-31.684 -13.971)" fill="#31c0d8"/>
          <path id="Trazado_146912" data-name="Trazado 146912" d="M97.753,29.846V60.4H44.576V29.846Z" transform="translate(-31.684 -7.286)" fill="#afb6bb"/>
          <path id="Trazado_146913" data-name="Trazado 146913" d="M106.212,24.91H28.864V5.572A3.232,3.232,0,0,1,32.086,2.35h70.9a3.232,3.232,0,0,1,3.223,3.223Z" transform="translate(-28.864 -2.35)" fill="#ffd248"/>
        </g>
        <g id="Grupo_87339" data-name="Grupo 87339" transform="translate(0)">
          <path id="Trazado_146914" data-name="Trazado 146914" d="M107.718,5.151A5.157,5.157,0,0,0,102.568,0h-70.9a5.156,5.156,0,0,0-5.151,5.151V26.416H39.406v85.089a14.429,14.429,0,0,0,3.05,9.062A10.819,10.819,0,0,0,51,124.713h33.84a10.819,10.819,0,0,0,8.546-4.146,14.428,14.428,0,0,0,3.05-9.062V26.416h11.28V5.151ZM84.842,120.857H51c-5.028,0-7.741-4.818-7.741-9.352V56.968H92.583v54.537C92.583,117.579,88.594,120.857,84.842,120.857Zm7.741-67.744H43.261v-26.7H92.583Zm11.28-30.553H30.37V5.151a1.313,1.313,0,0,1,1.295-1.3H45.851V16.431h3.856V3.856H65.188V16.431h3.856V3.856H84.525V16.431h3.856V3.856h14.186a1.313,1.313,0,0,1,1.3,1.3V22.56Z" transform="translate(-26.514)" fill="#0f2771"/>
          <rect id="Rectángulo_32805" data-name="Rectángulo 32805" width="3.856" height="28.517" transform="translate(24.904 63.968)" fill="#0f2771"/>
          <rect id="Rectángulo_32806" data-name="Rectángulo 32806" width="3.856" height="7.129" transform="translate(24.904 97.832)" fill="#0f2771"/>
        </g>
      </g>
    </g>
  </g>
</svg>
