<svg xmlns="http://www.w3.org/2000/svg" xmlns:xlink="http://www.w3.org/1999/xlink" width="152" height="215" viewBox="0 0 152 215">
  <defs>
    <clipPath id="clip-path">
      <rect id="Rect치ngulo_32759" data-name="Rect치ngulo 32759" width="152" height="152" transform="translate(11650 -9544)" fill="#fff" stroke="#707070" stroke-width="1"/>
    </clipPath>
  </defs>
  <g id="Grupo_87484" data-name="Grupo 87484" transform="translate(-11281 10150)">
    <rect id="Rect치ngulo_32760" data-name="Rect치ngulo 32760" width="98" height="215" transform="translate(11308 -10150)" fill="#8ad24a"/>
    <g id="Enmascarar_grupo_82" data-name="Enmascarar grupo 82" transform="translate(-369 -571)" clip-path="url(#clip-path)">
      <g id="tuberia" transform="translate(11647.549 -9546.451)">
        <path id="Trazado_146936" data-name="Trazado 146936" d="M90.71,68.645a4.918,4.918,0,0,1,4.9,4.9,4.939,4.939,0,0,1-4.9,4.9H66.194a4.918,4.918,0,0,1-4.9-4.9,4.939,4.939,0,0,1,4.9-4.9H90.71Z" fill="#969faa"/>
        <path id="Trazado_146937" data-name="Trazado 146937" d="M85.806,66.194v2.452H71.1V66.194a7.355,7.355,0,0,1,14.71,0Z" fill="#ccd1d9"/>
        <path id="Trazado_146938" data-name="Trazado 146938" d="M71.1,78.452h14.71v14.71H71.1Z" fill="#ccd1d9"/>
        <g id="Grupo_87340" data-name="Grupo 87340">
          <path id="Trazado_146939" data-name="Trazado 146939" d="M127.484,137.29H147.1V152H127.484Z" fill="#e6e9ed"/>
          <path id="Trazado_146940" data-name="Trazado 146940" d="M78.452,24.516V44.129H62.075a29.676,29.676,0,0,0,0-19.613Z" fill="#e6e9ed"/>
          <path id="Trazado_146941" data-name="Trazado 146941" d="M88.258,24.516h19.613V44.129H88.258Z" fill="#e6e9ed"/>
          <path id="Trazado_146942" data-name="Trazado 146942" d="M147.1,73.548H127.484V46.581a2.459,2.459,0,0,0-2.452-2.452h-7.355V24.516h14.71a14.721,14.721,0,0,1,14.71,14.71Z" fill="#e6e9ed"/>
          <path id="Trazado_146943" data-name="Trazado 146943" d="M112.774,93.161h14.71v19.613h-14.71Z" fill="#e6e9ed"/>
          <path id="Trazado_146944" data-name="Trazado 146944" d="M147.1,127.484H127.484V83.355H147.1Z" fill="#e6e9ed"/>
          <path id="Trazado_146945" data-name="Trazado 146945" d="M53.935,112.774V93.161h49.032v19.613Z" fill="#e6e9ed"/>
          <path id="Trazado_146946" data-name="Trazado 146946" d="M44.129,93.161v19.613H36.774a2.459,2.459,0,0,0-2.452,2.452v12.258H14.71V107.871a14.721,14.721,0,0,1,14.71-14.71Z" fill="#e6e9ed"/>
          <path id="Trazado_146947" data-name="Trazado 146947" d="M14.71,137.29H34.323V152H14.71Z" fill="#e6e9ed"/>
        </g>
        <path id="Trazado_146948" data-name="Trazado 146948" d="M39.226,129.935v4.9a2.459,2.459,0,0,1-2.452,2.452H12.258a2.459,2.459,0,0,1-2.452-2.452v-4.9a2.459,2.459,0,0,1,2.452-2.452H36.774A2.459,2.459,0,0,1,39.226,129.935Z" fill="#c9ff98"/>
        <path id="Trazado_146949" data-name="Trazado 146949" d="M53.935,112.774v2.452a2.459,2.459,0,0,1-2.452,2.452h-4.9a2.459,2.459,0,0,1-2.452-2.452V90.71a2.459,2.459,0,0,1,2.452-2.452h4.9a2.459,2.459,0,0,1,2.452,2.452v22.065Z" fill="#c9ff98"/>
        <path id="Trazado_146950" data-name="Trazado 146950" d="M112.774,112.774v2.452a2.459,2.459,0,0,1-2.452,2.452h-4.9a2.459,2.459,0,0,1-2.452-2.452V90.71a2.459,2.459,0,0,1,2.452-2.452h4.9a2.459,2.459,0,0,1,2.452,2.452v22.065Z" fill="#c9ff98"/>
        <path id="Trazado_146951" data-name="Trazado 146951" d="M152,129.935v4.9a2.459,2.459,0,0,1-2.452,2.452H125.032a2.459,2.459,0,0,1-2.452-2.452v-4.9a2.459,2.459,0,0,1,2.452-2.452h24.516A2.459,2.459,0,0,1,152,129.935Z" fill="#c9ff98"/>
        <path id="Trazado_146952" data-name="Trazado 146952" d="M152,76v4.9a2.459,2.459,0,0,1-2.452,2.452H125.032a2.459,2.459,0,0,1-2.452-2.452V76a2.459,2.459,0,0,1,2.452-2.452h24.516A2.459,2.459,0,0,1,152,76Z" fill="#c9ff98"/>
        <path id="Trazado_146953" data-name="Trazado 146953" d="M117.677,44.129v2.452a2.459,2.459,0,0,1-2.452,2.452h-4.9a2.459,2.459,0,0,1-2.452-2.452V22.065a2.459,2.459,0,0,1,2.452-2.452h4.9a2.459,2.459,0,0,1,2.452,2.452V44.129Z" fill="#c9ff98"/>
        <path id="Trazado_146954" data-name="Trazado 146954" d="M88.258,44.129v2.452a2.459,2.459,0,0,1-2.452,2.452H80.9a2.459,2.459,0,0,1-2.452-2.452V22.065A2.459,2.459,0,0,1,80.9,19.613h4.9a2.459,2.459,0,0,1,2.452,2.452V44.129Z" fill="#c9ff98"/>
        <path id="Trazado_146955" data-name="Trazado 146955" d="M62.075,24.516A29.428,29.428,0,1,1,34.323,4.9,29.521,29.521,0,0,1,62.075,24.516Z" fill="#e6e9ed"/>
        <path id="Trazado_146956" data-name="Trazado 146956" d="M37.779,16.941l7.943,20.128a12.165,12.165,0,0,1,.858,4.486v.123A12.22,12.22,0,0,1,34.769,53.928c-6.982.25-12.7-5.854-12.7-12.842a9.78,9.78,0,0,1,.684-3.592l8.117-20.554a3.794,3.794,0,0,1,6.914,0Z" fill="#3ca8f4"/>
        <path id="Trazado_146957" data-name="Trazado 146957" d="M40.02,15.928a6.258,6.258,0,0,0-11.4,0L20.687,36.044a15.218,15.218,0,0,0-1.074,5.634,14.71,14.71,0,1,0,28.395-5.521Zm-5.7,35.556a9.816,9.816,0,0,1-9.806-9.806,10.345,10.345,0,0,1,.731-3.832l7.862-19.932a1.473,1.473,0,0,1,2.4-.071l7.936,20.113a9.96,9.96,0,0,1,.684,3.722A9.816,9.816,0,0,1,34.323,51.484Z" fill="#0f2771"/>
        <path id="Trazado_146958" data-name="Trazado 146958" d="M154.452,80.9V76a4.908,4.908,0,0,0-4.9-4.9V39.226a17.183,17.183,0,0,0-17.161-17.161H120.129a4.908,4.908,0,0,0-4.9-4.9h-4.9a4.908,4.908,0,0,0-4.9,4.9H90.71a4.908,4.908,0,0,0-4.9-4.9H80.9a4.908,4.908,0,0,0-4.9,4.9H63.735a31.871,31.871,0,1,0,0,24.516H76a4.908,4.908,0,0,0,4.9,4.9h4.9a4.908,4.908,0,0,0,4.9-4.9h14.71a4.908,4.908,0,0,0,4.9,4.9h4.9a4.908,4.908,0,0,0,4.9-4.9h4.9V71.1a4.908,4.908,0,0,0-4.9,4.9v4.9a4.908,4.908,0,0,0,4.9,4.9v4.9h-9.806a4.908,4.908,0,0,0-4.9-4.9h-4.9a4.908,4.908,0,0,0-4.9,4.9H88.258V80.9H90.71a7.355,7.355,0,0,0,0-14.71H88.258a9.806,9.806,0,1,0-19.613,0H66.194a7.355,7.355,0,1,0,0,14.71h2.452V90.71H56.387a4.908,4.908,0,0,0-4.9-4.9h-4.9a4.908,4.908,0,0,0-4.9,4.9H29.419a17.183,17.183,0,0,0-17.161,17.161v17.161a4.908,4.908,0,0,0-4.9,4.9v4.9a4.908,4.908,0,0,0,4.9,4.9v14.71H36.774v-14.71a4.908,4.908,0,0,0,4.9-4.9v-4.9a4.908,4.908,0,0,0-4.9-4.9v-9.806h4.9a4.908,4.908,0,0,0,4.9,4.9h4.9a4.908,4.908,0,0,0,4.9-4.9h44.129a4.908,4.908,0,0,0,4.9,4.9h4.9a4.908,4.908,0,0,0,4.9-4.9h9.806v9.806a4.908,4.908,0,0,0-4.9,4.9v4.9a4.908,4.908,0,0,0,4.9,4.9v14.71h24.516v-14.71a4.908,4.908,0,0,0,4.9-4.9v-4.9a4.908,4.908,0,0,0-4.9-4.9V85.806A4.908,4.908,0,0,0,154.452,80.9ZM34.323,61.29A26.968,26.968,0,1,1,61.29,34.323,27,27,0,0,1,34.323,61.29ZM65.3,41.677a30.837,30.837,0,0,0,0-14.71H76v14.71Zm15.6,4.9V22.065h4.9l0,24.516Zm9.806-4.9V26.968h14.71v14.71ZM31.871,149.548H17.161v-9.806h14.71Zm4.908-14.71H12.258v-4.9H36.774Zm0-24.516a4.908,4.908,0,0,0-4.9,4.9v9.806H17.161V107.871A12.272,12.272,0,0,1,29.419,95.613H41.677v14.71ZM78.452,61.29a4.908,4.908,0,0,1,4.9,4.9H73.548A4.908,4.908,0,0,1,78.452,61.29ZM63.742,73.548A2.453,2.453,0,0,1,66.194,71.1H90.71a2.452,2.452,0,1,1,0,4.9H66.194A2.453,2.453,0,0,1,63.742,73.548ZM73.548,80.9h9.806V90.71H73.548ZM46.581,115.226V90.71h4.9l0,24.516Zm9.806-4.9V95.613h44.129v14.71Zm53.935-63.742V22.065h4.9l0,24.516Zm14.71-4.9h-4.9V26.968h12.258a12.272,12.272,0,0,1,12.258,12.258V71.1h-14.71V46.581A4.908,4.908,0,0,0,125.032,41.677Zm0,34.323h24.516l0,4.9H125.032Zm-19.613,39.226V90.71h4.9l0,24.516Zm9.806-4.9V95.613h9.806v14.71Zm29.419,39.226h-14.71v-9.806h14.71Zm4.908-14.71H125.032v-4.9h24.516Zm-4.908-9.806h-14.71V85.806h14.71Z" fill="#0f2771"/>
        <path id="Trazado_146959" data-name="Trazado 146959" d="M134.839,115.226h4.9v4.9h-4.9Z" fill="#0f2771"/>
        <path id="Trazado_146960" data-name="Trazado 146960" d="M134.839,105.419h4.9v4.9h-4.9Z" fill="#0f2771"/>
        <path id="Trazado_146961" data-name="Trazado 146961" d="M134.839,95.613h4.9v4.9h-4.9Z" fill="#0f2771"/>
        <path id="Trazado_146962" data-name="Trazado 146962" d="M71.1,100.516H76v4.9H71.1Z" fill="#0f2771"/>
        <path id="Trazado_146963" data-name="Trazado 146963" d="M61.29,100.516h4.9v4.9h-4.9Z" fill="#0f2771"/>
        <path id="Trazado_146964" data-name="Trazado 146964" d="M80.9,100.516h4.9v4.9H80.9Z" fill="#0f2771"/>
        <path id="Trazado_146965" data-name="Trazado 146965" d="M134.839,61.29h4.9v4.9h-4.9Z" fill="#0f2771"/>
        <path id="Trazado_146966" data-name="Trazado 146966" d="M134.839,51.484h4.9v4.9h-4.9Z" fill="#0f2771"/>
        <path id="Trazado_146967" data-name="Trazado 146967" d="M134.839,41.677h4.9v4.9h-4.9Z" fill="#0f2771"/>
      </g>
    </g>
  </g>
</svg>
