<svg xmlns="http://www.w3.org/2000/svg" xmlns:xlink="http://www.w3.org/1999/xlink" width="152" height="215" viewBox="0 0 152 215">
  <defs>
    <clipPath id="clip-path">
      <rect id="Rect치ngulo_32762" data-name="Rect치ngulo 32762" width="152" height="152" transform="translate(11952 -9544)" fill="#fff" stroke="#707070" stroke-width="1"/>
    </clipPath>
  </defs>
  <g id="Grupo_87485" data-name="Grupo 87485" transform="translate(-11583 10150)">
    <rect id="Rect치ngulo_32763" data-name="Rect치ngulo 32763" width="98" height="215" transform="translate(11610 -10150)" fill="#8ad24a"/>
    <g id="Enmascarar_grupo_83" data-name="Enmascarar grupo 83" transform="translate(-369 -571)" clip-path="url(#clip-path)">
      <g id="probeta" transform="translate(11988.516 -9544)">
        <path id="Trazado_146968" data-name="Trazado 146968" d="M66.263,122.994a26.779,26.779,0,0,1-53.558,0V16.031H66.263Zm0,0" fill="#d0eaf5"/>
        <path id="Trazado_146969" data-name="Trazado 146969" d="M54.208,16.031V122.994a26.789,26.789,0,0,1-20.751,26.1,26.8,26.8,0,0,0,32.807-26.1V16.031Zm0,0" fill="#bfd6e0"/>
        <path id="Trazado_146970" data-name="Trazado 146970" d="M39.484,149.773a26.78,26.78,0,0,0,26.779-26.779V66.434s-12.826,10.16-26.779,1.847-26.779,0-26.779,0v54.713a26.78,26.78,0,0,0,26.779,26.779Zm0,0" fill="#61a1dc"/>
        <path id="Trazado_146971" data-name="Trazado 146971" d="M54.208,122.994a26.789,26.789,0,0,1-20.751,26.1q.346.08.695.151l.193.036c.169.034.337.065.508.1l.248.041q.23.038.459.073l.273.037c.147.021.3.039.444.058l.283.032c.147.015.295.03.442.043.1.009.19.019.285.026.152.013.3.023.455.032.092.006.183.013.276.017.165.009.329.015.5.021l.238.009q.367.01.735.01a26.779,26.779,0,0,0,26.779-26.779V66.434a27.232,27.232,0,0,1-12.056,4.9Zm0,0" fill="#558bbf"/>
        <g id="Grupo_87341" data-name="Grupo 87341">
          <path id="Trazado_146972" data-name="Trazado 146972" d="M30,81.021a3.369,3.369,0,1,1-3.369-3.369A3.369,3.369,0,0,1,30,81.021Zm0,0" fill="#674297"/>
          <path id="Trazado_146973" data-name="Trazado 146973" d="M56.032,90.224a2.943,2.943,0,1,1-2.943-2.943A2.943,2.943,0,0,1,56.032,90.224Zm0,0" fill="#674297"/>
          <path id="Trazado_146974" data-name="Trazado 146974" d="M35.89,132.084a2.943,2.943,0,1,1-2.943-2.943A2.943,2.943,0,0,1,35.89,132.084Zm0,0" fill="#674297"/>
          <path id="Trazado_146975" data-name="Trazado 146975" d="M56.032,119.467a2.943,2.943,0,1,1-2.943-2.943A2.943,2.943,0,0,1,56.032,119.467Zm0,0" fill="#674297"/>
          <path id="Trazado_146976" data-name="Trazado 146976" d="M34.535,103.961a3.553,3.553,0,1,1-3.553-3.553A3.554,3.554,0,0,1,34.535,103.961Zm0,0" fill="#674297"/>
        </g>
        <path id="Trazado_146977" data-name="Trazado 146977" d="M6.9,2.227A4.676,4.676,0,0,0,2.227,6.9v4.453A4.676,4.676,0,0,0,6.9,16.031H72.066a4.676,4.676,0,0,0,4.676-4.676V6.9a4.676,4.676,0,0,0-4.676-4.676" fill="#c9ff98"/>
        <path id="Trazado_146978" data-name="Trazado 146978" d="M72.066,2.227H59.217A4.676,4.676,0,0,1,63.893,6.9v4.453a4.676,4.676,0,0,1-4.676,4.676H72.066a4.676,4.676,0,0,0,4.676-4.676V6.9A4.676,4.676,0,0,0,72.066,2.227Zm0,0" fill="#a6ef65"/>
        <path id="Trazado_146979" data-name="Trazado 146979" d="M72.066,0H24.739a2.227,2.227,0,1,0,0,4.453H72.066A2.451,2.451,0,0,1,74.516,6.9v4.453A2.451,2.451,0,0,1,72.066,13.8H6.9a2.451,2.451,0,0,1-2.449-2.449V6.9A2.451,2.451,0,0,1,6.9,4.453h5.8a2.227,2.227,0,1,0,0-4.453H6.9A6.91,6.91,0,0,0,0,6.9v4.453a6.91,6.91,0,0,0,6.9,6.9h3.576V122.994a29.006,29.006,0,0,0,58.011,0V47a2.227,2.227,0,0,0-4.453,0V65.266c-2.81,1.859-12.773,7.44-23.413,1.1A27.9,27.9,0,0,0,14.932,64.7V18.258h49.1V35.031a2.227,2.227,0,0,0,4.453,0V18.258h3.576a6.91,6.91,0,0,0,6.9-6.9V6.9a6.91,6.91,0,0,0-6.9-6.9ZM38.344,70.193c8.1,4.829,17.287,4.647,25.692.2v52.6a24.552,24.552,0,0,1-49.1,0V69.6a23.987,23.987,0,0,1,23.413.594Zm0,0" fill="#0f2771"/>
      </g>
    </g>
  </g>
</svg>
