<svg xmlns="http://www.w3.org/2000/svg" xmlns:xlink="http://www.w3.org/1999/xlink" width="124" height="177" viewBox="0 0 124 177">
  <defs>
    <clipPath id="clip-path">
      <rect id="Rect치ngulo_32743" data-name="Rect치ngulo 32743" width="124" height="124" transform="translate(-0.035 -0.037)" fill="#0f2771" stroke="#707070" stroke-width="1"/>
    </clipPath>
  </defs>
  <g id="Grupo_87480" data-name="Grupo 87480" transform="translate(-505 -554)">
    <rect id="Rect치ngulo_32753" data-name="Rect치ngulo 32753" width="80" height="177" transform="translate(527 554)" fill="#8ad24a"/>
    <g id="Enmascarar_grupo_78" data-name="Enmascarar grupo 78" transform="translate(505.035 584.037)" clip-path="url(#clip-path)">
      <g id="Fill_Outline" data-name="Fill Outline" transform="translate(-0.055 -0.461)">
        <g id="Color" transform="translate(2.079 2.077)">
          <g id="Grupo_87333" data-name="Grupo 87333">
            <path id="Trazado_146885" data-name="Trazado 146885" d="M55.733,121.6H97.3v18.707H55.733Z" transform="translate(-16.241 -28.065)" fill="#93999a"/>
            <path id="Trazado_146886" data-name="Trazado 146886" d="M55.733,136.15A51.964,51.964,0,0,0,97.3,130.658V121.6H55.733Z" transform="translate(-16.241 -28.065)" fill="#656b76"/>
            <path id="Trazado_146887" data-name="Trazado 146887" d="M11.757,144.4H124a4.157,4.157,0,0,1,4.157,4.157v4.157H7.6v-4.157a4.157,4.157,0,0,1,4.157-4.157Z" transform="translate(-7.6 -32.158)" fill="#d0d8da"/>
            <circle id="Elipse_4344" data-name="Elipse 4344" cx="51.964" cy="51.964" r="51.964" transform="translate(8.314)" fill="#d0d8da"/>
            <path id="Trazado_146888" data-name="Trazado 146888" d="M86.323,94.813A51.964,51.964,0,0,1,40.314,18.7a51.964,51.964,0,1,0,75.389,67A51.712,51.712,0,0,1,86.323,94.813Z" transform="translate(-9.417 -9.593)" fill="#93999a"/>
            <circle id="Elipse_4345" data-name="Elipse 4345" cx="43.65" cy="43.65" r="43.65" transform="translate(16.628 8.314)" fill="#d3ffac"/>
            <path id="Trazado_146889" data-name="Trazado 146889" d="M73.667,17.733A43.552,43.552,0,0,0,39.849,33.8a43.639,43.639,0,0,1,61.4,61.4A43.65,43.65,0,0,0,73.667,17.733Z" transform="translate(-13.389 -9.419)" fill="#99ee4e"/>
            <path id="Trazado_146890" data-name="Trazado 146890" d="M102.38,95.044A43.652,43.652,0,1,1,40.647,33.311Z" transform="translate(-11.237 -12.216)" fill="#beff84"/>
            <circle id="Elipse_4346" data-name="Elipse 4346" cx="4.157" cy="4.157" r="4.157" transform="translate(64.435 74.828)" fill="#fcbc04"/>
            <circle id="Elipse_4347" data-name="Elipse 4347" cx="4.157" cy="4.157" r="4.157" transform="translate(56.121 47.807)" fill="#f9e109"/>
            <path id="Trazado_146891" data-name="Trazado 146891" d="M84.314,84.314H76L80.157,76Z" transform="translate(-19.879 -19.879)" fill="#fcbc04"/>
            <path id="Trazado_146892" data-name="Trazado 146892" d="M88.148,98.435a51.964,51.964,0,0,1-51.4-59.561,43.606,43.606,0,0,0,64.994,57.755,52.047,52.047,0,0,1-13.59,1.806Z" transform="translate(-11.242 -13.214)" fill="#99ee4e"/>
            <circle id="Elipse_4348" data-name="Elipse 4348" cx="4.157" cy="4.157" r="4.157" transform="translate(47.807 74.828)" fill="#fcbc04"/>
            <path id="Trazado_146893" data-name="Trazado 146893" d="M83.1,73.229l-5.878-5.878A4.157,4.157,0,1,0,83.1,73.23Z" transform="translate(-19.879 -18.327)" fill="#fcbc04"/>
            <path id="Trazado_146894" data-name="Trazado 146894" d="M66.528,101.133A4.157,4.157,0,1,0,73.8,105.1,51.668,51.668,0,0,1,66.528,101.133Z" transform="translate(-18.056 -24.391)" fill="#e59730"/>
            <path id="Trazado_146895" data-name="Trazado 146895" d="M13.836,144.4H11.757A4.157,4.157,0,0,0,7.6,148.557v4.157H128.156v-4.157H17.993A4.157,4.157,0,0,1,13.836,144.4Z" transform="translate(-7.6 -32.158)" fill="#93999a"/>
          </g>
        </g>
        <g id="Outline_copy" data-name="Outline copy" transform="translate(0 0)">
          <g id="Grupo_87334" data-name="Grupo 87334">
            <path id="Trazado_146896" data-name="Trazado 146896" d="M95.889,88.7a2.079,2.079,0,0,0,2.939,0,36.375,36.375,0,1,0-51.44,0,2.079,2.079,0,0,0,2.939-2.941,32.425,32.425,0,0,1-4.032-4.905l4.448-2.569a2.079,2.079,0,1,0-2.079-3.6l-4.425,2.557a31.947,31.947,0,0,1-3.247-12.184h5.095a2.079,2.079,0,1,0,0-4.157H40.992a31.947,31.947,0,0,1,3.249-12.189l4.425,2.557a2.079,2.079,0,1,0,2.079-3.6L46.295,45.1a32.33,32.33,0,0,1,8.938-8.919L57.8,40.618a2.079,2.079,0,1,0,3.6-2.079l-2.55-4.419a32.159,32.159,0,0,1,12.184-3.249v5.082a2.079,2.079,0,0,0,4.157,0V30.872a32.159,32.159,0,0,1,12.182,3.245l-2.55,4.419a2.079,2.079,0,1,0,3.6,2.079l2.565-4.438A32.33,32.33,0,0,1,99.921,45.1l-4.448,2.569a2.079,2.079,0,1,0,2.079,3.6l4.425-2.557A31.947,31.947,0,0,1,105.224,60.9h-5.095a2.079,2.079,0,1,0,0,4.157h5.095a31.947,31.947,0,0,1-3.249,12.189L97.55,74.685a2.079,2.079,0,1,0-2.079,3.6l4.45,2.565a32.425,32.425,0,0,1-4.032,4.905,2.079,2.079,0,0,0,0,2.941Z" transform="translate(-10.751 -8.934)" fill="#0f2771"/>
            <path id="Trazado_146897" data-name="Trazado 146897" d="M63.333,102.5a6.236,6.236,0,1,0,6.236-6.236,6.236,6.236,0,0,0-6.236,6.236Zm8.314,0a2.079,2.079,0,1,1-2.079-2.079A2.079,2.079,0,0,1,71.648,102.5Z" transform="translate(-15.527 -21.441)" fill="#0f2771"/>
            <path id="Trazado_146898" data-name="Trazado 146898" d="M89.836,108.738A6.236,6.236,0,1,0,83.6,102.5,6.236,6.236,0,0,0,89.836,108.738Zm0-8.314a2.079,2.079,0,1,1-2.079,2.079A2.079,2.079,0,0,1,89.836,100.424Z" transform="translate(-19.165 -21.441)" fill="#0f2771"/>
            <path id="Trazado_146899" data-name="Trazado 146899" d="M85.628,80.4a2.079,2.079,0,0,0,.091-2.022l-3.047-6.094a6.19,6.19,0,0,0-.892-11.3V50.212a2.079,2.079,0,1,0-4.157,0V60.987a6.19,6.19,0,0,0-.892,11.3l-3.047,6.094a2.079,2.079,0,0,0,1.86,3.008h8.314A2.079,2.079,0,0,0,85.628,80.4ZM79.7,64.762a2.079,2.079,0,1,1-2.079,2.079A2.079,2.079,0,0,1,79.7,64.762Zm-.794,12.471.794-1.588.794,1.588Z" transform="translate(-17.346 -12.8)" fill="#0f2771"/>
            <path id="Trazado_146900" data-name="Trazado 146900" d="M127.7,125.623H9.224v-2.079a2.079,2.079,0,0,1,2.079-2.079H123.544a2.079,2.079,0,1,0,0-4.157H90.287v-9.247a54.007,54.007,0,0,0,18.275-83.973,2.079,2.079,0,1,0-3.161,2.7,49.914,49.914,0,1,1-5.645-5.656,2.08,2.08,0,1,0,2.7-3.164A54.042,54.042,0,1,0,86.13,109.809v7.5H48.716v-2.257a2.079,2.079,0,1,0-4.157,0v2.257H11.3a6.236,6.236,0,0,0-6.236,6.236V127.7a2.079,2.079,0,0,0,2.079,2.079H127.7a2.079,2.079,0,1,0,0-4.157Z" transform="translate(-5.067 -5.069)" fill="#0f2771"/>
            <path id="Trazado_146901" data-name="Trazado 146901" d="M71.063,106.655A45.728,45.728,0,1,0,35.8,90.027,2.079,2.079,0,1,0,39,87.381a41.606,41.606,0,1,1,5.612,5.6,2.082,2.082,0,0,0-2.648,3.213,45.793,45.793,0,0,0,29.1,10.461Z" transform="translate(-8.707 -6.887)" fill="#0f2771"/>
          </g>
        </g>
      </g>
    </g>
  </g>
</svg>
