<svg xmlns="http://www.w3.org/2000/svg" width="124.142" height="215" viewBox="0 0 124.142 215">
  <g id="Grupo_87486" data-name="Grupo 87486" transform="translate(-11898.929 10150)">
    <rect id="Rectángulo_32766" data-name="Rectángulo 32766" width="98" height="215" transform="translate(11912 -10150)" fill="#8ad24a"/>
    <g id="Grupo_87344" data-name="Grupo 87344" transform="translate(-375.037 -571)">
      <g id="temporizador" transform="translate(12273.966 -9544)">
        <g id="Grupo_87342" data-name="Grupo 87342" transform="translate(2.205 2.325)">
          <path id="Trazado_146980" data-name="Trazado 146980" d="M40.569,22.226a2.466,2.466,0,0,0-3.369-.9l-6.356,3.67a2.467,2.467,0,0,0-.9,3.369L35.967,38.8l1.01.13,9.546-5.522V32.54Z" transform="translate(-11.722 0.802)" fill="#3f6d8e"/>
          <path id="Trazado_146981" data-name="Trazado 146981" d="M35.474,24.853a3.093,3.093,0,0,1-.235-2.588l-4.4,2.538a2.467,2.467,0,0,0-.9,3.369l6.027,10.438,1.01.13,4.884-2.825Z" transform="translate(-11.722 0.992)" fill="#365e7d"/>
          <path id="Trazado_146982" data-name="Trazado 146982" d="M72.4,12.216H61.375l-.582.561v15.9l.508.649H72.137l.928-.649v-15.9Z" transform="translate(-7.076 -0.505)" fill="#365e7d"/>
          <path id="Trazado_146983" data-name="Trazado 146983" d="M66.93,12.777l.582-.561H61.375l-.582.561v15.9l.508.649h6.136l-.508-.649Z" transform="translate(-7.076 -0.505)" fill="#294b64"/>
          <circle id="Elipse_4351" data-name="Elipse 4351" cx="59.836" cy="59.836" r="59.836" transform="translate(0 27.865)" fill="#90d8f9"/>
          <path id="Trazado_146984" data-name="Trazado 146984" d="M23.976,86.114A59.847,59.847,0,0,1,78.857,26.476c-1.637-.134-3.292-.206-4.963-.206a59.844,59.844,0,1,0,0,119.689c1.672,0,3.326-.072,4.963-.206A59.847,59.847,0,0,1,23.976,86.114Z" transform="translate(-14.041 1.589)" fill="#75cef9"/>
          <circle id="Elipse_4352" data-name="Elipse 4352" cx="47.962" cy="47.962" r="47.962" transform="translate(11.874 39.738)" fill="#f4fbff"/>
          <path id="Trazado_146985" data-name="Trazado 146985" d="M37.892,84.574A48.041,48.041,0,0,1,79.108,37.082a47.969,47.969,0,1,0,0,94.983A48.041,48.041,0,0,1,37.892,84.574Z" transform="translate(-12.501 3.129)" fill="#e4f6ff"/>
          <path id="Trazado_146986" data-name="Trazado 146986" d="M80.683,2.024H55.537A2.667,2.667,0,0,0,52.871,4.69v6.939A2.667,2.667,0,0,0,55.537,14.3H80.683a2.666,2.666,0,0,0,2.666-2.667V4.69a2.666,2.666,0,0,0-2.666-2.666Z" transform="translate(-8.257 -2.024)" fill="#3f6d8e"/>
          <path id="Trazado_146987" data-name="Trazado 146987" d="M64.251,11.629V4.69a2.667,2.667,0,0,1,2.667-2.667H55.537A2.667,2.667,0,0,0,52.871,4.69v6.939A2.667,2.667,0,0,0,55.537,14.3h11.38a2.666,2.666,0,0,1-2.667-2.667Z" transform="translate(-8.257 -2.024)" fill="#365e7d"/>
          <path id="Trazado_146988" data-name="Trazado 146988" d="M66.134,36.6V74.647l.68.917,7.051,5.492H99.47l3.934,2.449.916,1.068H114.1A48.024,48.024,0,0,0,66.134,36.6Z" transform="translate(-6.281 3.129)" fill="#dd636e"/>
          <path id="Trazado_146989" data-name="Trazado 146989" d="M75.7,37.564a48.013,48.013,0,0,0-9.569-.96V74.647l.68.917,7.051,5.492H75.7V37.564Z" transform="translate(-6.281 3.129)" fill="#da4a54"/>
          <path id="Trazado_146990" data-name="Trazado 146990" d="M60.033,74.478H52.016a4.453,4.453,0,0,0,0,8.906h8.017l.444-.944V75.265Z" transform="translate(-9.048 8.771)" fill="#ffaa5b"/>
          <path id="Trazado_146991" data-name="Trazado 146991" d="M98.816,74.478H73.951l-.765.59v6.878l.765,1.439H98.816a4.453,4.453,0,0,0,0-8.906Z" transform="translate(-5.23 8.771)" fill="#ffaa5b"/>
          <path id="Trazado_146992" data-name="Trazado 146992" d="M52.016,78.642a4.448,4.448,0,0,1-3.853-2.227,4.448,4.448,0,0,0,3.853,6.68h8.017l.444-.944V77.7l-.444.944Z" transform="translate(-9.048 9.06)" fill="#ff9838"/>
          <path id="Trazado_146993" data-name="Trazado 146993" d="M98.816,78.642H73.951L73.185,77.2v4.453l.765,1.439H98.816a4.448,4.448,0,0,0,3.853-6.68A4.448,4.448,0,0,1,98.816,78.642Z" transform="translate(-5.23 9.06)" fill="#ff9838"/>
          <circle id="Elipse_4353" data-name="Elipse 4353" cx="9.929" cy="9.929" r="9.929" transform="matrix(0.383, -0.924, 0.924, 0.383, 46.914, 93.092)" fill="#ffba7e"/>
          <path id="Trazado_146994" data-name="Trazado 146994" d="M64.471,79.641a9.942,9.942,0,0,1,6.438-9.292,9.927,9.927,0,1,0,0,18.584,9.942,9.942,0,0,1-6.438-9.292Z" transform="translate(-7.568 8.061)" fill="#ffaa5b"/>
        </g>
        <g id="Grupo_87343" data-name="Grupo 87343" transform="translate(0 0)">
          <path id="Trazado_146995" data-name="Trazado 146995" d="M12.123,89.929A62.071,62.071,0,1,0,82.556,28.423v-11.7h4.211a4.9,4.9,0,0,0,4.893-4.893V4.893A4.9,4.9,0,0,0,86.767,0H79.389a2.227,2.227,0,0,0,0,4.453h7.378a.44.44,0,0,1,.44.44v6.939a.44.44,0,0,1-.44.44H61.621a.441.441,0,0,1-.44-.44V4.893a.441.441,0,0,1,.44-.44H69A2.227,2.227,0,0,0,69,0H61.621a4.9,4.9,0,0,0-4.893,4.893v6.939a4.9,4.9,0,0,0,4.893,4.893h4.211v11.7a61.565,61.565,0,0,0-15.755,4.312l-4.961-8.593a4.7,4.7,0,0,0-6.41-1.718l-6.356,3.67a4.69,4.69,0,0,0-1.718,6.41l5.064,8.771A61.989,61.989,0,0,0,12.123,89.929Zm58.162-73.2H78.1V27.979a64.2,64.2,0,0,0-7.819,0Zm-35.8,13.552a.239.239,0,0,1,.088-.327l6.356-3.67a.241.241,0,0,1,.328.088l4.759,8.244A62.241,62.241,0,0,0,39.291,38.6Zm35.789,2.17a58.914,58.914,0,0,1,7.867,0,57.619,57.619,0,1,1-7.867,0Z" transform="translate(-12.123 0)" fill="#0f2771"/>
          <path id="Trazado_146996" data-name="Trazado 146996" d="M72.654,134.973a50.2,50.2,0,1,0,0-100.392h0a50.2,50.2,0,1,0,0,100.392ZM31.979,63.864l1.769,1.021a2.227,2.227,0,1,0,2.227-3.856l-1.762-1.017A46.111,46.111,0,0,1,47.888,46.335L48.906,48.1a2.227,2.227,0,0,0,3.856-2.227L51.741,44.1a45.417,45.417,0,0,1,18.686-5.013V54.238a2.227,2.227,0,0,0,4.453,0V39.089A45.534,45.534,0,0,1,93.566,44.1l-1.02,1.767A2.227,2.227,0,0,0,96.4,48.1l1.016-1.76a46.044,46.044,0,0,1,13.676,13.676l-1.76,1.016a2.227,2.227,0,0,0,2.227,3.856l1.767-1.02a45.376,45.376,0,0,1,5.014,18.685h-5.657a6.718,6.718,0,0,0-6.3-4.453H82.8a12.11,12.11,0,0,0-7.922-5.271v-8.2a2.227,2.227,0,0,0-4.453,0v8.2A12.177,12.177,0,0,0,62.507,78.1H55.769a6.68,6.68,0,1,0,0,13.359h6.738a12.14,12.14,0,0,0,20.292,0h23.587a6.691,6.691,0,0,0,6.3-4.453h5.658a45.422,45.422,0,0,1-5.013,18.686l-1.768-1.021a2.227,2.227,0,1,0-2.227,3.856l1.762,1.017a46.111,46.111,0,0,1-13.676,13.676L96.4,121.456a2.226,2.226,0,1,0-3.856,2.226l1.021,1.768a45.417,45.417,0,0,1-18.686,5.013v-2.048a2.227,2.227,0,1,0-4.453,0v2.048a45.417,45.417,0,0,1-18.686-5.013l1.021-1.768a2.227,2.227,0,1,0-3.856-2.227l-1.017,1.762a46.108,46.108,0,0,1-13.676-13.676l1.762-1.017a2.227,2.227,0,0,0-2.227-3.856l-1.769,1.021A45.417,45.417,0,0,1,26.965,87h2.048a2.227,2.227,0,0,0,0-4.453H26.965a45.431,45.431,0,0,1,5.013-18.687ZM84.6,82.55h21.783a2.227,2.227,0,1,1,0,4.453H84.6A12.477,12.477,0,0,0,84.6,82.55Zm-5.077,5.692a7.7,7.7,0,1,1-6.873-11.165,7.707,7.707,0,0,1,6.873,11.165ZM60.7,87H55.77a2.227,2.227,0,1,1,0-4.453H60.7A12.459,12.459,0,0,0,60.7,87Z" transform="translate(-10.583 5.152)" fill="#0f2771"/>
        </g>
      </g>
    </g>
  </g>
</svg>
