<svg xmlns="http://www.w3.org/2000/svg" xmlns:xlink="http://www.w3.org/1999/xlink" width="152" height="215" viewBox="0 0 152 215">
  <defs>
    <clipPath id="clip-path">
      <rect id="Rect치ngulo_32779" data-name="Rect치ngulo 32779" width="152" height="152" transform="translate(11952 -9134)" fill="#fff" stroke="#707070" stroke-width="1"/>
    </clipPath>
  </defs>
  <g id="Grupo_87490" data-name="Grupo 87490" transform="translate(-11583 9739)">
    <rect id="Rect치ngulo_32778" data-name="Rect치ngulo 32778" width="98" height="215" transform="translate(11610 -9739)" fill="#8ad24a"/>
    <g id="Enmascarar_grupo_87" data-name="Enmascarar grupo 87" transform="translate(-369 -570)" clip-path="url(#clip-path)">
      <g id="cinta-adhesiva" transform="translate(11952 -9133.999)">
        <g id="Grupo_87366" data-name="Grupo 87366">
          <path id="Trazado_147054" data-name="Trazado 147054" d="M63.155,74.277a4.748,4.748,0,0,1-4.573-6.042L65.936,41.2a4.75,4.75,0,0,1,3.414-3.312l46.657-4.49a4.784,4.784,0,0,1,4.079.861A4.732,4.732,0,0,1,121.915,38V64.631l-57.272,9.4a4.815,4.815,0,0,1-1.488.241Z" fill="#90a4ae"/>
        </g>
        <g id="Grupo_87367" data-name="Grupo 87367">
          <path id="Trazado_147055" data-name="Trazado 147055" d="M137.749,76.506l9.5-11.59H63.333c-32.363,0-58.583-10.64-58.583-23.75v68.083c0,14,26.916,25.333,60.166,25.333h82.332l-9.5-11.59,9.5-11.653-9.5-11.59,9.5-11.59Z" fill="#eee"/>
        </g>
        <g id="Grupo_87368" data-name="Grupo 87368">
          <path id="Trazado_147056" data-name="Trazado 147056" d="M63.333,64.916H62.4c-27.968-.2-57.645-8.594-57.645-23.75,0-15.428,30.184-23.75,58.583-23.75s58.583,8.322,58.583,23.75S91.731,64.916,63.333,64.916Z" fill="#cfd8dc"/>
        </g>
        <g id="Grupo_87369" data-name="Grupo 87369">
          <path id="Trazado_147057" data-name="Trazado 147057" d="M63.333,50.666c-12.42,0-26.916-2.489-26.916-9.5s14.5-9.5,26.916-9.5,26.916,2.489,26.916,9.5S75.752,50.666,63.333,50.666Zm19.12-8.639H82.5Z" fill="#90a4ae"/>
        </g>
        <g id="Grupo_87370" data-name="Grupo 87370">
          <path id="Trazado_147058" data-name="Trazado 147058" d="M63.333,69.666C32.629,69.666,0,59.678,0,41.166s32.629-28.5,63.333-28.5,63.333,9.988,63.333,28.5S94.036,69.666,63.333,69.666Zm0-47.5c-33.357,0-53.833,11.064-53.833,19s20.475,19,53.833,19,53.833-11.064,53.833-19S96.69,22.166,63.333,22.166Z" fill="#0f2771"/>
        </g>
        <g id="Grupo_87371" data-name="Grupo 87371">
          <path id="Trazado_147059" data-name="Trazado 147059" d="M121.915,69.666a4.752,4.752,0,0,1-4.75-4.75V42.75a4.75,4.75,0,1,1,9.5,0V64.916A4.752,4.752,0,0,1,121.915,69.666Z" fill="#0f2771"/>
        </g>
        <g id="Grupo_87372" data-name="Grupo 87372">
          <path id="Trazado_147060" data-name="Trazado 147060" d="M64.916,139.332C27.9,139.332,0,126.4,0,109.249a4.75,4.75,0,0,1,9.5,0c0,9.715,23.7,20.583,55.416,20.583a4.75,4.75,0,1,1,0,9.5Z" fill="#0f2771"/>
        </g>
        <g id="Grupo_87373" data-name="Grupo 87373">
          <path id="Trazado_147061" data-name="Trazado 147061" d="M4.75,114A4.752,4.752,0,0,1,0,109.249V41.166a4.75,4.75,0,1,1,9.5,0v68.083A4.752,4.752,0,0,1,4.75,114Z" fill="#0f2771"/>
        </g>
        <g id="Grupo_87374" data-name="Grupo 87374">
          <path id="Trazado_147062" data-name="Trazado 147062" d="M147.248,139.332H64.916a4.75,4.75,0,0,1,0-9.5h72.307l-3.148-3.851a4.736,4.736,0,0,1,0-6.017l7.036-8.6-7.036-8.6a4.736,4.736,0,0,1,0-6.017l7.036-8.6-7.036-8.6a4.736,4.736,0,0,1,0-6.017l3.148-3.863H64.916a4.75,4.75,0,0,1,0-9.5h82.332a4.747,4.747,0,0,1,3.673,7.758l-7.036,8.6,7.036,8.6a4.736,4.736,0,0,1,0,6.017l-7.036,8.6,7.036,8.6a4.736,4.736,0,0,1,0,6.017l-7.036,8.6,7.036,8.6a4.759,4.759,0,0,1-3.673,7.771Z" fill="#0f2771"/>
        </g>
        <g id="Grupo_87375" data-name="Grupo 87375">
          <path id="Trazado_147063" data-name="Trazado 147063" d="M63.333,53.833c-14.611,0-31.666-3.319-31.666-12.667S48.722,28.5,63.333,28.5,95,31.818,95,41.166,77.944,53.833,63.333,53.833ZM42.693,41.166c3.287,1.45,10.45,3.167,20.64,3.167s17.353-1.716,20.64-3.167C80.686,39.716,73.523,38,63.333,38S45.98,39.716,42.693,41.166Zm43.136,1.153h.063Z" fill="#0f2771"/>
        </g>
      </g>
    </g>
  </g>
</svg>
