<svg xmlns="http://www.w3.org/2000/svg" xmlns:xlink="http://www.w3.org/1999/xlink" width="152" height="215" viewBox="0 0 152 215">
  <defs>
    <clipPath id="clip-path">
      <rect id="Rect치ngulo_32799" data-name="Rect치ngulo 32799" width="152" height="152" transform="translate(11348 -8724)" fill="#fff" stroke="#707070" stroke-width="1"/>
    </clipPath>
  </defs>
  <g id="Grupo_87493" data-name="Grupo 87493" transform="translate(-12488 9739)">
    <rect id="Rect치ngulo_32800" data-name="Rect치ngulo 32800" width="98" height="215" transform="translate(12515 -9739)" fill="#8ad24a"/>
    <g id="Enmascarar_grupo_90" data-name="Enmascarar grupo 90" transform="translate(1140 -980)" clip-path="url(#clip-path)">
      <g id="portapapeles" transform="translate(11348 -8724)">
        <g id="Grupo_87395" data-name="Grupo 87395">
          <g id="Grupo_87394" data-name="Grupo 87394">
            <g id="Grupo_87391" data-name="Grupo 87391">
              <g id="Grupo_87390" data-name="Grupo 87390">
                <g id="Grupo_87389" data-name="Grupo 87389">
                  <g id="Grupo_87388" data-name="Grupo 87388">
                    <g id="Grupo_87387" data-name="Grupo 87387">
                      <g id="Grupo_87386" data-name="Grupo 87386">
                        <g id="Grupo_87385" data-name="Grupo 87385">
                          <g id="Grupo_87384" data-name="Grupo 87384">
                            <g id="Grupo_87383" data-name="Grupo 87383">
                              <path id="Trazado_147086" data-name="Trazado 147086" d="M123.367,10.487H28.633a7.419,7.419,0,0,0-7.419,7.419V142.355a7.419,7.419,0,0,0,7.419,7.419h94.733a7.419,7.419,0,0,0,7.419-7.419V17.907a7.419,7.419,0,0,0-7.419-7.419Z" fill="#f8e8bb"/>
                              <path id="Trazado_147087" data-name="Trazado 147087" d="M123.367,10.487h-8.225V149.774h8.225a7.419,7.419,0,0,0,7.419-7.419V17.907a7.419,7.419,0,0,0-7.419-7.419Z" fill="#ecd393"/>
                              <path id="Trazado_147088" data-name="Trazado 147088" d="M95.253,18.748H56.747a4.411,4.411,0,0,1-4.411-4.411v-7.7a4.411,4.411,0,0,1,4.411-4.411H95.253a4.411,4.411,0,0,1,4.411,4.411v7.7A4.411,4.411,0,0,1,95.253,18.748Z" fill="#676e84"/>
                              <path id="Trazado_147089" data-name="Trazado 147089" d="M95.253,2.227H83.877V18.748H95.253a4.411,4.411,0,0,0,4.411-4.411v-7.7a4.411,4.411,0,0,0-4.411-4.411Z" fill="#4a4e67"/>
                            </g>
                          </g>
                        </g>
                      </g>
                    </g>
                  </g>
                </g>
              </g>
            </g>
            <g id="Grupo_87393" data-name="Grupo 87393">
              <g id="Grupo_87392" data-name="Grupo 87392">
                <path id="Trazado_147090" data-name="Trazado 147090" d="M114.288,106.4H37.712a3.969,3.969,0,0,1-3.969-3.969V41.454a3.969,3.969,0,0,1,3.969-3.969h76.576a3.969,3.969,0,0,1,3.969,3.969v60.974A3.969,3.969,0,0,1,114.288,106.4Z" fill="#aed180"/>
                <path id="Trazado_147091" data-name="Trazado 147091" d="M102.614,106.4h11.675a3.969,3.969,0,0,0,3.969-3.969V41.454a3.969,3.969,0,0,0-3.969-3.969H102.614Z" fill="#8dae5c"/>
              </g>
            </g>
          </g>
        </g>
        <g id="Grupo_87396" data-name="Grupo 87396">
          <path id="Trazado_147092" data-name="Trazado 147092" d="M120.484,120.258a2.226,2.226,0,0,0-2.227-2.227H33.743a2.227,2.227,0,0,0,0,4.453h84.515A2.226,2.226,0,0,0,120.484,120.258Z" fill="#0f2771"/>
          <path id="Trazado_147093" data-name="Trazado 147093" d="M33.743,128.725a2.227,2.227,0,1,0,0,4.453H76a2.227,2.227,0,1,0,0-4.453Z" fill="#0f2771"/>
          <path id="Trazado_147094" data-name="Trazado 147094" d="M56.747,20.975H95.253a6.645,6.645,0,0,0,6.637-6.637v-7.7A6.644,6.644,0,0,0,95.253,0H56.747A6.645,6.645,0,0,0,50.11,6.638v7.7a6.645,6.645,0,0,0,6.638,6.637ZM54.563,6.638a2.187,2.187,0,0,1,2.184-2.184H95.253a2.187,2.187,0,0,1,2.184,2.184v7.7a2.187,2.187,0,0,1-2.184,2.184H56.747a2.187,2.187,0,0,1-2.184-2.184v-7.7Z" fill="#0f2771"/>
          <path id="Trazado_147095" data-name="Trazado 147095" d="M123.367,8.261H110.024a2.227,2.227,0,0,0,0,4.453h13.343a5.2,5.2,0,0,1,5.193,5.192V142.354a5.2,5.2,0,0,1-5.193,5.193H28.633a5.2,5.2,0,0,1-5.193-5.193V17.906a5.2,5.2,0,0,1,5.193-5.192h13a2.227,2.227,0,0,0,0-4.453h-13a9.656,9.656,0,0,0-9.646,9.645V142.354A9.657,9.657,0,0,0,28.633,152h94.734a9.657,9.657,0,0,0,9.646-9.646V17.906a9.657,9.657,0,0,0-9.646-9.645Z" fill="#0f2771"/>
          <path id="Trazado_147096" data-name="Trazado 147096" d="M120.484,41.454a6.2,6.2,0,0,0-6.2-6.2H37.712a6.2,6.2,0,0,0-6.2,6.2v60.974a6.2,6.2,0,0,0,6.2,6.2h76.576a6.2,6.2,0,0,0,6.2-6.2ZM48.419,104.17H37.712a1.745,1.745,0,0,1-1.743-1.743V91.4h12.45Zm0-17.228H35.969V74.167h12.45Zm0-17.228H35.969V56.939h12.45Zm0-17.228H35.969V41.454a1.745,1.745,0,0,1,1.743-1.743H48.419Zm16.9,51.684H52.872V91.4h12.45Zm0-17.228H52.872V74.167h12.45Zm0-17.228H52.872V56.939h12.45Zm0-17.228H52.872V39.711h12.45Zm16.9,51.684H69.775V91.4h12.45Zm0-17.228H69.775V74.167h12.45Zm0-17.228H69.775V56.939h12.45Zm0-17.228H69.775V39.711h12.45Zm16.9,51.684H86.678V91.4h12.45Zm0-17.228H86.678V74.167h12.45Zm0-17.228H86.678V56.939h12.45Zm0-17.228H86.678V39.711h12.45Zm16.9,49.942a1.745,1.745,0,0,1-1.743,1.743H103.581V91.4h12.45v11.032Zm0-15.486h-12.45V74.167h12.45Zm0-17.228h-12.45V56.939h12.45Zm0-17.228h-12.45V39.711h10.707a1.745,1.745,0,0,1,1.743,1.743V52.486Z" fill="#0f2771"/>
        </g>
      </g>
    </g>
  </g>
</svg>
