<svg xmlns="http://www.w3.org/2000/svg" xmlns:xlink="http://www.w3.org/1999/xlink" width="152" height="215" viewBox="0 0 152 215">
  <defs>
    <clipPath id="clip-path">
      <rect id="Rect치ngulo_32796" data-name="Rect치ngulo 32796" width="152" height="152" transform="translate(11650 -8724)" fill="#fff" stroke="#707070" stroke-width="1"/>
    </clipPath>
  </defs>
  <g id="Grupo_87494" data-name="Grupo 87494" transform="translate(-11281 9332)">
    <rect id="Rect치ngulo_32797" data-name="Rect치ngulo 32797" width="98" height="215" transform="translate(11308 -9332)" fill="#8ad24a"/>
    <g id="Enmascarar_grupo_91" data-name="Enmascarar grupo 91" transform="translate(-369 -573)" clip-path="url(#clip-path)">
      <g id="guantes" transform="translate(11649.703 -8724)">
        <g id="Grupo_87398" data-name="Grupo 87398" transform="translate(0.297)">
          <path id="Trazado_147097" data-name="Trazado 147097" d="M121.392,130.948v12.388a5.067,5.067,0,0,1-5.067,5.067H63.885a2.533,2.533,0,0,1-2.533-2.533V128.415a2.533,2.533,0,0,1,2.533-2.533h52.44A5.066,5.066,0,0,1,121.392,130.948Z" fill="#2e7d32"/>
          <path id="Trazado_147098" data-name="Trazado 147098" d="M113.792,130.948v12.388a5.082,5.082,0,0,1-5.067,5.067H63.885a2.533,2.533,0,0,1-2.533-2.533V128.415a2.533,2.533,0,0,1,2.533-2.533h44.84A5.082,5.082,0,0,1,113.792,130.948Z" fill="#4caf50"/>
          <path id="Trazado_147099" data-name="Trazado 147099" d="M116.4,125.881V111.72l27.444-27.441A10.013,10.013,0,1,0,129.681,70.12l-9.011,9.014a2.5,2.5,0,0,1-4.271-1.773V20.814a7.514,7.514,0,0,0-8.053-7.486,7.8,7.8,0,0,0-6.967,7.909V11.1a7.506,7.506,0,1,0-15.01,0v9.71a7.506,7.506,0,1,0-15.01,0v17.51c0-2.075-.851,7.967-2.2,6.617A7.489,7.489,0,0,0,63.3,42.757a7.8,7.8,0,0,0-6.946,7.909V87.342a40.059,40.059,0,0,0,1.773,11.772l8.233,26.767H116.4Z" fill="#c9ff98"/>
          <path id="Trazado_147100" data-name="Trazado 147100" d="M83.883,125.889l-17.518-.015L58.121,99.125A39.555,39.555,0,0,1,56.366,87.35V80.907A27.409,27.409,0,0,1,72.11,85.721C85.907,95.218,83.812,111.2,83.883,125.889Z" fill="#802d40"/>
          <path id="Trazado_147101" data-name="Trazado 147101" d="M99.225,131.379l-5.472,1.976-43.827,15.96a2.533,2.533,0,0,1-3.243-1.52L40.73,131.4a2.5,2.5,0,0,1,.735-2.787,2.1,2.1,0,0,1,.76-.456l49.3-17.936a5.051,5.051,0,0,1,6.485,3.015l4.231,11.628A5.09,5.09,0,0,1,99.225,131.379Z" fill="#2e7d32"/>
          <path id="Trazado_147102" data-name="Trazado 147102" d="M93.753,133.355l-43.827,15.96a2.533,2.533,0,0,1-3.243-1.52L40.73,131.4a2.5,2.5,0,0,1,.735-2.787l43.548-15.859a5.089,5.089,0,0,1,6.511,3.015l4.231,11.653A4.969,4.969,0,0,1,93.753,133.355Z" fill="#4caf50"/>
          <path id="Trazado_147103" data-name="Trazado 147103" d="M91.574,110.2,86.73,96.9l16.4-35.175a10.012,10.012,0,1,0-18.146-8.462L79.591,64.805a2.5,2.5,0,0,1-4.618-.2L55.636,11.463A7.514,7.514,0,0,0,45.5,7.184a7.8,7.8,0,0,0-3.83,9.809L54.367,51.857,41.533,16.6l-3.321-9.12a7.5,7.5,0,1,0-14.1,5.133l3.319,9.12L40.261,57,27.427,21.731a7.5,7.5,0,1,0-14.1,5.123L19.313,43.32l9.411,25.858L19.313,43.32A7.516,7.516,0,0,0,9.18,39.042a7.793,7.793,0,0,0-3.833,9.809L21.973,94.514a40.048,40.048,0,0,0,5.685,10.455l16.895,22.339Z" fill="#c9ff98"/>
          <path id="Trazado_147104" data-name="Trazado 147104" d="M61.022,121.321,44.555,127.3l-16.9-22.319a39.546,39.546,0,0,1-5.675-10.463l-2.2-6.055A27.411,27.411,0,0,1,36.221,87.6C52.434,91.808,55.93,107.54,61.022,121.321Z" fill="#ffeb3a"/>
          <g id="Grupo_87397" data-name="Grupo 87397">
            <path id="Trazado_147105" data-name="Trazado 147105" d="M75.386,65.309l-.861,1.875a2.506,2.506,0,0,1-4.611-.2L50.559,13.832A7.43,7.43,0,0,0,46.683,9.6a7.25,7.25,0,0,0-3.521-.684,6.537,6.537,0,0,1,2.356-1.723A7.466,7.466,0,0,1,55.626,11.45L74.981,64.6A2.158,2.158,0,0,0,75.386,65.309Z" fill="#a6ef65"/>
            <path id="Trazado_147106" data-name="Trazado 147106" d="M103.126,61.712,86.735,96.9l4.839,13.3-5.244,1.9L81.669,99.256,98.059,64.093a10.062,10.062,0,0,0-4.839-13.325,9.847,9.847,0,0,0-5.725-.811,10,10,0,0,1,15.63,11.755Z" fill="#a6ef65"/>
            <path id="Trazado_147107" data-name="Trazado 147107" d="M116.426,77.495l-1.647,1.647a2.511,2.511,0,0,1-4.281-1.774V20.824a7.514,7.514,0,0,0-4.509-6.891,6.237,6.237,0,0,1,2.356-.608,7.514,7.514,0,0,1,8.056,7.5V77.368A.191.191,0,0,0,116.426,77.495Z" fill="#a6ef65"/>
            <path id="Trazado_147108" data-name="Trazado 147108" d="M146.776,77.191a10.079,10.079,0,0,1-2.939,7.093L116.4,111.72v14.161h-5.9V111.72l27.436-27.436a10.082,10.082,0,0,0,2.939-7.093,9.98,9.98,0,0,0-2.939-7.068,10.155,10.155,0,0,0-4.129-2.508,10.042,10.042,0,0,1,12.971,9.576Z" fill="#a6ef65"/>
          </g>
        </g>
        <g id="Grupo_87399" data-name="Grupo 87399">
          <path id="Trazado_147109" data-name="Trazado 147109" d="M19.889,95.38A42.564,42.564,0,0,0,25.928,106.5l14.883,19.676a5.067,5.067,0,0,0-2.181,6.08l5.963,16.393a5.067,5.067,0,0,0,6.5,3.04l7.653-2.787a5.067,5.067,0,0,0,4.679,3.1h53.327a7.6,7.6,0,0,0,7.6-7.6V131.683a7.56,7.56,0,0,0-5.193-7.152V112.688l27.238-26.5a12.7,12.7,0,0,0-17.961-17.956l-9.15,9.161V19.988a10.133,10.133,0,0,0-10.893-10.1,9.6,9.6,0,0,0-4.337,1.426V10.158a10.159,10.159,0,0,0-20.317,0v1.1a10.038,10.038,0,0,0-5.067-1.406A10.159,10.159,0,0,0,68.508,19.988V38.613L58.314,10.594A10.05,10.05,0,0,0,44.771,4.871,9.5,9.5,0,0,0,41.259,7.63l-.372-1.013a10.038,10.038,0,1,0-18.868,6.858l.362.965a9.907,9.907,0,0,0-5.138.418A10.05,10.05,0,0,0,11.235,27.73l3.04,8.307a9.976,9.976,0,0,0-5.827.692A10.3,10.3,0,0,0,3.27,49.717Zm4.773-1.733L23.369,90.1a24.942,24.942,0,0,1,12.517-.051c12.966,3.364,16.991,14.881,21.252,27.076.314.9.636,1.773.953,2.678l-12.332,4.489L29.981,103.444A37.526,37.526,0,0,1,24.661,93.647Zm24.705,53.286-5.958-16.4,2.247-.818L92.684,112.6a2.506,2.506,0,0,1,.864-.152,2.533,2.533,0,0,1,2.384,1.667l4.223,11.633a2.533,2.533,0,0,1-1.52,3.248Zm69.92-2.533a2.533,2.533,0,0,1-2.533,2.533H64.166l20.951-7.625h24.031v2.533a2.533,2.533,0,1,0,5.066,0v-2.533a5.085,5.085,0,0,0-5.092-5.067H99.038l1.34-.486a7.543,7.543,0,0,0,4.519-4.6h11.851a2.533,2.533,0,0,1,2.533,2.533ZM108.768,14.947a5.067,5.067,0,0,1,5.447,5.042V77.394a5.067,5.067,0,0,0,8.659,3.587l9.138-9.161a7.633,7.633,0,0,1,10.812,10.767L114.848,109.8v.015a2.563,2.563,0,0,0-.575.894,2.5,2.5,0,0,0-.177.889v12.482h-9.158a.106.106,0,0,0-.018-.071l-4.236-11.636a7.6,7.6,0,0,0-7.136-4.963L89.766,97.027l15.96-34.235a12.347,12.347,0,0,0-1.675-13.173v-29.2A5.376,5.376,0,0,1,108.768,14.947ZM88.806,10.159a5.092,5.092,0,0,1,10.184,0v35.72a12.441,12.441,0,0,0-10.184.431V10.159ZM73.58,19.988a5.079,5.079,0,0,1,8.672-3.58,5.024,5.024,0,0,1,1.487,3.58V50.92a11.733,11.733,0,0,0-.76,1.267l-5.32,11.557L73.58,52.537V19.988ZM10.518,41.352a4.986,4.986,0,0,1,6.711,2.83L26.64,70.045a2.549,2.549,0,0,0,.481.785,2.394,2.394,0,0,0,.185.175,2.526,2.526,0,0,0,.765.5,2.368,2.368,0,0,0,.676.17c.066,0,.127.028.2.03h.079A2.533,2.533,0,0,0,31.4,68.3L21.991,42.454,16,26a4.973,4.973,0,0,1,9.346-3.4L38.179,57.856a2.494,2.494,0,0,0,.479.785c.061.068.129.122.2.185a2.549,2.549,0,0,0,.507.367,2.122,2.122,0,0,0,.253.127,2.461,2.461,0,0,0,.631.16c.081,0,.155.033.236.035h.071a2.46,2.46,0,0,0,.864-.155,2.533,2.533,0,0,0,1.52-3.245L26.785,11.742A4.978,4.978,0,0,1,29.756,5.37a4.912,4.912,0,0,1,3.8.17,5,5,0,0,1,2.574,2.8L52.275,52.724a2.533,2.533,0,0,0,4.91-.737,2.479,2.479,0,0,0-.152-1L54.246,43.35l-9.89-27.223A5.29,5.29,0,0,1,46.839,9.5a4.985,4.985,0,0,1,6.716,2.832L72.9,65.469a5.016,5.016,0,0,0,4.509,3.309,4.912,4.912,0,0,0,4.783-2.911L87.575,54.32a7.479,7.479,0,0,1,13.561,6.31L84.73,95.818a2.03,2.03,0,0,0-.071.3,2.457,2.457,0,0,0-.16.659,2.537,2.537,0,0,0,.152.993l3.972,10.914-25.782,9.373c-.309-.871-.626-1.738-.932-2.614C57.6,103.124,52.731,89.171,37.146,85.13a30.1,30.1,0,0,0-15.532.167L8.03,47.984A5.292,5.292,0,0,1,10.518,41.352Z" fill="#0f2771"/>
          <path id="Trazado_147110" data-name="Trazado 147110" d="M93.822,122.793a5.049,5.049,0,0,0-6.452-3.01l-4.517,1.644c-.041.015-.081.028-.122.046L52.108,132.62a2.533,2.533,0,1,0,1.733,4.76l30.77-11.22a2.105,2.105,0,0,0,.213-.079l4.243-1.548.856,2.351a2.534,2.534,0,0,0,4.76-1.738Z" fill="#0f2771"/>
        </g>
      </g>
    </g>
  </g>
</svg>
