<svg xmlns="http://www.w3.org/2000/svg" xmlns:xlink="http://www.w3.org/1999/xlink" width="152" height="215" viewBox="0 0 152 215">
  <defs>
    <clipPath id="clip-path">
      <rect id="Rectángulo_32788" data-name="Rectángulo 32788" width="152" height="152" transform="translate(12556 -8724)" fill="#fff" stroke="#707070" stroke-width="1"/>
    </clipPath>
  </defs>
  <g id="Grupo_87497" data-name="Grupo 87497" transform="translate(-12187 9332)">
    <rect id="Rectángulo_32787" data-name="Rectángulo 32787" width="98" height="215" transform="translate(12214 -9332)" fill="#8ad24a"/>
    <g id="Enmascarar_grupo_94" data-name="Enmascarar grupo 94" transform="translate(-369 -573)" clip-path="url(#clip-path)">
      <g id="Filled_outline" data-name="Filled outline" transform="translate(12550.934 -8729.066)">
        <path id="Trazado_147132" data-name="Trazado 147132" d="M129.635,38.435a10.133,10.133,0,0,0-7.166-2.968h-37.6a6.333,6.333,0,1,0,0,12.667,6.333,6.333,0,1,0,0,12.667,6.333,6.333,0,1,0,0,12.667h19v2.962A26.09,26.09,0,0,0,116.533,98.8H136.8V45.6Z" fill="#3ba6d4"/>
        <path id="Trazado_147133" data-name="Trazado 147133" d="M7.6,20.267H124.133v15.2H7.6Z" fill="#e0e0de"/>
        <path id="Trazado_147134" data-name="Trazado 147134" d="M17.733,20.267h15.2v15.2h-15.2Z" fill="#ffb531"/>
        <path id="Trazado_147135" data-name="Trazado 147135" d="M43.067,20.267h15.2v15.2h-15.2Z" fill="#d46c6c"/>
        <path id="Trazado_147136" data-name="Trazado 147136" d="M68.4,20.267H83.6v15.2H68.4Z" fill="#60d1e0"/>
        <path id="Trazado_147137" data-name="Trazado 147137" d="M116.533,98.8V114h38V28.782a7.6,7.6,0,0,0-2.6-5.718L136.416,9.48a7.6,7.6,0,0,0-5-1.88H105.133a6.333,6.333,0,1,0,0,12.667h19L136.8,30.4V58.267L111.467,32.933a7.165,7.165,0,1,0-10.133,10.133L119.067,60.8A43.5,43.5,0,0,0,116.1,97.657l.428,1.143V114" fill="#4db7e5"/>
        <path id="Trazado_147138" data-name="Trazado 147138" d="M154.533,114v40.533h-38L121.6,114Z" fill="#fec9a3"/>
        <path id="Trazado_147139" data-name="Trazado 147139" d="M154.533,114v7.6H120.65l.95-7.6Z" fill="#fec093"/>
        <path id="Trazado_147140" data-name="Trazado 147140" d="M124.133,101.333h30.4V106.4h-30.4Z" fill="#3ba6d4"/>
        <rect id="Rectángulo_32813" data-name="Rectángulo 32813" width="17.733" height="5.067" rx="2.533" transform="translate(83.6 45.6)" fill="#2d97c4"/>
        <rect id="Rectángulo_32814" data-name="Rectángulo 32814" width="22.8" height="5.067" rx="2.533" transform="translate(83.6 58.267)" fill="#2d97c4"/>
        <path id="Trazado_147141" data-name="Trazado 147141" d="M68.4,154.533H17.733a5.067,5.067,0,0,1-5.067-5.067V83.6h60.8v65.867A5.067,5.067,0,0,1,68.4,154.533Z" fill="#e0e0de"/>
        <path id="Trazado_147142" data-name="Trazado 147142" d="M7.6,65.867H78.533V83.6H7.6Z" fill="#c9ff98"/>
        <g id="Grupo_87402" data-name="Grupo 87402">
          <path id="Trazado_147143" data-name="Trazado 147143" d="M15.2,73.467h5.067V83.6H15.2Z" fill="#2d7dbf"/>
          <path id="Trazado_147144" data-name="Trazado 147144" d="M25.333,73.467H30.4V83.6H25.333Z" fill="#2d7dbf"/>
          <path id="Trazado_147145" data-name="Trazado 147145" d="M35.467,73.467h5.067V83.6H35.467Z" fill="#2d7dbf"/>
          <path id="Trazado_147146" data-name="Trazado 147146" d="M45.6,73.467h5.067V83.6H45.6Z" fill="#2d7dbf"/>
          <path id="Trazado_147147" data-name="Trazado 147147" d="M55.733,73.467H60.8V83.6H55.733Z" fill="#2d7dbf"/>
          <path id="Trazado_147148" data-name="Trazado 147148" d="M65.867,73.467h5.067V83.6H65.867Z" fill="#2d7dbf"/>
        </g>
        <path id="Trazado_147149" data-name="Trazado 147149" d="M12.667,108.933h60.8v40.533a5.067,5.067,0,0,1-5.067,5.067H17.733a5.067,5.067,0,0,1-5.067-5.067Z" fill="#3ca8f4"/>
        <path id="Trazado_147150" data-name="Trazado 147150" d="M40.533,98.8H73.467v30.4H40.533Z" fill="#a6ef65"/>
        <path id="Trazado_147151" data-name="Trazado 147151" d="M48.133,116.533H73.467V121.6H48.133Z" fill="#8fd0d9"/>
        <path id="Trazado_147152" data-name="Trazado 147152" d="M48.133,106.4H53.2v5.067H48.133Z" fill="#8fd0d9"/>
        <path id="Trazado_147153" data-name="Trazado 147153" d="M58.267,106.4h15.2v5.067h-15.2Z" fill="#8fd0d9"/>
        <path id="Trazado_147154" data-name="Trazado 147154" d="M20.267,108.933h5.067V121.6H20.267Z" fill="#ffc361"/>
        <path id="Trazado_147155" data-name="Trazado 147155" d="M20.267,91.2h5.067v5.067H20.267Z" fill="#f2f2f2"/>
        <path id="Trazado_147156" data-name="Trazado 147156" d="M20.267,101.333h5.067v7.6H20.267Z" fill="#f2f2f2"/>
        <path id="Trazado_147157" data-name="Trazado 147157" d="M12.667,83.6h60.8v7.6h-60.8Z" fill="#d9d9d7"/>
        <path id="Trazado_147158" data-name="Trazado 147158" d="M153.6,21.156,138.085,7.574a10.138,10.138,0,0,0-6.674-2.507H105.133a8.874,8.874,0,0,0-8.015,12.667H7.6a2.533,2.533,0,0,0-2.533,2.533v15.2A2.533,2.533,0,0,0,7.6,38H96.706a9.668,9.668,0,0,0,2.836,6.858l16.395,16.4a45.858,45.858,0,0,0-4.278,29.988A23.658,23.658,0,0,1,106.4,76.427V73.467a2.533,2.533,0,0,0-2.533-2.533h-19a3.8,3.8,0,1,1,0-7.6H106.4V58.267H84.867a3.8,3.8,0,1,1,0-7.6h11.4V45.6h-11.4a3.8,3.8,0,0,1-3.8-3.8H76a8.808,8.808,0,0,0,2.6,6.27c.023.023.047.044.07.067a8.855,8.855,0,0,0-.07,12.6c.023.023.047.044.07.067a8.863,8.863,0,0,0,6.2,15.2h16.467v.427A28.781,28.781,0,0,0,114,100.19V114a2.533,2.533,0,0,0,2.533,2.533h2.2l-4.711,37.686a2.533,2.533,0,0,0,2.514,2.847h38a2.533,2.533,0,0,0,2.533-2.533v-22.8H152V152H119.4l4.433-35.467H152v10.133h5.067V28.782a10.132,10.132,0,0,0-3.46-7.624ZM65.867,22.8V32.933H60.8V22.8Zm-25.333,0V32.933H35.467V22.8Zm-30.4,0H15.2V32.933H10.133ZM20.267,32.933V22.8H30.4V32.933Zm25.333,0V22.8H55.733V32.933Zm25.333,0V22.8H81.067V32.933Zm15.2,0V22.8H121.6V32.933h-6.551l-1.791-1.791a9.693,9.693,0,0,0-15.126,1.791Zm40.533-7.4,7.6,6.08v7.867l-2.841-2.842a12.613,12.613,0,0,0-4.759-3Zm-5.4,36.519a2.533,2.533,0,0,0-.408-3.048L103.125,41.275a4.69,4.69,0,0,1,0-6.551,4.637,4.637,0,0,1,6.551,0l25.333,25.333,3.583-3.583L120.116,38h2.355a7.651,7.651,0,0,1,5.372,2.225l7.166,7.166a2.551,2.551,0,0,0,4.325-1.791V30.4a2.533,2.533,0,0,0-.95-1.978L125.717,18.288a2.521,2.521,0,0,0-1.583-.555h-19a3.8,3.8,0,0,1,0-7.6H131.41a5.069,5.069,0,0,1,3.338,1.254l15.52,13.582A5.067,5.067,0,0,1,152,28.782v72.552H124.133V106.4H152v5.067H119.067V98.8a4.219,4.219,0,0,0-.59-2.032,40.85,40.85,0,0,1,2.79-34.711Z" fill="#0f2771"/>
        <path id="Trazado_147159" data-name="Trazado 147159" d="M76,81.067H70.933v-7.6H65.867v7.6H60.8v-7.6H55.733v7.6H50.667v-7.6H45.6v7.6H40.533v-7.6H35.467v7.6H30.4v-7.6H25.333v7.6H20.267v-7.6H15.2v7.6H10.133V68.4h60.8V63.333H7.6a2.533,2.533,0,0,0-2.533,2.533V83.6A2.533,2.533,0,0,0,7.6,86.133H70.933V96.267h-30.4A2.533,2.533,0,0,0,38,98.8v7.6H25.333v-5.067H20.267V106.4H15.2V91.2H10.133v58.267a7.609,7.609,0,0,0,7.6,7.6H68.4a7.609,7.609,0,0,0,7.6-7.6V86.133h2.533A2.533,2.533,0,0,0,81.067,83.6V78.533H76ZM43.067,101.333H70.933V106.4H58.267v5.067H70.933v5.067h-22.8V121.6h22.8v5.067H43.067ZM68.4,152H17.733a2.536,2.536,0,0,1-2.533-2.533v-38h5.067V121.6h5.067V111.467H38V129.2a2.533,2.533,0,0,0,2.533,2.533h30.4v17.733A2.536,2.536,0,0,1,68.4,152Z" fill="#0f2771"/>
        <path id="Trazado_147160" data-name="Trazado 147160" d="M48.133,106.4H53.2v5.067H48.133Z" fill="#0f2771"/>
        <path id="Trazado_147161" data-name="Trazado 147161" d="M20.267,91.2h5.067v5.067H20.267Z" fill="#0f2771"/>
      </g>
    </g>
  </g>
</svg>
