<svg xmlns="http://www.w3.org/2000/svg" width="258.07" height="242" viewBox="0 0 258.07 242">
  <g id="Grupo_87250" data-name="Grupo 87250" transform="translate(-612.548 -126.812)">
    <g id="Grupo_87191" data-name="Grupo 87191" transform="translate(723.372 274.576)">
      <g id="Grupo_87190" data-name="Grupo 87190" style="isolation: isolate">
        <g id="Grupo_87185" data-name="Grupo 87185" transform="translate(7.518 3.962)">
          <path id="Trazado_146636" data-name="Trazado 146636" d="M664.621,203.47l17.029,9.894,17.138-9.894-17.027-9.9Z" transform="translate(-664.621 -193.574)" fill="#b6d119"/>
        </g>
        <g id="Grupo_87186" data-name="Grupo 87186" transform="translate(27.954 15.837)">
          <path id="Trazado_146637" data-name="Trazado 146637" d="M673.613,208.7l17.029,9.9,17.14-9.9-17.029-9.9Z" transform="translate(-673.613 -198.8)" fill="#b6d119"/>
        </g>
        <g id="Grupo_87187" data-name="Grupo 87187" transform="translate(49.752 28.505)">
          <path id="Trazado_146638" data-name="Trazado 146638" d="M683.205,214.268l17.029,9.9,17.14-9.9-17.029-9.894Z" transform="translate(-683.205 -204.374)" fill="#b6d119"/>
        </g>
        <g id="Grupo_87188" data-name="Grupo 87188" transform="translate(70.175 40.372)">
          <path id="Trazado_146639" data-name="Trazado 146639" d="M692.191,219.492l17.029,9.9,17.14-9.9-17.027-9.9Z" transform="translate(-692.191 -209.596)" fill="#b6d119"/>
        </g>
        <g id="Grupo_87189" data-name="Grupo 87189">
          <path id="Trazado_146640" data-name="Trazado 146640" d="M774.544,243.288l-24.681,14.249-88.55-51.457L686,191.831Zm-46.45-3.161,17.14-9.9-17.029-9.893-17.14,9.893,17.029,9.9Zm-21.8-12.665,17.14-9.9-17.029-9.895-17.14,9.895,17.029,9.9Zm-20.435-11.879L703,205.689l-17.026-9.9-17.14,9.9,17.029,9.893ZM748.516,252l17.14-9.9L748.629,232.2,731.487,242.1l17.029,9.9Z" transform="translate(-661.313 -191.831)" fill="#f3f4f4"/>
        </g>
      </g>
    </g>
    <g id="Grupo_87198" data-name="Grupo 87198" transform="translate(754.991 260.545)">
      <g id="Grupo_87197" data-name="Grupo 87197" style="isolation: isolate">
        <g id="Grupo_87192" data-name="Grupo 87192" transform="translate(7.469 3.951)">
          <path id="Trazado_146641" data-name="Trazado 146641" d="M678.513,198.508l17.7,8.635,16.379-11.112-17.7-8.635Z" transform="translate(-678.513 -187.395)" fill="#d51f1c"/>
        </g>
        <g id="Grupo_87193" data-name="Grupo 87193" transform="translate(28.713 14.313)">
          <path id="Trazado_146642" data-name="Trazado 146642" d="M687.86,203.07l17.7,8.633,16.374-11.114-17.7-8.633Z" transform="translate(-687.86 -191.955)" fill="#d51f1c"/>
        </g>
        <g id="Grupo_87194" data-name="Grupo 87194" transform="translate(51.372 25.366)">
          <path id="Trazado_146643" data-name="Trazado 146643" d="M697.831,207.931l17.7,8.635,16.374-11.114-17.7-8.633Z" transform="translate(-697.831 -196.818)" fill="#d51f1c"/>
        </g>
        <g id="Grupo_87195" data-name="Grupo 87195" transform="translate(72.601 35.721)">
          <path id="Trazado_146644" data-name="Trazado 146644" d="M707.172,212.489l17.7,8.633,16.376-11.115-17.7-8.633Z" transform="translate(-707.172 -201.375)" fill="#d51f1c"/>
        </g>
        <g id="Grupo_87196" data-name="Grupo 87196">
          <path id="Trazado_146645" data-name="Trazado 146645" d="M790.854,230.555l-23.581,16-92.048-44.9,23.578-16Zm-46.554.216,16.374-11.115-17.7-8.634L726.6,222.135l17.7,8.636Zm-22.66-11.052L738.014,208.6l-17.7-8.634-16.376,11.115,17.7,8.634ZM700.4,209.356l16.379-11.113-17.7-8.636L682.7,200.72l17.7,8.636Zm65.135,31.771,16.377-11.115-17.7-8.634-16.381,11.115,17.7,8.634Z" transform="translate(-675.226 -185.657)" fill="#f3f4f4"/>
        </g>
      </g>
    </g>
    <g id="Grupo_87199" data-name="Grupo 87199" transform="translate(654.842 296.325)" opacity="0.1">
      <path id="Trazado_146646" data-name="Trazado 146646" d="M737.834,212.016c24.515,14.156,24.642,37.1.288,51.254s-63.976,14.156-88.491,0-24.647-37.1-.291-51.254S713.315,197.863,737.834,212.016Z" transform="translate(-631.158 -201.401)"/>
    </g>
    <path id="Trazado_146647" data-name="Trazado 146647" d="M730.6,275.056,741.6,170.223l-106.3.491,10.993,107.324h.273c1.016,5.357,5.063,10.565,12.174,14.67,16.524,9.538,43.227,9.536,59.629,0,6.609-3.834,10.495-8.638,11.761-13.622h.043l.029-.3A14.483,14.483,0,0,0,730.6,275.056Z" transform="translate(28.954 55.246)" fill="#d2feff"/>
    <g id="Grupo_87200" data-name="Grupo 87200" transform="translate(681.317 306.325)">
      <path id="Trazado_146648" data-name="Trazado 146648" d="M704.346,211.925c14.142,8.168,14.22,21.4.164,29.571s-36.9,8.163-51.045,0-14.213-21.408-.17-29.571S690.2,203.76,704.346,211.925Z" transform="translate(-642.808 -205.801)" fill="#298bed"/>
    </g>
    <path id="Trazado_146649" data-name="Trazado 146649" d="M719.88,268.557l-71.8-.895-9.408-91.874,91-.417Z" transform="translate(33.241 61.798)" fill="#298bed"/>
    <g id="Grupo_87201" data-name="Grupo 87201" transform="translate(671.908 210.434)">
      <path id="Trazado_146650" data-name="Trazado 146650" d="M716.246,171.324c17.829,10.3,17.922,26.985.207,37.282s-46.523,10.295-64.352,0-17.917-26.992-.213-37.278C669.607,161.034,698.415,161.034,716.246,171.324Z" transform="translate(-638.668 -163.607)" fill="#298bed"/>
    </g>
    <g id="Grupo_87202" data-name="Grupo 87202" transform="translate(685.994 259.792)">
      <path id="Trazado_146651" data-name="Trazado 146651" d="M646.485,194.567c-.618,5.547,2.232,10.413,6.354,10.874s7.979-3.663,8.588-9.206c.629-5.545-2.218-10.409-6.347-10.874S647.1,189.019,646.485,194.567Z" transform="translate(-642.913 -185.326)" fill="#fff" opacity="0.5"/>
      <path id="Trazado_146652" data-name="Trazado 146652" d="M644.914,200.247c.316,2.6,2.2,4.5,4.211,4.261s3.382-2.552,3.057-5.154-2.2-4.511-4.216-4.261S644.589,197.642,644.914,200.247Z" transform="translate(-644.866 -172.925)" fill="#fff" opacity="0.5"/>
    </g>
    <path id="Trazado_146653" data-name="Trazado 146653" d="M640.5,276.632c1.016,5.357,5.063,10.565,12.174,14.67,16.524,9.538,43.227,9.536,59.629,0,6.609-3.834,10.495-8.638,11.761-13.622h.043l.029-.3a14.483,14.483,0,0,0,.393-3.725l10.8-102.322-7.429,3.5s-3.793,78.851-42.075,98.875c-24.317,12.727-38.641,3.157-45.763,1.32l.166,1.609Z" transform="translate(35.017 56.652)" opacity="0.1"/>
    <g id="Grupo_87203" data-name="Grupo 87203" transform="translate(663.018 188.134)">
      <path id="Trazado_146654" data-name="Trazado 146654" d="M727.485,163.022c21.306,12.3,21.42,32.253.25,44.557s-55.618,12.3-76.924,0-21.424-32.251-.25-44.557S706.177,150.718,727.485,163.022Z" transform="translate(-634.756 -153.794)" fill="#89d2f5"/>
    </g>
    <g id="Grupo_87204" data-name="Grupo 87204" transform="translate(672.07 193.084)">
      <path id="Trazado_146655" data-name="Trazado 146655" d="M716.905,163.75c17.963,10.37,18.056,27.187.211,37.557s-46.88,10.372-64.842,0-18.063-27.185-.211-37.557S698.945,153.38,716.905,163.75Z" transform="translate(-638.739 -155.973)" fill="#298bed"/>
    </g>
    <path id="Trazado_146656" data-name="Trazado 146656" d="M651.117,190.471c17.963,10.372,46.993,10.374,64.842,0a32.5,32.5,0,0,0,8.824-7.227c-2.148-4.016-5.966-7.8-11.47-10.979-17.958-10.37-47-10.37-64.84,0a32.538,32.538,0,0,0-8.824,7.231C641.8,183.512,645.612,187.294,651.117,190.471Z" transform="translate(34.489 47.947)" fill="#0467d8"/>
    <path id="Trazado_146657" data-name="Trazado 146657" d="M671.456,181.623s7.418,14.808,4.061,23.712-7.2,7.547-7.2,15.431,1.5,8.218,4.35,17.14-1.7,15.533-8.136,19.8S648.1,273.221,648.1,273.221s20.124,11.065,42.564,2.4c0,0-13.729-10.059-12.547-17.908s4.593-11.052,1.941-17.026-6.416-10.379.58-19.917,12.965-20.249-2.52-39.325Z" transform="translate(45.25 69.522)" fill="#b6d119"/>
    <path id="Trazado_146658" data-name="Trazado 146658" d="M684.394,178.317c0,3.629-6.588,6.572-14.72,6.572s-20.59-3.173-20.59-6.8,2.663-8.479,10.795-8.479S684.394,174.685,684.394,178.317Z" transform="translate(46.496 54.464)" fill="#b6d119"/>
    <path id="Trazado_146659" data-name="Trazado 146659" d="M649.127,174.489l19.458,13.049,7.579.068s7.313-10.256,8.174-13.42S649.127,174.489,649.127,174.489Z" transform="translate(46.551 58.594)" fill="#b6d119"/>
    <g id="Grupo_87249" data-name="Grupo 87249" transform="translate(612.548 126.811)">
      <g id="Grupo_87205" data-name="Grupo 87205" transform="translate(0 115.022)" opacity="0.1">
        <path id="Trazado_146660" data-name="Trazado 146660" d="M619.518,181.3c-9.25,5.161-9.3,13.529-.107,18.69s24.144,5.161,33.4,0,9.3-13.531.109-18.692S628.774,176.134,619.518,181.3Z" transform="translate(-612.548 -177.423)"/>
      </g>
      <path id="Trazado_146661" data-name="Trazado 146661" d="M624.1,141.5c-1.475,1.484-1.725,5.607,4.363,5.961s19.024,1.629,20.617-.234c1.291-1.514,2.259-4.729-5.338-5.782S627.753,137.843,624.1,141.5Z" transform="translate(-598.966 -110.541)" fill="#ccdcf8"/>
      <g id="Grupo_87207" data-name="Grupo 87207" transform="translate(22.125 117.035)">
        <g id="Grupo_87206" data-name="Grupo 87206">
          <path id="Trazado_146662" data-name="Trazado 146662" d="M622.82,179.406s-1.207,2.82,0,3.552,1.375,1.523,3.311,1.366,1.655.484,2.318,1.2,7.518,3.716,8.809,2.259-2.343-3.154-3.632-4-4.354-4.225-4.436-5.2S622.82,179.406,622.82,179.406Z" transform="translate(-622.284 -178.309)" fill="#111114"/>
        </g>
      </g>
      <g id="Grupo_87209" data-name="Grupo 87209" transform="translate(22.124 118.311)">
        <g id="Grupo_87208" data-name="Grupo 87208">
          <path id="Trazado_146663" data-name="Trazado 146663" d="M622.821,182.244c1.209.72,1.375,1.523,3.311,1.366s1.655.484,2.318,1.2,7.518,3.716,8.809,2.259a1.075,1.075,0,0,0-.116-1.527c-.475.082-1.139.2-2.011.357-2.011.35-4.616-1.97-5.611-2.836s-2.268-.532-4-.818-1.491-2.932-1.491-2.932l-1.282-.445C622.509,179.5,621.8,181.619,622.821,182.244Z" transform="translate(-622.284 -178.871)" fill="#0a0a0a"/>
        </g>
      </g>
      <g id="Grupo_87211" data-name="Grupo 87211" transform="translate(10.341 127.29)">
        <g id="Grupo_87210" data-name="Grupo 87210">
          <path id="Trazado_146664" data-name="Trazado 146664" d="M617.2,182.822s-.518,3.334.766,5.143,4.1,4.927,5.316,4.786,1.413-.689,1.413-.689a12.119,12.119,0,0,0-.386-5.416,17.113,17.113,0,0,1-.957-3.825Z" transform="translate(-617.098 -182.822)" fill="#111114"/>
        </g>
      </g>
      <g id="Grupo_87213" data-name="Grupo 87213" transform="translate(10.341 127.29)">
        <g id="Grupo_87212" data-name="Grupo 87212">
          <path id="Trazado_146665" data-name="Trazado 146665" d="M617.968,187.965c1.132,1.584,3.441,4.188,4.811,4.7-1.807-2.323.9-1.843-1.136-2.948-2.8-1.52-1.011-2.786-2.259-3.141s-.336-3.441-.336-3.441l-.675-.311H617.2S616.684,186.156,617.968,187.965Z" transform="translate(-617.098 -182.822)" fill="#0a0a0a"/>
        </g>
      </g>
      <g id="Grupo_87215" data-name="Grupo 87215" transform="translate(22.126 68.137)">
        <g id="Grupo_87214" data-name="Grupo 87214">
          <path id="Trazado_146666" data-name="Trazado 146666" d="M625.065,162.393s6.113-1.334,8.045-5.6a141.293,141.293,0,0,1-.641,20.313c-1.164,10.911-2.132,30.1-2.132,30.1s-3.727,3.5-7.575,0c0,0-1.077-12.668,0-19.69,0,0-.72-12.288.48-18.431S625.065,162.393,625.065,162.393Z" transform="translate(-622.284 -156.793)" fill="#471bce"/>
        </g>
      </g>
      <g id="Grupo_87217" data-name="Grupo 87217" transform="translate(25.65 67.062)">
        <g id="Grupo_87216" data-name="Grupo 87216">
          <path id="Trazado_146667" data-name="Trazado 146667" d="M628.364,207.8s.968-19.185,2.132-30.1a156.29,156.29,0,0,0,.641-21.388,12.534,12.534,0,0,1-6.877,6.02c.134,4.166.775,16.188.712,20.267-.061,3.882-.809,19.956-1.136,26.712A6.125,6.125,0,0,0,628.364,207.8Z" transform="translate(-623.835 -156.32)" fill="#632bee"/>
        </g>
      </g>
      <g id="Grupo_87219" data-name="Grupo 87219" transform="translate(9.231 71.698)">
        <g id="Grupo_87218" data-name="Grupo 87218">
          <path id="Trazado_146668" data-name="Trazado 146668" d="M619.18,158.36s-.618,7.047-.734,16.961-.846,13.647-1.089,15.167-1.084,18.11-.6,22.951c0,0,3.129,4.838,8.061,0,0,0,.836-17.006,1.682-20.876s5.552-22.669,7.45-29.419c.841-2.982,1.041-4.109,1.041-4.109S626.755,164.332,619.18,158.36Z" transform="translate(-616.61 -158.36)" fill="#471bce"/>
        </g>
      </g>
      <g id="Grupo_87221" data-name="Grupo 87221" transform="translate(12.85 70.97)">
        <g id="Grupo_87220" data-name="Grupo 87220">
          <path id="Trazado_146669" data-name="Trazado 146669" d="M622.792,213.846s.836-17.006,1.682-20.876,5.552-22.669,7.45-29.419a15.633,15.633,0,0,1,3.188-5.511s-5.85,4.059-10.568,4.045c-.211,1.461-2.207,15.345-2.679,21.406-.461,6.022-4.579,27.192-3.475,32.5C619.608,216.024,621.09,215.51,622.792,213.846Z" transform="translate(-618.202 -158.04)" fill="#632bee"/>
        </g>
      </g>
      <g id="Grupo_87223" data-name="Grupo 87223" transform="translate(9.057 29.539)">
        <g id="Grupo_87222" data-name="Grupo 87222">
          <path id="Trazado_146670" data-name="Trazado 146670" d="M626.525,142c-2.386,1.148-8.861,4.775-9.072,5.47s-2.486,2.409,1.016,10.206c0,0,4.643,8.452,2.6,17.049-1.179,4.984-2.084,5.1-1.866,7.075.416,3.791,9.586,4.523,14.786,1.964,2.157-1.061,5.472-2.938,6.563-5.443a85.59,85.59,0,0,1,.475-16.961c1.207-8.575,1.736-19.672-3.145-21.031C637.886,140.334,634.043,138.384,626.525,142Z" transform="translate(-616.533 -139.809)" fill="#61d2c9"/>
        </g>
      </g>
      <g id="Grupo_87225" data-name="Grupo 87225" transform="translate(18.382 31.518)">
        <g id="Grupo_87224" data-name="Grupo 87224">
          <path id="Trazado_146671" data-name="Trazado 146671" d="M635.334,177.217a85.587,85.587,0,0,1,.475-16.961c1-7.145,1.532-16.029-1.145-19.576-1.143,1.025-3.384,3.352-3.852,6.077-.632,3.7-4.75,5.872-6.791,6.416s-3.848,4.175-1.72,9.109c5.047,11.7,2.7,16.465-1.664,21.863,4.022-.023,4.9-.08,8.115-1.343C630.989,181.917,634.243,179.721,635.334,177.217Z" transform="translate(-620.637 -140.68)" fill="#61d2c9"/>
        </g>
      </g>
      <path id="Trazado_146672" data-name="Trazado 146672" d="M624.326,143.71s11.17,6.95,1.32,65.165c0,0,5.813-1.641,8.618-6.257,0,0-.493-25.228,0-32.646s2.573-34.1-7.781-29.914C626.482,140.058,620.81,141.851,624.326,143.71Z" transform="translate(-599.023 -110.518)" fill="#e5eeff"/>
      <path id="Trazado_146673" data-name="Trazado 146673" d="M627.937,141.249s15.82,12.334,2.577,68.5c0,0-10.518,5.216-16.208-2.7,0,0,3.6-25.267,6.347-31.551,2.191-5.013,4.413-11.295-1.773-21.933C618.881,153.567,613.622,145.44,627.937,141.249Z" transform="translate(-610.312 -108.438)" fill="#e5eeff"/>
      <path id="Trazado_146674" data-name="Trazado 146674" d="M623.835,144.376s7.59,10.513,4.6,35.539c0,0,2.516-19.838,3.5-21.817l-1.977-1.154,1.291-4.45s-1.754-8.3-5.611-12.879Z" transform="translate(-598.185 -110.517)" fill="#ccdcf8"/>
      <g id="Grupo_87241" data-name="Grupo 87241" transform="translate(16.07 13.99)">
        <g id="Grupo_87227" data-name="Grupo 87227" transform="translate(1.533 11.189)">
          <g id="Grupo_87226" data-name="Grupo 87226">
            <path id="Trazado_146675" data-name="Trazado 146675" d="M620.371,137.891s2.538,4.288.243,7c-1.286,1.511,1.4,5.366,6.291,5.291,0,0,2.2-.436,2.014-1.232-.418-1.818.348-2.8,1.184-4.136S620.371,137.891,620.371,137.891Z" transform="translate(-620.294 -137.891)" fill="#efb185"/>
          </g>
        </g>
        <g id="Grupo_87229" data-name="Grupo 87229" transform="translate(1.555 11.478)">
          <g id="Grupo_87228" data-name="Grupo 87228">
            <path id="Trazado_146676" data-name="Trazado 146676" d="M620.6,144.724a1.408,1.408,0,0,0-.3.636c1.923-1.779,5.434-1.754,5.434-1.754l-4.389-5.341c-.177-.093-.332-.177-.459-.248l-.161.445C621.331,139.809,622.32,142.706,620.6,144.724Z" transform="translate(-620.304 -138.018)" fill="#dd9569"/>
          </g>
        </g>
        <g id="Grupo_87231" data-name="Grupo 87231" transform="translate(7.073 16.251)">
          <g id="Grupo_87230" data-name="Grupo 87230">
            <path id="Trazado_146677" data-name="Trazado 146677" d="M625.816,146.111c-.323-2.873.348-2.8,1.184-4.136.234-.368-.4-1.052-1.439-1.857a3.463,3.463,0,0,0-.829.859,8.773,8.773,0,0,0-1.943,6.322,4.973,4.973,0,0,0,1.013.043C624.384,147.281,625.923,147,625.816,146.111Z" transform="translate(-622.732 -140.118)" fill="#f2b78f"/>
          </g>
        </g>
        <g id="Grupo_87240" data-name="Grupo 87240">
          <g id="Grupo_87233" data-name="Grupo 87233" transform="translate(0.454 0.197)">
            <g id="Grupo_87232" data-name="Grupo 87232">
              <path id="Trazado_146678" data-name="Trazado 146678" d="M620.059,141.672s.943,5.557,4.611,8.231c3.257,2.366,7.093,4,7.993.02.727-3.152,2.659-11.186-.08-12.945-3.527-2.259-4.729-4.911-9-3.557C623.584,133.422,618.7,135.4,620.059,141.672Z" transform="translate(-619.819 -133.054)" fill="#efb185"/>
            </g>
          </g>
          <g id="Grupo_87235" data-name="Grupo 87235" transform="translate(0.456 2.019)">
            <g id="Grupo_87234" data-name="Grupo 87234">
              <path id="Trazado_146679" data-name="Trazado 146679" d="M620.058,140.651a12.369,12.369,0,0,0,4.588,8.3,15.891,15.891,0,0,0,3.1,1.839,14.966,14.966,0,0,1-3.163-3.448c-1.3-1.659,2.077-.884-.059-5.059-.727-1.429,3.068.539,3.943.555,5.166.109,4.92-2.866,5.077-4.109a8.583,8.583,0,0,0-.359-1.552l-.441-.959c-.061-.089-.107-.177-.166-.259a17.02,17.02,0,0,0-1.588-1.916c-2.211-.057-8.5-.209-8.634-.184-.086.016-1.232,1.432-2.3,2.782A8.531,8.531,0,0,0,620.058,140.651Z" transform="translate(-619.82 -133.856)" fill="#e6a376"/>
            </g>
          </g>
          <g id="Grupo_87237" data-name="Grupo 87237">
            <g id="Grupo_87236" data-name="Grupo 87236">
              <path id="Trazado_146680" data-name="Trazado 146680" d="M622.339,147.214s-4-4.029-2.3-9.475a6.434,6.434,0,0,1,5.92-4.75,7.412,7.412,0,0,1,7.938,5.4c.493,1.509-.016,5.227-5.761,3.445-.823-.255-2.525-1.527-3.336-.857a3.041,3.041,0,0,0-.636,3.129c.284,1-.591,1.068-.7.852s-1.089-3.079-2.2-2.023C620.27,143.877,622.245,147.02,622.339,147.214Z" transform="translate(-619.62 -132.967)" fill="#231202"/>
            </g>
          </g>
          <g id="Grupo_87239" data-name="Grupo 87239" transform="translate(0 1.685)">
            <g id="Grupo_87238" data-name="Grupo 87238">
              <path id="Trazado_146681" data-name="Trazado 146681" d="M622.339,146.27c-.093-.193-2.068-3.336-1.073-4.282,1.111-1.057,2.1,1.8,2.2,2.023s.986.15.7-.852a3.041,3.041,0,0,1,.636-3.129c.736-.609,2.2.38,3.084.761a7.344,7.344,0,0,1-2.711-3.388,5.714,5.714,0,0,0-3.263-3.693,6.6,6.6,0,0,0-1.87,3.086C618.336,142.24,622.339,146.27,622.339,146.27Z" transform="translate(-619.62 -133.709)" fill="#301806"/>
            </g>
          </g>
        </g>
      </g>
      <path id="Trazado_146682" data-name="Trazado 146682" d="M624.02,140.969s10.711,10.715,7.17,39.523c0,0-1.957-18.017-4.891-20.819l1.923-2.307-3.743-1.814s-2.718-10.318-6.861-11.343C617.618,144.21,621.243,141.035,624.02,140.969Z" transform="translate(-606.097 -108.794)" fill="#ccdcf8"/>
      <g id="Grupo_87245" data-name="Grupo 87245" transform="translate(29.584)">
        <path id="Trazado_146683" data-name="Trazado 146683" d="M642.193,130.392l-.041-.05-.039-.045v0a9.307,9.307,0,0,0-16.474,4.513,9.118,9.118,0,0,0,2.83,7.8l33.364,40.741a3.458,3.458,0,0,1-.368-.584c-.023-.055-.048-.1-.068-.155a3.283,3.283,0,0,1-.229-.68,3.9,3.9,0,0,1-.077-.532.267.267,0,0,1,0-.045,4.7,4.7,0,0,1,0-.507.69.69,0,0,1,0-.1,3.205,3.205,0,0,1,.059-.548.818.818,0,0,0,.014-.093c.032-.193.073-.386.123-.591a.25.25,0,0,0,.018-.064,6.693,6.693,0,0,1,.214-.661v0l.007-.016c.084-.232.184-.457.289-.686a.592.592,0,0,0,.032-.077c.114-.227.225-.448.348-.668.009-.007.011-.02.02-.03.118-.216.257-.434.4-.652a.583.583,0,0,1,.039-.057c.141-.216.291-.425.445-.636l.03-.03c.168-.216.336-.427.514-.636a.569.569,0,0,0,.048-.052c.173-.2.359-.4.543-.6l.018-.016c.2-.2.393-.391.6-.58a.883.883,0,0,1,.066-.064c.166-.15.336-.3.514-.448.045-.039.093-.082.143-.12.109-.089.223-.173.327-.255.136-.107.264-.207.4-.3.209-.152.418-.3.639-.441l.009-.009,0,0c.239-.152.473-.3.718-.436l.027-.016v0c.241-.139.48-.266.727-.386.023-.009.039-.02.061-.032.227-.111.461-.216.691-.314a.4.4,0,0,0,.086-.034c.225-.1.461-.182.693-.259a.464.464,0,0,1,.068-.023c.239-.082.482-.155.723-.216l.034-.011c.255-.061.511-.116.759-.157a7.087,7.087,0,0,1,.72-.089.337.337,0,0,1,.048,0,5.576,5.576,0,0,1,.671-.02l.032,0c.209.007.409.025.6.05l.055,0a5.427,5.427,0,0,1,.541.116.208.208,0,0,1,.052.018,3.319,3.319,0,0,1,.466.159c.034.014.063.03.093.041a4.364,4.364,0,0,1,.436.225.687.687,0,0,0,.08.061,2.824,2.824,0,0,1,.318.236,3.259,3.259,0,0,1,.384.389Z" transform="translate(-625.566 -126.811)" fill="#2bb4da"/>
        <path id="Trazado_146684" data-name="Trazado 146684" d="M628.468,140.406l23.526,28.724,5.725-4.891-30.5-35.694a9.006,9.006,0,0,0-1.58,4.061A9.118,9.118,0,0,0,628.468,140.406Z" transform="translate(-625.566 -124.605)" fill="#27a7c4"/>
        <path id="Trazado_146685" data-name="Trazado 146685" d="M634.539,145.292a2.631,2.631,0,0,1,.12-.286c.021-.048.048-.093.066-.143a.326.326,0,0,0,.018-.043.859.859,0,0,1,.052-.1c.043-.1.091-.191.141-.286s.107-.2.159-.289.114-.193.171-.289.12-.2.182-.293c.025-.036.048-.068.068-.1.014-.02.027-.041.039-.061a1.465,1.465,0,0,1,.091-.125c.066-.1.134-.2.2-.293.05-.068.1-.139.152-.2.016-.018.025-.034.041-.052l.023-.03c.073-.093.143-.186.218-.277s.146-.184.221-.273l.05-.048a.283.283,0,0,1,.032-.041l.148-.166c.077-.084.15-.166.23-.252.052-.059.111-.116.166-.173l.041-.043.029-.027c.075-.084.157-.166.243-.248s.179-.175.275-.261a.213.213,0,0,0,.045-.045c.016-.011.029-.03.05-.043.077-.068.15-.139.232-.2a3.541,3.541,0,0,1,.286-.241c.052-.048.1-.1.161-.139a.311.311,0,0,0,.048-.048c.082-.061.17-.123.255-.189.132-.107.27-.211.411-.316a.461.461,0,0,1,.064-.045c.191-.141.391-.275.589-.407.134-.084.271-.173.407-.25.111-.07.22-.136.339-.2v0l0,0c.111-.064.227-.127.339-.186s.227-.118.339-.173c.016-.011.039-.02.055-.03a.429.429,0,0,0,.057-.03c.077-.034.155-.075.234-.111.116-.055.234-.107.352-.159l.114-.043a.382.382,0,0,1,.079-.032c.052-.025.109-.05.168-.073q.184-.072.361-.136c.055-.018.107-.036.168-.055.02-.007.043-.014.064-.023l.125-.043c.111-.034.227-.07.343-.1l.252-.066a.138.138,0,0,1,.036-.009l.045-.014c.109-.023.214-.052.323-.073s.214-.041.32-.064l.07-.009c.08-.016.157-.03.234-.039.1-.011.2-.025.3-.036.07-.007.134-.009.2-.011l.025-.007a.57.57,0,0,0,.064,0c.1,0,.189-.011.282-.014s.191,0,.28,0l.057,0h.029l.186.007c.1.007.189.014.28.027l.139.016.048.007.084.014c.1.018.193.036.284.059.059.011.109.027.168.041a.306.306,0,0,1,.055.016.219.219,0,0,1,.061.016c.1.027.2.061.293.1.036.018.08.036.118.052s.064.027.093.043l.1.039a2.971,2.971,0,0,1,.334.186l.009,0a.54.54,0,0,1,.048.036,3.005,3.005,0,0,1,.323.234l.023.02a2.812,2.812,0,0,1,.382.391l35.144,42.914a2.863,2.863,0,0,0-.389-.391,3.021,3.021,0,0,0-.316-.239.614.614,0,0,1-.077-.061,3.9,3.9,0,0,0-.436-.22l-.093-.045a4.327,4.327,0,0,0-.466-.161.5.5,0,0,0-.057-.014,4.895,4.895,0,0,0-.539-.118l-.052,0c-.193-.025-.391-.043-.6-.05l-.034,0c-.216,0-.443,0-.668.016a.294.294,0,0,1-.041,0c-.239.02-.482.045-.729.086s-.5.1-.759.161l-.034.009c-.239.064-.482.134-.72.218a.187.187,0,0,0-.068.023c-.234.077-.468.161-.7.259l-.082.032c-.236.1-.464.2-.693.314l-.066.034c-.243.12-.486.248-.725.384l0,0-.023.018c-.243.136-.482.28-.718.439l-.007,0-.011.007c-.214.141-.429.289-.634.441-.134.1-.266.2-.4.3-.107.084-.223.168-.327.257-.048.041-.1.08-.146.12-.173.145-.343.3-.511.445a.805.805,0,0,1-.068.059c-.209.191-.407.386-.6.589l-.021.016c-.182.193-.366.393-.545.6a.445.445,0,0,1-.043.05c-.184.211-.355.42-.514.636l-.027.032c-.154.207-.309.418-.448.634l-.041.057c-.141.218-.279.434-.4.654l-.016.03c-.12.223-.236.443-.35.668-.009.025-.02.052-.032.077-.1.227-.2.457-.286.684l0,.018h0a6.463,6.463,0,0,0-.209.664l-.02.061c-.052.2-.093.4-.125.591l-.016.091a4.6,4.6,0,0,0-.057.552.717.717,0,0,0,0,.1,4.559,4.559,0,0,0,.007.5l0,.05a4.974,4.974,0,0,0,.077.532,3.843,3.843,0,0,0,.227.679c.027.052.045.1.073.152.1.207.211.157.357.334l-35.132-42.664a2.994,2.994,0,0,1-.364-.584c-.023-.05-.055-.1-.077-.15a3.975,3.975,0,0,1-.225-.684v0a3.344,3.344,0,0,1-.077-.5v-.023a.15.15,0,0,0,0-.043c0-.109-.011-.22-.014-.336,0-.057.007-.114,0-.175a.557.557,0,0,0,.007-.089c0-.034,0-.061,0-.1.011-.114.025-.227.039-.343.007-.039.013-.086.023-.125l.009-.077c0-.036.011-.075.016-.118.023-.1.048-.2.073-.307a1.333,1.333,0,0,1,.045-.17l.011-.068a.307.307,0,0,0,.016-.068c.032-.1.059-.193.1-.293a2.557,2.557,0,0,1,.1-.3l0-.018Q634.481,145.428,634.539,145.292Z" transform="translate(-614.858 -113.588)" fill="#edf9f5"/>
        <path id="Trazado_146686" data-name="Trazado 146686" d="M678.53,178.772a9.058,9.058,0,0,1-1.525,3.977,2.883,2.883,0,0,1,.639,2.2,2.975,2.975,0,0,1-5.345,1.341,9.331,9.331,0,0,1-9.04-1.766l-23.3-28.339c2.836-8.913,11.943-11.324,14.347-11.44l21.842,26.676A9.1,9.1,0,0,1,678.53,178.772Z" transform="translate(-607.252 -103.993)" fill="#ffce00"/>
        <g id="Grupo_87244" data-name="Grupo 87244" transform="translate(12.473 16.52)">
          <g id="Grupo_87242" data-name="Grupo 87242">
            <path id="Trazado_146687" data-name="Trazado 146687" d="M647,134.245c-6.247,1.032-13.086,6.641-15.265,12.527s1.107,9.822,7.354,8.8c6.27-1.029,13.106-6.645,15.286-12.527S653.262,133.213,647,134.245Z" transform="translate(-631.054 -134.081)" fill="#abd9ce"/>
          </g>
          <g id="Grupo_87243" data-name="Grupo 87243" transform="translate(1.622 1.532)">
            <path id="Trazado_146688" data-name="Trazado 146688" d="M646.926,134.914c-5.936.989-12.431,6.343-14.513,11.956s1.039,9.356,6.963,8.365c5.956-1,12.458-6.343,14.538-11.958S652.874,133.921,646.926,134.914Z" transform="translate(-631.768 -134.755)" fill="#edf9f5"/>
          </g>
        </g>
        <path id="Trazado_146689" data-name="Trazado 146689" d="M645.3,136.262c4.172-.7,6.629,1.516,6.084,5.1l-1.218-1.486a2.811,2.811,0,0,0-.382-.391l-.023-.02a3.012,3.012,0,0,0-.323-.234.55.55,0,0,0-.048-.036l-.009,0a2.972,2.972,0,0,0-.334-.186l-.1-.039c-.029-.016-.061-.03-.093-.043s-.082-.034-.118-.052c-.1-.034-.193-.068-.293-.1a.218.218,0,0,0-.061-.016.3.3,0,0,0-.055-.016c-.059-.014-.109-.03-.168-.041-.091-.023-.186-.041-.284-.059l-.084-.014-.048-.007-.138-.016c-.091-.014-.182-.02-.28-.027l-.186-.007h-.029l-.057,0c-.089,0-.184,0-.28,0s-.186.009-.282.014a.57.57,0,0,1-.064,0l-.025.007c-.068,0-.132,0-.2.011-.1.011-.2.025-.3.036-.077.009-.154.023-.234.039l-.07.009c-.107.023-.214.041-.32.064s-.214.05-.323.073l-.045.014a.139.139,0,0,0-.036.009l-.252.066c-.116.034-.232.07-.343.1l-.125.043c-.021.009-.043.016-.064.023-.061.018-.114.036-.168.055q-.177.065-.361.136c-.059.023-.116.048-.168.073a.381.381,0,0,0-.079.032l-.114.043c-.118.052-.236.1-.352.159-.08.036-.157.077-.234.111a.429.429,0,0,1-.057.03c-.016.009-.039.018-.055.03-.111.055-.225.111-.339.173s-.227.123-.339.186l0,0v0c-.118.064-.227.13-.339.2-.136.077-.273.166-.407.25-.2.132-.4.266-.589.407a.457.457,0,0,0-.064.045c-.141.1-.28.209-.411.316-.084.066-.173.127-.255.189a.313.313,0,0,1-.048.048c-.057.043-.109.091-.161.139a3.544,3.544,0,0,0-.286.241c-.082.066-.154.136-.232.2-.021.014-.034.032-.05.043a.216.216,0,0,1-.045.045c-.1.086-.186.175-.275.261s-.168.164-.243.248l-.029.027-.041.043c-.055.057-.114.114-.166.173-.08.086-.152.168-.23.252l-.148.166a.287.287,0,0,0-.032.041l-.05.048c-.075.089-.15.182-.221.273s-.145.184-.218.277l-.023.03c-.016.018-.025.034-.041.052-.05.066-.1.136-.152.2-.068.1-.136.193-.2.293a1.48,1.48,0,0,0-.091.125c-.011.02-.025.041-.039.061-.021.036-.043.068-.068.1-.061.1-.125.193-.182.293s-.114.191-.17.289-.107.193-.159.289-.1.189-.141.286a.85.85,0,0,0-.052.1.343.343,0,0,1-.018.043c-.018.05-.045.1-.066.143a2.619,2.619,0,0,0-.12.286q-.058.136-.109.273l0,.018a2.557,2.557,0,0,0-.1.3c-.036.1-.064.2-.1.293a.3.3,0,0,1-.016.068l-.011.068a1.343,1.343,0,0,0-.045.17c-.025.1-.05.2-.073.307,0,.043-.011.082-.016.118l-.009.077c-.009.039-.016.086-.023.125-.014.116-.027.23-.039.343,0,.034,0,.061,0,.1a.557.557,0,0,1-.007.089c0,.061,0,.118,0,.175,0,.116.009.227.014.336a.15.15,0,0,1,0,.043v.023a3.344,3.344,0,0,0,.077.5v0a3.931,3.931,0,0,0,.225.686c.023.05.055.1.078.15a3,3,0,0,0,.364.584l1.064,1.3c-3.348-.332-4.893-3.059-3.486-6.861A16.8,16.8,0,0,1,645.3,136.262Z" transform="translate(-616.079 -114.946)" fill="#abd9ce"/>
        <path id="Trazado_146690" data-name="Trazado 146690" d="M656.058,164.216s-3.288,4.972-.889,7.022S658.058,166.927,656.058,164.216Z" transform="translate(-589.007 -79.21)" fill="#ffce00"/>
        <path id="Trazado_146691" data-name="Trazado 146691" d="M636.584,139.542a.283.283,0,0,0-.032.041l-.05.048c-.075.089-.15.182-.221.273s-.145.184-.218.277l-.023.03c-.016.018-.025.034-.041.052-.05.066-.1.136-.152.2-.068.1-.136.193-.2.293a1.468,1.468,0,0,0-.091.125c-.011.02-.025.041-.039.061-.021.036-.043.068-.068.1-.061.1-.125.193-.182.293s-.114.191-.171.289-.107.193-.159.289-.1.189-.141.286a.861.861,0,0,0-.052.1.326.326,0,0,1-.018.043c-.018.05-.045.1-.066.143a2.632,2.632,0,0,0-.12.286q-.058.136-.109.273l0,.018a2.557,2.557,0,0,0-.1.3c-.036.1-.064.2-.1.293a.307.307,0,0,1-.016.068l-.011.068a1.333,1.333,0,0,0-.045.17c-.025.1-.05.2-.073.307,0,.043-.011.082-.016.118l-.009.077c-.009.039-.016.086-.023.125-.014.116-.027.23-.039.343,0,.034,0,.061,0,.1a.557.557,0,0,1-.007.089c0,.061,0,.118,0,.175,0,.116.009.227.014.336a.15.15,0,0,1,0,.043v.023a3.344,3.344,0,0,0,.077.5v0a3.937,3.937,0,0,0,.225.686c.023.05.055.1.077.15a2.993,2.993,0,0,0,.364.584l12.843,15.59-.021.048,21.985,26.737a.416.416,0,0,0,.07.089l1.245,1.514a9.331,9.331,0,0,0,9.04,1.766,2.98,2.98,0,0,0,2.027,1.193,3.028,3.028,0,0,0,.32.009l-45.336-55.4c-.061.07-.125.134-.184.2Z" transform="translate(-614.858 -111.079)" fill="#fff" opacity="0.2"/>
      </g>
      <g id="Grupo_87248" data-name="Grupo 87248" transform="translate(8.129 29.387)">
        <path id="Trazado_146692" data-name="Trazado 146692" d="M617.67,143.96c-1.843,1.036-3.138,5.059,2.818,7.193s18.472,7.2,20.526,5.811c1.67-1.123,3.445-4.034-3.832-7.3S622.217,141.4,617.67,143.96Z" transform="translate(-616.125 -135.272)" fill="#f9f9f9"/>
        <g id="Grupo_87247" data-name="Grupo 87247" transform="translate(35.945)">
          <g id="Grupo_87246" data-name="Grupo 87246">
            <path id="Trazado_146693" data-name="Trazado 146693" d="M633.785,147.7a28.062,28.062,0,0,1,4.129-1.534c.866-.084,2.448-1.852,2.8-2.9s1-3.952-.557-3.468-2.18,1.048-3.2,1.209a6.973,6.973,0,0,0-3.2,1.8c-.434.6-1.818,2.5-1.818,2.5Z" transform="translate(-631.942 -139.742)" fill="#efb185"/>
          </g>
        </g>
        <path id="Trazado_146694" data-name="Trazado 146694" d="M624.958,156.275s1.823,4.354,5.477,2.729,13.372-13.549,13.372-13.549-3.063-2-2.416-3.829C641.391,141.626,625.294,152.125,624.958,156.275Z" transform="translate(-604.885 -137.345)" fill="#f9f9f9"/>
      </g>
    </g>
  </g>
</svg>
